#N canvas 1 76 450 300 10;
#X obj 140 134 pack f f;
#X floatatom 128 56 5 0 0 0 - - -, f 5;
#X floatatom 201 47 5 0 0 0 - - -, f 5;
#X obj 160 79 t b f;
#X obj 127 105 f;
#X obj 199 15 inlet Pontos;
#X obj 125 177 route 0 1 2 3 4 5;
#X obj 95 256 outlet Geral;
#X obj 196 254 outlet Final 1;
#X obj 313 251 outlet Final2;
#X obj 65 16 r Mode;
#X connect 0 0 6 0;
#X connect 1 0 4 1;
#X connect 2 0 3 0;
#X connect 3 0 4 0;
#X connect 3 1 0 1;
#X connect 4 0 0 0;
#X connect 5 0 2 0;
#X connect 6 3 7 0;
#X connect 6 4 8 0;
#X connect 6 5 9 0;
#X connect 10 0 1 0;
