#N canvas 663 182 677 368 10;
#X obj 98 137 spigot;
#X obj 236 139 spigot;
#X obj 162 118 == 0;
#X obj 360 122 == 1;
#X obj 534 6 inlet control;
#X obj 91 262 outlet;
#X obj 101 18 inlet signal 1, f 15;
#X obj 259 19 inlet signal 2, f 15;
#X obj 534 28 t f f;
#X connect 0 0 5 0;
#X connect 1 0 5 0;
#X connect 2 0 0 1;
#X connect 3 0 1 1;
#X connect 4 0 8 0;
#X connect 6 0 0 0;
#X connect 7 0 1 0;
#X connect 8 0 2 0;
#X connect 8 1 3 0;
