#N canvas 111 225 677 368 10;
#X obj 98 137 spigot;
#X obj 236 139 spigot;
#X obj 131 106 == 0;
#X obj 277 101 == 1;
#X obj 534 6 inlet control;
#X obj 98 269 outlet;
#X obj 101 18 inlet signal, f 15;
#X obj 236 271 outlet;
#X connect 0 0 5 0;
#X connect 1 0 7 0;
#X connect 2 0 0 1;
#X connect 3 0 1 1;
#X connect 4 0 3 0;
#X connect 4 0 2 0;
#X connect 6 0 0 0;
#X connect 6 0 1 0;
