#N canvas 1 76 450 300 10;
#X obj 30 156 spigot;
#X obj 73 131 == 0;
#X obj 189 30 inlet Porta;
#X obj 94 156 spigot;
#X obj 137 131 == 1;
#X obj 161 161 spigot;
#X obj 204 136 == 2;
#X obj 29 48 t a a a;
#X obj 29 26 inlet Mensagem;
#X obj 189 52 t f f f;
#X obj 28 219 outlet;
#X obj 87 218 outlet;
#X obj 149 222 outlet;
#X connect 0 0 10 0;
#X connect 1 0 0 1;
#X connect 2 0 9 0;
#X connect 3 0 11 0;
#X connect 4 0 3 1;
#X connect 5 0 12 0;
#X connect 6 0 5 1;
#X connect 7 0 0 0;
#X connect 7 1 3 0;
#X connect 7 2 5 0;
#X connect 8 0 7 0;
#X connect 9 0 1 0;
#X connect 9 1 4 0;
#X connect 9 2 6 0;
