#N canvas 41 92 702 494 10;
#X obj 148 23 inlet;
#X obj 239 174 f;
#X obj 127 233 f;
#X obj 127 283 + 0;
#X floatatom 153 80 5 0 0 0 - - -, f 5;
#X obj 260 -4 bng 15 250 50 0 empty empty empty 17 7 0 10 -262144 -1
-1;
#X obj 127 382 /;
#X obj 109 460 outlet;
#X obj 313 300 sel \$1;
#X obj 109 423 f;
#X obj 313 322 t b b;
#X floatatom 215 245 5 0 0 0 - - -, f 5;
#X floatatom 10 328 5 0 0 0 - - -, f 5;
#X obj 20 77 print BAGAS;
#X obj 269 256 t f f;
#X obj 352 352 s \$0-count;
#X obj 257 149 r \$0-count;
#X obj 239 199 + 1;
#X obj 313 380 s \$0-reset;
#X obj 275 18 r \$0-reset;
#X obj 127 305 t f f;
#X obj 154 105 t b b f, f 9;
#X floatatom 381 112 5 0 0 0 - - -, f 5;
#X obj 159 332 s \$0-to_add;
#X msg 265 46 \$0-to_add 0 \; \$0-count 0 \; \$0-add 0 \;;
#X obj 145 206 r \$0-to_add;
#X obj 145 261 r \$0-add;
#X obj 214 128 s \$0-add;
#X connect 0 0 4 0;
#X connect 0 0 13 0;
#X connect 1 0 17 0;
#X connect 2 0 3 0;
#X connect 3 0 20 0;
#X connect 4 0 21 0;
#X connect 5 0 24 0;
#X connect 6 0 9 1;
#X connect 8 0 10 0;
#X connect 8 1 15 0;
#X connect 9 0 7 0;
#X connect 10 0 18 0;
#X connect 10 1 9 0;
#X connect 14 0 6 1;
#X connect 14 1 8 0;
#X connect 16 0 1 1;
#X connect 17 0 11 0;
#X connect 17 0 14 0;
#X connect 19 0 24 0;
#X connect 20 0 6 0;
#X connect 20 1 23 0;
#X connect 21 0 2 0;
#X connect 21 1 1 0;
#X connect 21 2 27 0;
#X connect 24 0 22 0;
#X connect 25 0 2 1;
#X connect 26 0 3 1;
