#N canvas 102 119 945 530 10;
#X obj 72 38 inlet;
#X obj 230 237 f;
#X obj 47 220 f;
#X obj 47 270 + 0;
#X floatatom 72 62 5 0 0 0 - - -, f 5;
#X obj 79 487 outlet;
#X obj 79 450 f;
#X obj 154 412 t b b;
#X floatatom 230 308 5 0 0 0 - - -, f 5;
#X floatatom -2 261 5 0 0 0 - - -, f 5;
#X obj 202 386 s \$0-count;
#X obj 248 212 r \$0-count;
#X obj 230 262 + 1;
#X obj 144 475 s \$0-reset;
#X obj 485 53 r \$0-reset;
#X obj 47 292 t f f;
#X obj 73 87 t b b f, f 9;
#X obj 79 319 s \$0-to_add;
#X obj 65 193 r \$0-to_add;
#X obj 65 248 r \$0-add;
#X obj 133 110 s \$0-add;
#X obj 485 186 f \$0;
#X obj 21 162 bng 15 250 50 0 empty empty empty 17 7 0 10 -262144 -1
-1;
#X obj 92 225 bng 15 250 50 0 empty empty empty 17 7 0 10 -262144 -1
-1;
#X obj 552 200 bng 15 250 50 0 empty empty empty 17 7 0 10 -262144
-1 -1;
#X obj 437 144 bng 15 250 50 0 empty empty empty 17 7 0 10 -262144
-1 -1;
#X floatatom 433 235 5 0 0 0 - - -, f 5;
#X floatatom 22 485 5 0 0 0 - - -, f 5;
#X obj 505 91 bng 15 250 50 0 empty empty empty 17 7 0 10 -262144 -1
-1;
#X obj 287 276 bng 15 250 50 0 empty empty empty 17 7 0 10 -262144
-1 -1;
#X msg 485 230 \$1-add 0 \; \$1-to_add 0 \; \$1-count 0 \;;
#X obj 240 50 inlet;
#X obj 265 86 t b f;
#X obj 47 369 /;
#X obj 169 346 sel;
#X connect 0 0 4 0;
#X connect 1 0 12 0;
#X connect 2 0 3 0;
#X connect 2 0 9 0;
#X connect 3 0 15 0;
#X connect 4 0 16 0;
#X connect 6 0 5 0;
#X connect 6 0 27 0;
#X connect 7 0 13 0;
#X connect 7 1 6 0;
#X connect 11 0 1 1;
#X connect 11 0 29 0;
#X connect 12 0 8 0;
#X connect 12 0 34 0;
#X connect 14 0 21 0;
#X connect 14 0 28 0;
#X connect 15 0 33 0;
#X connect 15 1 17 0;
#X connect 16 0 1 0;
#X connect 16 1 2 0;
#X connect 16 2 20 0;
#X connect 18 0 2 1;
#X connect 18 0 23 0;
#X connect 19 0 3 1;
#X connect 21 0 30 0;
#X connect 21 0 26 0;
#X connect 22 0 2 0;
#X connect 24 0 30 0;
#X connect 25 0 21 0;
#X connect 31 0 32 0;
#X connect 32 0 25 0;
#X connect 32 1 33 1;
#X connect 32 1 34 1;
#X connect 33 0 6 1;
#X connect 34 0 7 0;
#X connect 34 1 10 0;
