#N canvas 449 216 814 548 10;
#X obj 284 88 r <PD;
#X obj 208 18 web-server 8999 PD;
#X obj 20 218 s PD>;
#X msg 20 195 hello \$1;
#X text -17 17 the world's worst webserver ->;
#X floatatom 208 40 5 0 0 1 _connections - -, f 5;
#X text 16 83 sending to the browser;
#X text 276 66 receiving from the browser;
#X msg 119 176 bang;
#X obj 119 198 metro 1000;
#X obj 119 220 0;
#X obj 149 220 + 1;
#X obj 119 248 s PD>;
#X obj 20 173 tgl 15 0 empty empty empty 17 7 0 10 -262144 -1 -1 0
1;
#X obj 760 260 print NOTSET;
#X obj 264 213 tgl 15 0 empty empty empty 17 7 0 10 -262144 -1 -1 0
1;
#X obj 307 206 tgl 15 0 empty empty empty 17 7 0 10 -262144 -1 -1 0
1;
#X obj 442 433 print HELLO;
#X obj 284 112 list;
#X obj 284 139 route list;
#X msg 410 463 \; PD> Barulhometro is connected;
#X obj 410 405 t b b;
#X obj 524 373 s FinalNome-1;
#X obj 580 349 s FinalNome-2;
#X obj 202 311 r FinalNome-2;
#X obj 31 302 r FinalNome-1;
#X obj 30 393 s PD>;
#X obj 34 335 list;
#X obj 216 398 s PD>;
#X obj 220 340 list;
#X obj 202 369 list prepend Finalista 2:;
#X obj 16 364 list prepend Finalista 1:;
#X obj 468 404 send withBarulho-r;
#X obj 637 315 send BarraNoise-r;
#X obj 294 169 route test1 test2 hello noiseJuri final1 final2 animation
vumeter, f 67;
#X obj 695 252 s chkSoundIN-r;
#X connect 0 0 18 0;
#X connect 1 0 5 0;
#X connect 3 0 2 0;
#X connect 8 0 9 0;
#X connect 9 0 10 0;
#X connect 10 0 11 0;
#X connect 10 0 12 0;
#X connect 11 0 10 1;
#X connect 13 0 3 0;
#X connect 18 0 19 0;
#X connect 19 0 34 0;
#X connect 21 0 20 0;
#X connect 21 1 17 0;
#X connect 24 0 29 0;
#X connect 25 0 27 0;
#X connect 27 0 31 0;
#X connect 29 0 30 0;
#X connect 30 0 28 0;
#X connect 31 0 26 0;
#X connect 34 0 15 0;
#X connect 34 1 16 0;
#X connect 34 2 21 0;
#X connect 34 3 32 0;
#X connect 34 4 22 0;
#X connect 34 5 23 0;
#X connect 34 6 33 0;
#X connect 34 7 35 0;
#X connect 34 8 14 0;
