#N canvas 511 100 305 167 10;
#N canvas 659 141 450 464 prepare 1;
#X obj 22 15 inlet;
#X obj 22 366 list prepend send;
#X obj 22 388 list trim;
#N canvas 1130 368 450 300 convert-to-symbols 0;
#X obj 11 10 inlet;
#X obj 30 132 route float symbol;
#N canvas 1131 439 450 300 format 0;
#X obj 13 11 inlet;
#X obj 13 33 t a a;
#X obj 13 55 t a a;
#X obj 13 77 int;
#X obj 13 99 ==;
#X obj 13 157 route 0 1;
#X obj 13 179 makefilename %f;
#X obj 38 201 makefilename %d;
#X obj 13 238 outlet;
#X obj 13 135 list append;
#X connect 0 0 1 0;
#X connect 1 0 2 0;
#X connect 1 1 9 1;
#X connect 2 0 3 0;
#X connect 2 1 4 1;
#X connect 3 0 4 0;
#X connect 4 0 9 0;
#X connect 5 0 6 0;
#X connect 5 1 7 0;
#X connect 6 0 8 0;
#X connect 7 0 8 0;
#X connect 9 0 5 0;
#X restore 30 154 pd format;
#X obj 30 77 list split 1;
#X obj 64 100 t l;
#X obj 11 32 t b a b;
#X obj 11 229 list;
#X obj 30 198 t l l;
#X obj 11 251 outlet;
#X obj 30 176 list append;
#X connect 0 0 5 0;
#X connect 1 0 2 0;
#X connect 1 1 9 0;
#X connect 2 0 9 0;
#X connect 3 0 1 0;
#X connect 3 1 4 0;
#X connect 4 0 3 0;
#X connect 5 0 6 0;
#X connect 5 1 3 0;
#X connect 5 2 9 1;
#X connect 6 0 8 0;
#X connect 7 0 6 1;
#X connect 7 1 9 1;
#X connect 9 0 7 0;
#X restore 22 41 pd convert-to-symbols;
#X obj 22 410 outlet;
#N canvas 130 561 450 369 to-bin 0;
#X obj 12 9 inlet;
#X obj 29 61 list split 1;
#X obj 29 182 list fromsymbol;
#X obj 12 297 outlet;
#X obj 29 229 list append;
#X obj 12 276 list;
#X obj 29 252 t l l;
#X msg 121 140 10;
#X obj 29 206 list append;
#X msg 29 139 32;
#X obj 63 82 t l l;
#X obj 12 31 t b a b b;
#X obj 29 113 t b a;
#X connect 0 0 11 0;
#X connect 1 0 12 0;
#X connect 1 1 10 0;
#X connect 2 0 8 0;
#X connect 4 0 6 0;
#X connect 5 0 3 0;
#X connect 6 0 4 1;
#X connect 6 1 5 1;
#X connect 7 0 8 1;
#X connect 8 0 4 0;
#X connect 9 0 8 1;
#X connect 10 0 1 0;
#X connect 11 0 5 0;
#X connect 11 1 1 0;
#X connect 11 2 4 1;
#X connect 11 3 7 0;
#X connect 12 0 9 0;
#X connect 12 1 2 0;
#X restore 43 93 pd to-bin;
#X obj 77 174 list length;
#N canvas 7 48 445 300 header 0;
#X obj 9 8 inlet;
#X obj 9 207 outlet;
#X text 56 7 ./convert.py header.txt;
#X msg 9 30 72 84 84 80 47 49 46 48 32 50 48 48 32 79 75 10 67 111
110 116 101 110 116 45 84 121 112 101 58 32 116 101 120 116 47 112
108 97 105 110 10 65 99 99 101 115 115 45 67 111 110 116 114 111 108
45 65 108 108 111 119 45 79 114 105 103 105 110 58 32 42 10 65 99 99
101 115 115 45 67 111 110 116 114 111 108 45 69 120 112 111 115 101
45 72 101 97 100 101 114 115 58 32 88 45 87 105 103 103 108 101 115
45 73 68 10 67 111 110 110 101 99 116 105 111 110 58 32 75 101 101
112 45 65 108 105 118 101 10;
#X connect 0 0 3 0;
#X connect 3 0 1 0;
#X restore 260 122 pd header;
#X obj 22 67 t b a b;
#X obj 22 184 list;
#X obj 233 26 r \$0/POST;
#X msg 250 95 0;
#X obj 233 48 delay 100;
#X obj 233 73 t b b b b;
#X obj 43 115 t a b a b;
#N canvas 2 48 450 300 message-id-header 0;
#X obj 14 12 inlet;
#X obj 165 77 loadbang;
#X obj 165 121 list fromsymbol;
#X obj 165 143 list append 32;
#X obj 14 201 list prepend;
#X obj 14 245 outlet;
#X obj 14 83 makefilename %d;
#X obj 14 105 list fromsymbol;
#X msg 14 34 bang;
#X obj 14 56 0;
#X obj 44 56 + 1;
#X msg 165 99 symbol X-Wiggles-ID:;
#X obj 14 223 list append 10;
#X connect 0 0 8 0;
#X connect 1 0 11 0;
#X connect 2 0 3 0;
#X connect 3 0 4 1;
#X connect 4 0 12 0;
#X connect 6 0 7 0;
#X connect 7 0 4 0;
#X connect 8 0 9 0;
#X connect 9 0 10 0;
#X connect 9 0 6 0;
#X connect 10 0 9 1;
#X connect 11 0 2 0;
#X connect 12 0 5 0;
#X restore 240 198 pd message-id-header;
#N canvas 2 48 450 300 content-length-header 0;
#X obj 14 12 inlet;
#X obj 165 28 loadbang;
#X obj 165 72 list fromsymbol;
#X obj 165 94 list append 32;
#X obj 14 152 list prepend;
#X obj 14 196 outlet;
#X msg 165 50 symbol Content-Length:;
#X obj 14 34 makefilename %d;
#X obj 14 56 list fromsymbol;
#X obj 14 174 list append 10;
#X connect 0 0 7 0;
#X connect 1 0 6 0;
#X connect 2 0 3 0;
#X connect 3 0 4 1;
#X connect 4 0 9 0;
#X connect 6 0 2 0;
#X connect 7 0 8 0;
#X connect 8 0 4 0;
#X connect 9 0 5 0;
#X restore 77 198 pd content-length-header;
#X obj 60 225 list 10;
#X connect 0 0 3 0;
#X connect 1 0 2 0;
#X connect 2 0 4 0;
#X connect 3 0 8 0;
#X connect 5 0 14 0;
#X connect 6 0 16 0;
#X connect 7 0 1 0;
#X connect 8 0 9 0;
#X connect 8 1 5 0;
#X connect 8 2 7 0;
#X connect 9 0 1 0;
#X connect 10 0 12 0;
#X connect 11 0 16 0;
#X connect 12 0 13 0;
#X connect 13 0 17 0;
#X connect 13 1 11 0;
#X connect 13 2 7 0;
#X connect 14 0 9 1;
#X connect 14 1 17 0;
#X connect 14 2 6 0;
#X connect 14 3 15 0;
#X connect 15 0 1 0;
#X connect 16 0 1 0;
#X connect 17 0 1 0;
#X restore 17 41 pd prepare;
#N canvas 865 97 450 566 parse-request 0;
#X obj 9 10 inlet;
#X obj 9 288 list;
#X obj 66 470 outlet;
#X obj 74 186 spigot 0;
#X obj 9 72 sel 10 30;
#X msg 48 146 0;
#X obj 74 213 list prepend;
#X obj 74 235 t l l;
#X obj 9 336 route bang;
#X text 75 71 <- incoming messages start with 0x1E and end with 10
(cr);
#X msg 119 146 1;
#X obj 34 94 t b b b;
#X obj 9 124 t b b b;
#X obj 9 310 list trim;
#X obj 66 359 list tosymbol;
#X obj 66 448 netreceive 735353;
#X obj 66 381 list prepend send;
#X obj 66 403 list trim;
#X msg 214 373 connect localhost 735353;
#X obj 214 329 loadbang;
#X obj 66 425 netsend;
#X text 33 358 lol;
#X obj 214 351 delay 100;
#N canvas 2 48 450 535 detect-post 0;
#X obj 11 9 inlet;
#X obj 11 31 t a a;
#X obj 38 119 f;
#X obj 38 96 t f b;
#X obj 38 164 f;
#X obj 38 141 t f b;
#X obj 38 209 f;
#X obj 38 186 t f b;
#X obj 11 323 outlet;
#X obj 38 253 f;
#X obj 38 230 t f b;
#X obj 256 130 == 84;
#X obj 273 213 &&;
#X obj 146 425 sel 1;
#X obj 322 188 == 83;
#X obj 180 226 == 79;
#X obj 144 343 &&;
#X obj 81 277 == 80;
#X obj 168 375 &&;
#X obj 38 75 f;
#X obj 38 52 t f b;
#X obj 201 63 == 32;
#X obj 146 401 &&;
#X obj 146 447 s \$0/POST;
#X connect 0 0 1 0;
#X connect 1 0 8 0;
#X connect 1 1 20 0;
#X connect 2 0 5 0;
#X connect 2 0 11 0;
#X connect 3 0 2 1;
#X connect 3 1 2 0;
#X connect 4 0 7 0;
#X connect 4 0 14 0;
#X connect 5 0 4 1;
#X connect 5 1 4 0;
#X connect 6 0 10 0;
#X connect 6 0 15 0;
#X connect 7 0 6 1;
#X connect 7 1 6 0;
#X connect 9 0 17 0;
#X connect 10 0 9 1;
#X connect 10 1 9 0;
#X connect 11 0 12 0;
#X connect 12 0 18 0;
#X connect 13 0 23 0;
#X connect 14 0 12 1;
#X connect 15 0 16 0;
#X connect 16 0 18 1;
#X connect 17 0 16 1;
#X connect 18 0 22 1;
#X connect 19 0 3 0;
#X connect 19 0 21 0;
#X connect 20 0 19 1;
#X connect 20 1 19 0;
#X connect 21 0 22 0;
#X connect 22 0 13 0;
#X restore 9 32 pd detect-post;
#X connect 0 0 23 0;
#X connect 1 0 13 0;
#X connect 3 0 6 0;
#X connect 4 0 12 0;
#X connect 4 1 11 0;
#X connect 4 2 3 0;
#X connect 5 0 3 1;
#X connect 6 0 7 0;
#X connect 7 0 1 1;
#X connect 7 1 6 1;
#X connect 8 1 14 0;
#X connect 10 0 3 1;
#X connect 11 0 6 1;
#X connect 11 1 10 0;
#X connect 12 0 1 1;
#X connect 12 1 1 0;
#X connect 12 2 5 0;
#X connect 13 0 8 0;
#X connect 14 0 16 0;
#X connect 15 0 2 0;
#X connect 16 0 17 0;
#X connect 17 0 20 0;
#X connect 18 0 20 0;
#X connect 19 0 22 0;
#X connect 22 0 18 0;
#X connect 23 0 4 0;
#X restore 17 110 pd parse-request;
#X obj 17 132 s <\$2;
#X obj 17 66 netreceive -b \$1;
#X obj 17 17 r \$2>;
#X obj 110 88 outlet;
#X connect 0 0 3 0;
#X connect 1 0 2 0;
#X connect 3 0 1 0;
#X connect 3 1 5 0;
#X connect 4 0 0 0;
