#N canvas 4 84 1272 604 10;
#X obj 284 88 r <PD;
#X obj 208 18 web-server 8999 PD;
#X obj 20 218 s PD>;
#X msg 20 195 hello \$1;
#X text -17 17 the world's worst webserver ->;
#X floatatom 208 40 5 0 0 1 _connections - -, f 5;
#X text 16 83 sending to the browser;
#X text 276 66 receiving from the browser;
#X msg 119 166 bang;
#X obj 119 198 metro 1000;
#X obj 119 220 0;
#X obj 149 220 + 1;
#X obj 119 248 s PD>;
#X obj 20 173 tgl 15 0 empty empty empty 17 7 0 10 -262144 -1 -1 0
1;
#X obj 264 213 tgl 15 0 empty empty empty 17 7 0 10 -262144 -1 -1 0
1;
#X obj 307 206 tgl 15 0 empty empty empty 17 7 0 10 -262144 -1 -1 0
1;
#X obj 442 523 print HELLO;
#X obj 284 112 list;
#X obj 284 139 route list;
#X msg 410 553 \; PD> Barulhometro is connected;
#X obj 410 495 t b b;
#X obj 526 465 s FinalNome-1;
#X obj 584 441 s FinalNome-2;
#X obj 202 311 r FinalNome-2;
#X obj 31 302 r FinalNome-1;
#X obj 30 393 s PD>;
#X obj 34 335 list;
#X obj 216 398 s PD>;
#X obj 220 340 list;
#X obj 202 369 list prepend Finalista 2:;
#X obj 16 364 list prepend Finalista 1:;
#X obj 468 494 send withBarulho-r;
#X obj 642 413 send BarraNoise-r;
#X obj 700 390 s chkSoundIN-r;
#X obj 768 456 s state-r;
#X obj 817 346 s timerON-r;
#X obj 162 166 tgl 15 0 empty empty empty 17 7 0 10 -262144 -1 -1 0
1;
#X obj 875 323 s juri1-r;
#X obj 933 297 s juri2-r;
#X obj 991 273 s juri3-r;
#X obj 1049 249 s juri4-r;
#X obj 1107 223 s juri5-r;
#X obj 1487 247 print From-Browser-NOTSET;
#X obj 1050 523 s bang_silence;
#X obj 1065 490 s setValue;
#X obj 1062 464 b;
#X obj 1086 427 s state-r;
#X msg 1086 405 2;
#X obj 1125 373 b;
#X obj 1147 341 b;
#X obj 1198 311 b;
#X obj 1130 398 s calc-r;
#X obj 1165 369 s zera_votos;
#X obj 1185 337 s juriSaveA;
#X obj 1243 278 b;
#X obj 1230 304 s juriSaveB;
#X obj 245 166 route test1 test2 hello noiseJuri final1 final2 animation
vumeter State StartTimer juri1 juri2 juri3 juri4 juri5 SetSilence Set10
MedeBarulho calcula resetVotos Set-A Set-B speed, f 168;
#X obj 1370 257 s speed;
#X obj 1387 212 tgl 15 0 empty empty empty 17 7 0 10 -262144 -1 -1
0 1;
#X connect 0 0 17 0;
#X connect 1 0 5 0;
#X connect 3 0 2 0;
#X connect 8 0 9 0;
#X connect 9 0 10 0;
#X connect 10 0 11 0;
#X connect 10 0 12 0;
#X connect 11 0 10 1;
#X connect 13 0 3 0;
#X connect 17 0 18 0;
#X connect 18 0 56 0;
#X connect 20 0 19 0;
#X connect 20 1 16 0;
#X connect 23 0 28 0;
#X connect 24 0 26 0;
#X connect 26 0 30 0;
#X connect 28 0 29 0;
#X connect 29 0 27 0;
#X connect 30 0 25 0;
#X connect 36 0 9 0;
#X connect 45 0 44 0;
#X connect 47 0 46 0;
#X connect 48 0 51 0;
#X connect 49 0 52 0;
#X connect 50 0 53 0;
#X connect 54 0 55 0;
#X connect 56 0 14 0;
#X connect 56 1 15 0;
#X connect 56 2 20 0;
#X connect 56 3 31 0;
#X connect 56 4 21 0;
#X connect 56 5 22 0;
#X connect 56 6 32 0;
#X connect 56 7 33 0;
#X connect 56 8 34 0;
#X connect 56 9 35 0;
#X connect 56 10 37 0;
#X connect 56 11 38 0;
#X connect 56 12 39 0;
#X connect 56 13 40 0;
#X connect 56 14 41 0;
#X connect 56 15 43 0;
#X connect 56 16 45 0;
#X connect 56 17 47 0;
#X connect 56 18 48 0;
#X connect 56 19 49 0;
#X connect 56 20 50 0;
#X connect 56 21 54 0;
#X connect 56 22 57 0;
#X connect 56 22 58 0;
#X connect 56 23 42 0;
