#N canvas 1 124 1272 604 10;
#X obj 284 88 r <PD;
#X obj 208 18 web-server 8999 PD;
#X text -17 17 the world's worst webserver ->;
#X floatatom 208 40 5 0 0 1 _connections - -, f 5;
#X text 276 66 receiving from the browser;
#X obj 264 213 tgl 15 0 empty empty empty 17 7 0 10 -262144 -1 -1 0
1;
#X obj 307 206 tgl 15 0 empty empty empty 17 7 0 10 -262144 -1 -1 0
1;
#X obj 442 523 print HELLO;
#X obj 284 112 list;
#X obj 284 139 route list;
#X msg 410 553 \; PD> Barulhometro is connected;
#X obj 410 495 t b b;
#X obj 526 465 s FinalNome-1;
#X obj 584 441 s FinalNome-2;
#X obj 468 494 send withBarulho-r;
#X obj 642 413 send BarraNoise-r;
#X obj 700 390 s chkSoundIN-r;
#X obj 768 456 s state-r;
#X obj 817 346 s timerON-r;
#X obj 875 323 s juri1-r;
#X obj 933 297 s juri2-r;
#X obj 991 273 s juri3-r;
#X obj 1049 249 s juri4-r;
#X obj 1107 223 s juri5-r;
#X obj 1487 247 print From-Browser-NOTSET;
#X obj 1050 523 s bang_silence;
#X obj 1065 490 s setValue;
#X obj 1062 464 b;
#X obj 1086 427 s state-r;
#X msg 1086 405 2;
#X obj 1125 373 b;
#X obj 1147 341 b;
#X obj 1198 311 b;
#X obj 1130 398 s calc-r;
#X obj 1165 369 s zera_votos;
#X obj 1185 337 s juriSaveA;
#X obj 1243 278 b;
#X obj 1230 304 s juriSaveB;
#X obj 1280 252 s speed;
#X obj 1317 228 tgl 15 0 empty empty empty 17 7 0 10 -262144 -1 -1
0 1;
#X obj 1353 227 + 1;
#X obj 1348 266 s Fswitch-r;
#N canvas 649 110 532 647 BrowserFeedback 0;
#X obj 20 68 s PD>;
#X msg 20 45 hello \$1;
#X msg 119 16 bang;
#X obj 119 48 metro 1000;
#X obj 119 70 0;
#X obj 149 70 + 1;
#X obj 119 98 s PD>;
#X obj 20 23 tgl 15 0 empty empty empty 17 7 0 10 -262144 -1 -1 0 1
;
#X obj 266 136 r FinalNome-2;
#X obj 63 138 r FinalNome-1;
#X obj 62 229 s PD>;
#X obj 66 171 list;
#X obj 280 223 s PD>;
#X obj 284 165 list;
#X obj 266 194 list prepend Finalista 2:;
#X obj 48 200 list prepend Finalista 1:;
#X obj 162 16 tgl 15 0 empty empty empty 17 7 0 10 -262144 -1 -1 0
1;
#X obj 64 295 r Fswitch-r;
#X obj 64 317 sel 1 2;
#X msg 49 357 Setting Finalist A;
#X msg 204 357 Setting Finalist B;
#X obj 128 393 s PD>;
#X text 256 23 sending to the browser;
#X obj 46 435 r juri1-r;
#X obj 214 500 s PD>;
#X msg 40 466 VOTE 1: \$1;
#X obj 130 435 r juri2-r;
#X obj 212 437 r juri3-r;
#X obj 300 435 r juri4-r;
#X obj 397 433 r juri5-r;
#X msg 393 459 VOTE 5: \$1;
#X msg 296 461 VOTE 4: \$1;
#X msg 210 465 VOTE 3: \$1;
#X msg 124 466 VOTE 2: \$1;
#X obj 49 525 r barulho_vote;
#X msg 50 555 NOISE SCORE: \$1;
#X obj 47 585 s PD>;
#X obj 300 540 r SilenceLevel;
#X obj 302 599 s PD>;
#X msg 305 569 SILENCE SET TO \$1;
#X connect 1 0 0 0;
#X connect 2 0 3 0;
#X connect 3 0 4 0;
#X connect 4 0 5 0;
#X connect 4 0 6 0;
#X connect 5 0 4 1;
#X connect 7 0 1 0;
#X connect 8 0 13 0;
#X connect 9 0 11 0;
#X connect 11 0 15 0;
#X connect 13 0 14 0;
#X connect 14 0 12 0;
#X connect 15 0 10 0;
#X connect 16 0 3 0;
#X connect 17 0 18 0;
#X connect 18 0 19 0;
#X connect 18 1 20 0;
#X connect 19 0 21 0;
#X connect 20 0 21 0;
#X connect 23 0 25 0;
#X connect 25 0 24 0;
#X connect 26 0 33 0;
#X connect 27 0 32 0;
#X connect 28 0 31 0;
#X connect 29 0 30 0;
#X connect 30 0 24 0;
#X connect 31 0 24 0;
#X connect 32 0 24 0;
#X connect 33 0 24 0;
#X connect 34 0 35 0;
#X connect 35 0 36 0;
#X connect 37 0 39 0;
#X connect 39 0 38 0;
#X restore 624 48 pd BrowserFeedback;
#X text 623 27 Send messages to the browser control;
#X obj 245 166 route test1 test2 hello noiseJuri final1 final2 animation
vumeter State StartTimer juri1 juri2 juri3 juri4 juri5 SetSilence Set10
MedeBarulho calcula resetVotos Set-A Set-B speed Fswitch MAN_AUDIENCE
, f 168;
#X obj 1465 301 s barulho_vote;
#X connect 0 0 8 0;
#X connect 1 0 3 0;
#X connect 8 0 9 0;
#X connect 9 0 44 0;
#X connect 11 0 10 0;
#X connect 11 1 7 0;
#X connect 27 0 26 0;
#X connect 29 0 28 0;
#X connect 30 0 33 0;
#X connect 31 0 34 0;
#X connect 32 0 35 0;
#X connect 36 0 37 0;
#X connect 40 0 41 0;
#X connect 44 0 5 0;
#X connect 44 1 6 0;
#X connect 44 2 11 0;
#X connect 44 3 14 0;
#X connect 44 4 12 0;
#X connect 44 5 13 0;
#X connect 44 6 15 0;
#X connect 44 7 16 0;
#X connect 44 8 17 0;
#X connect 44 9 18 0;
#X connect 44 10 19 0;
#X connect 44 11 20 0;
#X connect 44 12 21 0;
#X connect 44 13 22 0;
#X connect 44 14 23 0;
#X connect 44 15 25 0;
#X connect 44 16 27 0;
#X connect 44 17 29 0;
#X connect 44 18 30 0;
#X connect 44 19 31 0;
#X connect 44 20 32 0;
#X connect 44 21 36 0;
#X connect 44 22 38 0;
#X connect 44 22 39 0;
#X connect 44 23 40 0;
#X connect 44 24 45 0;
#X connect 44 25 24 0;
