#N canvas 556 53 799 714 10;
#X declare iemnet cyclone;
#N canvas 364 220 878 519 calc_barulho 0;
#X obj 303 383 /;
#X obj 303 410 * 10;
#X text 47 8 sum each incoming decibels (left output) divide by the
"10 value" and output (right) the vote;
#X obj 62 60 inlet decibels;
#X obj 226 52 inlet control;
#X obj 359 326 inlet maxBarulho;
#X obj 326 355 f 1;
#X obj 65 87 max 0;
#X obj 514 202 array max noiseValues;
#X obj 71 247 tabwrite noiseValues;
#X obj 514 175 bng 15 250 50 0 empty empty empty 17 7 0 10 -262144
-1 -1;
#X floatatom 656 253 5 0 0 0 - - -, f 5;
#X floatatom 542 239 12 0 0 0 - - -, f 12;
#X obj 208 165 f;
#X obj 208 187 + 1;
#X floatatom 228 215 5 0 0 0 - - -, f 5;
#X msg 226 141 -1;
#X obj 65 109 t f b f;
#X floatatom 313 239 12 0 0 0 - - -, f 12;
#X obj 280 211 array sum noiseValues;
#X obj 226 81 sel 1 0;
#X obj 156 361 outlet NoiseSum;
#X obj 303 436 outlet Pontuacao;
#X obj 280 263 t f f b;
#X obj 514 146 r setValue;
#X obj 514 273 s maxNoiseDB;
#X obj 332 137 tgl 15 0 empty empty empty 17 7 0 10 -262144 -1 -1 0
1;
#X obj 19 285 table noiseValues 110;
#X msg 256 166 \; noiseValues const 0;
#X obj 223 113 t b b;
#X connect 0 0 1 0;
#X connect 1 0 22 0;
#X connect 3 0 7 0;
#X connect 4 0 20 0;
#X connect 4 0 26 0;
#X connect 5 0 6 1;
#X connect 6 0 0 1;
#X connect 7 0 17 0;
#X connect 8 0 12 0;
#X connect 8 0 25 0;
#X connect 8 1 11 0;
#X connect 10 0 8 0;
#X connect 13 0 14 0;
#X connect 14 0 15 0;
#X connect 14 0 13 1;
#X connect 14 0 9 1;
#X connect 16 0 13 1;
#X connect 17 0 9 0;
#X connect 17 1 13 0;
#X connect 19 0 23 0;
#X connect 19 0 18 0;
#X connect 20 0 29 0;
#X connect 20 1 19 0;
#X connect 23 0 21 0;
#X connect 23 1 0 0;
#X connect 23 2 6 0;
#X connect 24 0 10 0;
#X connect 29 0 16 0;
#X connect 29 1 28 0;
#X restore 293 347 pd calc_barulho;
#X floatatom 395 321 12 0 0 1 maximum_barulho_(10) - -, f 12;
#X obj 395 150 bng 50 250 50 0 empty setValue set_value_10 55 25 0
14 -4034 -1 -1;
#X obj 326 264 r ctrl;
#X obj 129 81 tgl 50 0 empty ctrl-r control 55 25 0 14 -159808 -1 -1
1 1;
#X obj 486 11 loadbang;
#X text 404 202 3) write this value in the box below;
#X obj 395 287 f;
#X obj 399 518 r barulho_vote;
#X obj 493 561 r timer_ctrl;
#N canvas 107 159 635 536 interface 1;
#N canvas 42 86 892 663 INTERFACE-GOP 0;
#X obj 244 362 bng 20 250 50 0 empty empty barulhometro_ctrl 23 7 0
10 -4034 -1 -1;
#X obj 242 235 bng 120 250 50 0 empty timerON-r timer_on 17 45 0 13
-4160 -1 -262144;
#X obj 365 235 bng 120 250 50 0 empty timerOFF-r timer_off 20 50 0
10 -159808 -262144 -262144;
#X msg 25 373 \; ctrl-r 1 \;;
#X msg 10 13 \; timer_ctrl 1;
#X obj 464 390 bng 30 250 50 0 zera_votos r_reset_vote zera_voto -7
-7 0 10 -191407 -1 -1;
#X obj 109 114 vradio 120 1 0 4 empty state-r empty 0 -8 0 10 -262144
-1 -1 0;
#X obj 140 603 s Mode;
#X text 113 115 Geral;
#X text 114 237 Timer;
#X text 114 360 Barulho;
#X text 115 477 Vota;
#X obj 58 267 r Mode;
#X obj 55 292 sel 2;
#X obj 502 306 tgl 50 0 empty dispTimer-r resume_time -7 60 0 10 -262144
-1 -1 0 1;
#X obj 589 637 s RecoverTimer;
#X obj 245 392 nbx 4 32 -1e+37 1e+37 0 0 /juri/1_\$1 juri1-r empty
0 -8 0 26 -262144 -1 -1 1 256;
#X obj 245 435 nbx 4 32 -1e+37 1e+37 0 0 empty juri2-r empty 0 -8 0
26 -262144 -1 -1 6 256;
#X obj 245 477 nbx 4 32 -1e+37 1e+37 0 0 empty juri3-r empty 0 -8 0
26 -262144 -1 -1 9.2 256;
#X obj 245 519 nbx 4 32 -1e+37 1e+37 0 0 empty juri4-r empty 0 -8 0
26 -262144 -1 -1 9 256;
#X obj 245 561 nbx 4 32 -1e+37 1e+37 0 0 empty juri5-r empty 0 -8 0
26 -262144 -1 -1 0 256;
#X obj 88 635 s juri;
#X obj 108 658 s juri;
#X obj 221 621 s juri;
#X obj 229 641 s juri;
#X msg 10 635 /juri/2 \$1;
#X msg 24 656 /juri/3 \$1;
#X msg 142 622 /juri/4 \$1;
#X msg 148 643 /juri/5 \$1;
#X obj 82 610 s juri;
#X msg 14 610 /juri/1 \$1;
#X obj 379 457 bng 50 250 50 0 empty calc-r empty 17 7 0 10 -257985
-1 -1;
#X msg 321 612 /juri/calc bang;
#X obj 404 669 s juri;
#X text 311 396 JURI 1;
#X text 310 439 JURI 2;
#X text 309 562 JURI 5;
#X text 309 522 JURI 4;
#X text 309 481 JURI 3;
#X text 363 438 Calcula VOTOS;
#X obj 383 381 tgl 49 0 pubYA withBarulho-r Média_COM_Público -5
-10 0 10 -191407 -1 -1 1 1;
#X obj 538 382 vradio 16 1 0 13 Logo-Sel empty empty 0 -8 0 10 -262144
-1 -1 0;
#X text 557 383 Portugal Slam;
#X text 557 399 Sul;
#X text 556 415 Sines;
#X text 556 429 Ponta Delgada;
#X text 556 460 Coimbra;
#X text 556 478 Braga;
#X text 556 495 Aveiro;
#X text 555 508 Amadora;
#X text 555 524 Lx;
#X text 556 540 SlamT;
#X text 556 575 Labio;
#X obj 245 124 tgl 30 1 connOSC empty connOSC -5 -7 0 10 -260097 -1
-1 0 1;
#X obj 292 129 tgl 50 0 chkSoundIN chkSoundIN-r check_soundIN 55 25
0 14 -204786 -1 -1 0 1;
#X obj 737 42 r noiseLevel;
#X obj 291 186 nbx 5 28 -1e+37 1e+37 0 0 empty noiseLevel2CTRL empty
0 -8 0 20 -262144 -1 -1 0 256;
#X obj 512 105 cnv 15 180 180 empty empty empty 20 12 0 14 -203904
-66577 0;
#X obj 632 170 bng 50 250 50 0 setValue empty set_value_10 -100 25
0 14 -4034 -1 -1;
#X obj 589 135 nbx 7 24 -1e+37 1e+37 0 0 NoiseSum-interface empty SumCalib
-60 15 0 12 -262144 -1 -1 0 256;
#X obj 523 229 nbx 5 28 -1e+37 1e+37 0 0 empty BarulhoVote-s Barulho_Vote
6 40 0 20 -262144 -1 -1 0 256;
#N canvas 421 202 514 449 INSTRUCTIONS 0;
#X text 34 346 'barulhometro_ctrl' is to also to bang/start the barulhometro
\; 'resume time' is the show again the timer bar (in case of misunderstanding
and the poem seemed to be done) _doubts and bug reports labio.pt@gmail.com
;
#X text 37 17 This is the complete display for a Poetry Slam standard
event \, especially created for the LabIO SLAM \; 1) open the 'barulhometro.pd'
and click on [pd interface] \; (if not already open) \; 2) connect
OSC - the yellow square on top left \; connOSC 3) check silence - light
green toggle on the right of connOSC \; 4) CALIBRATE: click on Barulho
in the main control and \; make the louder possible noise for 5 sec
\; If you are convinced that this is the loudest _click on \; 'the
set_value_10' toggle \; 5) TIMER: click on the ´Timer´ square in
the main control \; _click on the blue bang 'timer_on' to start timer
(with 3 \, 2 \, 1...SLAM!) \; _click on the Barulho in main control
when poem ends \; 7) JURI: click on 'Vota' \; _fill in the votes of
the 5 juris \; _click on 'Média_COM_Público' if you want crowd noise
to be counted as a juri \; _click 'Calcula VOTOS' \; 7*) FINAL JURI:
listen to both poems \, get the noise and SAVE IT after each poem saveA
and saveB. Display the finals juri and ask for votes \, click on the
"calcula" button when finalist A is selected inthe radio and fo r finalist
B.;
#X restore 370 115 pd INSTRUCTIONS;
#X text 585 656 Mostra barra timer;
#X text 556 559 SLamBRR;
#X obj 737 62 spigot;
#X obj 788 63 r chkSoundIN;
#X obj 601 114 nbx 7 14 -1e+37 1e+37 0 0 empty NoiseSum CheckSum -50
8 0 10 -262144 -1 -1 1 256;
#X obj 245 173 tgl 30 1 connNET empty connNET -5 -7 0 10 -260097 -1
-1 1 1;
#X obj 741 107 line;
#X msg 740 85 \$1 500;
#X obj 410 185 bng 30 250 50 0 bang_silence bangSilence-r Bang_Silence
0 -10 0 10 -204800 -204800 -1;
#X obj 791 87 sel 0;
#X msg 791 107 0;
#X msg 122 12 \; timer_ctrl 0 \; state-r 2 \; ctrl-r 1 \;;
#X text 557 445 Cascais;
#X obj 751 162 s noiseLevel2CTRL;
#X obj 373 560 hradio 30 1 0 3 empty empty empty 0 -8 0 10 -262144
-1 -1 1;
#X obj 441 464 bng 25 250 50 0 gravaBarulhoFinal-A juriSaveA empty
17 7 0 10 -262144 -1 -1;
#X obj 441 500 bng 25 250 50 0 gravaBarulhoFinal-B juriSaveB empty
17 7 0 10 -262144 -1 -1;
#X text 467 523 Final B;
#X msg 444 612 /juri/save/A bang;
#X msg 456 639 /juri/save/B bang;
#X obj 279 675 s Mode;
#X obj 293 635 + 3;
#X obj 574 301 tgl 15 0 BarraNoise BarraNoise-r empty 17 7 0 10 -262144
-1 -1 1 1;
#X text 591 300 Show Noise bar;
#X text 360 543 Normal;
#X text 401 567 FinA;
#X text 433 568 FinB;
#X text 468 472 Noise \; Final A;
#X text 467 499 Save \; Noise;
#X text 471 463 Save \;;
#X connect 0 0 3 0;
#X connect 1 0 4 0;
#X connect 2 0 73 0;
#X connect 6 0 7 0;
#X connect 12 0 13 0;
#X connect 13 0 0 0;
#X connect 14 0 15 0;
#X connect 16 0 30 0;
#X connect 17 0 25 0;
#X connect 18 0 26 0;
#X connect 19 0 27 0;
#X connect 20 0 28 0;
#X connect 25 0 21 0;
#X connect 26 0 22 0;
#X connect 27 0 23 0;
#X connect 28 0 24 0;
#X connect 30 0 29 0;
#X connect 31 0 32 0;
#X connect 32 0 33 0;
#X connect 55 0 64 0;
#X connect 64 0 69 0;
#X connect 65 0 64 1;
#X connect 65 0 71 0;
#X connect 68 0 75 0;
#X connect 69 0 68 0;
#X connect 71 0 72 0;
#X connect 72 0 68 0;
#X connect 76 0 83 0;
#X connect 77 0 80 0;
#X connect 78 0 81 0;
#X connect 80 0 33 0;
#X connect 81 0 33 0;
#X connect 83 0 82 0;
#X coords 0 -1 1 1 600 500 1 100 100;
#X restore 15 19 pd INTERFACE-GOP;
#X restore 577 57 pd interface;
#N canvas 637 132 245 459 CONTROL 0;
#X obj 42 53 sel 1 0;
#X msg 65 79 \; barulho_vote 0 \;;
#X obj 42 20 inlet;
#X obj 42 197 t f f;
#X msg 43 360 \; ctrl 1 \;;
#X msg 62 295 \; ctrl 0 \;;
#X obj 74 220 s barulho_timer;
#X obj 42 167 line 0 25;
#X obj 42 245 sel 0 10;
#X msg 42 138 0 \, 10 4000;
#X connect 0 0 9 0;
#X connect 0 1 1 0;
#X connect 2 0 0 0;
#X connect 3 0 8 0;
#X connect 3 1 6 0;
#X connect 7 0 3 0;
#X connect 8 0 4 0;
#X connect 8 1 5 0;
#X connect 9 0 7 0;
#X restore 129 141 pd CONTROL;
#X obj 410 247 nbx 7 28 -1e+37 1e+37 0 0 NoiseSum-r empty empty 0 -8
0 20 -262144 -1 -1 1 256;
#X obj 293 400 s NoiseSum;
#X obj 395 408 nbx 5 28 -1e+37 1e+37 0 0 BarulhoVote-s empty Barulho_Vote
6 40 0 20 -262144 -1 -1 0 256;
#X obj 395 471 s barulho_vote;
#N canvas 342 396 448 185 bugs 0;
#X text 29 51 o [pd control] serve a lançar os 5 segundos \, e a zerar
o voto _acho que se pode abdicar dele;
#X text 29 14 quando liga o desenho do barulhometro aparece também
no timer;
#X text 30 93 precisa fazer o interface para a final;
#X text 31 117 por os nomes dos participantes \, esconder os votos
do juri;
#X restore 665 124 pd bugs;
#X obj 293 315 spigot;
#X obj 326 289 t f f;
#X obj 17 85 tgl 30 1 empty connOSC connect_OSC -5 -7 0 10 -257985
-1 -1 0 1;
#X obj 17 124 s conn1;
#X obj 293 240 r noiseLevel;
#X obj 16 254 adc~;
#X obj 17 284 hip~ 100;
#X obj 35 384 s dbs;
#X obj 130 304 nbx 5 28 -1e+37 1e+37 0 0 empty empty set_silence 0
-8 0 15 -262144 -1 -1 1.9 256;
#X obj 132 498 vu 34 160 empty empty -1 -8 0 10 -66577 -1 1 0;
#X obj 18 534 s noiseLevel;
#X obj 16 316 lop~ 10000;
#X obj 18 489 - 40;
#X obj 406 218 r NoiseSum;
#X obj 481 221 r NoiseSum-interface;
#X obj 263 84 tgl 30 1 empty connNET connNET -5 -7 0 10 -260097 -1
-1 1 1;
#X obj 263 129 s conn2;
#N canvas 80 97 1266 588 com_send 1;
#X obj 31 4 r conn1;
#X obj 18 80 t f b;
#X obj 59 81 t b f;
#X obj 31 30 sel 0 1;
#X msg 55 55 1;
#X msg 23 55 0;
#X obj 31 257 spigot;
#X msg 58 179 disconnect;
#X obj 344 52 inlet;
#X msg 1047 283 send /dbs \$1;
#X msg 344 222 send /barulho_vote \$1;
#X msg 460 87 send /ctrl \$1;
#X obj 632 57 inlet;
#X msg 344 284 send /timer_ctrl \$1;
#X obj 982 339 vsl 15 128 0 100 0 0 empty empty empty 0 -9 0 10 -262144
-1 -1 0 1;
#X obj 982 316 spigot;
#X obj 1020 297 tgl 15 0 empty empty empty 17 7 0 10 -262144 -1 -1
0 1;
#X msg 6 145 connect localhost 3322;
#X obj 384 311 r desliga;
#X msg 383 334 send /desliga go;
#X obj 3 390 r Mode;
#X msg 3 413 send /Mode \$1;
#X obj 383 362 r RecoverTimer;
#X msg 383 385 send /RecoverTimer \$1;
#X msg 534 212 send /zera_votos bang;
#X obj 539 180 r zera_votos;
#X obj 1037 35 r pubYA;
#X msg 1037 59 send /pubYA \$1;
#X obj 445 485 r Logo-Sel;
#X msg 443 568 send /LogoSel \$1;
#X obj 69 571 netsend;
#X obj 69 593 tgl 30 0 empty empty empty 17 7 0 10 -257985 -1 -1 1
1;
#X obj 176 114 t f b;
#X obj 217 115 t b f;
#X obj 189 64 sel 0 1;
#X msg 213 89 1;
#X msg 181 89 0;
#X msg 158 180 connect localhost 3000;
#X msg 233 202 disconnect;
#X obj 182 242 spigot;
#X obj 189 38 r conn2;
#X obj 593 301 r logoON;
#X msg 593 354 send /logoON \$1;
#X obj 609 385 r palcoH;
#X msg 609 407 send /palcoH \$1;
#X obj 614 430 r palcoS;
#X msg 614 454 send /palcoS \$1;
#X msg 605 510 send /palcoV \$1;
#X obj 605 486 r palcoV;
#X obj 594 326 == 0;
#X obj -2 531 r sent_it;
#X obj 1037 85 s sent_it;
#X obj 1007 72 bng 15 250 50 0 empty empty empty 17 7 0 10 -262144
-1 -1;
#X obj 982 245 r noiseLevel;
#X obj 1046 316 s sent_it;
#X obj 460 110 s sent_it;
#X obj 771 496 r juri;
#X obj 771 521 cyclone/prepend send;
#X obj 771 544 s sent_it;
#X obj 939 507 r timerPause;
#X msg 939 529 send /timerPause \$1;
#X obj 939 552 s sent_it;
#X obj 728 36 r maxNoiseDB;
#X msg 728 82 send /maxNoiseDB \$1;
#X floatatom 681 85 5 0 0 0 - - -, f 5;
#X obj 728 110 s sent_it;
#X obj 460 62 r ctrl;
#X obj 786 225 r barulho_timer;
#X msg 786 247 send /barulho_timer \$1;
#X obj 786 273 s sent_it;
#X obj 800 363 r BarraNoise;
#X obj 800 412 s sent_it;
#X msg 800 388 send /BarraNoise \$1;
#X obj 844 123 r FinalNome-1;
#X obj 844 172 s sent_it;
#X obj 844 145 prepend send FinalNome-1;
#X obj 1039 177 s sent_it;
#X obj 1039 128 r FinalNome-2;
#X obj 1039 151 prepend send FinalNome-2;
#X msg 1064 456 send TICK 1;
#X obj 1064 380 loadbang;
#X obj 1025 427 tgl 15 0 empty empty empty 17 7 0 10 -262144 -1 -1
1 1;
#X obj 1184 591 tgl 15 0 empty empty empty 17 7 0 10 -262144 -1 -1
1 1;
#X obj 1046 485 s sent_it;
#X obj 1144 560 netsend -u;
#X obj 1183 295 t f b;
#X obj 1224 296 t b f;
#X obj 1196 245 sel 0 1;
#X msg 1220 270 1;
#X msg 1188 270 0;
#X msg 1240 383 disconnect;
#X obj 1189 423 spigot;
#X obj 1196 219 r conn2;
#X msg 1165 361 connect localhost 3001;
#X obj 1064 423 metro 83.3333;
#X obj 610 612 s sent_it;
#X obj 610 563 r speed;
#X msg 610 588 send /speed \$1;
#X connect 1 0 6 1;
#X connect 1 1 7 0;
#X connect 2 0 17 0;
#X connect 2 1 6 1;
#X connect 3 0 5 0;
#X connect 3 1 4 0;
#X connect 4 0 2 0;
#X connect 5 0 1 0;
#X connect 7 0 6 0;
#X connect 8 0 10 0;
#X connect 9 0 54 0;
#X connect 10 0 30 0;
#X connect 11 0 55 0;
#X connect 12 0 13 0;
#X connect 13 0 30 0;
#X connect 15 0 14 0;
#X connect 16 0 15 1;
#X connect 17 0 6 0;
#X connect 18 0 19 0;
#X connect 19 0 30 0;
#X connect 20 0 21 0;
#X connect 21 0 30 0;
#X connect 22 0 23 0;
#X connect 23 0 30 0;
#X connect 24 0 30 0;
#X connect 25 0 24 0;
#X connect 26 0 27 0;
#X connect 26 0 52 0;
#X connect 27 0 51 0;
#X connect 28 0 29 0;
#X connect 29 0 30 0;
#X connect 30 0 31 0;
#X connect 32 0 39 1;
#X connect 32 1 38 0;
#X connect 33 0 37 0;
#X connect 33 1 39 1;
#X connect 34 0 36 0;
#X connect 34 1 35 0;
#X connect 35 0 33 0;
#X connect 36 0 32 0;
#X connect 37 0 39 0;
#X connect 38 0 39 0;
#X connect 39 0 30 0;
#X connect 40 0 34 0;
#X connect 41 0 49 0;
#X connect 42 0 30 0;
#X connect 43 0 44 0;
#X connect 44 0 30 0;
#X connect 45 0 46 0;
#X connect 46 0 30 0;
#X connect 47 0 30 0;
#X connect 48 0 47 0;
#X connect 49 0 42 0;
#X connect 50 0 30 0;
#X connect 53 0 9 0;
#X connect 53 0 15 0;
#X connect 56 0 57 0;
#X connect 57 0 58 0;
#X connect 59 0 60 0;
#X connect 60 0 61 0;
#X connect 62 0 63 0;
#X connect 62 0 64 0;
#X connect 63 0 65 0;
#X connect 66 0 11 0;
#X connect 67 0 68 0;
#X connect 68 0 69 0;
#X connect 70 0 72 0;
#X connect 72 0 71 0;
#X connect 73 0 75 0;
#X connect 75 0 74 0;
#X connect 77 0 78 0;
#X connect 78 0 76 0;
#X connect 79 0 84 0;
#X connect 80 0 94 0;
#X connect 81 0 94 0;
#X connect 84 0 82 0;
#X connect 85 0 91 1;
#X connect 85 1 90 0;
#X connect 86 0 93 0;
#X connect 86 1 91 1;
#X connect 87 0 89 0;
#X connect 87 1 88 0;
#X connect 88 0 86 0;
#X connect 89 0 85 0;
#X connect 90 0 91 0;
#X connect 91 0 84 0;
#X connect 92 0 87 0;
#X connect 93 0 91 0;
#X connect 94 0 79 0;
#X connect 96 0 97 0;
#X connect 97 0 95 0;
#X restore 402 603 pd com_send;
#X text 12 16 1) check the silence barulho (ambient noise) & set silence
barulho 3) run the barulhometro the first time for maximum noise (vote
10) on 5 seconds 4);
#X obj 293 372 max 1;
#N canvas 202 78 1137 663 connections 0;
#X obj 50 -11 netreceive 9000;
#X text 46 -37 receive from barulhometroCTRL;
#X obj 2 188 sel 0;
#X obj 2 212 s timerON-r;
#X obj 7 240 sel 0;
#X obj 7 263 s timerOFF-r;
#X obj 59 188 s dispTimer-r;
#X msg 142 209 \; ctrl-r 1;
#X obj 147 188 sel 0;
#X obj 203 273 s bangSilence-r;
#X obj 173 379 r noiseLevel;
#X obj 265 501 spigot;
#X obj 201 572 netsend;
#X msg 60 495 connect 192.168.1.1 9001;
#X obj 201 598 tgl 15 0 empty empty empty 17 7 0 10 -262144 -1 -1 0
1;
#X text 22 448 send to barulhometroCTRL;
#X obj 330 405 tgl 15 0 empty empty empty 17 7 0 10 -262144 -1 -1 0
1;
#X obj 218 247 s setValue;
#X text 6 294 METE O VIEW > MODE;
#X obj 310 261 sel 0;
#X obj 310 287 s calc-r;
#X obj 274 223 s withBarulho-r;
#X obj 450 235 s state-r;
#X obj 455 262 s juri1-r;
#X obj 469 288 s juri2-r;
#X obj 479 314 s juri3-r;
#X obj 493 340 s juri4-r;
#X obj 501 365 s juri5-r;
#X obj 171 298 s chkSoundIN-r;
#X obj 320 366 r chkSoundIN-r;
#X obj 586 206 s logoON;
#X obj 568 297 s palcoH;
#X obj 568 275 s palcoS;
#X obj 568 254 s palcoV;
#X msg 265 530 send dbs \$1;
#X obj 311 431 t a a;
#X obj 56 470 sel 0 1;
#X msg 22 558 disconnect;
#X obj 653 201 s timerPause;
#X obj 647 280 s v;
#X obj 644 256 s goJuriMusic;
#X obj 759 240 s vid1;
#X obj 771 262 s vid2;
#X obj 783 288 s vid3;
#X obj 795 310 s vid4;
#X obj 800 334 s pause;
#X obj 799 360 s killvid;
#X obj 771 173 s juriSaveA;
#X obj 788 204 s juriSaveB;
#X obj 451 454 r juriSaveA;
#X obj 451 479 print;
#X msg 559 102 \; r_reset_vote bang;
#X obj 623 552 Patches/web-control;
#X obj 809 142 s BarraNoise-r;
#X text 541 551 aciles ->;
#X msg 303 590 connect 10.42.0.1 9001;
#X msg 402 529 send DEBUG \$1;
#X obj 51 28 route timerStart timerStop dispTimer barulhoGO soundCheck
bangSilence set10 calcula withBarulho juri1 juri2 juri3 juri4 juri5
mode palcoH palcoS palcoV logoON timerPause /v /goJuriMusic vid1 vid2
vid3 vid4 pause killvid juriSaveA juriSaveB reset_vote BarraNoise FinalNome-1
FinalNome-2, f 121;
#X obj 847 112 s FinalNome-1;
#X obj 862 85 s FinalNome-2;
#X obj 991 84 print NOTSET;
#X connect 0 0 56 0;
#X connect 0 0 57 0;
#X connect 2 0 3 0;
#X connect 4 0 5 0;
#X connect 8 0 7 0;
#X connect 10 0 11 0;
#X connect 11 0 34 0;
#X connect 12 0 14 0;
#X connect 13 0 12 0;
#X connect 16 0 35 0;
#X connect 19 0 20 0;
#X connect 29 0 16 0;
#X connect 34 0 12 0;
#X connect 35 0 36 0;
#X connect 35 1 11 1;
#X connect 36 0 37 0;
#X connect 36 1 13 0;
#X connect 37 0 12 0;
#X connect 49 0 50 0;
#X connect 55 0 12 0;
#X connect 56 0 12 0;
#X connect 57 0 2 0;
#X connect 57 1 4 0;
#X connect 57 2 6 0;
#X connect 57 3 8 0;
#X connect 57 4 28 0;
#X connect 57 5 9 0;
#X connect 57 6 17 0;
#X connect 57 7 19 0;
#X connect 57 8 21 0;
#X connect 57 9 23 0;
#X connect 57 10 24 0;
#X connect 57 11 25 0;
#X connect 57 12 26 0;
#X connect 57 13 27 0;
#X connect 57 14 22 0;
#X connect 57 15 31 0;
#X connect 57 16 32 0;
#X connect 57 17 33 0;
#X connect 57 18 30 0;
#X connect 57 19 38 0;
#X connect 57 20 39 0;
#X connect 57 21 40 0;
#X connect 57 22 41 0;
#X connect 57 23 42 0;
#X connect 57 24 43 0;
#X connect 57 25 44 0;
#X connect 57 26 45 0;
#X connect 57 27 46 0;
#X connect 57 28 47 0;
#X connect 57 29 48 0;
#X connect 57 30 51 0;
#X connect 57 31 53 0;
#X connect 57 32 58 0;
#X connect 57 33 59 0;
#X connect 57 34 60 0;
#X restore 402 628 pd connections;
#X text 546 613 Jan 2015;
#N canvas 1 76 457 476 musicas 0;
#X msg 68 245 play;
#X msg 163 264 pause;
#X msg 172 241 stop;
#X obj 111 327 r v;
#X obj 32 95 textfile;
#X msg 74 66 bang;
#X msg 18 34 read playlista.txt \, rewind;
#X obj 90 122 bng 15 250 50 0 empty empty empty 17 7 0 10 -262144 -1
-1;
#X obj 55 142 print MUSICA;
#X obj 137 121 bng 15 250 50 0 empty empty empty 17 7 0 10 -262144
-1 -1;
#X obj 136 152 t b b b;
#X obj 69 223 delay 100;
#X obj 35 408 *~;
#X obj 77 408 *~;
#X obj 106 377 *~;
#X obj 107 350 lop~ 0.9;
#X obj 177 89 r goJuriMusic;
#X obj 180 336 route ready bang;
#X obj 179 364 tgl 15 0 empty empty empty 17 7 0 10 -262144 -1 -1 0
1;
#X obj 254 376 bng 15 250 50 0 empty empty empty 17 7 0 10 -262144
-1 -1;
#X obj 217 399 s next_song;
#X obj 178 118 r next_song;
#X msg 214 204 open ./musicas/FRAMESmastered2.mp3 \;;
#X obj 286 109 bng 50 250 50 0 empty empty empty 17 7 0 10 -260097
-1 -1;
#X obj 226 173 t b b;
#X connect 3 0 15 0;
#X connect 4 0 8 0;
#X connect 4 1 7 0;
#X connect 4 1 8 0;
#X connect 5 0 4 0;
#X connect 6 0 4 0;
#X connect 7 0 6 0;
#X connect 9 0 10 0;
#X connect 10 0 11 0;
#X connect 10 1 5 0;
#X connect 10 2 2 0;
#X connect 11 0 0 0;
#X connect 14 0 12 1;
#X connect 14 0 13 1;
#X connect 15 0 14 0;
#X connect 15 0 14 1;
#X connect 16 0 9 0;
#X connect 17 0 18 0;
#X connect 17 1 19 0;
#X connect 17 1 20 0;
#X connect 21 0 9 0;
#X connect 23 0 24 0;
#X connect 24 0 11 0;
#X connect 24 1 22 0;
#X restore 581 120 pd musicas;
#N canvas 102 138 761 508 video_ext 0;
#X obj 516 428 print;
#X obj 87 384 tgl 15 0 empty empty empty 17 7 0 10 -262144 -1 -1 0
1;
#X msg 107 282 connect localhost 3003;
#X obj 83 347 netsend -u;
#X obj 131 389 print;
#X msg 112 307 disconnect;
#X msg 518 310 ./pause.sh;
#X msg 573 360 killall mplayer;
#X obj 28 8 r vid1;
#X obj 76 11 r vid2;
#X obj 129 9 r vid3;
#X obj 177 12 r vid4;
#X obj 518 282 r pause;
#X obj 573 333 r killvid;
#X msg 124 158 mplayer -geometry 1366 -noborder -ao jack -slave -input
file=/tmp/labio ./videos/Sérgio.mp4;
#X msg 87 122 mplayer -geometry 1366 -noborder -ao jack -slave -input
file=/tmp/labio ./videos/nuno.mp4;
#X msg 66 77 mplayer -geometry 1366 -noborder -ao jack -slave -input
file=/tmp/labio ./videos/Raquel.mp4;
#X msg 25 36 mplayer -geometry 1366 -noborder -ao jack -slave -input
file=/tmp/labio ./videos/alex.mp4;
#X connect 2 0 3 0;
#X connect 3 0 1 0;
#X connect 5 0 3 0;
#X connect 8 0 17 0;
#X connect 9 0 16 0;
#X connect 10 0 15 0;
#X connect 11 0 14 0;
#X connect 12 0 6 0;
#X connect 13 0 7 0;
#X restore 582 94 pd video_ext;
#X text 571 39 Sera que falta o mrpeach?;
#X obj 572 10 declare iemnet cyclone;
#X floatatom 226 505 12 0 0 0 - - -, f 12;
#X obj 486 36 delay 6000;
#N canvas 165 335 520 272 SET_SILENCE 0;
#X obj 285 181 outlet;
#X obj 37 9 r dbs;
#X obj 271 70 r bang_silence;
#X obj 37 32 + 2;
#X obj 120 115 f;
#X obj 120 137 + 1;
#X obj 131 48 table silence 20;
#X obj 120 159 mod 20;
#X obj 62 198 tabwrite silence;
#X obj 37 54 t f b;
#X obj 268 114 array sum silence;
#X obj 280 153 / 20;
#X connect 1 0 3 0;
#X connect 2 0 10 0;
#X connect 3 0 9 0;
#X connect 4 0 5 0;
#X connect 5 0 7 0;
#X connect 7 0 4 1;
#X connect 7 0 8 1;
#X connect 9 0 8 0;
#X connect 9 1 4 0;
#X connect 10 0 11 0;
#X connect 11 0 0 0;
#X restore 110 255 pd SET_SILENCE;
#X obj 131 413 tgl 15 0 empty empty empty 17 7 0 10 -262144 -1 -1 0
1;
#X text 126 397 dbs / noiseLevel;
#X text 556 251 Soma do nível de barulho;
#X text 558 265 durante 5 segundos.;
#X msg 486 59 \; pd dsp 1 \; ctrl 0 \; connNET 1 \; NoiseSum 1 \;;
#X obj 17 346 env~ 4096;
#X obj 18 512 max 0;
#X text 547 628 Abril 2017;
#X text 332 627 aciles ->;
#X text 545 643 Agosto 2017;
#N canvas 1 78 450 300 CHECK_SOUND 0;
#N canvas 1 78 450 300 CHEKA_INPUT 0;
#X obj 113 242 - 100;
#X obj 113 12 r dbs;
#X obj 113 169 Patches/labio-mux2;
#X obj 174 39 r noiseLevel;
#X obj 113 264 outlet;
#X obj 256 120 loadbang;
#X msg 256 142 0;
#X obj 236 95 inlet dbs/noiseLVL;
#X connect 0 0 4 0;
#X connect 1 0 2 0;
#X connect 2 0 0 0;
#X connect 3 0 2 1;
#X connect 5 0 6 0;
#X connect 6 0 2 2;
#X connect 7 0 2 2;
#X restore 118 52 pd CHEKA_INPUT;
#X obj 215 154 r noiseLevel;
#X obj 215 205 spigot;
#X obj 118 119 spigot;
#X obj 215 249 outlet Noise Level;
#X obj 118 272 outlet Mic Input Level;
#X obj 118 8 inlet dbs/noiseLevel;
#X obj 287 49 inlet On/Off;
#X connect 0 0 3 0;
#X connect 1 0 2 0;
#X connect 2 0 4 0;
#X connect 3 0 5 0;
#X connect 6 0 0 0;
#X connect 7 0 3 1;
#X connect 7 0 2 1;
#X restore 131 466 pd CHECK_SOUND;
#X obj 226 436 tgl 15 0 empty empty empty 17 7 0 10 -262144 -1 -1 0
1;
#X text 221 420 On / Off;
#X connect 0 0 36 0;
#X connect 0 1 14 0;
#X connect 1 0 0 2;
#X connect 2 0 7 0;
#X connect 3 0 18 0;
#X connect 4 0 11 0;
#X connect 5 0 44 0;
#X connect 7 0 1 0;
#X connect 8 0 34 0;
#X connect 9 0 34 1;
#X connect 12 0 7 1;
#X connect 14 0 15 0;
#X connect 17 0 0 0;
#X connect 18 0 17 1;
#X connect 18 1 0 1;
#X connect 19 0 20 0;
#X connect 21 0 17 0;
#X connect 22 0 23 0;
#X connect 22 1 23 0;
#X connect 23 0 28 0;
#X connect 25 0 29 1;
#X connect 28 0 51 0;
#X connect 29 0 52 0;
#X connect 30 0 12 0;
#X connect 31 0 12 0;
#X connect 32 0 33 0;
#X connect 36 0 13 0;
#X connect 44 0 50 0;
#X connect 45 0 25 0;
#X connect 46 0 56 0;
#X connect 51 0 24 0;
#X connect 51 0 29 0;
#X connect 52 0 27 0;
#X connect 56 0 26 0;
#X connect 56 1 43 0;
#X connect 57 0 56 1;
