#N canvas 1 105 698 641 10;
#X declare -lib mrpeach -lib iemnet;
#X obj -713 176 adc~;
#X obj -248 -52 table barulho;
#N canvas 776 117 533 588 calc_barulho 0;
#X obj 41 -34 inlet;
#X obj 41 37 spigot;
#X obj 46 77 f;
#X obj 78 114 f;
#X obj 46 114 +;
#X floatatom 58 226 12 0 0 3 sum_of_dbs - -;
#X msg 96 195 0;
#X obj 206 135 sel 0;
#X obj 206 161 t b b;
#X obj 141 345 f;
#X obj 141 383 outlet;
#X obj 424 -38 inlet;
#X text 109 115 make sum;
#X obj 406 230 f;
#X obj 355 293 /;
#X obj 355 320 * 10;
#X obj 355 380 outlet;
#X obj 346 200 t f b;
#X text 86 -35 decibels;
#X text 102 -91 sum each incoming decibels (left output) divide by
the "10 value" and output (right) the vote;
#X text 124 196 reset sum;
#X obj 206 -28 inlet;
#X connect 0 0 1 0;
#X connect 1 0 2 0;
#X connect 2 0 4 0;
#X connect 3 0 4 1;
#X connect 4 0 5 0;
#X connect 5 0 3 0;
#X connect 5 0 9 1;
#X connect 6 0 5 0;
#X connect 7 0 8 0;
#X connect 8 0 6 0;
#X connect 8 1 9 0;
#X connect 9 0 10 0;
#X connect 9 0 17 0;
#X connect 11 0 13 1;
#X connect 13 0 14 1;
#X connect 14 0 15 0;
#X connect 15 0 16 0;
#X connect 17 0 14 0;
#X connect 17 1 13 0;
#X connect 21 0 1 1;
#X connect 21 0 7 0;
#X restore -432 296 pd calc_barulho;
#X obj -248 -6 import mrpeach iemnet;
#X obj -755 30 tgl 30 0 empty empty connect_OSC -5 -7 0 10 -257985
-1 -1 1 1;
#X obj -755 69 s conn1;
#N canvas 95 437 450 300 barulho_array 0;
#X floatatom 18 78 5 0 0 1 msec_of_barulho - -;
#X obj 18 148 * 22.05;
#X obj 18 9 loadbang;
#X obj 228 150 expr size("barulho");
#X floatatom 228 179 10 0 0 0 - - -;
#X obj 228 123 bng 15 250 50 0 empty empty empty 17 7 0 10 -262144
-1 -1;
#X obj 231 64 tabread barulho;
#X floatatom 231 32 10 0 0 0 - - -;
#X floatatom 231 93 5 0 0 0 - - -;
#X msg 18 213 \; barulho resize \$1;
#X msg 18 46 5000;
#X floatatom 18 180 5 0 0 0 - - -;
#X connect 0 0 1 0;
#X connect 1 0 11 0;
#X connect 2 0 10 0;
#X connect 3 0 4 0;
#X connect 5 0 3 0;
#X connect 6 0 8 0;
#X connect 7 0 6 0;
#X connect 10 0 0 0;
#X connect 11 0 9 0;
#X restore -249 -30 pd barulho_array;
#N canvas 713 127 450 484 sendOSC 0;
#X obj 206 47 inlet;
#X obj 46 49 r conn1;
#X obj 33 125 t f b;
#X obj 74 126 t b f;
#X obj 46 75 sel 0 1;
#X msg 70 100 1;
#X msg 38 100 0;
#X obj 46 332 spigot;
#X msg 73 224 disconnect;
#X obj 249 47 inlet;
#X obj 334 48 inlet;
#X floatatom 53 392 5 0 0 0 - - -;
#X obj 46 359 udpsend;
#X obj 148 274 packOSC;
#X msg 207 197 send /dbs \$1;
#X msg 218 219 send /barulho_vote \$1;
#X msg 240 264 send /ctrl \$1;
#X obj 393 52 inlet;
#X msg 274 284 send /timer_ctrl \$1;
#X obj 170 42 vsl 15 128 0 100 0 0 empty empty empty 0 -9 0 10 -262144
-1 -1 0 1;
#X obj 184 18 spigot;
#X obj 237 18 tgl 15 0 empty empty empty 17 7 0 10 -262144 -1 -1 0
1;
#X msg 36 192 connect localhost 3322;
#X connect 0 0 14 0;
#X connect 0 0 20 0;
#X connect 1 0 4 0;
#X connect 2 0 7 1;
#X connect 2 1 8 0;
#X connect 3 0 22 0;
#X connect 3 1 7 1;
#X connect 4 0 6 0;
#X connect 4 1 5 0;
#X connect 5 0 3 0;
#X connect 6 0 2 0;
#X connect 7 0 12 0;
#X connect 8 0 7 0;
#X connect 9 0 15 0;
#X connect 10 0 16 0;
#X connect 12 0 11 0;
#X connect 13 0 7 0;
#X connect 14 0 13 0;
#X connect 15 0 13 0;
#X connect 16 0 13 0;
#X connect 17 0 18 0;
#X connect 18 0 13 0;
#X connect 20 0 19 0;
#X connect 21 0 20 1;
#X connect 22 0 7 0;
#X restore -364 537 pd sendOSC;
#X floatatom -345 241 12 0 0 1 maximum_barulho_(10) - -;
#X obj -345 54 bng 50 250 50 0 empty empty 3)_set_value_10 55 25 0
14 -4034 -1 -1;
#X obj -707 268 env~;
#X obj -464 484 r dbs;
#X obj -389 268 r ctrl;
#X obj -258 480 r ctrl;
#X obj -469 35 tgl 50 0 empty ctrl-r control 55 25 0 14 -159808 -1
-1 1 1;
#X obj -705 221 hip~ 100;
#X obj -684 296 s dbs;
#X obj -340 -53 loadbang;
#X msg -340 -29 \; pd dsp 1 \; ctrl 1 \;;
#X text -752 -57 1) check the silence barulho (ambient noise) & set
silence barulho 3) run the barulhometro the first time for maximum
noise (vote 10) on 5 seconds 4) set the value 10 OBS: \$1 argument
out of range (in the [pd barulho_array]? why? - the color of the column
becomes red too early;
#X obj -672 27 tgl 50 0 empty empty 1)_check_silence 55 25 0 14 -204786
-1 -1 1 1;
#X obj -680 410 bng 50 250 50 0 empty empty 2)_set_silence 55 25 0
14 -4034 -1 -1;
#X floatatom -680 477 12 0 0 0 - - -;
#X text -334 115 3) write this value in the box below;
#X text -678 171 cut low f;
#X floatatom -740 467 5 0 0 0 - - -;
#X obj -698 510 - 60;
#X obj -740 419 print;
#X obj -698 364 spigot;
#X obj -648 320 r ctrl;
#X obj -648 345 tgl 15 0 empty empty empty 17 7 0 10 -262144 -1 -1
0 1;
#N canvas 374 435 289 267 barulho_table 0;
#X obj -174 15 inlet~;
#X obj -166 184 spigot~;
#X obj -133 133 r ctrl;
#X obj -85 238 tabwrite~ barulho;
#X obj -133 158 tgl 15 0 empty empty empty 17 7 0 10 -262144 -1 -1
0 1;
#X obj -71 42 r ctrl;
#X obj -71 68 sel 0 1;
#X msg -82 91 stop;
#X msg -48 92 start;
#X connect 0 0 1 0;
#X connect 1 1 3 0;
#X connect 2 0 4 0;
#X connect 4 0 1 1;
#X connect 5 0 6 0;
#X connect 6 0 7 0;
#X connect 6 1 8 0;
#X connect 7 0 3 0;
#X connect 8 0 3 0;
#X restore -692 245 pd barulho_table;
#X obj -345 207 f;
#X obj -627 281 envrms~;
#X obj -390 471 r barulho_vote;
#X obj -210 481 r timer_ctrl;
#N canvas 266 217 282 382 interface 0;
#X obj -704 -15 bng 100 250 50 0 empty empty barulhometro_ctrl 17 7
0 10 -4034 -1 -1;
#X obj -696 105 bng 100 250 50 0 empty empty timer_on 17 7 0 10 -4160
-1 -1;
#X obj -574 105 bng 100 250 50 0 empty empty timer_off 17 7 0 10 -159808
-1 -1;
#X msg -708 221 \; ctrl-r 1 \;;
#X msg -688 266 \; timer_ctrl 1;
#X msg -563 268 \; timer_ctrl 0 \;;
#N canvas 123 105 412 205 OSCandroid 0;
#X obj -727 23 dumpOSC 8000;
#X msg -724 138 \; ctrl-r 1 \;;
#X msg -552 138 \; timer_ctrl 1;
#X msg -460 137 \; timer_ctrl 0 \;;
#X msg -654 138 \; barulho_vote 0;
#X obj -404 111 print;
#X obj -641 -7 routeOSC /accxyz /1/push1 /1/push4 /1/push2 /1/push5
;
#X obj -721 66 routeOSC /accxyz /btn1/1 /btn2/1 /btn3/1 /btn4/1;
#X obj -634 17 sel 1;
#X obj -474 17 sel 1;
#X obj -407 15 sel 1;
#X obj -541 15 sel 1;
#X connect 0 0 7 0;
#X connect 7 1 1 0;
#X connect 7 2 4 0;
#X connect 7 3 2 0;
#X connect 7 4 3 0;
#X restore -625 326 pd OSCandroid;
#X obj -560 5 bng 30 250 50 0 empty empty zera_voto 35 7 0 10 -191407
-1 -1;
#X msg -560 47 \; barulho_vote 0;
#X connect 0 0 3 0;
#X connect 1 0 4 0;
#X connect 2 0 5 0;
#X connect 7 0 8 0;
#X restore -247 17 pd interface;
#X obj -463 507 speedlim 40;
#N canvas 653 287 228 198 noise_level 0;
#X obj 70 125 outlet;
#X obj 2 -36 adc~;
#X obj 29 54 spigot~;
#X obj 27 22 hip~ 100;
#X obj 161 -39 inlet;
#X obj 70 92 env~ 22050 22050;
#X connect 1 0 3 0;
#X connect 1 1 3 0;
#X connect 2 1 5 0;
#X connect 3 0 2 0;
#X connect 4 0 2 1;
#X connect 5 0 0 0;
#X restore -671 84 pd noise_level;
#X obj -672 106 nbx 5 28 -1e+37 1e+37 0 0 empty empty empty 0 -8 0
20 -262144 -1 -1 51.1014 256;
#X obj -432 321 max 0;
#X obj -698 534 s Noiselvl;
#X obj -432 241 r Noiselvl;
#N canvas 1 222 450 300 CONTROL 0;
#X msg -118 220 \; ctrl 0 \;;
#X obj -118 63 sel 1 0;
#X msg -91 158 \; ctrl 1 \;;
#X obj -118 195 delay 5000;
#X obj -118 126 t b b;
#X msg -99 89 \; barulho_vote 0 \;;
#X obj -118 30 inlet;
#X connect 1 0 4 0;
#X connect 1 1 5 0;
#X connect 3 0 0 0;
#X connect 4 0 3 0;
#X connect 4 1 2 0;
#X connect 6 0 1 0;
#X restore -469 95 pd CONTROL;
#X obj -330 167 nbx 5 28 -1e+37 1e+37 0 0 empty empty empty 0 -8 0
20 -262144 -1 -1 0 256;
#X obj -432 349 s NoiseSum;
#X obj -330 143 r NoiseSum;
#X obj -345 328 nbx 5 28 -1e+37 1e+37 0 0 empty empty Barulho_Vote
6 40 0 20 -262144 -1 -1 0 256;
#X obj -345 391 s barulho_vote;
#X connect 0 0 15 0;
#X connect 0 1 15 0;
#X connect 2 0 40 0;
#X connect 2 1 47 0;
#X connect 4 0 5 0;
#X connect 8 0 2 2;
#X connect 9 0 32 0;
#X connect 10 0 28 0;
#X connect 10 0 16 0;
#X connect 11 0 37 0;
#X connect 12 0 2 1;
#X connect 13 0 7 2;
#X connect 14 0 43 0;
#X connect 15 0 10 0;
#X connect 17 0 18 0;
#X connect 20 0 38 0;
#X connect 21 0 22 0;
#X connect 22 0 26 1;
#X connect 25 0 26 0;
#X connect 26 0 41 0;
#X connect 28 0 26 0;
#X connect 29 0 30 0;
#X connect 30 0 28 1;
#X connect 32 0 8 0;
#X connect 34 0 7 1;
#X connect 35 0 7 3;
#X connect 37 0 7 0;
#X connect 38 0 39 0;
#X connect 40 0 45 0;
#X connect 42 0 2 0;
#X connect 44 0 32 1;
#X connect 46 0 44 0;
#X connect 47 0 48 0;
