#N canvas 450 104 827 592 10;
#N canvas 216 225 524 424 calc_barulho 0;
#X obj 65 148 +;
#X msg 109 182 0;
#X obj 225 169 sel 0;
#X obj 225 195 t b b;
#X obj 153 272 f;
#X obj 156 362 outlet;
#X obj 304 321 /;
#X obj 304 348 * 10;
#X obj 304 377 outlet;
#X obj 292 264 t f b;
#X text 84 21 sum each incoming decibels (left output) divide by the
"10 value" and output (right) the vote;
#X text 137 183 reset sum;
#X obj 114 145 t f f;
#X obj 65 202 f;
#X text 53 220 sum of DBs;
#X obj 66 80 inlet decibels;
#X obj 226 82 inlet control;
#X obj 395 89 inlet maxBarulho;
#X obj 319 293 f 1;
#X obj 67 113 max 0, f 6;
#X connect 0 0 13 0;
#X connect 1 0 13 0;
#X connect 2 0 3 0;
#X connect 3 0 1 0;
#X connect 3 1 4 0;
#X connect 4 0 5 0;
#X connect 4 0 9 0;
#X connect 6 0 7 0;
#X connect 7 0 8 0;
#X connect 9 0 6 0;
#X connect 9 1 18 0;
#X connect 12 0 0 1;
#X connect 12 1 4 1;
#X connect 13 0 12 0;
#X connect 15 0 19 0;
#X connect 16 0 2 0;
#X connect 17 0 18 1;
#X connect 18 0 6 1;
#X connect 19 0 0 0;
#X restore 259 307 pd calc_barulho;
#X floatatom 395 321 12 0 0 1 maximum_barulho_(10) - -, f 12;
#X obj 395 150 bng 50 250 50 0 empty setValue set_value_10 55 25 0
14 -4034 -1 -1;
#X obj 292 224 r ctrl;
#X obj 410 488 r ctrl;
#X obj 129 81 tgl 50 0 empty ctrl-r control 55 25 0 14 -159808 -1 -1
0 1;
#X obj 486 11 loadbang;
#X text 364 202 3) write this value in the box below;
#X obj 395 287 f;
#X obj 363 465 r barulho_vote;
#X obj 457 488 r timer_ctrl;
#N canvas 79 183 635 536 interface 0;
#N canvas 1 79 892 688 INTERFACE-GOP 0;
#X obj 244 362 bng 20 250 50 0 empty empty barulhometro_ctrl 23 7 0
10 -4034 -1 -1;
#X obj 242 235 bng 120 250 50 0 empty timerON-r timer_on 17 45 0 13
-4160 -1 -262144;
#X obj 365 235 bng 120 250 50 0 empty timerOFF-r timer_off 20 50 0
10 -159808 -262144 -262144;
#X msg 25 373 \; ctrl-r 1 \;;
#X msg 10 13 \; timer_ctrl 1;
#N canvas 880 79 485 300 OSCandroid 0;
#X msg 56 238 \; ctrl-r 1 \;;
#X msg 228 238 \; timer_ctrl 1;
#X msg 320 237 \; timer_ctrl 0 \;;
#X obj 376 211 print;
#X obj 126 69 routeOSC /accxyz /1/push1 /1/push4 /1/push2 /1/push5
;
#X obj 59 166 routeOSC /accxyz /btn1/1 /btn2/1 /btn3/1 /btn4/1;
#X obj 185 99 sel 1;
#X obj 306 117 sel 1;
#X obj 373 115 sel 1;
#X obj 239 115 sel 1;
#X obj 114 195 bng 15 250 50 0 empty empty empty 17 7 0 10 -262144
-1 -1;
#X obj 181 197 bng 15 250 50 0 empty empty empty 17 7 0 10 -262144
-1 -1;
#X obj 244 201 bng 15 250 50 0 empty empty empty 17 7 0 10 -262144
-1 -1;
#X obj 321 207 bng 15 250 50 0 empty empty empty 17 7 0 10 -262144
-1 -1;
#X msg 126 238 \; desliga bang;
#X obj 16 79 unpackOSC;
#X obj 373 33 dumpOSC 8000;
#X obj 14 20 udpreceive 8000;
#X connect 4 2 6 0;
#X connect 5 1 0 0;
#X connect 5 1 10 0;
#X connect 5 2 14 0;
#X connect 5 2 11 0;
#X connect 5 3 1 0;
#X connect 5 3 12 0;
#X connect 5 4 2 0;
#X connect 5 4 13 0;
#X connect 15 0 4 0;
#X connect 15 0 3 0;
#X connect 17 0 15 0;
#X restore 606 607 pd OSCandroid;
#X obj 453 483 bng 30 250 50 0 empty empty zera_voto -7 -7 0 10 -191407
-1 -1;
#X obj 486 613 r timer_ctrl;
#X obj 109 114 vradio 120 1 0 4 empty state-r empty 0 -8 0 10 -262144
-1 -1 0;
#X obj 43 204 s Mode;
#X text 113 115 Geral;
#X text 114 237 Timer;
#X text 114 360 Barulho;
#X text 115 477 Vota;
#X obj 58 267 r Mode;
#X obj 55 292 sel 2;
#X obj 502 306 tgl 50 0 empty dispTimer-r resume_time -7 60 0 10 -262144
-1 -1 0 1;
#X obj 589 637 s RecoverTimer;
#X obj 245 392 nbx 4 32 -1e+37 1e+37 0 0 /juri/1_\$1 juri1-r empty
0 -8 0 26 -262144 -1 -1 0 256;
#X obj 245 435 nbx 4 32 -1e+37 1e+37 0 0 empty juri2-r empty 0 -8 0
26 -262144 -1 -1 0 256;
#X obj 245 477 nbx 4 32 -1e+37 1e+37 0 0 empty juri3-r empty 0 -8 0
26 -262144 -1 -1 0 256;
#X obj 245 519 nbx 4 32 -1e+37 1e+37 0 0 empty juri4-r empty 0 -8 0
26 -262144 -1 -1 0 256;
#X obj 245 561 nbx 4 32 -1e+37 1e+37 0 0 empty juri5-r empty 0 -8 0
26 -262144 -1 -1 0 256;
#X obj 88 635 s juri;
#X obj 108 658 s juri;
#X obj 221 621 s juri;
#X obj 229 641 s juri;
#X msg 10 635 /juri/2 \$1;
#X msg 24 656 /juri/3 \$1;
#X msg 142 622 /juri/4 \$1;
#X msg 148 643 /juri/5 \$1;
#X obj 82 610 s juri;
#X msg 14 610 /juri/1 \$1;
#X obj 389 474 bng 50 250 50 0 empty calc-r empty 17 7 0 10 -257985
-1 -1;
#X msg 326 631 /juri/calc bang;
#X obj 322 652 s juri;
#X text 311 396 JURI 1;
#X text 310 439 JURI 2;
#X text 309 562 JURI 5;
#X text 309 522 JURI 4;
#X text 309 481 JURI 3;
#X text 374 450 Calcula VOTOS;
#X msg 472 638 \; zera_votos bang;
#X obj 387 392 tgl 50 0 empty withBarulho-r Média_COM_Público -5
-10 0 10 -191407 -1 -1 0 1;
#X obj 23 494 s pubYA;
#X obj 538 382 vradio 16 1 0 13 Logo-Sel empty empty 0 -8 0 10 -262144
-1 -1 0;
#X text 557 383 Portugal Slam;
#X text 557 399 Sul;
#X text 556 415 Sines;
#X text 556 429 Ponta Delgada;
#X text 556 460 Coimbra;
#X text 556 478 Braga;
#X text 556 495 Aveiro;
#X text 555 508 Amadora;
#X text 555 524 Lx;
#X text 556 540 SlamT;
#X text 556 575 Labio;
#X obj 245 132 tgl 30 1 connOSC empty connOSC -5 -7 0 10 -257985 -1
-1 0 1;
#X obj 292 129 tgl 50 0 chkSoundIN chkSoundIN-r check_soundIN 55 25
0 14 -204786 -1 -1 0 1;
#X obj 737 42 r noiseLevel;
#X obj 291 186 nbx 5 28 -1e+37 1e+37 0 0 empty noiseLevel2CTRL empty
0 -8 0 20 -262144 -1 -1 0 256;
#X obj 512 105 cnv 15 180 180 empty empty empty 20 12 0 14 -203904
-66577 0;
#X obj 632 170 bng 50 250 50 0 setValue empty set_value_10 -100 25
0 14 -4034 -1 -1;
#X obj 589 135 nbx 7 24 -1e+37 1e+37 0 0 NoiseSum-interface empty SumCalib
-60 15 0 12 -262144 -1 -1 0 256;
#X obj 523 229 nbx 5 28 -1e+37 1e+37 0 0 empty BarulhoVote-s Barulho_Vote
6 40 0 20 -262144 -1 -1 0 256;
#N canvas 767 137 453 451 INSTRUCTIONS 0;
#X text 32 307 'barulhometro_ctrl' is to also to bang/start the barulhometro
\; 'resume time' is the show again the timer bar (in case of misunderstanding
and the poem seemed to be done) _doubts and bug reports labio.pt@gmail.com
;
#X text 37 17 This is the complete display for a Poetry Slam standard
event \, especially created for the LabIO SLAM \; 1) open the 'barulhometro.pd'
and click on [pd interface] \; which should be already open \; 2) connect
OSC - the yellow square on top left \; connOSC 3) check silence - light
green toggle on the right of connOSC \; 4) CALIBRATE: click on Barulho
in the main control and \; make the louder possible noise for 5 sec
\; If you are convinced that this is the loudest _click on \; 'the
set_value_10' toggle \; OTHERWISE you can fill in 'Extra Cal' a rounded
up value \; 5) TIMER: click on the ´Timer´ square in the main control
\; _click on the blue bang 'timer_on' to start timer (with 3 \, 2 \,
1...SLAM!) \; _click on the Barulho in main control when poem ends
\; 7) JURI: click on 'Vota' \; _fill in the votes of the 5 juris \;
_click on 'Média_COM_Público' if you want crowd noise to be counted
as a juri \; _click 'Calcula VOTOS' \;;
#X restore 370 115 pd INSTRUCTIONS;
#X text 585 656 Mostra barra timer;
#X text 556 559 SLamBRR;
#X obj 737 62 spigot;
#X obj 788 63 r chkSoundIN;
#X obj 601 114 nbx 7 14 -1e+37 1e+37 0 0 empty NoiseSum CheckSum -50
8 0 10 -262144 -1 -1 1 256;
#X obj 245 181 tgl 30 1 connNET empty connNET -5 -7 0 10 -260097 -1
-1 1 1;
#X obj 741 107 line;
#X msg 740 85 \$1 500;
#X obj 410 185 bng 30 250 50 0 bang_silence bangSilence-r Bang_Silence
0 -10 0 10 -204800 -204800 -1;
#X obj 791 87 sel 0;
#X msg 791 107 0;
#X msg 122 12 \; timer_ctrl 0 \; state-r 2 \; ctrl-r 1 \;;
#X text 557 445 Cascais;
#X obj 751 162 s noiseLevel2CTRL;
#X connect 0 0 3 0;
#X connect 1 0 4 0;
#X connect 2 0 77 0;
#X connect 6 0 42 0;
#X connect 7 0 6 0;
#X connect 8 0 9 0;
#X connect 14 0 15 0;
#X connect 15 0 0 0;
#X connect 16 0 17 0;
#X connect 18 0 32 0;
#X connect 19 0 27 0;
#X connect 20 0 28 0;
#X connect 21 0 29 0;
#X connect 22 0 30 0;
#X connect 27 0 23 0;
#X connect 28 0 24 0;
#X connect 29 0 25 0;
#X connect 30 0 26 0;
#X connect 32 0 31 0;
#X connect 33 0 34 0;
#X connect 34 0 35 0;
#X connect 43 0 44 0;
#X connect 59 0 68 0;
#X connect 68 0 73 0;
#X connect 69 0 68 1;
#X connect 69 0 75 0;
#X connect 72 0 79 0;
#X connect 73 0 72 0;
#X connect 75 0 76 0;
#X connect 76 0 72 0;
#X coords 0 -1 1 1 600 500 1 100 100;
#X restore 16 19 pd INTERFACE-GOP;
#X restore 572 37 pd interface;
#N canvas 611 493 197 274 CONTROL 0;
#X msg 42 210 \; ctrl 0 \;;
#X obj 42 53 sel 1 0;
#X msg 69 148 \; ctrl 1 \;;
#X obj 42 185 delay 5000;
#X obj 42 116 t b b;
#X msg 61 79 \; barulho_vote 0 \;;
#X obj 42 20 inlet;
#X connect 1 0 4 0;
#X connect 1 1 5 0;
#X connect 3 0 0 0;
#X connect 4 0 3 0;
#X connect 4 1 2 0;
#X connect 6 0 1 0;
#X restore 129 141 pd CONTROL;
#X obj 410 247 nbx 7 28 -1e+37 1e+37 0 0 NoiseSum-r empty empty 0 -8
0 20 -262144 -1 -1 1 256;
#X obj 259 360 s NoiseSum;
#X obj 415 368 nbx 5 28 -1e+37 1e+37 0 0 BarulhoVote-s empty Barulho_Vote
6 40 0 20 -262144 -1 -1 0 256;
#X obj 415 431 s barulho_vote;
#X obj 486 35 delay 2000;
#N canvas 344 398 448 185 bugs 0;
#X text 29 51 o [pd control] serve a lançar os 5 segundos \, e a zerar
o voto _acho que se pode abdicar dele;
#X text 29 14 quando liga o desenho do barulhometro aparece também
no timer;
#X text 30 93 precisa fazer o interface para a final;
#X text 31 117 por os nomes dos participantes \, esconder os votos
do juri;
#X restore 667 106 pd bugs;
#X obj 259 275 spigot;
#X obj 292 249 t f f;
#X obj 17 85 tgl 30 1 empty connOSC connect_OSC -5 -7 0 10 -257985
-1 -1 0 1;
#X obj 17 124 s conn1;
#X obj 254 200 r noiseLevel;
#X obj 5 310 cnv 15 230 230 empty empty empty 20 12 0 14 -233017 -66577
0;
#X obj 16 254 adc~;
#X obj 17 346 env~;
#X obj 17 284 hip~ 100;
#X obj 35 384 s dbs;
#X obj 115 273 nbx 5 28 -1e+37 1e+37 0 0 empty empty set_silence 0
-8 0 15 -262144 -1 -1 0 256;
#X obj 130 345 - 100;
#X obj 131 369 vu 34 160 empty empty -1 -8 0 10 -66577 -1 1 0;
#X obj 131 322 r dbs;
#X obj 18 513 s noiseLevel;
#X obj 262 438 r noiseLevel;
#X obj 295 498 line;
#X obj 112 179 r dbs;
#X obj 16 316 lop~ 10000;
#X obj 76 208 f;
#X obj 18 489 - 40;
#X obj 406 218 r NoiseSum;
#X obj 481 221 r NoiseSum-interface;
#X obj 262 464 pack f 200;
#X obj 263 84 tgl 30 1 empty connNET connNET -5 -7 0 10 -260097 -1
-1 1 1;
#X obj 263 129 s conn2;
#N canvas 187 160 722 607 com_send 0;
#X obj 366 52 inlet;
#X obj 31 4 r conn1;
#X obj 18 80 t f b;
#X obj 59 81 t b f;
#X obj 31 30 sel 0 1;
#X msg 55 55 1;
#X msg 23 55 0;
#X obj 31 287 spigot;
#X msg 58 179 disconnect;
#X obj 409 52 inlet;
#X obj 460 51 inlet;
#X floatatom 38 347 5 0 0 0 - - -, f 5;
#X obj 31 314 udpsend;
#X msg 333 200 send /dbs \$1;
#X msg 344 222 send /barulho_vote \$1;
#X msg 310 264 send /ctrl \$1;
#X obj 519 55 inlet;
#X msg 344 284 send /timer_ctrl \$1;
#X obj 330 47 vsl 15 128 0 100 0 0 empty empty empty 0 -9 0 10 -262144
-1 -1 0 1;
#X obj 341 22 spigot;
#X obj 394 22 tgl 15 0 empty empty empty 17 7 0 10 -262144 -1 -1 0
1;
#X msg 6 145 connect localhost 3322;
#X obj 384 311 r desliga;
#X msg 383 334 send /desliga go;
#X obj 72 393 r Mode;
#X msg 71 416 send /Mode \$1;
#X obj 383 362 r RecoverTimer;
#X msg 383 385 send /RecoverTimer \$1;
#X obj 216 510 r juri;
#X obj 216 535 prepend send;
#X msg 534 212 send /zera_votos bang;
#X obj 539 180 r zera_votos;
#X obj 272 480 r pubYA;
#X msg 272 504 send /pubYA \$1;
#X obj 445 485 r Logo-Sel;
#X msg 443 568 send /LogoSel \$1;
#X obj 171 535 append;
#X obj 218 274 netsend;
#X obj 232 310 tgl 30 0 empty empty empty 17 7 0 10 -257985 -1 -1 0
1;
#X obj 176 114 t f b;
#X obj 217 115 t b f;
#X obj 189 64 sel 0 1;
#X msg 213 89 1;
#X msg 181 89 0;
#X msg 158 180 connect localhost 3000;
#X msg 233 202 disconnect;
#X obj 182 242 spigot;
#X obj 189 38 r conn2;
#X obj 120 283 packOSC;
#X obj 593 301 r logoON;
#X msg 593 354 send /logoON \$1;
#X obj 609 385 r palcoH;
#X msg 609 407 send /palcoH \$1;
#X obj 614 430 r palcoS;
#X msg 614 454 send /palcoS \$1;
#X msg 605 510 send /palcoV \$1;
#X obj 605 486 r palcoV;
#X obj 594 326 == 0;
#X connect 0 0 13 0;
#X connect 0 0 19 0;
#X connect 1 0 4 0;
#X connect 2 0 7 1;
#X connect 2 1 8 0;
#X connect 3 0 21 0;
#X connect 3 1 7 1;
#X connect 4 0 6 0;
#X connect 4 1 5 0;
#X connect 5 0 3 0;
#X connect 6 0 2 0;
#X connect 7 0 12 0;
#X connect 8 0 7 0;
#X connect 9 0 14 0;
#X connect 10 0 15 0;
#X connect 12 0 11 0;
#X connect 13 0 37 0;
#X connect 14 0 37 0;
#X connect 15 0 37 0;
#X connect 16 0 17 0;
#X connect 17 0 37 0;
#X connect 19 0 18 0;
#X connect 20 0 19 1;
#X connect 21 0 7 0;
#X connect 22 0 23 0;
#X connect 23 0 37 0;
#X connect 24 0 25 0;
#X connect 25 0 37 0;
#X connect 26 0 27 0;
#X connect 27 0 37 0;
#X connect 28 0 29 0;
#X connect 29 0 37 0;
#X connect 30 0 37 0;
#X connect 31 0 30 0;
#X connect 32 0 33 0;
#X connect 33 0 37 0;
#X connect 34 0 35 0;
#X connect 35 0 37 0;
#X connect 37 0 38 0;
#X connect 39 0 46 1;
#X connect 39 1 45 0;
#X connect 40 0 44 0;
#X connect 40 1 46 1;
#X connect 41 0 43 0;
#X connect 41 1 42 0;
#X connect 42 0 40 0;
#X connect 43 0 39 0;
#X connect 44 0 46 0;
#X connect 45 0 46 0;
#X connect 46 0 37 0;
#X connect 47 0 41 0;
#X connect 48 0 12 0;
#X connect 49 0 57 0;
#X connect 50 0 37 0;
#X connect 51 0 52 0;
#X connect 52 0 37 0;
#X connect 53 0 54 0;
#X connect 54 0 37 0;
#X connect 55 0 37 0;
#X connect 56 0 55 0;
#X connect 57 0 50 0;
#X restore 366 530 pd com_send;
#X text 12 16 1) check the silence barulho (ambient noise) & set silence
barulho 3) run the barulhometro the first time for maximum noise (vote
10) on 5 seconds 4);
#X obj 77 236 + 0;
#X msg 486 59 \; pd dsp 1 \; ctrl 1 \; conn1 1 \; NoiseSum 1 \;;
#X obj 259 332 max 1;
#X obj 15 179 r bang_silence;
#N canvas 347 175 861 559 connections 0;
#X obj 29 39 netreceive 9000;
#X text 25 13 receive from barulhometroCTRL;
#X obj 2 120 sel 0;
#X obj 2 144 s timerON-r;
#X obj 252 12 import mrpeach iemnet;
#X obj 7 172 sel 0;
#X obj 7 195 s timerOFF-r;
#X obj 59 120 s dispTimer-r;
#X msg 142 141 \; ctrl-r 1;
#X obj 147 120 sel 0;
#X obj 203 205 s bangSilence-r;
#X obj 173 311 r noiseLevel;
#X obj 240 442 spigot;
#X obj 201 504 netsend;
#X msg 77 440 connect 192.168.1.1 9001;
#X obj 201 530 tgl 15 0 empty empty empty 17 7 0 10 -262144 -1 -1 0
1;
#X text 22 380 send to barulhometroCTRL;
#X obj 305 346 tgl 15 0 empty empty empty 17 7 0 10 -262144 -1 -1 0
1;
#X obj 218 179 s setValue;
#X text 6 226 METE O VIEW > MODE;
#X obj 310 193 sel 0;
#X obj 310 219 s calc-r;
#X obj 274 155 s withBarulho-r;
#X obj 450 167 s state-r;
#X obj 455 194 s juri1-r;
#X obj 469 220 s juri2-r;
#X obj 479 246 s juri3-r;
#X obj 493 272 s juri4-r;
#X obj 501 297 s juri5-r;
#X obj 171 230 s chkSoundIN-r;
#X obj 295 307 r chkSoundIN-r;
#X obj 586 138 s logoON;
#X obj 568 229 s palcoH;
#X obj 568 207 s palcoS;
#X obj 568 186 s palcoV;
#X msg 240 471 send dbs \$1;
#X obj 286 372 t a a;
#X obj 56 402 sel 0 1;
#X msg 24 466 disconnect;
#X obj 652 133 s timerPause;
#X obj 647 212 s v;
#X obj 644 188 s goJuriMusic;
#X obj 759 172 s vid1;
#X obj 771 194 s vid2;
#X obj 783 220 s vid3;
#X obj 795 242 s vid4;
#X obj 800 266 s pause;
#X obj 28 66 route timerStart timerStop dispTimer barulhoGO soundCheck
bangSilence set10 calcula withBarulho juri1 juri2 juri3 juri4 juri5
mode palcoH palcoS palcoV logoON timerPause /v /goJuriMusic vid1 vid2
vid3 vid4 pause killvid, f 95;
#X obj 799 292 s killvid;
#X connect 0 0 47 0;
#X connect 2 0 3 0;
#X connect 5 0 6 0;
#X connect 9 0 8 0;
#X connect 11 0 12 0;
#X connect 12 0 35 0;
#X connect 13 0 15 0;
#X connect 14 0 13 0;
#X connect 17 0 36 0;
#X connect 20 0 21 0;
#X connect 30 0 17 0;
#X connect 35 0 13 0;
#X connect 36 0 37 0;
#X connect 36 1 12 1;
#X connect 37 0 38 0;
#X connect 37 1 14 0;
#X connect 38 0 13 0;
#X connect 47 0 2 0;
#X connect 47 1 5 0;
#X connect 47 2 7 0;
#X connect 47 3 9 0;
#X connect 47 4 29 0;
#X connect 47 5 10 0;
#X connect 47 6 18 0;
#X connect 47 7 20 0;
#X connect 47 8 22 0;
#X connect 47 9 24 0;
#X connect 47 10 25 0;
#X connect 47 11 26 0;
#X connect 47 12 27 0;
#X connect 47 13 28 0;
#X connect 47 14 23 0;
#X connect 47 15 32 0;
#X connect 47 16 33 0;
#X connect 47 17 34 0;
#X connect 47 18 31 0;
#X connect 47 19 39 0;
#X connect 47 20 40 0;
#X connect 47 21 41 0;
#X connect 47 22 42 0;
#X connect 47 23 43 0;
#X connect 47 24 44 0;
#X connect 47 25 45 0;
#X connect 47 26 46 0;
#X connect 47 27 48 0;
#X restore 571 13 pd connections;
#X text 484 524 Jan 2015;
#N canvas 1 55 457 476 musicas 0;
#X obj 35 443 dac~;
#X msg 68 245 play;
#X msg 163 264 pause;
#X msg 172 241 stop;
#X obj 111 327 r v;
#X obj 32 95 textfile;
#X msg 74 66 bang;
#X obj 38 294 readanysf~ 2 32 256;
#X msg 18 34 read playlista.txt \, rewind;
#X obj 90 122 bng 15 250 50 0 empty empty empty 17 7 0 10 -262144 -1
-1;
#X obj 55 142 print MUSICA;
#X obj 29 164 prepend open;
#X obj 137 121 bng 15 250 50 0 empty empty empty 17 7 0 10 -262144
-1 -1;
#X obj 136 152 t b b b;
#X obj 69 223 delay 100;
#X obj 35 408 *~;
#X obj 77 408 *~;
#X obj 106 377 *~;
#X obj 107 350 lop~ 0.9;
#X obj 177 89 r goJuriMusic;
#X obj 27 9 loadbang;
#X obj 170 296 route ready bang;
#X obj 169 324 tgl 15 0 empty empty empty 17 7 0 10 -262144 -1 -1 0
1;
#X obj 244 336 bng 15 250 50 0 empty empty empty 17 7 0 10 -262144
-1 -1;
#X obj 207 359 s next_song;
#X obj 178 118 r next_song;
#X msg 214 204 open ./musicas/FRAMESmastered2.mp3 \;;
#X obj 286 109 bng 50 250 50 0 empty empty empty 17 7 0 10 -260097
-1 -1;
#X obj 226 173 t b b;
#X connect 1 0 7 0;
#X connect 2 0 7 0;
#X connect 3 0 7 0;
#X connect 4 0 18 0;
#X connect 5 0 10 0;
#X connect 5 0 11 0;
#X connect 5 1 9 0;
#X connect 5 1 10 0;
#X connect 6 0 5 0;
#X connect 7 0 15 0;
#X connect 7 1 16 0;
#X connect 7 2 21 0;
#X connect 8 0 5 0;
#X connect 9 0 8 0;
#X connect 11 0 7 0;
#X connect 12 0 13 0;
#X connect 13 0 14 0;
#X connect 13 1 6 0;
#X connect 13 2 3 0;
#X connect 14 0 1 0;
#X connect 15 0 0 0;
#X connect 16 0 0 1;
#X connect 17 0 15 1;
#X connect 17 0 16 1;
#X connect 18 0 17 0;
#X connect 18 0 17 1;
#X connect 19 0 12 0;
#X connect 20 0 8 0;
#X connect 21 0 22 0;
#X connect 21 1 23 0;
#X connect 21 1 24 0;
#X connect 25 0 12 0;
#X connect 26 0 7 0;
#X connect 27 0 28 0;
#X connect 28 0 14 0;
#X connect 28 1 26 0;
#X restore 583 102 pd musicas;
#N canvas 102 138 761 508 video_ext 0;
#X obj 516 428 print;
#X obj 87 384 tgl 15 0 empty empty empty 17 7 0 10 -262144 -1 -1 0
1;
#X msg 107 282 connect localhost 3003;
#X obj 83 347 netsend -u;
#X obj 131 389 print;
#X msg 112 307 disconnect;
#X msg 518 310 ./pause.sh;
#X msg 573 360 killall mplayer;
#X obj 28 8 r vid1;
#X obj 76 11 r vid2;
#X obj 129 9 r vid3;
#X obj 177 12 r vid4;
#X obj 518 282 r pause;
#X obj 573 333 r killvid;
#X msg 124 158 mplayer -geometry 1366 -noborder -ao jack -slave -input
file=/tmp/labio ./videos/Sérgio.mp4;
#X msg 87 122 mplayer -geometry 1366 -noborder -ao jack -slave -input
file=/tmp/labio ./videos/nuno.mp4;
#X msg 66 77 mplayer -geometry 1366 -noborder -ao jack -slave -input
file=/tmp/labio ./videos/Raquel.mp4;
#X msg 25 36 mplayer -geometry 1366 -noborder -ao jack -slave -input
file=/tmp/labio ./videos/alex.mp4;
#X connect 2 0 3 0;
#X connect 3 0 1 0;
#X connect 5 0 3 0;
#X connect 8 0 17 0;
#X connect 9 0 16 0;
#X connect 10 0 15 0;
#X connect 11 0 14 0;
#X connect 12 0 6 0;
#X connect 13 0 7 0;
#X restore 584 76 pd video_ext;
#X connect 0 0 49 0;
#X connect 0 1 15 0;
#X connect 1 0 0 2;
#X connect 2 0 8 0;
#X connect 3 0 20 0;
#X connect 4 0 45 2;
#X connect 5 0 12 0;
#X connect 6 0 17 0;
#X connect 8 0 1 0;
#X connect 9 0 45 1;
#X connect 10 0 45 3;
#X connect 13 0 8 1;
#X connect 15 0 16 0;
#X connect 17 0 48 0;
#X connect 19 0 0 0;
#X connect 20 0 19 1;
#X connect 20 1 0 1;
#X connect 21 0 22 0;
#X connect 23 0 19 0;
#X connect 25 0 27 0;
#X connect 25 1 27 0;
#X connect 26 0 28 0;
#X connect 26 0 39 0;
#X connect 27 0 37 0;
#X connect 29 0 39 1;
#X connect 30 0 31 0;
#X connect 32 0 30 0;
#X connect 34 0 42 0;
#X connect 35 0 45 0;
#X connect 36 0 38 1;
#X connect 37 0 26 0;
#X connect 38 0 47 0;
#X connect 39 0 33 0;
#X connect 40 0 13 0;
#X connect 41 0 13 0;
#X connect 42 0 35 0;
#X connect 43 0 44 0;
#X connect 47 0 29 0;
#X connect 49 0 14 0;
#X connect 50 0 38 0;
