#N canvas 566 129 643 558 10;
#X declare -lib mrpeach -lib iemnet;
#X obj -203 -67 table barulho;
#N canvas 742 77 533 588 calc_barulho 0;
#X obj 41 -34 inlet;
#X obj 41 37 spigot;
#X obj 46 114 +;
#X msg 90 148 0;
#X obj 206 135 sel 0;
#X obj 206 161 t b b;
#X obj 134 238 f;
#X obj 104 407 outlet;
#X obj 424 -38 inlet;
#X text 102 64 make sum;
#X obj 267 338 f;
#X obj 252 366 /;
#X obj 252 393 * 10;
#X obj 252 422 outlet;
#X obj 240 309 t f b;
#X text 86 -35 decibels;
#X text 102 -91 sum each incoming decibels (left output) divide by
the "10 value" and output (right) the vote;
#X text 118 149 reset sum;
#X obj 206 -28 inlet;
#X obj 280 50 f;
#X obj 248 50 +;
#X text 311 51 make sum;
#X obj 80 87 t f f;
#X obj 46 168 f;
#X text 34 186 sum of DBs;
#X connect 0 0 1 0;
#X connect 1 0 2 0;
#X connect 2 0 23 0;
#X connect 3 0 23 0;
#X connect 4 0 5 0;
#X connect 5 0 3 0;
#X connect 5 1 6 0;
#X connect 6 0 7 0;
#X connect 6 0 14 0;
#X connect 8 0 10 1;
#X connect 10 0 11 1;
#X connect 11 0 12 0;
#X connect 12 0 13 0;
#X connect 14 0 11 0;
#X connect 14 1 10 0;
#X connect 18 0 1 1;
#X connect 18 0 4 0;
#X connect 19 0 20 1;
#X connect 22 0 2 1;
#X connect 22 1 6 1;
#X connect 23 0 22 0;
#X restore -432 266 pd calc_barulho;
#X obj -254 -19 import mrpeach iemnet;
#N canvas 774 423 450 300 barulho_array 0;
#X floatatom 18 78 5 0 0 1 msec_of_barulho - -;
#X obj 18 148 * 22.05;
#X obj 18 9 loadbang;
#X obj 228 150 expr size("barulho");
#X floatatom 228 179 10 0 0 0 - - -;
#X obj 228 123 bng 15 250 50 0 empty empty empty 17 7 0 10 -262144
-1 -1;
#X obj 231 64 tabread barulho;
#X floatatom 231 32 10 0 0 0 - - -;
#X floatatom 231 93 5 0 0 0 - - -;
#X msg 18 213 \; barulho resize \$1;
#X msg 18 46 5000;
#X floatatom 18 180 5 0 0 0 - - -;
#X connect 0 0 1 0;
#X connect 1 0 11 0;
#X connect 2 0 10 0;
#X connect 3 0 4 0;
#X connect 5 0 3 0;
#X connect 6 0 8 0;
#X connect 7 0 6 0;
#X connect 10 0 0 0;
#X connect 11 0 9 0;
#X restore -251 -44 pd barulho_array;
#N canvas 305 170 575 594 sendOSC 0;
#X obj 206 47 inlet;
#X obj 46 49 r conn1;
#X obj 33 125 t f b;
#X obj 74 126 t b f;
#X obj 46 75 sel 0 1;
#X msg 70 100 1;
#X msg 38 100 0;
#X obj 46 332 spigot;
#X msg 73 224 disconnect;
#X obj 249 47 inlet;
#X obj 334 48 inlet;
#X floatatom 53 392 5 0 0 0 - - -;
#X obj 46 359 udpsend;
#X obj 148 274 packOSC;
#X msg 207 197 send /dbs \$1;
#X msg 218 219 send /barulho_vote \$1;
#X msg 240 264 send /ctrl \$1;
#X obj 393 52 inlet;
#X msg 274 284 send /timer_ctrl \$1;
#X obj 170 42 vsl 15 128 0 100 0 0 empty empty empty 0 -9 0 10 -262144
-1 -1 0 1;
#X obj 184 18 spigot;
#X obj 237 18 tgl 15 0 empty empty empty 17 7 0 10 -262144 -1 -1 0
1;
#X msg 36 192 connect localhost 3322;
#X obj 356 316 r desliga;
#X msg 354 344 send /desliga go;
#X obj 365 439 r Mode;
#X msg 348 468 send /Mode \$1;
#X obj 339 374 r RecoverTimer;
#X msg 348 413 send /RecoverTimer \$1;
#X obj 52 464 r juri;
#X obj 52 489 prepend send;
#X msg 408 209 send /zera_votos bang;
#X obj 413 177 r zera_votos;
#X obj 260 460 r pubYA;
#X msg 252 491 send /pubYA \$1;
#X obj 377 519 r Logo-Sel;
#X msg 370 572 send /LogoSel \$1;
#X connect 0 0 14 0;
#X connect 0 0 20 0;
#X connect 1 0 4 0;
#X connect 2 0 7 1;
#X connect 2 1 8 0;
#X connect 3 0 22 0;
#X connect 3 1 7 1;
#X connect 4 0 6 0;
#X connect 4 1 5 0;
#X connect 5 0 3 0;
#X connect 6 0 2 0;
#X connect 7 0 12 0;
#X connect 8 0 7 0;
#X connect 9 0 15 0;
#X connect 10 0 16 0;
#X connect 12 0 11 0;
#X connect 13 0 7 0;
#X connect 14 0 13 0;
#X connect 15 0 13 0;
#X connect 16 0 13 0;
#X connect 17 0 18 0;
#X connect 18 0 13 0;
#X connect 20 0 19 0;
#X connect 21 0 20 1;
#X connect 22 0 7 0;
#X connect 23 0 24 0;
#X connect 24 0 13 0;
#X connect 25 0 26 0;
#X connect 26 0 13 0;
#X connect 27 0 28 0;
#X connect 28 0 13 0;
#X connect 29 0 30 0;
#X connect 30 0 13 0;
#X connect 31 0 13 0;
#X connect 32 0 31 0;
#X connect 33 0 34 0;
#X connect 34 0 13 0;
#X connect 35 0 36 0;
#X connect 36 0 13 0;
#X restore -361 442 pd sendOSC;
#X floatatom -345 241 12 0 0 1 maximum_barulho_(10) - -;
#X obj -345 54 bng 50 250 50 0 empty setValue set_value_10 55 25 0
14 -4034 -1 -1;
#X obj -399 183 r ctrl;
#X obj -330 408 r ctrl;
#X obj -469 35 tgl 50 0 empty ctrl-r control 55 25 0 14 -159808 -1
-1 1 1;
#X obj -344 -69 loadbang;
#X text -728 -64 1) check the silence barulho (ambient noise) & set
silence barulho 3) run the barulhometro the first time for maximum
noise (vote 10) on 5 seconds 4) set the value 10 OBS: \$1 argument
out of range (in the [pd barulho_array]? why? - the color of the column
becomes red too early;
#X text -376 122 3) write this value in the box below;
#N canvas 372 462 289 267 barulho_table 0;
#X obj -174 15 inlet~;
#X obj -166 184 spigot~;
#X obj -133 133 r ctrl;
#X obj -85 238 tabwrite~ barulho;
#X obj -133 158 tgl 15 0 empty empty empty 17 7 0 10 -262144 -1 -1
0 1;
#X obj -71 42 r ctrl;
#X obj -71 68 sel 0 1;
#X msg -82 91 stop;
#X msg -48 92 start;
#X connect 0 0 1 0;
#X connect 1 1 3 0;
#X connect 2 0 4 0;
#X connect 4 0 1 1;
#X connect 5 0 6 0;
#X connect 6 0 7 0;
#X connect 6 1 8 0;
#X connect 7 0 3 0;
#X connect 8 0 3 0;
#X restore -251 28 pd barulho_table;
#X obj -345 207 f;
#X obj -377 385 r barulho_vote;
#X obj -283 408 r timer_ctrl;
#N canvas 0 13 608 507 interface 1;
#N canvas 46 28 855 693 INTERFACE-GOP 0;
#X obj 244 362 bng 20 250 50 0 empty empty barulhometro_ctrl 23 7 0
10 -4034 -1 -1;
#X obj 242 235 bng 120 250 50 0 empty empty timer_on 17 45 0 13 -4160
-1 -262144;
#X obj 365 235 bng 120 250 50 0 empty empty timer_off 20 50 0 10 -159808
-262144 -262144;
#X msg 25 373 \; ctrl-r 1 \;;
#X msg 10 13 \; timer_ctrl 1;
#X msg 122 12 \; timer_ctrl 0 \;;
#N canvas 111 115 412 205 OSCandroid 0;
#X obj -727 23 dumpOSC 8000;
#X msg -724 138 \; ctrl-r 1 \;;
#X msg -552 138 \; timer_ctrl 1;
#X msg -460 137 \; timer_ctrl 0 \;;
#X obj -404 111 print;
#X obj -641 -7 routeOSC /accxyz /1/push1 /1/push4 /1/push2 /1/push5
;
#X obj -721 66 routeOSC /accxyz /btn1/1 /btn2/1 /btn3/1 /btn4/1;
#X obj -634 17 sel 1;
#X obj -474 17 sel 1;
#X obj -407 15 sel 1;
#X obj -541 15 sel 1;
#X obj -666 95 bng 15 250 50 0 empty empty empty 17 7 0 10 -262144
-1 -1;
#X obj -599 97 bng 15 250 50 0 empty empty empty 17 7 0 10 -262144
-1 -1;
#X obj -536 101 bng 15 250 50 0 empty empty empty 17 7 0 10 -262144
-1 -1;
#X obj -459 107 bng 15 250 50 0 empty empty empty 17 7 0 10 -262144
-1 -1;
#X msg -654 138 \; desliga bang;
#X connect 0 0 6 0;
#X connect 6 1 1 0;
#X connect 6 1 11 0;
#X connect 6 2 15 0;
#X connect 6 2 12 0;
#X connect 6 3 2 0;
#X connect 6 3 13 0;
#X connect 6 4 3 0;
#X connect 6 4 14 0;
#X restore 606 607 pd OSCandroid;
#X obj 453 483 bng 30 250 50 0 empty empty zera_voto -7 -7 0 10 -191407
-1 -1;
#X obj 486 613 r timer_ctrl;
#X obj 109 114 vradio 120 1 0 4 empty empty empty 0 -8 0 10 -262144
-1 -1 0;
#X obj 43 204 s Mode;
#X text 113 115 Geral;
#X text 114 237 Timer;
#X text 114 360 Barulho;
#X text 115 477 Vota;
#X obj 58 267 r Mode;
#X obj 55 292 sel 2;
#X obj 502 306 tgl 50 0 empty empty resume_time -7 60 0 10 -262144
-1 -1 0 1;
#X text 268 663 Mostra barra timer;
#X obj 454 17 s RecoverTimer;
#X obj 245 392 nbx 4 32 -1e+037 1e+037 0 0 /juri/1_\$1 empty empty
0 -8 0 26 -262144 -1 -1 34 256;
#X obj 245 435 nbx 4 32 -1e+037 1e+037 0 0 empty empty empty 0 -8 0
26 -262144 -1 -1 36 256;
#X obj 245 477 nbx 4 32 -1e+037 1e+037 0 0 empty empty empty 0 -8 0
26 -262144 -1 -1 1 256;
#X obj 245 519 nbx 4 32 -1e+037 1e+037 0 0 empty empty empty 0 -8 0
26 -262144 -1 -1 2 256;
#X obj 245 561 nbx 4 32 -1e+037 1e+037 0 0 empty empty empty 0 -8 0
26 -262144 -1 -1 5.78 256;
#X obj 88 635 s juri;
#X obj 108 658 s juri;
#X obj 221 621 s juri;
#X obj 229 641 s juri;
#X msg 10 635 /juri/2 \$1;
#X msg 24 656 /juri/3 \$1;
#X msg 142 622 /juri/4 \$1;
#X msg 148 643 /juri/5 \$1;
#X obj 82 610 s juri;
#X msg 14 610 /juri/1 \$1;
#X obj 389 474 bng 50 250 50 0 empty empty empty 17 7 0 10 -257985
-1 -1;
#X msg 326 632 /juri/calc bang;
#X obj 327 664 s juri;
#X text 311 396 JURI 1;
#X text 310 439 JURI 2;
#X text 309 562 JURI 5;
#X text 309 522 JURI 4;
#X text 309 481 JURI 3;
#X text 374 450 Calcula VOTOS;
#X msg 472 638 \; zera_votos bang;
#X obj 387 392 tgl 50 0 empty empty Média_COM_Público -5 -10 0 10
-191407 -1 -1 1 1;
#X obj 23 494 s pubYA;
#X obj 552 390 vradio 16 1 0 12 Logo-Sel empty empty 0 -8 0 10 -262144
-1 -1 11;
#X text 570 388 Portugal Slam;
#X text 570 404 Sul;
#X text 569 420 Sines;
#X text 569 434 Ponta Delgada;
#X text 569 465 Coimbra;
#X text 569 483 Braga;
#X text 569 500 Aveiro;
#X text 569 516 Amadora;
#X text 569 532 Lx;
#X text 570 548 SlamT;
#X text 570 565 Labio;
#X text 570 450 Matosinhos;
#X obj 246 125 tgl 30 1 connOSC empty connOSC -5 -7 0 10 -257985 -1
-1 1 1;
#X obj 288 127 tgl 50 0 chkSilence empty check_silence 55 25 0 14 -204786
-1 -1 0 1;
#X obj 274 49 r noiseLevel;
#X obj 288 186 nbx 5 28 -1e+037 1e+037 0 0 empty silenceLevel empty
0 -8 0 20 -262144 -1 -1 47.7032 256;
#X obj 512 105 cnv 15 180 180 empty empty CALIBRATION 20 12 0 14 -203904
-66577 0;
#X obj 524 167 bng 50 250 50 0 setValue empty set_value_10 55 25 0
14 -4034 -1 -1;
#X obj 522 129 nbx 7 28 -1e+037 1e+037 0 0 NoiseSum NoiseSum-r empty
0 -8 0 20 -262144 -1 -1 16168.7 256;
#X obj 523 229 nbx 5 28 -1e+037 1e+037 0 0 empty BarulhoVote-s Barulho_Vote
6 40 0 20 -262144 -1 -1 5.77454 256;
#N canvas 599 130 450 332 INSTRUCTIONS 0;
#X text 37 237 'barulhometro_ctrl' is to also to bang the barulhometro
\; 'resume time' is the show again the timer bar (in case of misunderstanding
and the poem seemed to be done) _doubts and bug reports labio.pt@gmail.com
;
#X text 37 17 This is the complete display for a Poetry Slam standard
event \, especially created for the LabIO SLAM. 1) open the 'barulhometro.pd'
and click on [pd interface] \; which should be already open \; 2) connect
OSC - the yellow square on top left \; connOSC 3) check silence - light
green toggle on the right of connOSC \; 4) CALIBRATE: make the louder
possible noise for 5 sec \; _click on Barulho in the main control on
the left \; _click on 'the set_value_10' toggle \; 5) TIMER: click
on the ´Timer´ square in the main control \; _click on the blue bang
'timer_on' to start timer (with 3 \, 2 \, 1...SLAM!) \; _click on the
Barulho in main control when poem ends \; 7) JURI: click on 'Vota'
\; _fill in the votes of the 5 juris \; _click on 'Média_COM_Público'
if you want crowd noise to be counted as a juri \; _click 'Calcula
VOTOS' \;;
#X restore 370 115 pd INSTRUCTIONS;
#X connect 0 0 3 0;
#X connect 1 0 4 0;
#X connect 2 0 5 0;
#X connect 7 0 44 0;
#X connect 8 0 7 0;
#X connect 9 0 10 0;
#X connect 15 0 16 0;
#X connect 16 0 0 0;
#X connect 17 0 19 0;
#X connect 20 0 34 0;
#X connect 21 0 29 0;
#X connect 22 0 30 0;
#X connect 23 0 31 0;
#X connect 24 0 32 0;
#X connect 29 0 25 0;
#X connect 30 0 26 0;
#X connect 31 0 27 0;
#X connect 32 0 28 0;
#X connect 34 0 33 0;
#X connect 35 0 36 0;
#X connect 36 0 37 0;
#X connect 45 0 46 0;
#X coords 0 -1 1 1 600 500 1 100 100;
#X restore -207 -1 pd INTERFACE-GOP;
#X restore -253 4 pd interface;
#X obj -432 291 max 0;
#N canvas 769 520 197 274 CONTROL 0;
#X msg -78 210 \; ctrl 0 \;;
#X obj -78 53 sel 1 0;
#X msg -51 148 \; ctrl 1 \;;
#X obj -78 185 delay 5000;
#X obj -78 116 t b b;
#X msg -59 79 \; barulho_vote 0 \;;
#X obj -78 20 inlet;
#X connect 1 0 4 0;
#X connect 1 1 5 0;
#X connect 3 0 0 0;
#X connect 4 0 3 0;
#X connect 4 1 2 0;
#X connect 6 0 1 0;
#X restore -469 95 pd CONTROL;
#X obj -330 167 nbx 7 28 -1e+037 1e+037 0 0 NoiseSum-r empty empty
0 -8 0 20 -262144 -1 -1 16168.7 256;
#X obj -432 319 s NoiseSum;
#X obj -330 143 r NoiseSum;
#X obj -325 288 nbx 5 28 -1e+037 1e+037 0 0 BarulhoVote-s empty Barulho_Vote
6 40 0 20 -262144 -1 -1 5.77454 256;
#X obj -325 351 s barulho_vote;
#X obj -344 -45 delay 2000;
#X msg -344 -21 \; pd dsp 1 \; ctrl 1 \; conn1 1 \;;
#X obj -460 384 average 18;
#X obj -460 408 speedlim 192;
#N canvas 368 499 450 300 bugs 0;
#X text 24 17 quando liga a estrela do barulhometro aparece também
no timer;
#X text 26 57 a primeira vez que calcula o barulho nao da um valor
;
#X text 30 92 o [pd control] serve a lançar os 5 segundos \, e a zerar
o voto _acho que se pode abdicar dele;
#X restore -256 -67 pd bugs;
#X obj -460 441 s DB_Slow;
#X obj -432 234 spigot;
#X obj -399 208 t f f;
#X obj -727 39 tgl 30 1 empty connOSC connect_OSC -5 -7 0 10 -257985
-1 -1 1 1;
#X obj -727 78 s conn1;
#X obj -644 36 tgl 50 0 empty chkSilence check_silence 55 25 0 14 -204786
-1 -1 0 1;
#N canvas 562 188 218 218 noise_level 0;
#X obj -260 136 outlet;
#X obj -176 -18 inlet;
#X obj -258 58 spigot;
#X obj -258 -20 r dbs;
#X obj -258 86 average 72;
#X obj -260 113 speedlim 768;
#X connect 1 0 2 1;
#X connect 2 0 4 0;
#X connect 3 0 2 0;
#X connect 4 0 5 0;
#X connect 5 0 0 0;
#X restore -643 93 pd noise_level;
#X obj -643 154 nbx 5 28 -1e+037 1e+037 0 0 empty empty empty 0 -8
0 20 -262144 -1 -1 47.7032 256;
#X obj -437 159 r noiseLevel;
#X obj -628 126 s silenceLevel;
#X obj -735 230 cnv 15 230 230 empty empty empty 20 12 0 14 -233017
-66577 0;
#X obj -722 239 adc~;
#X obj -722 296 env~;
#X obj -721 269 hip~ 100;
#X obj -677 387 s dbs;
#X text -664 267 cut low f;
#X obj -722 409 - 60;
#X obj -688 322 nbx 5 28 -1e+037 1e+037 0 0 empty empty set_silence
0 -8 0 15 -262144 -1 -1 47.6564 256;
#X obj -582 265 - 100;
#X obj -581 289 vu 34 160 empty empty -1 -8 0 10 -66577 -1 1 0;
#X obj -581 242 r dbs;
#X obj -722 433 s noiseLevel;
#X obj -460 359 r noiseLevel;
#X text -256 444 8 out 2014;
#X obj -658 198 f;
#X obj -685 143 sel 0;
#X connect 1 0 18 0;
#X connect 1 1 23 0;
#X connect 5 0 1 2;
#X connect 6 0 14 0;
#X connect 7 0 32 0;
#X connect 8 0 4 2;
#X connect 9 0 19 0;
#X connect 10 0 25 0;
#X connect 14 0 5 0;
#X connect 15 0 4 1;
#X connect 16 0 4 3;
#X connect 18 0 21 0;
#X connect 20 0 14 1;
#X connect 22 0 20 0;
#X connect 23 0 24 0;
#X connect 25 0 26 0;
#X connect 27 0 28 0;
#X connect 28 0 4 0;
#X connect 28 0 30 0;
#X connect 31 0 1 0;
#X connect 32 0 31 1;
#X connect 32 1 1 1;
#X connect 33 0 34 0;
#X connect 35 0 36 0;
#X connect 35 0 55 0;
#X connect 36 0 37 0;
#X connect 36 0 39 0;
#X connect 37 0 54 1;
#X connect 38 0 31 0;
#X connect 41 0 43 0;
#X connect 41 1 43 0;
#X connect 42 0 44 0;
#X connect 42 0 46 0;
#X connect 43 0 42 0;
#X connect 46 0 51 0;
#X connect 47 0 46 1;
#X connect 48 0 49 0;
#X connect 50 0 48 0;
#X connect 52 0 27 0;
#X connect 54 0 47 0;
#X connect 55 0 54 0;
