#N canvas 725 248 640 429 10;
#X text 520 386 Mick & X 2012;
#X obj 497 200 wordbutton 80 30 save;
#X obj 188 172 numberbox 200 26 Smpl1Lenght smpl 0 882000 0;
#X obj 45 383 numberbox 100 32 foobar latTest 0 99999 500;
#X text 491 369 Barulhometro_AndCntrl;
#X obj 317 344 tgl 15 0 empty empty connY 17 7 0 10 -262144 -1 -1 0
1;
#X obj 315 236 tgl 80 0 empty empty liga 17 7 0 10 -262144 -1 -1 0
1;
#X obj 12 8 hradio 120 1 0 4 state empty empty 0 -8 0 10 -262144 -1
-1 0;
#X text 32 13 Geral;
#X text 140 12 Timer;
#X text 257 12 Barulho;
#X text 378 13 Vota;
#X obj 27 202 numberbox 100 32 foobar juri1 0 99999 500;
#X obj 29 227 numberbox 100 32 foobar juri2 0 99999 500;
#X obj 31 253 numberbox 100 32 foobar juri3 0 99999 500;
#X obj 30 279 numberbox 100 32 foobar juri4 0 99999 500;
#X obj 32 305 numberbox 100 32 foobar juri5 0 99999 500;
#N canvas 449 222 463 387 connect 0;
#X obj 41 270 spigot;
#X obj 14 67 sel 0 1;
#X msg 15 96 0;
#X msg 59 94 1;
#X obj 15 123 t f b;
#X obj 59 121 t b f;
#X obj 97 94 s scaleGUI;
#X msg 111 185 disconnect;
#X obj 22 29 inlet;
#X obj 46 358 outlet conn;
#X msg 261 241 send /state \$1;
#X obj 266 211 r state;
#X obj 41 324 netsend;
#X msg 40 156 connect \$1 9000;
#X obj 279 145 print;
#X obj 255 96 makefilename;
#X obj 346 76 symbol2list;
#X msg 314 15 192.168.3.54;
#X msg 342 49 symbol connect \$1;
#X obj 208 43 pack s s;
#X msg 173 33 a;
#X msg 224 19 b;
#X connect 0 0 12 0;
#X connect 1 0 2 0;
#X connect 1 1 3 0;
#X connect 1 1 6 0;
#X connect 2 0 4 0;
#X connect 3 0 5 0;
#X connect 4 0 0 1;
#X connect 4 1 7 0;
#X connect 5 0 13 0;
#X connect 5 1 0 1;
#X connect 7 0 0 0;
#X connect 8 0 1 0;
#X connect 10 0 12 0;
#X connect 11 0 10 0;
#X connect 12 0 9 0;
#X connect 13 0 0 0;
#X connect 15 0 14 0;
#X connect 17 0 18 0;
#X connect 18 0 16 0;
#X connect 20 0 19 0;
#X connect 21 0 19 1;
#X restore 316 322 pd connect;
#X connect 6 0 17 0;
#X connect 17 0 5 0;
