#N canvas 501 152 708 577 10;
#X obj 259 165 gemhead;
#X obj 259 141 tgl 15 0 empty empty empty 17 7 0 10 -262144 -1 -1 1
1;
#X obj 164 269 pix_image;
#X obj 164 436 pix_texture;
#X obj 254 281 hradio 15 1 1 3 empty empty empty 0 -8 0 10 -262144
-1 -1 0;
#N canvas 156 320 320 264 META 0;
#X obj 69 22 inlet;
#X obj 82 210 outlet;
#X obj 50 174 pix_metaimage;
#X obj 125 142 hsl 70 15 0 1 0 0 empty empty empty -2 -8 0 10 -262144
-1 -1 0 1;
#X obj 178 92 line;
#X obj 176 115 pow 4;
#X obj 178 21 inlet;
#X msg 178 68 0 \, 1 20000;
#X connect 0 0 2 0;
#X connect 2 0 1 0;
#X connect 3 0 2 1;
#X connect 4 0 5 0;
#X connect 5 0 3 0;
#X connect 6 0 7 0;
#X connect 7 0 4 0;
#X restore 138 390 pd META;
#N canvas 482 159 849 439 PUZZLE 0;
#X obj 116 243 pix_puzzle;
#X msg 25 204 size \$1 \$2;
#X obj 42 177 pack f f;
#X floatatom 47 119 5 0 0 0 - - -, f 5;
#X floatatom 89 118 5 0 0 0 - - -, f 5;
#X obj 92 146 t b f;
#X text 480 62 reset;
#X floatatom 193 128 4 0 0 1 width - -, f 4;
#X floatatom 203 110 4 0 0 1 height - -, f 4;
#X obj 180 82 pix_info . . .;
#X obj 263 233 / 10;
#X obj 226 234 / 10;
#X msg 234 293 size \$1 \$2;
#X msg 478 151 size 4 3;
#X msg 510 197 size 1 1;
#X msg 471 128 size 15 10;
#X msg 498 176 size 2 2;
#X obj 229 267 pack f f;
#X floatatom 305 84 5 0 0 0 - - -, f 5;
#X obj 205 164 change;
#X obj 251 148 change;
#X obj 112 -43 inlet;
#X obj 93 292 outlet;
#X obj 105 -9 t a a b;
#X obj 357 -132 tgl 15 0 empty empty empty 17 7 0 10 -262144 -1 -1
0 1;
#X msg 464 94 bang;
#X floatatom 539 -40 5 0 0 0 - - -, f 5;
#X obj 235 -6 t b b;
#X obj 677 -54 random 80;
#X obj 628 119 line;
#X obj 679 -79 bng 15 250 50 0 empty empty empty 17 7 0 10 -262144
-1 -1;
#X obj 685 138 + 0.5;
#X obj 682 168 int;
#X obj 590 4 delay 2500;
#X obj 664 73 pack 0 2500;
#X obj 637 -32 t b f;
#X msg 591 35 1;
#X obj 693 -104 inlet;
#X msg 496 236 size 150 150;
#N canvas 1 53 450 300 speedlimBangs 0;
#X obj 202 94 f;
#X obj 249 95 + 1;
#X obj 201 186 sel 0;
#X obj 201 48 inlet gemBang;
#X obj 356 62 inlet speed;
#X obj 187 228 outlet;
#X obj 201 156 mod 2;
#X connect 0 0 6 0;
#X connect 1 0 0 1;
#X connect 2 0 5 0;
#X connect 3 0 0 0;
#X connect 4 0 6 1;
#X connect 6 0 1 0;
#X connect 6 0 2 0;
#X restore 405 -2 pd speedlimBangs;
#X obj 219 -73 Patches/LabIO_demux-2;
#X connect 0 0 22 0;
#X connect 1 0 0 0;
#X connect 2 0 1 0;
#X connect 3 0 2 0;
#X connect 4 0 5 0;
#X connect 5 0 2 0;
#X connect 5 1 2 1;
#X connect 7 0 19 0;
#X connect 8 0 20 0;
#X connect 9 1 7 0;
#X connect 9 2 8 0;
#X connect 10 0 17 1;
#X connect 11 0 17 0;
#X connect 12 0 0 0;
#X connect 13 0 0 0;
#X connect 14 0 0 0;
#X connect 15 0 0 0;
#X connect 16 0 0 0;
#X connect 17 0 12 0;
#X connect 18 0 11 1;
#X connect 18 0 10 1;
#X connect 19 0 11 0;
#X connect 20 0 10 0;
#X connect 21 0 23 0;
#X connect 23 0 0 0;
#X connect 23 1 9 0;
#X connect 23 2 40 0;
#X connect 24 0 40 1;
#X connect 25 0 0 0;
#X connect 26 0 39 1;
#X connect 27 0 19 0;
#X connect 27 1 20 0;
#X connect 28 0 35 0;
#X connect 29 0 31 0;
#X connect 30 0 28 0;
#X connect 31 0 32 0;
#X connect 32 0 18 0;
#X connect 33 0 36 0;
#X connect 34 0 29 0;
#X connect 35 0 33 0;
#X connect 35 1 34 0;
#X connect 36 0 34 0;
#X connect 37 0 30 0;
#X connect 38 0 0 0;
#X connect 39 0 25 0;
#X connect 40 0 27 0;
#X connect 40 1 39 0;
#X restore 199 409 pd PUZZLE;
#X obj 560 73 tgl 15 0 empty empty empty 17 7 0 10 -262144 -1 -1 1
1;
#X obj 531 96 t f f f;
#X obj 606 10 r Mode;
#X obj 605 42 == 0;
#X floatatom 670 46 5 0 0 0 - - -, f 5;
#X obj 190 16 loadbang;
#X floatatom 212 506 5 0 0 0 - - -, f 5;
#X floatatom 265 508 5 0 0 0 - - -, f 5;
#X obj 164 469 translateXYZ 0 0 0;
#X obj 160 532 rectangle 5.33 3.8;
#X text 283 32 Usado quando se está a espera do proximo slammer;
#N canvas 1 104 496 484 text_move 0;
#X obj 133 10 gemhead;
#X msg 39 215 text ArtCasa;
#X floatatom 194 216 5 0 0 0 - - -, f 5;
#X obj 144 236 text2d;
#X obj 169 446 text3d;
#X obj 138 171 translateXYZ;
#X obj 138 91 colorRGB;
#X obj 131 39 alpha;
#X obj 197 39 vsl 15 40 0 1 0 0 empty empty empty 0 -9 0 10 -262144
-1 -1 0 1;
#X obj 242 110 sin;
#X obj 241 134 cos;
#X obj 315 142 f;
#X obj 349 143 + 1;
#X obj 319 84 tgl 15 0 empty empty empty 17 7 0 10 -262144 -1 -1 0
1;
#X obj 316 170 / 10;
#X obj 243 77 tan;
#X obj 316 108 metro 100;
#X obj 377 236 tan;
#X obj 372 265 pow -1;
#X floatatom 379 311 5 0 0 0 - - -, f 5;
#X floatatom 313 363 5 0 0 0 - - -, f 5;
#X obj 263 383 text2d;
#X obj 257 318 translateXYZ;
#X obj 259 278 colorRGB;
#X msg 102 351 text LabIO;
#X obj 265 253 gemhead;
#X text 213 446 crasha;
#X obj 267 32 tgl 15 0 empty empty empty 17 7 0 10 -262144 -1 -1 0
1;
#X obj 254 5 inlet;
#X obj 336 35 loadbang;
#X msg 346 64 0;
#X msg 96 328 font FONTS/Kerata.ttf;
#X msg 39 195 font FONTS/Kerata.ttf;
#X connect 0 0 7 0;
#X connect 1 0 3 0;
#X connect 2 0 3 1;
#X connect 5 0 3 0;
#X connect 6 0 5 0;
#X connect 7 0 6 0;
#X connect 8 0 6 4;
#X connect 9 0 5 1;
#X connect 10 0 5 2;
#X connect 11 0 12 0;
#X connect 11 0 14 0;
#X connect 12 0 11 1;
#X connect 13 0 16 0;
#X connect 14 0 9 0;
#X connect 14 0 10 0;
#X connect 14 0 15 0;
#X connect 14 0 17 0;
#X connect 15 0 8 0;
#X connect 16 0 11 0;
#X connect 17 0 18 0;
#X connect 18 0 19 0;
#X connect 19 0 23 4;
#X connect 20 0 21 1;
#X connect 22 0 21 0;
#X connect 23 0 22 0;
#X connect 24 0 21 0;
#X connect 25 0 23 0;
#X connect 27 0 0 0;
#X connect 27 0 25 0;
#X connect 28 0 27 0;
#X connect 29 0 30 0;
#X connect 30 0 27 0;
#X connect 31 0 21 0;
#X connect 32 0 3 0;
#X restore -16 336 pd text_move;
#X obj 254 304 t f f;
#X text 352 11 Ecran Geral;
#N canvas 112 116 602 480 logos 0;
#X obj 37 353 outlet;
#X msg 42 25 open IMAGENS/logos_org/logo_slam_sul.jpg;
#X msg 77 53 open IMAGENS/logos_org/logo_slam_sines.jpg;
#X msg 160 133 open IMAGENS/logos_org/logo_slam_coimbra.jpg;
#X msg 175 160 open IMAGENS/logos_org/logo_slam_braga.jpg;
#X msg 179 219 open IMAGENS/logos_org/logo_slam_amadora.jpg;
#X msg 181 247 open IMAGENS/logos_org/logo_slam_LX.jpg;
#X msg 179 277 open IMAGENS/logos_org/logo_slamT.jpg;
#X msg 126 81 open IMAGENS/logos_org/logo_slam_ponta_delgada.png;
#X msg 177 187 open IMAGENS/logos_org/logo_slam_aveiro.png;
#X msg 171 329 open IMAGENS/logos_org/LabIOSlam_logo.jpg;
#X obj 237 -101 r Logo-Sel;
#X msg 173 301 open IMAGENS/logos_org/slamBrr.jpg;
#X obj 242 -54 sel 0 1 2 3 4 5 6 7 8 9 10 11 12;
#X msg 148 106 open IMAGENS/logos_org/slam_Cascais.jpg;
#X msg 13 -4 open IMAGENS/logos_org/trindade.jpg;
#X connect 1 0 0 0;
#X connect 2 0 0 0;
#X connect 3 0 0 0;
#X connect 4 0 0 0;
#X connect 5 0 0 0;
#X connect 6 0 0 0;
#X connect 7 0 0 0;
#X connect 8 0 0 0;
#X connect 9 0 0 0;
#X connect 10 0 0 0;
#X connect 11 0 13 0;
#X connect 12 0 0 0;
#X connect 13 0 15 0;
#X connect 13 1 1 0;
#X connect 13 2 2 0;
#X connect 13 3 8 0;
#X connect 13 4 14 0;
#X connect 13 5 3 0;
#X connect 13 6 4 0;
#X connect 13 7 9 0;
#X connect 13 8 5 0;
#X connect 13 9 6 0;
#X connect 13 10 7 0;
#X connect 13 11 12 0;
#X connect 13 12 10 0;
#X connect 14 0 0 0;
#X connect 15 0 0 0;
#X restore 49 190 pd logos;
#X text 306 278 Efeitos 0 = desligados;
#X obj 428 138 r logoON;
#X obj 428 161 tgl 15 0 empty empty empty 17 7 0 10 -262144 -1 -1 1
1;
#X obj 551 387 rectangle 5.33 4;
#X obj 584 187 r palcoS;
#X obj 520 187 r palcoH;
#X obj 643 186 r palcoV;
#X obj 566 312 hsv2rgb;
#X obj 553 277 pack f f f;
#X obj 552 352 color;
#X obj 587 221 t b f;
#X obj 649 233 t b f;
#X obj 376 317 bng 15 250 50 0 empty empty empty 17 7 0 10 -262144
-1 -1;
#X obj 348 396 bng 15 250 50 0 empty empty empty 17 7 0 10 -262144
-1 -1;
#X obj 451 331 metro 10000;
#X obj 452 298 tgl 15 0 empty empty empty 17 7 0 10 -262144 -1 -1 0
1;
#X obj 472 391 tgl 15 0 empty empty empty 17 7 0 10 -262144 -1 -1 0
1;
#X obj 472 411 + 1;
#X obj 460 360 t b b;
#X obj 113 336 Patches/LabIO_demux-3;
#X obj 295 351 Patches/LabIO_demux-3;
#X obj 524 127 r connectionStatus;
#X obj 508 150 sel 1;
#X msg 475 162 0;
#X msg 11 68 open IMAGENS/slam-logo-inv.png;
#X obj 164 291 alpha;
#X obj 259 194 Patches/LabIO_demux-2;
#X connect 0 0 48 0;
#X connect 1 0 0 0;
#X connect 2 0 47 0;
#X connect 3 0 15 0;
#X connect 4 0 19 0;
#X connect 5 0 3 0;
#X connect 6 0 3 0;
#X connect 7 0 8 0;
#X connect 8 1 1 0;
#X connect 9 0 10 0;
#X connect 9 0 11 0;
#X connect 10 0 7 0;
#X connect 12 0 46 0;
#X connect 13 0 16 1;
#X connect 14 0 16 2;
#X connect 15 0 16 0;
#X connect 19 0 41 1;
#X connect 19 1 42 1;
#X connect 21 0 2 0;
#X connect 23 0 24 0;
#X connect 24 0 48 1;
#X connect 26 0 32 0;
#X connect 27 0 30 0;
#X connect 28 0 33 0;
#X connect 29 0 31 1;
#X connect 30 0 29 0;
#X connect 31 0 25 0;
#X connect 32 0 30 0;
#X connect 32 1 30 1;
#X connect 33 0 30 0;
#X connect 33 1 30 2;
#X connect 34 0 42 0;
#X connect 36 0 40 0;
#X connect 37 0 36 0;
#X connect 38 0 39 0;
#X connect 39 0 4 0;
#X connect 40 0 34 0;
#X connect 40 1 38 0;
#X connect 41 0 3 0;
#X connect 41 1 5 0;
#X connect 41 2 6 0;
#X connect 42 0 5 1;
#X connect 42 2 6 1;
#X connect 43 0 44 0;
#X connect 44 0 45 0;
#X connect 45 0 24 0;
#X connect 46 0 2 0;
#X connect 47 0 41 0;
#X connect 48 0 2 0;
#X connect 48 1 31 0;
