#N canvas 511 113 708 503 10;
#X obj 429 64 gemwin;
#X msg 418 19 create \, 1;
#X msg 435 42 destroy;
#X obj 272 68 gemhead;
#N canvas 707 213 450 300 text_move 0;
#X msg 30 181 font Kerata.ttf;
#X obj 133 10 gemhead;
#X msg 39 206 text ArtCasa;
#X floatatom 194 216 5 0 0 0 - - -;
#X floatatom 59 144 5 0 0 0 - - -;
#X obj 144 236 text2d;
#X obj 169 446 text3d;
#X obj 138 171 translateXYZ;
#X obj 138 91 colorRGB;
#X obj 131 39 alpha;
#X obj 197 39 vsl 15 40 0 1 0 0 empty empty empty 0 -9 0 10 -262144
-1 -1 0 1;
#X obj 242 110 sin;
#X obj 241 134 cos;
#X obj 315 142 f;
#X obj 349 143 + 1;
#X obj 319 84 tgl 15 0 empty empty empty 17 7 0 10 -262144 -1 -1 0
1;
#X obj 316 170 / 10;
#X obj 243 77 tan;
#X obj 316 108 metro 100;
#X obj 377 236 tan;
#X obj 372 265 pow -1;
#X floatatom 379 311 5 0 0 0 - - -;
#X msg 149 328 font Kerata.ttf;
#X floatatom 313 363 5 0 0 0 - - -;
#X floatatom 178 291 5 0 0 0 - - -;
#X obj 263 383 text2d;
#X obj 257 318 translateXYZ;
#X obj 259 278 colorRGB;
#X msg 158 353 text LabIO;
#X obj 265 253 gemhead;
#X text 213 446 crasha;
#X obj 267 32 tgl 15 0 empty empty empty 17 7 0 10 -262144 -1 -1 0
1;
#X obj 254 5 inlet;
#X obj 336 35 loadbang;
#X msg 346 64 0;
#X connect 0 0 5 0;
#X connect 1 0 9 0;
#X connect 2 0 5 0;
#X connect 3 0 5 1;
#X connect 7 0 5 0;
#X connect 8 0 7 0;
#X connect 9 0 8 0;
#X connect 10 0 8 4;
#X connect 11 0 7 1;
#X connect 12 0 7 2;
#X connect 13 0 14 0;
#X connect 13 0 16 0;
#X connect 14 0 13 1;
#X connect 15 0 18 0;
#X connect 16 0 11 0;
#X connect 16 0 12 0;
#X connect 16 0 17 0;
#X connect 16 0 19 0;
#X connect 17 0 10 0;
#X connect 18 0 13 0;
#X connect 19 0 20 0;
#X connect 20 0 21 0;
#X connect 21 0 27 4;
#X connect 22 0 25 0;
#X connect 23 0 25 1;
#X connect 26 0 25 0;
#X connect 27 0 26 0;
#X connect 28 0 25 0;
#X connect 29 0 27 0;
#X connect 31 0 1 0;
#X connect 31 0 29 0;
#X connect 32 0 31 0;
#X connect 33 0 34 0;
#X connect 34 0 31 0;
#X restore 72 45 pd text_move;
#X obj 279 38 tgl 15 0 empty empty empty 17 7 0 10 -262144 -1 -1 1
1;
#X obj 150 131 pix_image;
#X msg 150 83 open ArtCasa.jpg;
#X obj 138 319 pix_texture;
#X obj 140 352 rectangle 4 3;
#X obj 228 164 hradio 15 1 0 3 empty empty empty 0 -8 0 10 -262144
-1 -1 0;
#N canvas 728 474 450 300 META 0;
#X obj 69 22 inlet;
#X obj 82 210 outlet;
#X obj 41 138 pix_metaimage;
#X obj 116 114 hsl 70 15 0 1 0 0 empty empty empty -2 -8 0 10 -262144
-1 -1 5959 1;
#X obj 169 64 line;
#X obj 167 87 pow 4;
#X msg 169 40 0 \, 1 5000;
#X obj 169 12 inlet;
#X connect 0 0 2 0;
#X connect 2 0 1 0;
#X connect 3 0 2 1;
#X connect 4 0 5 0;
#X connect 5 0 3 0;
#X connect 6 0 4 0;
#X connect 7 0 6 0;
#X restore 104 294 pd META;
#N canvas 351 194 849 439 PUZZLE 0;
#X obj 116 243 pix_puzzle;
#X msg 413 32 size \$1 \$2;
#X obj 446 2 pack f f;
#X floatatom 451 -56 5 0 0 0 - - -;
#X floatatom 493 -57 5 0 0 0 - - -;
#X obj 496 -29 t b f;
#X text 480 62 reset;
#X floatatom 193 128 4 0 0 1 width - -;
#X floatatom 203 110 4 0 0 1 height - -;
#X obj 180 82 pix_info . . .;
#X obj 263 233 / 10;
#X obj 226 234 / 10;
#X msg 234 293 size \$1 \$2;
#X msg 478 151 size 4 3;
#X msg 510 197 size 1 1;
#X msg 471 128 size 15 10;
#X msg 498 176 size 2 2;
#X obj 229 267 pack f f;
#X floatatom 305 84 5 0 0 0 - - -;
#X obj 205 164 change;
#X obj 251 148 change;
#X obj 364 90 speedlim 100;
#X obj 112 -43 inlet;
#X obj 93 292 outlet;
#X obj 105 -9 t a a b;
#X obj 235 -32 demux;
#X obj 262 -74 tgl 15 0 empty empty empty 17 7 0 10 -262144 -1 -1 0
1;
#X msg 464 94 bang;
#X floatatom 353 11 5 0 0 0 - - -;
#X obj 235 -6 t b b;
#X obj 642 -73 random 80;
#X obj 628 119 line;
#X obj 627 -118 bng 15 250 50 0 empty empty empty 17 7 0 10 -262144
-1 -1;
#X obj 685 138 + 0.5;
#X obj 682 168 int;
#X obj 590 4 delay 2500;
#X obj 664 73 pack 0 2500;
#X obj 637 -32 t b f;
#X msg 591 35 1;
#X obj 693 -104 inlet;
#X connect 0 0 23 0;
#X connect 1 0 0 0;
#X connect 2 0 1 0;
#X connect 3 0 2 0;
#X connect 4 0 5 0;
#X connect 5 0 2 0;
#X connect 5 1 2 1;
#X connect 7 0 19 0;
#X connect 8 0 20 0;
#X connect 9 1 7 0;
#X connect 9 2 8 0;
#X connect 10 0 17 1;
#X connect 11 0 17 0;
#X connect 12 0 0 0;
#X connect 13 0 0 0;
#X connect 14 0 0 0;
#X connect 15 0 0 0;
#X connect 16 0 0 0;
#X connect 17 0 12 0;
#X connect 18 0 11 1;
#X connect 18 0 10 1;
#X connect 19 0 11 0;
#X connect 20 0 10 0;
#X connect 21 0 27 0;
#X connect 22 0 24 0;
#X connect 24 0 0 0;
#X connect 24 1 9 0;
#X connect 24 2 25 0;
#X connect 25 0 29 0;
#X connect 25 1 21 0;
#X connect 26 0 25 1;
#X connect 27 0 0 0;
#X connect 28 0 21 1;
#X connect 29 0 19 0;
#X connect 29 1 20 0;
#X connect 30 0 37 0;
#X connect 31 0 33 0;
#X connect 32 0 30 0;
#X connect 33 0 34 0;
#X connect 34 0 18 0;
#X connect 35 0 38 0;
#X connect 36 0 31 0;
#X connect 37 0 35 0;
#X connect 37 1 36 0;
#X connect 38 0 36 0;
#X connect 39 0 32 0;
#X restore 175 293 pd PUZZLE;
#X obj 133 210 demux 0 1 2 3;
#X obj 547 -29 tgl 15 0 empty empty empty 17 7 0 10 -262144 -1 -1 1
1;
#X obj 529 101 bng 15 250 50 0 empty empty empty 17 7 0 10 -262144
-1 -1;
#X obj 251 259 demux 0 1 2 3;
#X obj 278 111 t b f f;
#X obj 526 137 tgl 15 0 empty empty empty 17 7 0 10 -262144 -1 -1 0
1;
#X obj 275 227 metro 10000;
#X obj 573 64 sel 1;
#X obj 495 -17 t f f f;
#X obj 526 -103 r Mode;
#X obj 525 -71 == 0;
#X floatatom 590 -67 5 0 0 0 - - -;
#X obj 159 30 loadbang;
#X msg 228 18 0;
#X connect 1 0 0 0;
#X connect 2 0 0 0;
#X connect 3 0 6 0;
#X connect 5 0 3 0;
#X connect 6 0 13 0;
#X connect 7 0 6 0;
#X connect 8 0 9 0;
#X connect 10 0 13 1;
#X connect 11 0 8 0;
#X connect 12 0 8 0;
#X connect 13 0 11 0;
#X connect 13 1 12 0;
#X connect 14 0 21 0;
#X connect 15 0 18 0;
#X connect 16 0 11 1;
#X connect 16 1 12 1;
#X connect 17 1 10 0;
#X connect 17 2 16 1;
#X connect 18 0 17 0;
#X connect 19 0 16 0;
#X connect 20 0 15 0;
#X connect 21 0 19 0;
#X connect 21 1 5 0;
#X connect 21 2 20 0;
#X connect 22 0 23 0;
#X connect 22 0 24 0;
#X connect 23 0 14 0;
#X connect 25 0 7 0;
#X connect 25 0 26 0;
#X connect 26 0 5 0;
