#N canvas 243 76 1018 663 10;
#X obj 3 -14 nbx 4 30 -1e+37 1e+37 0 0 empty JuriVote-1-set empty 0
-8 0 25 -262144 -1 -1 1 256;
#X msg 351 147 add2 \$1;
#X msg 388 186 list 1 4 3 9 9.1;
#X msg 456 136 set list;
#X obj 388 256 list split 1;
#X obj 388 292 list split 3;
#X text 281 220 sort ascending;
#X text 296 261 out the min;
#X text 300 290 out the max;
#X floatatom 400 635 12 0 0 0 - - -, f 12;
#N canvas 939 117 449 187 tab_votos 0;
#X obj 55 56 tabwrite votos;
#N canvas 0 50 450 300 (subpatch) 0;
#X array votos 6 float 3;
#A 0 1 3 3 3 3 352462;
#X coords 0 11 6 -1 200 100 1 0 0;
#X restore 203 31 graph;
#X floatatom 133 33 5 0 0 0 - - -, f 5;
#X obj 129 10 r ind;
#X obj 56 32 r vote;
#X obj 60 130 tabread votos;
#X floatatom 59 150 5 0 0 0 - - -, f 5;
#X obj 58 108 hradio 15 1 0 6 empty empty empty 0 -8 0 10 -262144 -1
-1 0;
#X connect 2 0 0 1;
#X connect 3 0 2 0;
#X connect 4 0 0 0;
#X connect 5 0 6 0;
#X connect 7 0 5 0;
#X restore 11 632 pd tab_votos;
#X obj 486 -170 bng 15 250 50 0 empty empty empty 17 7 0 10 -262144
-1 -1;
#X obj 357 115 tabread votos;
#X obj 30 51 tabwrite votos;
#X msg 111 28 0;
#X obj 111 7 loadbang;
#N canvas 739 410 450 300 ROUND 0;
#X obj 55 24 inlet;
#X obj 85 129 + 0.5;
#X obj 85 159 int;
#X obj 85 233 outlet;
#X obj 86 103 * 100;
#X obj 85 190 / 100;
#X connect 0 0 4 0;
#X connect 1 0 2 0;
#X connect 2 0 5 0;
#X connect 4 0 1 0;
#X connect 5 0 3 0;
#X restore 400 604 pd ROUND;
#X obj 3 27 t f f;
#X obj 3 75 s JuriVote-1;
#X obj 3 126 nbx 4 30 -1e+37 1e+37 0 0 empty JuriVote-2-set empty 0
-8 0 25 -262144 -1 -1 3 256;
#X obj 30 191 tabwrite votos;
#X obj 111 147 loadbang;
#X obj 3 167 t f f;
#X msg 111 168 1;
#X obj 3 215 s JuriVote-2;
#X obj 3 256 nbx 4 30 -1e+37 1e+37 0 0 empty JuriVote-3-set empty 0
-8 0 25 -262144 -1 -1 3 256;
#X obj 30 321 tabwrite votos;
#X obj 111 277 loadbang;
#X obj 3 297 t f f;
#X msg 111 298 2;
#X obj 3 345 s JuriVote-3;
#X obj 3 386 nbx 4 30 -1e+37 1e+37 0 0 empty JuriVote-4-set empty 0
-8 0 25 -262144 -1 -1 3 256;
#X obj 30 451 tabwrite votos;
#X obj 111 407 loadbang;
#X obj 3 427 t f f;
#X msg 112 428 3;
#X obj 3 475 s JuriVote-4;
#X obj 3 506 nbx 4 30 -1e+37 1e+37 0 0 empty JuriVote-5-set empty 0
-8 0 25 -262144 -1 -1 3 256;
#X obj 30 571 tabwrite votos;
#X obj 111 527 loadbang;
#X obj 3 547 t f f;
#X msg 112 548 4;
#X obj 3 595 s JuriVote-5;
#X obj 400 664 s JuriVote-Mean;
#X obj 462 606 bng 15 250 50 0 empty empty empty 17 7 0 10 -262144
-1 -1;
#X floatatom 290 417 12 0 0 0 - - -, f 12;
#X obj 400 528 line;
#X msg 400 505 0 \, \$1 1500;
#X obj 494 -252 r calc_juri;
#X obj 400 474 f;
#X obj 368 442 delay 2;
#X obj 486 -148 t b b b b b;
#X obj 388 416 t b f;
#X obj 190 68 t f b;
#X msg 226 95 5;
#X obj 190 120 tabwrite votos;
#X obj 190 -15 r barulho_vote;
#X msg 614 115 add2 \$1;
#X msg 738 168 set list;
#X obj 681 270 list split 1;
#X text 577 246 sort ascending;
#X text 590 274 out the min;
#X text 594 303 out the max;
#X floatatom 694 634 12 0 0 0 - - -, f 12;
#X obj 690 -160 bng 15 250 50 0 empty empty empty 17 7 0 10 -262144
-1 -1;
#X obj 614 85 tabread votos;
#N canvas 743 411 450 300 ROUND 0;
#X obj 55 24 inlet;
#X obj 85 129 + 0.5;
#X obj 85 159 int;
#X obj 85 233 outlet;
#X obj 86 103 * 100;
#X obj 85 190 / 100;
#X connect 0 0 4 0;
#X connect 1 0 2 0;
#X connect 2 0 5 0;
#X connect 4 0 1 0;
#X connect 5 0 3 0;
#X restore 693 604 pd ROUND;
#X obj 694 663 s JuriVote-Mean;
#X obj 756 605 bng 15 250 50 0 empty empty empty 17 7 0 10 -262144
-1 -1;
#X floatatom 583 426 12 0 0 0 - - -, f 12;
#X obj 693 538 line;
#X msg 693 515 0 \, \$1 1500;
#X obj 693 483 f;
#X obj 661 451 delay 2;
#X obj 689 -139 t b b b b b;
#X obj 681 425 t b f;
#X msg 700 213 list 1 3 3 3 3 352462;
#X obj 681 299 list split 4;
#X obj 638 -223 tgl 15 0 empty empty empty 17 7 0 10 -262144 -1 -1
1 1;
#X obj 638 -246 r pubYA;
#X obj 190 18 nbx 4 30 -1e+37 1e+37 0 0 empty empty empty 0 -8 0 25
-262144 -1 -1 352462 256;
#X obj 494 -231 bng 15 250 50 0 empty empty empty 17 7 0 10 -262144
-1 -1;
#X obj 511 610 print JURI AVERAGE;
#X msg 542 350 clear;
#X floatatom 345 513 5 0 0 0 - - -, f 5;
#X obj 372 61 f;
#X obj 401 62 + 1;
#X floatatom 401 88 5 0 0 0 - - -, f 5;
#X msg 321 58 0;
#X obj 318 94 sel 5;
#X obj 600 -22 + 1;
#X floatatom 598 30 5 0 0 0 - - -, f 5;
#X obj 892 299 print split1;
#X obj 879 324 print split2;
#X obj 868 273 print sort;
#N canvas 0 54 1366 714 FINAL_COUNT 0;
#X obj 18 118 table votos_final;
#X msg 16 72 \; votos_final bounds 0 0 11 10 \; votos_final resize
12;
#X obj 41 640 tabwrite votos_final;
#X obj 356 592 hradio 15 1 0 12 empty empty empty 0 -8 0 10 -262144
-1 -1 11;
#X obj 226 101 nbx 5 14 -1e+37 1e+37 0 0 empty juriA-1 juriA-1 0 -8
0 10 -262144 -1 -1 0 256;
#X obj 227 122 t f b;
#X obj 355 657 tabread votos_final;
#X obj 355 620 hradio 15 1 0 12 empty empty empty 0 -8 0 10 -262144
-1 -1 0;
#X floatatom 298 657 5 0 0 0 - - -, f 5;
#X msg 713 229 add2 \$1;
#X msg 843 224 set list;
#X obj 761 320 list split 1;
#X text 669 291 sort ascending;
#X text 682 319 out the min;
#X text 686 348 out the max;
#X floatatom 774 604 12 0 0 0 - - -, f 12;
#X obj 761 379 list-drip;
#X obj 720 95 bng 15 250 50 0 empty empty empty 17 7 0 10 -262144 -1
-1;
#N canvas 739 459 207 282 ROUND 0;
#X obj 55 24 inlet;
#X obj 85 129 + 0.5;
#X obj 85 159 int;
#X obj 85 233 outlet;
#X obj 86 103 * 100;
#X obj 85 190 / 100;
#X connect 0 0 4 0;
#X connect 1 0 2 0;
#X connect 2 0 5 0;
#X connect 4 0 1 0;
#X connect 5 0 3 0;
#X restore 773 574 pd ROUND;
#X floatatom 663 476 12 0 0 0 - - -, f 12;
#X obj 773 533 f;
#X obj 741 501 delay 2;
#X obj 849 100 t b b b b b;
#X obj 761 475 t b f;
#X obj 769 293 sort 1;
#X msg 780 263 list 4 4 4 9 4 4;
#X obj 761 349 list split 4;
#X obj 720 116 repeat 6;
#X msg 906 405 clear;
#X msg 849 397 4;
#X obj 761 449 average 4;
#X obj 729 145 f;
#X obj 758 146 + 1;
#X floatatom 758 172 5 0 0 0 - - -, f 5;
#X msg 657 142 0;
#X obj 658 171 sel 6;
#X obj 711 197 tabread votos_final;
#X obj 833 68 bng 15 250 50 0 empty empty empty 17 7 0 10 -262144 -1
-1;
#X obj 40 258 nbx 5 14 -1e+37 1e+37 0 0 empty barA barA 0 -8 0 10 -262144
-1 -1 0 256;
#X obj 54 389 nbx 5 14 -1e+37 1e+37 0 0 empty barB barB 0 -8 0 10 -262144
-1 -1 0 256;
#X obj 54 408 t f b;
#X obj 43 282 t f b;
#X msg 59 316 0;
#X msg 70 442 6;
#X obj 409 110 nbx 5 14 -1e+37 1e+37 0 0 empty juriB-1 juriB-1 0 -8
0 10 -262144 -1 -1 0 256;
#X obj 409 132 t f b;
#X obj 225 185 nbx 5 14 -1e+37 1e+37 0 0 empty juriA-2 juriA-2 0 -8
0 10 -262144 -1 -1 0 256;
#X obj 225 212 t f b;
#X obj 222 275 nbx 5 14 -1e+37 1e+37 0 0 empty juriA-3 juriA-3 0 -8
0 10 -262144 -1 -1 0 256;
#X obj 222 302 t f b;
#X obj 219 375 nbx 5 14 -1e+37 1e+37 0 0 empty juriA-4 juriA-4 0 -8
0 10 -262144 -1 -1 0 256;
#X obj 219 402 t f b;
#X obj 220 464 nbx 5 14 -1e+37 1e+37 0 0 empty juriA-5 juriA-5 0 -8
0 10 -262144 -1 -1 0 256;
#X obj 220 491 t f b;
#X obj 444 198 nbx 5 14 -1e+37 1e+37 0 0 empty juriB-2 juriB-2 0 -8
0 10 -262144 -1 -1 0 256;
#X obj 444 225 t f b;
#X obj 475 290 nbx 5 14 -1e+37 1e+37 0 0 empty juriB-3 juriB-3 0 -8
0 10 -262144 -1 -1 0 256;
#X obj 475 317 t f b;
#X obj 488 386 nbx 5 14 -1e+37 1e+37 0 0 empty juriB-4 juriB-4 0 -8
0 10 -262144 -1 -1 0 256;
#X obj 488 413 t f b;
#X obj 475 482 nbx 5 14 -1e+37 1e+37 0 0 empty juriB-5 juriB-5 0 -8
0 10 -262144 -1 -1 0 256;
#X obj 475 509 t f b;
#X msg 265 525 5;
#X msg 264 429 4;
#X msg 262 328 3;
#X msg 259 234 2;
#X msg 252 144 1;
#X msg 436 159 7;
#X msg 469 247 8;
#X msg 503 341 9;
#X msg 515 437 10;
#X msg 494 534 11;
#X msg 1027 245 add2 \$1;
#X msg 1157 240 set list;
#X obj 1075 336 list split 1;
#X text 983 307 sort ascending;
#X text 996 335 out the min;
#X text 1000 364 out the max;
#X floatatom 1088 620 12 0 0 0 - - -, f 12;
#X obj 1075 395 list-drip;
#X obj 1034 111 bng 15 250 50 0 empty empty empty 17 7 0 10 -262144
-1 -1;
#N canvas 739 459 207 282 ROUND 0;
#X obj 55 24 inlet;
#X obj 85 129 + 0.5;
#X obj 85 159 int;
#X obj 85 233 outlet;
#X obj 86 103 * 100;
#X obj 85 190 / 100;
#X connect 0 0 4 0;
#X connect 1 0 2 0;
#X connect 2 0 5 0;
#X connect 4 0 1 0;
#X connect 5 0 3 0;
#X restore 1087 590 pd ROUND;
#X floatatom 977 492 12 0 0 0 - - -, f 12;
#X obj 1087 549 f;
#X obj 1055 517 delay 2;
#X obj 1163 116 t b b b b b;
#X obj 1075 491 t b f;
#X obj 1083 309 sort 1;
#X msg 1094 279 list 9 1 1 1 1 1;
#X obj 1075 365 list split 4;
#X obj 1034 132 repeat 6;
#X msg 1206 418 clear;
#X msg 1163 413 4;
#X obj 1075 465 average 4;
#X obj 1043 161 f;
#X obj 1072 162 + 1;
#X floatatom 1072 188 5 0 0 0 - - -, f 5;
#X obj 1025 213 tabread votos_final;
#X obj 1147 84 bng 15 250 50 0 empty empty empty 17 7 0 10 -262144
-1 -1;
#X obj 971 186 sel 11;
#X msg 971 158 6;
#X obj 17 38 loadbang;
#X obj 749 32 r calculaA;
#X obj 1086 42 r calculaB;
#X obj 780 632 s votoA;
#X obj 1067 646 s votoB;
#X connect 3 0 2 1;
#X connect 4 0 5 0;
#X connect 5 0 2 0;
#X connect 5 1 66 0;
#X connect 6 0 8 0;
#X connect 7 0 6 0;
#X connect 9 0 25 0;
#X connect 10 0 25 0;
#X connect 11 1 26 0;
#X connect 15 0 104 0;
#X connect 16 0 30 0;
#X connect 17 0 27 0;
#X connect 18 0 15 0;
#X connect 20 0 18 0;
#X connect 21 0 20 0;
#X connect 22 0 25 0;
#X connect 22 1 17 0;
#X connect 22 2 10 0;
#X connect 22 3 29 0;
#X connect 22 4 28 0;
#X connect 23 0 21 0;
#X connect 23 1 20 1;
#X connect 24 0 11 0;
#X connect 25 0 24 0;
#X connect 26 0 16 0;
#X connect 27 0 31 0;
#X connect 28 0 30 0;
#X connect 30 0 19 0;
#X connect 30 0 23 0;
#X connect 31 0 32 0;
#X connect 31 0 33 0;
#X connect 31 0 35 0;
#X connect 31 0 36 0;
#X connect 32 0 31 1;
#X connect 34 0 31 1;
#X connect 35 0 34 0;
#X connect 36 0 9 0;
#X connect 37 0 22 0;
#X connect 38 0 41 0;
#X connect 39 0 40 0;
#X connect 40 0 2 0;
#X connect 40 1 43 0;
#X connect 41 0 2 0;
#X connect 41 1 42 0;
#X connect 42 0 3 0;
#X connect 43 0 3 0;
#X connect 44 0 45 0;
#X connect 45 0 2 0;
#X connect 45 1 67 0;
#X connect 46 0 47 0;
#X connect 47 0 2 0;
#X connect 47 1 65 0;
#X connect 48 0 49 0;
#X connect 49 0 2 0;
#X connect 49 1 64 0;
#X connect 50 0 51 0;
#X connect 51 0 2 0;
#X connect 51 1 63 0;
#X connect 52 0 53 0;
#X connect 53 0 2 0;
#X connect 53 1 62 0;
#X connect 54 0 55 0;
#X connect 55 0 2 0;
#X connect 55 1 68 0;
#X connect 56 0 57 0;
#X connect 57 0 2 0;
#X connect 57 1 69 0;
#X connect 58 0 59 0;
#X connect 59 0 2 0;
#X connect 59 1 70 0;
#X connect 60 0 61 0;
#X connect 61 0 2 0;
#X connect 61 1 71 0;
#X connect 62 0 3 0;
#X connect 63 0 3 0;
#X connect 64 0 3 0;
#X connect 65 0 3 0;
#X connect 66 0 3 0;
#X connect 67 0 3 0;
#X connect 68 0 3 0;
#X connect 69 0 3 0;
#X connect 70 0 3 0;
#X connect 71 0 3 0;
#X connect 72 0 88 0;
#X connect 73 0 88 0;
#X connect 74 1 89 0;
#X connect 78 0 105 0;
#X connect 79 0 93 0;
#X connect 80 0 90 0;
#X connect 81 0 78 0;
#X connect 83 0 81 0;
#X connect 84 0 83 0;
#X connect 85 0 88 0;
#X connect 85 1 80 0;
#X connect 85 2 73 0;
#X connect 85 3 92 0;
#X connect 85 4 91 0;
#X connect 86 0 84 0;
#X connect 86 1 83 1;
#X connect 87 0 74 0;
#X connect 88 0 87 0;
#X connect 89 0 79 0;
#X connect 90 0 94 0;
#X connect 91 0 93 0;
#X connect 93 0 82 0;
#X connect 93 0 86 0;
#X connect 94 0 95 0;
#X connect 94 0 96 0;
#X connect 94 0 97 0;
#X connect 94 0 99 0;
#X connect 95 0 94 1;
#X connect 97 0 72 0;
#X connect 98 0 85 0;
#X connect 99 0 100 0;
#X connect 100 0 94 1;
#X connect 101 0 1 0;
#X connect 102 0 37 0;
#X connect 103 0 98 0;
#X restore 783 -213 pd FINAL_COUNT;
#X obj 388 320 list-abs/list-drip;
#X obj 681 329 list-abs/list-drip;
#X obj 388 221 list-abs/list-sort 0;
#X obj 689 243 list-abs/list-sort 0;
#X obj 681 399 Patches/media 4;
#X msg 372 -10 5;
#X obj 372 15 until;
#X obj 582 -77 until;
#X obj 582 5 f;
#X obj 600 -51 r juri_conta;
#X obj 582 166 s juri_conta;
#X obj 494 -198 Patches/LabIO_demux-2;
#X obj 582 55 t f f;
#X msg 582 -102 6;
#X msg 553 190 0;
#X obj 553 214 s juri_conta;
#X obj 859 -140 f;
#X obj 859 -118 + 1;
#X msg 749 -67 0;
#X obj 388 390 Patches/media 3;
#X connect 0 0 17 0;
#X connect 1 0 2 0;
#X connect 2 0 98 0;
#X connect 3 0 2 0;
#X connect 4 1 5 0;
#X connect 5 0 96 0;
#X connect 9 0 43 0;
#X connect 11 0 51 0;
#X connect 12 0 1 0;
#X connect 14 0 13 1;
#X connect 15 0 14 0;
#X connect 16 0 9 0;
#X connect 17 0 18 0;
#X connect 17 1 13 0;
#X connect 19 0 22 0;
#X connect 21 0 23 0;
#X connect 22 0 24 0;
#X connect 22 1 20 0;
#X connect 23 0 20 1;
#X connect 25 0 28 0;
#X connect 27 0 29 0;
#X connect 28 0 30 0;
#X connect 28 1 26 0;
#X connect 29 0 26 1;
#X connect 31 0 34 0;
#X connect 33 0 35 0;
#X connect 34 0 36 0;
#X connect 34 1 32 0;
#X connect 35 0 32 1;
#X connect 37 0 40 0;
#X connect 39 0 41 0;
#X connect 40 0 42 0;
#X connect 40 1 38 0;
#X connect 41 0 38 1;
#X connect 44 0 9 0;
#X connect 46 0 16 0;
#X connect 47 0 46 0;
#X connect 48 0 81 0;
#X connect 49 0 47 0;
#X connect 49 0 82 0;
#X connect 49 0 84 0;
#X connect 50 0 49 0;
#X connect 51 0 2 0;
#X connect 51 1 101 0;
#X connect 51 2 3 0;
#X connect 51 3 83 0;
#X connect 51 4 88 0;
#X connect 52 0 50 0;
#X connect 52 1 49 1;
#X connect 53 0 55 0;
#X connect 53 1 54 0;
#X connect 54 0 55 1;
#X connect 56 0 80 0;
#X connect 57 0 76 0;
#X connect 58 0 76 0;
#X connect 59 1 77 0;
#X connect 59 1 92 0;
#X connect 63 0 67 0;
#X connect 64 0 74 0;
#X connect 65 0 57 0;
#X connect 66 0 63 0;
#X connect 68 0 63 0;
#X connect 70 0 66 0;
#X connect 71 0 70 0;
#X connect 72 0 71 0;
#X connect 72 0 82 0;
#X connect 73 0 72 0;
#X connect 74 0 76 0;
#X connect 74 1 109 0;
#X connect 74 2 58 0;
#X connect 74 4 114 0;
#X connect 75 0 73 0;
#X connect 75 1 72 1;
#X connect 76 0 99 0;
#X connect 77 0 93 0;
#X connect 77 0 97 0;
#X connect 78 0 107 1;
#X connect 79 0 78 0;
#X connect 80 0 53 0;
#X connect 81 0 107 0;
#X connect 85 0 86 0;
#X connect 85 0 87 0;
#X connect 85 0 89 0;
#X connect 85 0 12 0;
#X connect 86 0 85 1;
#X connect 88 0 85 1;
#X connect 89 0 88 0;
#X connect 90 0 104 1;
#X connect 96 0 115 0;
#X connect 97 0 100 0;
#X connect 98 0 4 0;
#X connect 99 0 59 0;
#X connect 99 0 94 0;
#X connect 100 0 69 0;
#X connect 100 0 75 0;
#X connect 101 0 102 0;
#X connect 102 0 85 0;
#X connect 103 0 104 0;
#X connect 104 0 91 0;
#X connect 104 0 108 0;
#X connect 105 0 90 0;
#X connect 107 0 11 0;
#X connect 107 1 64 0;
#X connect 108 0 106 0;
#X connect 108 1 65 0;
#X connect 109 0 103 0;
#X connect 110 0 111 0;
#X connect 112 0 113 0;
#X connect 113 0 112 1;
#X connect 114 0 104 1;
#X connect 115 0 45 0;
#X connect 115 0 52 0;
