#N struct 1009-f float x;
#N struct 1019-f float x;
#N canvas 315 76 1018 663 10;
#X obj 3 -14 nbx 4 30 -1e+37 1e+37 0 0 empty JuriVote-1-set empty 0
-8 0 25 -262144 -1 -1 1235 256;
#N canvas 912 111 449 187 tab_votos 0;
#X obj 55 56 tabwrite votos;
#N canvas 0 50 450 300 (subpatch) 0;
#X array votos 6 float 3;
#A 0 1235 234 5.5 9 2 2341.81;
#X coords 0 11 6 -1 200 100 1 0 0;
#X restore 203 31 graph;
#X floatatom 133 33 5 0 0 0 - - -, f 5;
#X obj 129 10 r ind;
#X obj 56 32 r vote;
#X obj 60 130 tabread votos;
#X floatatom 59 150 5 0 0 0 - - -, f 5;
#X obj 58 108 hradio 15 1 0 6 empty empty empty 0 -8 0 10 -262144 -1
-1 0;
#X connect 2 0 0 1;
#X connect 3 0 2 0;
#X connect 4 0 0 0;
#X connect 5 0 6 0;
#X connect 7 0 5 0;
#X restore 11 632 pd tab_votos;
#X obj 30 51 tabwrite votos;
#X msg 111 28 0;
#X obj 111 7 loadbang;
#X obj 3 27 t f f;
#X obj 3 75 s JuriVote-1;
#X obj 3 126 nbx 4 30 -1e+37 1e+37 0 0 empty JuriVote-2-set empty 0
-8 0 25 -262144 -1 -1 234 256;
#X obj 30 191 tabwrite votos;
#X obj 111 147 loadbang;
#X obj 3 167 t f f;
#X msg 111 168 1;
#X obj 3 215 s JuriVote-2;
#X obj 3 256 nbx 4 30 -1e+37 1e+37 0 0 empty JuriVote-3-set empty 0
-8 0 25 -262144 -1 -1 0 256;
#X obj 30 321 tabwrite votos;
#X obj 111 277 loadbang;
#X obj 3 297 t f f;
#X msg 111 298 2;
#X obj 3 345 s JuriVote-3;
#X obj 3 386 nbx 4 30 -1e+37 1e+37 0 0 empty JuriVote-4-set empty 0
-8 0 25 -262144 -1 -1 0 256;
#X obj 30 451 tabwrite votos;
#X obj 111 407 loadbang;
#X obj 3 427 t f f;
#X msg 112 428 3;
#X obj 3 475 s JuriVote-4;
#X obj 3 506 nbx 4 30 -1e+37 1e+37 0 0 empty JuriVote-5-set empty 0
-8 0 25 -262144 -1 -1 0 256;
#X obj 30 571 tabwrite votos;
#X obj 111 527 loadbang;
#X obj 3 547 t f f;
#X msg 112 548 4;
#X obj 3 595 s JuriVote-5;
#X obj 190 68 t f b;
#X msg 226 95 5;
#X obj 190 120 tabwrite votos;
#X obj 190 -15 r barulho_vote;
#X msg 567 115 add2 \$1;
#X msg 691 168 set list;
#X obj 653 320 list split 1;
#X text 532 244 sort ascending;
#X text 561 322 out the min;
#X text 591 418 out the max;
#X floatatom 694 684 12 0 0 0 - - -, f 12;
#X obj 587 -187 bng 15 250 50 0 empty empty empty 17 7 0 10 -262144
-1 -1;
#X obj 567 85 tabread votos;
#N canvas 743 411 450 300 ROUND 0;
#X obj 55 24 inlet;
#X obj 85 129 + 0.5;
#X obj 85 159 int;
#X obj 85 233 outlet;
#X obj 86 103 * 100;
#X obj 85 190 / 100;
#X connect 0 0 4 0;
#X connect 1 0 2 0;
#X connect 2 0 5 0;
#X connect 4 0 1 0;
#X connect 5 0 3 0;
#X restore 693 654 pd ROUND;
#X obj 694 713 s JuriVote-Mean;
#X obj 756 655 bng 15 250 50 0 empty empty empty 17 7 0 10 -262144
-1 -1;
#X floatatom 548 604 12 0 0 0 - - -, f 12;
#X msg 693 605 0 \, \$1 1500;
#X msg 653 213 list 1235 234 5.5 9 2 2341.81;
#X obj 693 418 list split 4;
#X obj 190 18 nbx 12 30 -1e+37 1e+37 0 0 empty empty empty 0 -8 0 25
-262144 -1 -1 2341.81 256;
#X obj 532 637 print JURI AVERAGE;
#X obj 553 -32 + 1;
#X floatatom 551 30 5 0 0 0 - - -, f 5;
#X obj 566 345 print split1;
#X obj 583 449 print split2;
#X obj 554 269 print sort;
#N canvas 1 76 1310 663 FINAL_COUNT 0;
#X obj 18 -73 table votos_final;
#X msg 16 2 \; votos_final bounds 0 0 11 10 \; votos_final resize 12
;
#X obj 41 640 tabwrite votos_final;
#X obj 356 592 hradio 15 1 0 12 empty empty empty 0 -8 0 10 -262144
-1 -1 10;
#X obj 226 101 nbx 5 14 -1e+37 1e+37 0 0 empty juriA-1 juriA-1 0 -8
0 10 -262144 -1 -1 0 256;
#X obj 227 122 t f b;
#X obj 377 705 tabread votos_final;
#X obj 377 668 hradio 15 1 0 12 empty empty empty 0 -8 0 10 -262144
-1 -1 11;
#X floatatom 377 727 5 0 0 0 - - -, f 5;
#X obj 40 258 nbx 5 14 -1e+37 1e+37 0 0 empty barA barA 0 -8 0 10 -262144
-1 -1 0 256;
#X obj 54 389 nbx 5 14 -1e+37 1e+37 0 0 empty barB barB 0 -8 0 10 -262144
-1 -1 0 256;
#X obj 54 408 t f b;
#X obj 43 282 t f b;
#X obj 409 110 nbx 5 14 -1e+37 1e+37 0 0 empty juriB-1 juriB-1 0 -8
0 10 -262144 -1 -1 0 256;
#X obj 409 132 t f b;
#X obj 225 185 nbx 5 14 -1e+37 1e+37 0 0 empty juriA-2 juriA-2 0 -8
0 10 -262144 -1 -1 0 256;
#X obj 225 212 t f b;
#X obj 222 275 nbx 5 14 -1e+37 1e+37 0 0 empty juriA-3 juriA-3 0 -8
0 10 -262144 -1 -1 0 256;
#X obj 222 302 t f b;
#X obj 219 375 nbx 5 14 -1e+37 1e+37 0 0 empty juriA-4 juriA-4 0 -8
0 10 -262144 -1 -1 0 256;
#X obj 219 402 t f b;
#X obj 220 464 nbx 5 14 -1e+37 1e+37 0 0 empty juriA-5 juriA-5 0 -8
0 10 -262144 -1 -1 0 256;
#X obj 220 491 t f b;
#X obj 444 198 nbx 5 14 -1e+37 1e+37 0 0 empty juriB-2 juriB-2 0 -8
0 10 -262144 -1 -1 0 256;
#X obj 444 225 t f b;
#X obj 475 290 nbx 5 14 -1e+37 1e+37 0 0 empty juriB-3 juriB-3 0 -8
0 10 -262144 -1 -1 0 256;
#X obj 475 317 t f b;
#X obj 488 386 nbx 5 14 -1e+37 1e+37 0 0 empty juriB-4 juriB-4 0 -8
0 10 -262144 -1 -1 0 256;
#X obj 488 413 t f b;
#X obj 475 482 nbx 5 14 -1e+37 1e+37 0 0 empty juriB-5 juriB-5 0 -8
0 10 -262144 -1 -1 0 256;
#X obj 475 509 t f b;
#X obj 17 -32 loadbang;
#X obj 637 -161 r calculaA;
#X obj 1247 -95 r calculaB;
#X obj 744 775 s votoA;
#X obj 1352 849 s votoB;
#X msg 617 185 add2 \$1;
#X msg 741 238 set list;
#X obj 703 390 list split 1;
#X text 582 314 sort ascending;
#X text 611 392 out the min;
#X text 641 488 out the max;
#X floatatom 744 754 12 0 0 0 - - -, f 12;
#X obj 637 -117 bng 15 250 50 0 empty empty empty 17 7 0 10 -262144
-1 -1;
#N canvas 741 409 450 300 ROUND 0;
#X obj 55 24 inlet;
#X obj 85 129 + 0.5;
#X obj 85 159 int;
#X obj 85 233 outlet;
#X obj 86 103 * 100;
#X obj 85 190 / 100;
#X connect 0 0 4 0;
#X connect 1 0 2 0;
#X connect 2 0 5 0;
#X connect 4 0 1 0;
#X connect 5 0 3 0;
#X restore 743 724 pd ROUND;
#X obj 806 725 bng 15 250 50 0 empty empty empty 17 7 0 10 -262144
-1 -1;
#X floatatom 598 674 12 0 0 0 - - -, f 12;
#X msg 743 675 0 \, \$1 1500;
#X msg 703 283 list 2 3 4 4 5;
#X obj 743 488 list split 4;
#X obj 603 38 + 1;
#X obj 743 519 list-abs/list-drip;
#X obj 703 323 list-abs/list-sort 0;
#X obj 585 -17 until;
#X obj 585 75 f;
#X obj 585 125 t f f;
#X obj 743 639 Patches/media;
#X obj 901 416 tgl 15 0 empty empty empty 17 7 0 10 -262144 -1 -1 1
1;
#X obj 901 393 r pubYA;
#X obj 901 436 + 3;
#X obj 743 698 line 0 40;
#X floatatom 901 458 5 0 0 0 - - -, f 5;
#X obj 636 -96 t b b b b;
#X msg 696 -57 -1;
#X obj 696 -34 s juri_conta-A;
#X obj 603 9 r juri_conta-A;
#X obj 585 236 s juri_conta-A;
#X obj 582 707 print JURI-A AVERAGE;
#X obj 617 155 tabread votos_final;
#X msg 1226 260 add2 \$1;
#X msg 1350 313 set list;
#X obj 1312 465 list split 1;
#X text 1191 389 sort ascending;
#X text 1220 467 out the min;
#X text 1250 563 out the max;
#X floatatom 1352 829 12 0 0 0 - - -, f 12;
#X obj 1246 -42 bng 15 250 50 0 empty empty empty 17 7 0 10 -262144
-1 -1;
#N canvas 741 409 450 300 ROUND 0;
#X obj 55 24 inlet;
#X obj 85 129 + 0.5;
#X obj 85 159 int;
#X obj 85 233 outlet;
#X obj 86 103 * 100;
#X obj 85 190 / 100;
#X connect 0 0 4 0;
#X connect 1 0 2 0;
#X connect 2 0 5 0;
#X connect 4 0 1 0;
#X connect 5 0 3 0;
#X restore 1352 799 pd ROUND;
#X obj 1415 800 bng 15 250 50 0 empty empty empty 17 7 0 10 -262144
-1 -1;
#X floatatom 1191 761 12 0 0 0 - - -, f 12;
#X msg 1352 750 0 \, \$1 1500;
#X msg 1312 358 list 4 5 5 6 5;
#X obj 1352 563 list split 4;
#X obj 1139 75 + 1;
#X obj 1352 594 list-abs/list-drip;
#X obj 1312 398 list-abs/list-sort 0;
#X obj 1121 20 until;
#X obj 1121 112 f;
#X obj 1121 147 t f f;
#X obj 1352 714 Patches/media;
#X obj 1510 491 tgl 15 0 empty empty empty 17 7 0 10 -262144 -1 -1
1 1;
#X obj 1510 468 r pubYA;
#X obj 1510 511 + 3;
#X obj 1352 773 line 0 40;
#X floatatom 1510 533 5 0 0 0 - - -, f 5;
#X obj 1245 -21 t b b b b;
#X msg 1305 18 -1;
#X obj 1226 230 tabread votos_final;
#X obj 1305 41 s juri_conta-B;
#X obj 1139 46 r juri_conta-B;
#X obj 1121 314 s juri_conta-B;
#X obj 1191 782 print JURI-B AVERAGE;
#X obj 568 -48 f;
#X obj 543 -129 tgl 15 0 empty empty empty 17 7 0 10 -262144 -1 -1
1 1;
#X obj 543 -152 r pubYA;
#X floatatom 543 -87 5 0 0 0 - - -, f 5;
#X obj 543 -109 + 5;
#X msg 252 144 0;
#X msg 259 234 1;
#X msg 262 328 2;
#X msg 264 429 3;
#X msg 265 525 4;
#X msg 59 316 5;
#X msg 436 159 6;
#X msg 469 247 7;
#X msg 504 341 8;
#X msg 515 437 9;
#X msg 494 534 10;
#X msg 70 442 11;
#X obj 1116 -6 f;
#X obj 1091 -87 tgl 15 0 empty empty empty 17 7 0 10 -262144 -1 -1
1 1;
#X obj 1091 -110 r pubYA;
#X floatatom 1091 -45 5 0 0 0 - - -, f 5;
#X obj 1091 -67 + 5;
#X obj 1184 192 + 6;
#X obj 70 841 tabread votos;
#X msg 70 801 5;
#X obj 75 976 tabwrite votos_final;
#X msg 145 904 5;
#X obj 221 840 tabread votos;
#X msg 221 800 5;
#X msg 372 918 11;
#X obj 70 741 r gravaBarulhoFinal-A;
#X obj 221 772 r gravaBarulhoFinal-B;
#X obj 106 781 bng 15 250 50 0 empty empty empty 17 7 0 10 -262144
-1 -1;
#X obj 281 811 bng 15 250 50 0 empty empty empty 17 7 0 10 -262144
-1 -1;
#X obj -26 932 s barA;
#X obj 93 869 t f f b;
#X obj 221 876 t f f b;
#X obj 221 938 s barB;
#X obj -34 898 Patches/arredonda;
#X obj 221 916 Patches/arredonda;
#X connect 3 0 2 1;
#X connect 4 0 5 0;
#X connect 5 0 2 0;
#X connect 5 1 107 0;
#X connect 6 0 8 0;
#X connect 7 0 6 0;
#X connect 9 0 12 0;
#X connect 10 0 11 0;
#X connect 11 0 2 0;
#X connect 11 1 118 0;
#X connect 12 0 2 0;
#X connect 12 1 112 0;
#X connect 13 0 14 0;
#X connect 14 0 2 0;
#X connect 14 1 113 0;
#X connect 15 0 16 0;
#X connect 16 0 2 0;
#X connect 16 1 108 0;
#X connect 17 0 18 0;
#X connect 18 0 2 0;
#X connect 18 1 109 0;
#X connect 19 0 20 0;
#X connect 20 0 2 0;
#X connect 20 1 110 0;
#X connect 21 0 22 0;
#X connect 22 0 2 0;
#X connect 22 1 111 0;
#X connect 23 0 24 0;
#X connect 24 0 2 0;
#X connect 24 1 114 0;
#X connect 25 0 26 0;
#X connect 26 0 2 0;
#X connect 26 1 115 0;
#X connect 27 0 28 0;
#X connect 28 0 2 0;
#X connect 28 1 116 0;
#X connect 29 0 30 0;
#X connect 30 0 2 0;
#X connect 30 1 117 0;
#X connect 31 0 1 0;
#X connect 32 0 43 0;
#X connect 33 0 76 0;
#X connect 36 0 48 0;
#X connect 37 0 48 0;
#X connect 38 1 49 0;
#X connect 42 0 34 0;
#X connect 43 0 62 0;
#X connect 44 0 42 0;
#X connect 45 0 42 0;
#X connect 46 0 67 0;
#X connect 47 0 60 0;
#X connect 48 0 52 0;
#X connect 49 0 51 0;
#X connect 50 0 54 1;
#X connect 51 0 56 0;
#X connect 52 0 38 0;
#X connect 53 0 54 0;
#X connect 54 0 55 0;
#X connect 55 0 66 0;
#X connect 55 1 68 0;
#X connect 56 0 46 0;
#X connect 56 0 47 0;
#X connect 57 0 59 0;
#X connect 58 0 57 0;
#X connect 59 0 61 0;
#X connect 60 0 44 0;
#X connect 61 0 49 1;
#X connect 61 0 56 1;
#X connect 62 0 48 0;
#X connect 62 1 102 0;
#X connect 62 2 37 0;
#X connect 62 3 63 0;
#X connect 63 0 64 0;
#X connect 65 0 50 0;
#X connect 68 0 36 0;
#X connect 69 0 81 0;
#X connect 70 0 81 0;
#X connect 71 1 82 0;
#X connect 75 0 35 0;
#X connect 76 0 95 0;
#X connect 77 0 75 0;
#X connect 78 0 75 0;
#X connect 79 0 101 0;
#X connect 80 0 93 0;
#X connect 81 0 85 0;
#X connect 82 0 84 0;
#X connect 83 0 87 1;
#X connect 84 0 89 0;
#X connect 85 0 71 0;
#X connect 86 0 87 0;
#X connect 87 0 88 0;
#X connect 88 0 100 0;
#X connect 88 1 124 0;
#X connect 89 0 79 0;
#X connect 89 0 80 0;
#X connect 90 0 92 0;
#X connect 91 0 90 0;
#X connect 92 0 94 0;
#X connect 93 0 77 0;
#X connect 94 0 82 1;
#X connect 94 0 89 1;
#X connect 95 0 81 0;
#X connect 95 1 119 0;
#X connect 95 2 70 0;
#X connect 95 3 96 0;
#X connect 96 0 98 0;
#X connect 97 0 69 0;
#X connect 99 0 83 0;
#X connect 102 0 53 0;
#X connect 103 0 106 0;
#X connect 104 0 103 0;
#X connect 105 0 102 1;
#X connect 106 0 105 0;
#X connect 107 0 3 0;
#X connect 108 0 3 0;
#X connect 109 0 3 0;
#X connect 110 0 3 0;
#X connect 111 0 3 0;
#X connect 112 0 3 0;
#X connect 113 0 3 0;
#X connect 114 0 3 0;
#X connect 115 0 3 0;
#X connect 116 0 3 0;
#X connect 117 0 3 0;
#X connect 118 0 3 0;
#X connect 119 0 86 0;
#X connect 120 0 123 0;
#X connect 121 0 120 0;
#X connect 122 0 119 1;
#X connect 123 0 122 0;
#X connect 124 0 97 0;
#X connect 125 0 137 0;
#X connect 126 0 125 0;
#X connect 128 0 127 1;
#X connect 129 0 138 0;
#X connect 130 0 129 0;
#X connect 131 0 127 1;
#X connect 132 0 126 0;
#X connect 132 0 134 0;
#X connect 133 0 130 0;
#X connect 133 0 135 0;
#X connect 137 0 140 0;
#X connect 137 1 127 0;
#X connect 137 2 128 0;
#X connect 138 0 141 0;
#X connect 138 1 127 0;
#X connect 138 2 131 0;
#X connect 140 0 136 0;
#X connect 141 0 139 0;
#X restore 783 -213 pd FINAL_COUNT;
#X obj 693 449 list-abs/list-drip;
#X obj 653 243 list-abs/list-sort 0;
#X obj 535 -87 until;
#X obj 535 5 f;
#X obj 553 -61 r juri_conta;
#X obj 535 166 s juri_conta;
#X obj 535 55 t f f;
#X obj 693 569 Patches/media;
#X obj 851 346 tgl 15 0 empty empty empty 17 7 0 10 -262144 -1 -1 1
1;
#X obj 851 323 r pubYA;
#X obj 851 366 + 3;
#X obj 693 628 line 0 40;
#X floatatom 851 388 5 0 0 0 - - -, f 5;
#X obj 587 -232 r calc_juri;
#X obj 586 -166 t b b b b;
#X obj 646 -104 s juri_conta;
#X msg 646 -127 -1;
#X obj 535 -111 f;
#X obj 510 -192 tgl 15 0 empty empty empty 17 7 0 10 -262144 -1 -1
1 1;
#X obj 510 -215 r pubYA;
#X floatatom 510 -150 5 0 0 0 - - -, f 5;
#X obj 510 -172 + 5;
#X connect 0 0 5 0;
#X connect 3 0 2 1;
#X connect 4 0 3 0;
#X connect 5 0 6 0;
#X connect 5 1 2 0;
#X connect 7 0 10 0;
#X connect 9 0 11 0;
#X connect 10 0 12 0;
#X connect 10 1 8 0;
#X connect 11 0 8 1;
#X connect 13 0 16 0;
#X connect 15 0 17 0;
#X connect 16 0 18 0;
#X connect 16 1 14 0;
#X connect 17 0 14 1;
#X connect 19 0 22 0;
#X connect 21 0 23 0;
#X connect 22 0 24 0;
#X connect 22 1 20 0;
#X connect 23 0 20 1;
#X connect 25 0 28 0;
#X connect 27 0 29 0;
#X connect 28 0 30 0;
#X connect 28 1 26 0;
#X connect 29 0 26 1;
#X connect 31 0 33 0;
#X connect 31 1 32 0;
#X connect 32 0 33 1;
#X connect 34 0 51 0;
#X connect 35 0 49 0;
#X connect 36 0 49 0;
#X connect 37 1 50 0;
#X connect 41 0 45 0;
#X connect 42 0 73 0;
#X connect 43 0 35 0;
#X connect 44 0 41 0;
#X connect 46 0 41 0;
#X connect 47 0 52 0;
#X connect 48 0 70 0;
#X connect 49 0 60 0;
#X connect 50 0 59 0;
#X connect 51 0 31 0;
#X connect 53 0 62 1;
#X connect 59 0 66 0;
#X connect 60 0 37 0;
#X connect 61 0 62 0;
#X connect 62 0 54 0;
#X connect 62 0 65 0;
#X connect 63 0 53 0;
#X connect 65 0 64 0;
#X connect 65 1 43 0;
#X connect 66 0 47 0;
#X connect 66 0 48 0;
#X connect 67 0 69 0;
#X connect 68 0 67 0;
#X connect 69 0 71 0;
#X connect 70 0 44 0;
#X connect 71 0 50 1;
#X connect 71 0 66 1;
#X connect 72 0 42 0;
#X connect 73 0 49 0;
#X connect 73 1 76 0;
#X connect 73 2 36 0;
#X connect 73 3 75 0;
#X connect 75 0 74 0;
#X connect 76 0 61 0;
#X connect 77 0 80 0;
#X connect 78 0 77 0;
#X connect 79 0 76 1;
#X connect 80 0 79 0;
