#N canvas 421 119 922 703 10;
#X obj 3 -48 nbx 4 30 -1e+37 1e+37 0 0 empty JuriVote-1-set empty 0
-8 0 25 -262144 -1 -1 10 256;
#X msg 351 113 add2 \$1;
#X msg 418 147 list 6 3 2 8 5;
#X msg 456 102 set list;
#X obj 514 222 maximum;
#X floatatom 518 244 5 0 0 0 - - -;
#X obj 517 267 minimum;
#X floatatom 517 291 5 0 0 0 - - -;
#X obj 397 227 list split 1;
#X obj 397 256 list split 3;
#X text 305 198 sort ascending;
#X text 318 226 out the min;
#X text 322 255 out the max;
#X obj 397 356 average;
#X floatatom 409 560 12 0 0 0 - - -;
#N canvas 679 87 449 187 tab_votos 0;
#X obj 55 56 tabwrite votos;
#N canvas 0 0 450 300 (subpatch) 0;
#X array votos 6 float 3;
#A 0 10 3 4 5 1 10;
#X coords 0 11 6 -1 200 100 1 0 0;
#X restore 203 31 graph;
#X floatatom 133 33 5 0 0 0 - - -;
#X obj 129 10 r ind;
#X obj 56 32 r vote;
#X obj 60 130 tabread votos;
#X floatatom 59 150 5 0 0 0 - - -;
#X obj 58 108 hradio 15 1 0 6 empty empty empty 0 -8 0 10 -262144 -1
-1 5;
#X connect 2 0 0 1;
#X connect 3 0 2 0;
#X connect 4 0 0 0;
#X connect 5 0 6 0;
#X connect 7 0 5 0;
#X restore 11 598 pd tab_votos;
#X msg 416 314 reset;
#X msg 482 347 3;
#X obj 397 286 list-drip;
#X obj 486 -14 bng 15 250 50 0 empty empty empty 17 7 0 10 -262144
-1 -1;
#X obj 356 23 uzi 5;
#X obj 349 81 tabread votos;
#X obj 357 -3 bng 15 250 50 0 empty empty empty 17 7 0 10 -262144 -1
-1;
#X obj 30 17 tabwrite votos;
#X msg 111 -6 0;
#X obj 111 -27 loadbang;
#X obj 348 53 counter 4;
#N canvas 743 411 450 300 ROUND 0;
#X obj 55 24 inlet;
#X obj 85 129 + 0.5;
#X obj 85 159 int;
#X obj 85 233 outlet;
#X obj 86 103 * 100;
#X obj 85 190 / 100;
#X connect 0 0 4 0;
#X connect 1 0 2 0;
#X connect 2 0 5 0;
#X connect 4 0 1 0;
#X connect 5 0 3 0;
#X restore 409 529 pd ROUND;
#X obj 3 -7 t f f;
#X obj 3 41 s JuriVote-1;
#X obj 3 92 nbx 4 30 -1e+37 1e+37 0 0 empty JuriVote-2-set empty 0
-8 0 25 -262144 -1 -1 3 256;
#X obj 30 157 tabwrite votos;
#X obj 111 113 loadbang;
#X obj 3 133 t f f;
#X msg 111 134 1;
#X obj 3 181 s JuriVote-2;
#X obj 3 222 nbx 4 30 -1e+37 1e+37 0 0 empty JuriVote-3-set empty 0
-8 0 25 -262144 -1 -1 4 256;
#X obj 30 287 tabwrite votos;
#X obj 111 243 loadbang;
#X obj 3 263 t f f;
#X msg 111 264 2;
#X obj 3 311 s JuriVote-3;
#X obj 3 352 nbx 4 30 -1e+37 1e+37 0 0 empty JuriVote-4-set empty 0
-8 0 25 -262144 -1 -1 5 256;
#X obj 30 417 tabwrite votos;
#X obj 111 373 loadbang;
#X obj 3 393 t f f;
#X msg 112 394 3;
#X obj 3 441 s JuriVote-4;
#X obj 3 472 nbx 4 30 -1e+37 1e+37 0 0 empty JuriVote-5-set empty 0
-8 0 25 -262144 -1 -1 1 256;
#X obj 30 537 tabwrite votos;
#X obj 111 493 loadbang;
#X obj 3 513 t f f;
#X msg 112 514 4;
#X obj 3 561 s JuriVote-5;
#X obj 409 589 s JuriVote-Mean;
#X obj 471 531 bng 15 250 50 0 empty empty empty 17 7 0 10 -262144
-1 -1;
#X floatatom 299 383 12 0 0 0 - - -;
#X obj 409 507 line;
#X msg 409 484 0 \, \$1 1500;
#X obj 493 -66 r calc_juri;
#N canvas 567 225 462 407 PRINTA 0;
#X obj 135 10 inlet;
#X msg 197 91 bang;
#X floatatom 212 178 0 0 0 0 - - -;
#X floatatom 204 201 0 0 0 0 - - -;
#X floatatom 197 224 0 0 0 0 - - -;
#X obj 197 120 time;
#X floatatom 220 155 0 0 0 0 - - -;
#X text 290 91 local;
#X obj 85 271 pack f f f f;
#X text 275 150 msec;
#X text 276 172 sec;
#X text 277 193 min;
#X text 276 215 hours;
#X obj 123 99 t b f;
#X obj 79 334 print VOTO MÉDIA:;
#N canvas 741 412 450 300 ROUND 0;
#X obj 55 24 inlet;
#X obj 85 129 + 0.5;
#X obj 85 159 int;
#X obj 85 233 outlet;
#X obj 86 103 * 100;
#X obj 85 190 / 100;
#X connect 0 0 4 0;
#X connect 1 0 2 0;
#X connect 2 0 5 0;
#X connect 4 0 1 0;
#X connect 5 0 3 0;
#X restore 154 59 pd ROUND;
#X msg 129 301 \$1:\$2:\$3: - Média: \$4;
#X connect 0 0 15 0;
#X connect 1 0 5 0;
#X connect 2 0 8 2;
#X connect 3 0 8 1;
#X connect 4 0 8 0;
#X connect 5 0 4 0;
#X connect 5 1 3 0;
#X connect 5 2 2 0;
#X connect 5 3 6 0;
#X connect 8 0 16 0;
#X connect 13 0 1 0;
#X connect 13 1 8 3;
#X connect 15 0 13 0;
#X connect 16 0 14 0;
#X restore 427 462 pd PRINTA;
#X obj 409 440 f;
#X obj 377 408 delay 2;
#X obj 484 12 t b b b b b;
#X obj 397 382 t b f;
#X obj 405 200 sort 1;
#X obj 190 34 t f b;
#X msg 226 61 5;
#X obj 190 86 tabwrite votos;
#X obj 190 -49 r barulho_vote;
#X msg 635 122 add2 \$1;
#X msg 740 111 set list;
#X obj 793 239 maximum;
#X floatatom 797 261 5 0 0 0 - - -;
#X obj 796 284 minimum;
#X floatatom 796 308 5 0 0 0 - - -;
#X obj 681 236 list split 1;
#X text 589 207 sort ascending;
#X text 602 235 out the min;
#X text 606 264 out the max;
#X obj 681 365 average;
#X floatatom 693 569 12 0 0 0 - - -;
#X msg 700 323 reset;
#X obj 681 295 list-drip;
#X obj 770 -5 bng 15 250 50 0 empty empty empty 17 7 0 10 -262144 -1
-1;
#X obj 633 90 tabread votos;
#X obj 640 11 bng 15 250 50 0 empty empty empty 17 7 0 10 -262144 -1
-1;
#N canvas 743 411 450 300 ROUND 0;
#X obj 55 24 inlet;
#X obj 85 129 + 0.5;
#X obj 85 159 int;
#X obj 85 233 outlet;
#X obj 86 103 * 100;
#X obj 85 190 / 100;
#X connect 0 0 4 0;
#X connect 1 0 2 0;
#X connect 2 0 5 0;
#X connect 4 0 1 0;
#X connect 5 0 3 0;
#X restore 693 538 pd ROUND;
#X obj 693 598 s JuriVote-Mean;
#X obj 755 540 bng 15 250 50 0 empty empty empty 17 7 0 10 -262144
-1 -1;
#X floatatom 583 392 12 0 0 0 - - -;
#X obj 693 516 line;
#X msg 693 493 0 \, \$1 1500;
#N canvas 569 224 462 407 PRINTA 0;
#X obj 135 10 inlet;
#X msg 197 91 bang;
#X floatatom 212 178 0 0 0 0 - - -;
#X floatatom 204 201 0 0 0 0 - - -;
#X floatatom 197 224 0 0 0 0 - - -;
#X obj 197 120 time;
#X floatatom 220 155 0 0 0 0 - - -;
#X text 290 91 local;
#X obj 85 271 pack f f f f;
#X text 275 150 msec;
#X text 276 172 sec;
#X text 277 193 min;
#X text 276 215 hours;
#X obj 123 99 t b f;
#X obj 79 334 print VOTO MÉDIA:;
#N canvas 743 411 450 300 ROUND 0;
#X obj 55 24 inlet;
#X obj 85 129 + 0.5;
#X obj 85 159 int;
#X obj 85 233 outlet;
#X obj 86 103 * 100;
#X obj 85 190 / 100;
#X connect 0 0 4 0;
#X connect 1 0 2 0;
#X connect 2 0 5 0;
#X connect 4 0 1 0;
#X connect 5 0 3 0;
#X restore 154 59 pd ROUND;
#X msg 129 301 \$1:\$2:\$3: - Média: \$4;
#X connect 0 0 15 0;
#X connect 1 0 5 0;
#X connect 2 0 8 2;
#X connect 3 0 8 1;
#X connect 4 0 8 0;
#X connect 5 0 4 0;
#X connect 5 1 3 0;
#X connect 5 2 2 0;
#X connect 5 3 6 0;
#X connect 8 0 16 0;
#X connect 13 0 1 0;
#X connect 13 1 8 3;
#X connect 15 0 13 0;
#X connect 16 0 14 0;
#X restore 711 471 pd PRINTA;
#X obj 693 449 f;
#X obj 661 417 delay 2;
#X obj 768 21 t b b b b b;
#X obj 681 391 t b f;
#X obj 689 209 sort 1;
#X obj 640 32 uzi 6;
#X obj 632 62 counter 5;
#X msg 702 156 list 6 3 2 8 5 5;
#X obj 681 265 list split 4;
#X msg 766 355 4;
#X obj 580 -32 demux . .;
#X obj 648 -57 tgl 15 0 empty empty empty 17 7 0 10 -262144 -1 -1 1
1;
#X obj 675 -58 r pubYA;
#X obj 190 -16 nbx 4 30 -1e+37 1e+37 0 0 empty empty empty 0 -8 0 25
-262144 -1 -1 10 256;
#X obj 546 -43 bng 15 250 50 0 empty empty empty 17 7 0 10 -262144
-1 -1;
#X connect 0 0 28 0;
#X connect 1 0 2 0;
#X connect 2 0 4 0;
#X connect 2 0 6 0;
#X connect 2 0 65 0;
#X connect 3 0 2 0;
#X connect 4 0 5 0;
#X connect 6 0 7 0;
#X connect 8 1 9 0;
#X connect 9 0 18 0;
#X connect 13 0 56 0;
#X connect 13 0 64 0;
#X connect 14 0 54 0;
#X connect 16 0 13 0;
#X connect 17 0 13 1;
#X connect 18 0 13 0;
#X connect 19 0 63 0;
#X connect 20 0 26 0;
#X connect 21 0 1 0;
#X connect 22 0 20 0;
#X connect 24 0 23 1;
#X connect 25 0 24 0;
#X connect 26 0 21 0;
#X connect 27 0 14 0;
#X connect 28 0 29 0;
#X connect 28 1 23 0;
#X connect 30 0 33 0;
#X connect 32 0 34 0;
#X connect 33 0 35 0;
#X connect 33 1 31 0;
#X connect 34 0 31 1;
#X connect 36 0 39 0;
#X connect 38 0 40 0;
#X connect 39 0 41 0;
#X connect 39 1 37 0;
#X connect 40 0 37 1;
#X connect 42 0 45 0;
#X connect 44 0 46 0;
#X connect 45 0 47 0;
#X connect 45 1 43 0;
#X connect 46 0 43 1;
#X connect 48 0 51 0;
#X connect 50 0 52 0;
#X connect 51 0 53 0;
#X connect 51 1 49 0;
#X connect 52 0 49 1;
#X connect 55 0 14 0;
#X connect 57 0 27 0;
#X connect 58 0 57 0;
#X connect 59 0 108 0;
#X connect 61 0 60 0;
#X connect 61 0 58 0;
#X connect 62 0 61 0;
#X connect 63 0 2 0;
#X connect 63 1 22 0;
#X connect 63 2 3 0;
#X connect 63 3 17 0;
#X connect 63 4 16 0;
#X connect 64 0 62 0;
#X connect 64 1 61 1;
#X connect 65 0 8 0;
#X connect 66 0 68 0;
#X connect 66 1 67 0;
#X connect 67 0 68 1;
#X connect 69 0 107 0;
#X connect 70 0 101 0;
#X connect 71 0 101 0;
#X connect 72 0 73 0;
#X connect 74 0 75 0;
#X connect 76 1 102 0;
#X connect 80 0 90 0;
#X connect 80 0 97 0;
#X connect 81 0 88 0;
#X connect 82 0 80 0;
#X connect 83 0 80 0;
#X connect 84 0 96 0;
#X connect 85 0 70 0;
#X connect 86 0 99 0;
#X connect 87 0 81 0;
#X connect 89 0 81 0;
#X connect 91 0 87 0;
#X connect 92 0 91 0;
#X connect 94 0 93 0;
#X connect 94 0 92 0;
#X connect 95 0 94 0;
#X connect 96 0 101 0;
#X connect 96 1 86 0;
#X connect 96 2 71 0;
#X connect 96 3 103 0;
#X connect 96 4 82 0;
#X connect 97 0 95 0;
#X connect 97 1 94 1;
#X connect 98 0 76 0;
#X connect 99 0 100 0;
#X connect 100 0 85 0;
#X connect 101 0 72 0;
#X connect 101 0 74 0;
#X connect 101 0 98 0;
#X connect 102 0 83 0;
#X connect 103 0 80 1;
#X connect 104 0 19 0;
#X connect 104 1 84 0;
#X connect 105 0 104 1;
#X connect 106 0 105 0;
#X connect 107 0 66 0;
#X connect 108 0 104 0;
