#N canvas 602 141 677 658 10;
#X obj 3 -48 nbx 4 30 -1e+37 1e+37 0 0 empty JuriVote-1-set empty 0
-8 0 25 -262144 -1 -1 2 256;
#X msg 311 90 add2 \$1;
#X msg 378 124 list 5.2 9 5.1 0.23 5;
#X msg 383 62 set list;
#X obj 358 240 sort;
#X msg 400 241 1;
#X obj 497 191 maximum;
#X floatatom 501 213 5 0 0 0 - - -;
#X obj 500 236 minimum;
#X floatatom 500 260 5 0 0 0 - - -;
#X obj 282 128 list;
#X obj 350 267 list split 1;
#X obj 350 296 list split 3;
#X text 225 160 sort ascending;
#X text 233 183 out the min;
#X text 275 295 out the max;
#X obj 364 436 average;
#X floatatom 367 543 12 0 0 0 - - -;
#N canvas 13 204 449 187 tab_votos 0;
#X obj 55 56 tabwrite votos;
#N canvas 0 0 450 300 (subpatch) 0;
#X array votos 5 float 3;
#A 0 2 3.5 20 38 2.33;
#X coords 0 11 5 -1 200 100 1 0 0;
#X restore 203 31 graph;
#X floatatom 133 33 5 0 0 0 - - -;
#X obj 129 10 r ind;
#X obj 56 32 r vote;
#X obj 60 130 tabread votos;
#X floatatom 59 150 5 0 0 0 - - -;
#X obj 58 108 hradio 15 1 0 5 empty empty empty 0 -8 0 10 -262144 -1
-1 0;
#X connect 2 0 0 1;
#X connect 3 0 2 0;
#X connect 4 0 0 0;
#X connect 5 0 6 0;
#X connect 7 0 5 0;
#X restore 217 -9 pd tab_votos;
#X msg 383 394 reset;
#X msg 449 427 3;
#X obj 350 326 list-drip;
#X obj 496 -40 bng 15 250 50 0 empty empty empty 17 7 0 10 -262144
-1 -1;
#X obj 319 -28 uzi 5;
#X obj 310 46 tabread votos;
#X obj 379 -30 bng 15 250 50 0 empty empty empty 17 7 0 10 -262144
-1 -1;
#X obj 30 17 tabwrite votos;
#X msg 111 -6 0;
#X obj 111 -27 loadbang;
#X obj 307 17 counter 4;
#X obj 495 6 t b b b b;
#X obj 449 403 loadbang;
#N canvas 745 412 450 300 ROUND 0;
#X obj 55 24 inlet;
#X obj 85 129 + 0.5;
#X obj 85 159 int;
#X obj 85 233 outlet;
#X obj 86 103 * 100;
#X obj 85 190 / 100;
#X connect 0 0 4 0;
#X connect 1 0 2 0;
#X connect 2 0 5 0;
#X connect 4 0 1 0;
#X connect 5 0 3 0;
#X restore 329 511 pd ROUND;
#X obj 3 -7 t f f;
#X obj 3 41 s JuriVote-1;
#X obj 3 92 nbx 4 30 -1e+37 1e+37 0 0 empty JuriVote-2-set empty 0
-8 0 25 -262144 -1 -1 3.5 256;
#X obj 30 157 tabwrite votos;
#X obj 111 113 loadbang;
#X obj 3 133 t f f;
#X msg 111 134 1;
#X obj 3 181 s JuriVote-2;
#X obj 3 222 nbx 4 30 -1e+37 1e+37 0 0 empty JuriVote-3-set empty 0
-8 0 25 -262144 -1 -1 20 256;
#X obj 30 287 tabwrite votos;
#X obj 111 243 loadbang;
#X obj 3 263 t f f;
#X msg 111 264 2;
#X obj 3 311 s JuriVote-3;
#X obj 3 352 nbx 4 30 -1e+37 1e+37 0 0 empty JuriVote-4-set empty 0
-8 0 25 -262144 -1 -1 38 256;
#X obj 30 417 tabwrite votos;
#X obj 111 373 loadbang;
#X obj 3 393 t f f;
#X msg 112 394 3;
#X obj 3 441 s JuriVote-4;
#X obj 3 472 nbx 4 30 -1e+37 1e+37 0 0 empty JuriVote-5-set empty 0
-8 0 25 -262144 -1 -1 2.33 256;
#X obj 30 537 tabwrite votos;
#X obj 111 493 loadbang;
#X obj 3 513 t f f;
#X msg 112 514 4;
#X obj 3 561 s JuriVote-5;
#X obj 350 584 s JuriVote-Mean;
#X obj 414 516 bng 15 250 50 0 empty empty empty 17 7 0 10 -262144
-1 -1;
#X floatatom 264 460 12 0 0 0 - - -;
#X floatatom 252 48 5 0 0 0 - - -;
#X obj 389 489 line;
#X msg 368 464 0 \, \$1 1500;
#X obj 533 -36 r calc_juri;
#X connect 0 0 33 0;
#X connect 1 0 2 0;
#X connect 2 0 4 0;
#X connect 2 0 6 0;
#X connect 2 0 8 0;
#X connect 3 0 2 0;
#X connect 4 0 11 0;
#X connect 5 0 4 1;
#X connect 6 0 7 0;
#X connect 8 0 9 0;
#X connect 11 1 12 0;
#X connect 12 0 21 0;
#X connect 16 0 61 0;
#X connect 16 0 64 0;
#X connect 17 0 59 0;
#X connect 19 0 16 0;
#X connect 20 0 16 1;
#X connect 21 0 16 0;
#X connect 22 0 30 0;
#X connect 23 0 29 0;
#X connect 24 0 1 0;
#X connect 25 0 23 0;
#X connect 27 0 26 1;
#X connect 28 0 27 0;
#X connect 29 0 24 0;
#X connect 29 0 62 0;
#X connect 30 0 2 0;
#X connect 30 1 25 0;
#X connect 30 2 3 0;
#X connect 30 3 19 0;
#X connect 31 0 20 0;
#X connect 32 0 17 0;
#X connect 33 0 34 0;
#X connect 33 1 26 0;
#X connect 35 0 38 0;
#X connect 37 0 39 0;
#X connect 38 0 40 0;
#X connect 38 1 36 0;
#X connect 39 0 36 1;
#X connect 41 0 44 0;
#X connect 43 0 45 0;
#X connect 44 0 46 0;
#X connect 44 1 42 0;
#X connect 45 0 42 1;
#X connect 47 0 50 0;
#X connect 49 0 51 0;
#X connect 50 0 52 0;
#X connect 50 1 48 0;
#X connect 51 0 48 1;
#X connect 53 0 56 0;
#X connect 55 0 57 0;
#X connect 56 0 58 0;
#X connect 56 1 54 0;
#X connect 57 0 54 1;
#X connect 60 0 17 0;
#X connect 63 0 32 0;
#X connect 64 0 63 0;
#X connect 65 0 22 0;
