#N canvas 337 79 922 688 10;
#X obj 3 -48 nbx 4 30 -1e+37 1e+37 0 0 empty JuriVote-1-set empty 0
-8 0 25 -262144 -1 -1 0 256;
#X msg 351 113 add2 \$1;
#X msg 418 147 list 6 3 2 8 5;
#X msg 456 102 set list;
#X obj 397 227 list split 1;
#X obj 397 256 list split 3;
#X text 305 198 sort ascending;
#X text 318 226 out the min;
#X text 322 255 out the max;
#X obj 397 356 average;
#X floatatom 409 601 12 0 0 0 - - -, f 12;
#N canvas 679 87 449 187 tab_votos 0;
#X obj 55 56 tabwrite votos;
#N canvas 0 50 450 300 (subpatch) 0;
#X array votos 6 float 3;
#A 0 -6 8 -1 1 3 5.29292;
#X coords 0 11 6 -1 200 100 1 0 0;
#X restore 203 31 graph;
#X floatatom 133 33 5 0 0 0 - - -, f 5;
#X obj 129 10 r ind;
#X obj 56 32 r vote;
#X obj 60 130 tabread votos;
#X floatatom 59 150 5 0 0 0 - - -, f 5;
#X obj 58 108 hradio 15 1 0 6 empty empty empty 0 -8 0 10 -262144 -1
-1 5;
#X connect 2 0 0 1;
#X connect 3 0 2 0;
#X connect 4 0 0 0;
#X connect 5 0 6 0;
#X connect 7 0 5 0;
#X restore 11 598 pd tab_votos;
#X obj 397 286 list-drip;
#X obj 486 -14 bng 15 250 50 0 empty empty empty 17 7 0 10 -262144
-1 -1;
#X obj 349 81 tabread votos;
#X obj 357 -3 bng 15 250 50 0 empty empty empty 17 7 0 10 -262144 -1
-1;
#X obj 30 17 tabwrite votos;
#X msg 111 -6 0;
#X obj 111 -27 loadbang;
#X obj 348 53 counter 4;
#N canvas 741 412 450 300 ROUND 0;
#X obj 55 24 inlet;
#X obj 85 129 + 0.5;
#X obj 85 159 int;
#X obj 85 233 outlet;
#X obj 86 103 * 100;
#X obj 85 190 / 100;
#X connect 0 0 4 0;
#X connect 1 0 2 0;
#X connect 2 0 5 0;
#X connect 4 0 1 0;
#X connect 5 0 3 0;
#X restore 409 570 pd ROUND;
#X obj 3 -7 t f f;
#X obj 3 41 s JuriVote-1;
#X obj 3 92 nbx 4 30 -1e+37 1e+37 0 0 empty JuriVote-2-set empty 0
-8 0 25 -262144 -1 -1 0 256;
#X obj 30 157 tabwrite votos;
#X obj 111 113 loadbang;
#X obj 3 133 t f f;
#X msg 111 134 1;
#X obj 3 181 s JuriVote-2;
#X obj 3 222 nbx 4 30 -1e+37 1e+37 0 0 empty JuriVote-3-set empty 0
-8 0 25 -262144 -1 -1 0 256;
#X obj 30 287 tabwrite votos;
#X obj 111 243 loadbang;
#X obj 3 263 t f f;
#X msg 111 264 2;
#X obj 3 311 s JuriVote-3;
#X obj 3 352 nbx 4 30 -1e+37 1e+37 0 0 empty JuriVote-4-set empty 0
-8 0 25 -262144 -1 -1 0 256;
#X obj 30 417 tabwrite votos;
#X obj 111 373 loadbang;
#X obj 3 393 t f f;
#X msg 112 394 3;
#X obj 3 441 s JuriVote-4;
#X obj 3 472 nbx 4 30 -1e+37 1e+37 0 0 empty JuriVote-5-set empty 0
-8 0 25 -262144 -1 -1 0 256;
#X obj 30 537 tabwrite votos;
#X obj 111 493 loadbang;
#X obj 3 513 t f f;
#X msg 112 514 4;
#X obj 3 561 s JuriVote-5;
#X obj 409 630 s JuriVote-Mean;
#X obj 471 572 bng 15 250 50 0 empty empty empty 17 7 0 10 -262144
-1 -1;
#X floatatom 299 383 12 0 0 0 - - -, f 12;
#X obj 409 494 line;
#X msg 409 471 0 \, \$1 1500;
#X obj 493 -66 r calc_juri;
#X obj 409 440 f;
#X obj 377 408 delay 2;
#X obj 484 12 t b b b b b;
#X obj 397 382 t b f;
#X obj 405 200 sort 1;
#X obj 190 34 t f b;
#X msg 226 61 5;
#X obj 190 86 tabwrite votos;
#X obj 190 -49 r barulho_vote;
#X msg 635 122 add2 \$1;
#X msg 740 111 set list;
#X obj 681 236 list split 1;
#X text 589 207 sort ascending;
#X text 602 235 out the min;
#X text 606 264 out the max;
#X obj 681 365 average;
#X floatatom 694 600 12 0 0 0 - - -, f 12;
#X obj 681 295 list-drip;
#X obj 770 -5 bng 15 250 50 0 empty empty empty 17 7 0 10 -262144 -1
-1;
#X obj 633 90 tabread votos;
#X obj 640 11 bng 15 250 50 0 empty empty empty 17 7 0 10 -262144 -1
-1;
#N canvas 743 411 450 300 ROUND 0;
#X obj 55 24 inlet;
#X obj 85 129 + 0.5;
#X obj 85 159 int;
#X obj 85 233 outlet;
#X obj 86 103 * 100;
#X obj 85 190 / 100;
#X connect 0 0 4 0;
#X connect 1 0 2 0;
#X connect 2 0 5 0;
#X connect 4 0 1 0;
#X connect 5 0 3 0;
#X restore 693 570 pd ROUND;
#X obj 694 629 s JuriVote-Mean;
#X obj 756 571 bng 15 250 50 0 empty empty empty 17 7 0 10 -262144
-1 -1;
#X floatatom 583 392 12 0 0 0 - - -, f 12;
#X obj 693 504 line;
#X msg 693 481 0 \, \$1 1500;
#X obj 693 449 f;
#X obj 661 417 delay 2;
#X obj 768 21 t b b b b b;
#X obj 681 391 t b f;
#X obj 689 209 sort 1;
#X obj 632 62 counter 5;
#X msg 702 156 list -1 1 3 7.50872 8 -1;
#X obj 681 265 list split 4;
#X obj 580 -32 demux . .;
#X obj 648 -57 tgl 15 0 empty empty empty 17 7 0 10 -262144 -1 -1 0
1;
#X obj 675 -58 r pubYA;
#X obj 190 -16 nbx 4 30 -1e+37 1e+37 0 0 empty empty empty 0 -8 0 25
-262144 -1 -1 0 256;
#X obj 546 -43 bng 15 250 50 0 empty empty empty 17 7 0 10 -262144
-1 -1;
#X obj 356 22 repeat 5;
#X obj 640 32 repeat 6;
#X obj 520 576 print JURI AVERAGE;
#X msg 542 316 clear;
#X msg 826 321 clear;
#X msg 482 314 3;
#X msg 769 313 4;
#X connect 0 0 21 0;
#X connect 1 0 2 0;
#X connect 2 0 57 0;
#X connect 3 0 2 0;
#X connect 4 1 5 0;
#X connect 5 0 12 0;
#X connect 9 0 49 0;
#X connect 9 0 56 0;
#X connect 10 0 47 0;
#X connect 12 0 9 0;
#X connect 13 0 55 0;
#X connect 14 0 1 0;
#X connect 15 0 93 0;
#X connect 17 0 16 1;
#X connect 18 0 17 0;
#X connect 19 0 14 0;
#X connect 20 0 10 0;
#X connect 21 0 22 0;
#X connect 21 1 16 0;
#X connect 23 0 26 0;
#X connect 25 0 27 0;
#X connect 26 0 28 0;
#X connect 26 1 24 0;
#X connect 27 0 24 1;
#X connect 29 0 32 0;
#X connect 31 0 33 0;
#X connect 32 0 34 0;
#X connect 32 1 30 0;
#X connect 33 0 30 1;
#X connect 35 0 38 0;
#X connect 37 0 39 0;
#X connect 38 0 40 0;
#X connect 38 1 36 0;
#X connect 39 0 36 1;
#X connect 41 0 44 0;
#X connect 43 0 45 0;
#X connect 44 0 46 0;
#X connect 44 1 42 0;
#X connect 45 0 42 1;
#X connect 48 0 10 0;
#X connect 50 0 20 0;
#X connect 51 0 50 0;
#X connect 52 0 92 0;
#X connect 53 0 51 0;
#X connect 53 0 95 0;
#X connect 54 0 53 0;
#X connect 55 0 2 0;
#X connect 55 1 15 0;
#X connect 55 2 3 0;
#X connect 55 3 98 0;
#X connect 55 4 96 0;
#X connect 56 0 54 0;
#X connect 56 1 53 1;
#X connect 57 0 4 0;
#X connect 58 0 60 0;
#X connect 58 1 59 0;
#X connect 59 0 60 1;
#X connect 61 0 91 0;
#X connect 62 0 86 0;
#X connect 63 0 86 0;
#X connect 64 1 87 0;
#X connect 68 0 77 0;
#X connect 68 0 83 0;
#X connect 69 0 75 0;
#X connect 70 0 68 0;
#X connect 71 0 82 0;
#X connect 72 0 62 0;
#X connect 73 0 94 0;
#X connect 74 0 69 0;
#X connect 76 0 69 0;
#X connect 78 0 74 0;
#X connect 79 0 78 0;
#X connect 80 0 79 0;
#X connect 80 0 95 0;
#X connect 81 0 80 0;
#X connect 82 0 86 0;
#X connect 82 1 73 0;
#X connect 82 2 63 0;
#X connect 82 3 99 0;
#X connect 82 4 97 0;
#X connect 83 0 81 0;
#X connect 83 1 80 1;
#X connect 84 0 64 0;
#X connect 85 0 72 0;
#X connect 86 0 84 0;
#X connect 87 0 70 0;
#X connect 88 0 13 0;
#X connect 88 1 71 0;
#X connect 89 0 88 1;
#X connect 90 0 89 0;
#X connect 91 0 58 0;
#X connect 92 0 88 0;
#X connect 93 0 19 0;
#X connect 94 0 85 0;
#X connect 96 0 9 0;
#X connect 97 0 68 0;
#X connect 98 0 9 1;
#X connect 99 0 68 1;
