#N canvas 49 79 1018 688 10;
#X obj 3 -14 nbx 4 30 -1e+37 1e+37 0 0 empty JuriVote-1-set empty 0
-8 0 25 -262144 -1 -1 1 256;
#X msg 351 147 add2 \$1;
#X msg 388 186 list 1 4 3 9 9.1;
#X msg 456 136 set list;
#X obj 397 256 list split 1;
#X obj 397 292 list split 3;
#X text 305 232 sort ascending;
#X text 318 260 out the min;
#X text 322 289 out the max;
#X floatatom 409 635 12 0 0 0 - - -, f 12;
#N canvas 939 117 449 187 tab_votos 1;
#X obj 55 56 tabwrite votos;
#N canvas 0 50 450 300 (subpatch) 0;
#X array votos 6 float 3;
#A 0 1 4 3 9 9.1 3;
#X coords 0 11 6 -1 200 100 1 0 0;
#X restore 203 31 graph;
#X floatatom 133 33 5 0 0 0 - - -, f 5;
#X obj 129 10 r ind;
#X obj 56 32 r vote;
#X obj 60 130 tabread votos;
#X floatatom 59 150 5 0 0 0 - - -, f 5;
#X obj 58 108 hradio 15 1 0 6 empty empty empty 0 -8 0 10 -262144 -1
-1 0;
#X connect 2 0 0 1;
#X connect 3 0 2 0;
#X connect 4 0 0 0;
#X connect 5 0 6 0;
#X connect 7 0 5 0;
#X restore 11 632 pd tab_votos;
#X obj 397 328 list-drip;
#X obj 486 20 bng 15 250 50 0 empty empty empty 17 7 0 10 -262144 -1
-1;
#X obj 357 115 tabread votos;
#X obj 365 3 bng 15 250 50 0 empty empty empty 17 7 0 10 -262144 -1
-1;
#X obj 30 51 tabwrite votos;
#X msg 111 28 0;
#X obj 111 7 loadbang;
#N canvas 741 412 450 300 ROUND 0;
#X obj 55 24 inlet;
#X obj 85 129 + 0.5;
#X obj 85 159 int;
#X obj 85 233 outlet;
#X obj 86 103 * 100;
#X obj 85 190 / 100;
#X connect 0 0 4 0;
#X connect 1 0 2 0;
#X connect 2 0 5 0;
#X connect 4 0 1 0;
#X connect 5 0 3 0;
#X restore 409 604 pd ROUND;
#X obj 3 27 t f f;
#X obj 3 75 s JuriVote-1;
#X obj 3 126 nbx 4 30 -1e+37 1e+37 0 0 empty JuriVote-2-set empty 0
-8 0 25 -262144 -1 -1 4 256;
#X obj 30 191 tabwrite votos;
#X obj 111 147 loadbang;
#X obj 3 167 t f f;
#X msg 111 168 1;
#X obj 3 215 s JuriVote-2;
#X obj 3 256 nbx 4 30 -1e+37 1e+37 0 0 empty JuriVote-3-set empty 0
-8 0 25 -262144 -1 -1 3 256;
#X obj 30 321 tabwrite votos;
#X obj 111 277 loadbang;
#X obj 3 297 t f f;
#X msg 111 298 2;
#X obj 3 345 s JuriVote-3;
#X obj 3 386 nbx 4 30 -1e+37 1e+37 0 0 empty JuriVote-4-set empty 0
-8 0 25 -262144 -1 -1 9 256;
#X obj 30 451 tabwrite votos;
#X obj 111 407 loadbang;
#X obj 3 427 t f f;
#X msg 112 428 3;
#X obj 3 475 s JuriVote-4;
#X obj 3 506 nbx 4 30 -1e+37 1e+37 0 0 empty JuriVote-5-set empty 0
-8 0 25 -262144 -1 -1 9.1 256;
#X obj 30 571 tabwrite votos;
#X obj 111 527 loadbang;
#X obj 3 547 t f f;
#X msg 112 548 4;
#X obj 3 595 s JuriVote-5;
#X obj 409 664 s JuriVote-Mean;
#X obj 471 606 bng 15 250 50 0 empty empty empty 17 7 0 10 -262144
-1 -1;
#X floatatom 299 417 12 0 0 0 - - -, f 12;
#X obj 409 528 line;
#X msg 409 505 0 \, \$1 1500;
#X obj 493 -32 r calc_juri;
#X obj 409 474 f;
#X obj 377 442 delay 2;
#X obj 486 42 t b b b b b;
#X obj 397 416 t b f;
#X obj 402 221 sort 1;
#X obj 190 68 t f b;
#X msg 226 95 5;
#X obj 190 120 tabwrite votos;
#X obj 190 -15 r barulho_vote;
#X msg 633 179 add2 \$1;
#X msg 738 168 set list;
#X obj 681 270 list split 1;
#X text 589 241 sort ascending;
#X text 602 269 out the min;
#X text 606 298 out the max;
#X floatatom 694 634 12 0 0 0 - - -, f 12;
#X obj 681 329 list-drip;
#X obj 770 29 bng 15 250 50 0 empty empty empty 17 7 0 10 -262144 -1
-1;
#X obj 631 147 tabread votos;
#X obj 640 45 bng 15 250 50 0 empty empty empty 17 7 0 10 -262144 -1
-1;
#N canvas 743 411 450 300 ROUND 0;
#X obj 55 24 inlet;
#X obj 85 129 + 0.5;
#X obj 85 159 int;
#X obj 85 233 outlet;
#X obj 86 103 * 100;
#X obj 85 190 / 100;
#X connect 0 0 4 0;
#X connect 1 0 2 0;
#X connect 2 0 5 0;
#X connect 4 0 1 0;
#X connect 5 0 3 0;
#X restore 693 604 pd ROUND;
#X obj 694 663 s JuriVote-Mean;
#X obj 756 605 bng 15 250 50 0 empty empty empty 17 7 0 10 -262144
-1 -1;
#X floatatom 583 426 12 0 0 0 - - -, f 12;
#X obj 693 538 line;
#X msg 693 515 0 \, \$1 1500;
#X obj 693 483 f;
#X obj 661 451 delay 2;
#X obj 769 50 t b b b b b;
#X obj 681 425 t b f;
#X obj 689 243 sort 1;
#X msg 700 213 list 3 1 4 3 9 9.1;
#X obj 681 299 list split 4;
#X obj 580 2 demux . .;
#X obj 648 -23 tgl 15 0 empty empty empty 17 7 0 10 -262144 -1 -1 1
1;
#X obj 675 -24 r pubYA;
#X obj 190 18 nbx 4 30 -1e+37 1e+37 0 0 empty empty empty 0 -8 0 25
-262144 -1 -1 3 256;
#X obj 546 -9 bng 15 250 50 0 empty empty empty 17 7 0 10 -262144 -1
-1;
#X obj 364 28 repeat 5;
#X obj 640 66 repeat 6;
#X obj 520 610 print JURI AVERAGE;
#X msg 542 350 clear;
#X msg 826 355 clear;
#X msg 769 347 4;
#X floatatom 354 513 5 0 0 0 - - -, f 5;
#X obj 397 390 average 3;
#X obj 681 399 average 4;
#X obj 372 61 f;
#X obj 401 62 + 1;
#X floatatom 401 88 5 0 0 0 - - -, f 5;
#X msg 321 58 0;
#X obj 318 94 sel 5;
#X obj 649 95 f;
#X obj 678 96 + 1;
#X floatatom 678 122 5 0 0 0 - - -, f 5;
#X msg 577 92 0;
#X obj 595 128 sel 6;
#X obj 892 299 print split1;
#X obj 879 324 print split2;
#X obj 868 273 print sort;
#X connect 0 0 19 0;
#X connect 1 0 2 0;
#X connect 2 0 55 0;
#X connect 3 0 2 0;
#X connect 4 1 5 0;
#X connect 5 0 11 0;
#X connect 9 0 45 0;
#X connect 11 0 96 0;
#X connect 12 0 53 0;
#X connect 13 0 1 0;
#X connect 14 0 89 0;
#X connect 16 0 15 1;
#X connect 17 0 16 0;
#X connect 18 0 9 0;
#X connect 19 0 20 0;
#X connect 19 1 15 0;
#X connect 21 0 24 0;
#X connect 23 0 25 0;
#X connect 24 0 26 0;
#X connect 24 1 22 0;
#X connect 25 0 22 1;
#X connect 27 0 30 0;
#X connect 29 0 31 0;
#X connect 30 0 32 0;
#X connect 30 1 28 0;
#X connect 31 0 28 1;
#X connect 33 0 36 0;
#X connect 35 0 37 0;
#X connect 36 0 38 0;
#X connect 36 1 34 0;
#X connect 37 0 34 1;
#X connect 39 0 42 0;
#X connect 41 0 43 0;
#X connect 42 0 44 0;
#X connect 42 1 40 0;
#X connect 43 0 40 1;
#X connect 46 0 9 0;
#X connect 48 0 18 0;
#X connect 49 0 48 0;
#X connect 50 0 88 0;
#X connect 51 0 49 0;
#X connect 51 0 91 0;
#X connect 51 0 95 0;
#X connect 52 0 51 0;
#X connect 53 0 2 0;
#X connect 53 1 14 0;
#X connect 53 2 3 0;
#X connect 53 3 92 0;
#X connect 53 4 101 0;
#X connect 54 0 52 0;
#X connect 54 1 51 1;
#X connect 55 0 4 0;
#X connect 56 0 58 0;
#X connect 56 1 57 0;
#X connect 57 0 58 1;
#X connect 59 0 87 0;
#X connect 60 0 82 0;
#X connect 61 0 82 0;
#X connect 62 1 83 0;
#X connect 62 1 108 0;
#X connect 66 0 72 0;
#X connect 67 0 97 0;
#X connect 68 0 79 0;
#X connect 69 0 60 0;
#X connect 70 0 90 0;
#X connect 71 0 66 0;
#X connect 73 0 66 0;
#X connect 75 0 71 0;
#X connect 76 0 75 0;
#X connect 77 0 76 0;
#X connect 77 0 91 0;
#X connect 78 0 77 0;
#X connect 79 0 82 0;
#X connect 79 1 70 0;
#X connect 79 2 61 0;
#X connect 79 3 94 0;
#X connect 79 4 93 0;
#X connect 80 0 78 0;
#X connect 80 1 77 1;
#X connect 81 0 62 0;
#X connect 81 0 110 0;
#X connect 82 0 81 0;
#X connect 83 0 67 0;
#X connect 83 0 109 0;
#X connect 84 0 12 0;
#X connect 84 1 68 0;
#X connect 85 0 84 1;
#X connect 86 0 85 0;
#X connect 87 0 56 0;
#X connect 88 0 84 0;
#X connect 89 0 98 0;
#X connect 90 0 103 0;
#X connect 92 0 96 0;
#X connect 93 0 97 0;
#X connect 96 0 47 0;
#X connect 96 0 54 0;
#X connect 97 0 74 0;
#X connect 97 0 80 0;
#X connect 98 0 99 0;
#X connect 98 0 100 0;
#X connect 98 0 102 0;
#X connect 98 0 13 0;
#X connect 99 0 98 1;
#X connect 101 0 98 1;
#X connect 102 0 101 0;
#X connect 103 0 104 0;
#X connect 103 0 105 0;
#X connect 103 0 69 0;
#X connect 103 0 107 0;
#X connect 104 0 103 1;
#X connect 106 0 103 1;
#X connect 107 0 106 0;
