#N canvas 142 228 848 393 10;
#X declare -lib iemnet -lib mrpeach;
#X obj 29 4 vsl 15 128 0 127 0 0 empty empty empty 0 -9 0 10 -262144
-1 -1 4525 1;
#X obj 369 -67 loadbang;
#X obj 49 -23 -;
#X obj 53 3 vsl 15 128 0 127 0 0 empty empty empty 0 -9 0 10 -262144
-1 -1 0 1;
#X obj 64 -45 r db_thresh;
#X obj 53 144 s dbT;
#X msg 687 210 1;
#X obj 714 234 s ctrl;
#X msg 684 233 0;
#X obj 562 238 s barulho_vote;
#X floatatom 499 235 5 0 0 0 - - -;
#X obj 487 58 cnv 15 300 130 empty empty empty 20 12 0 14 -204800 -66577
0;
#N canvas 92 100 642 642 GO 0;
#X obj 200 42 bng 15 250 50 0 empty empty empty 17 7 0 10 -262144 -1
-1;
#X text 217 39 GO!;
#X obj 231 379 s toText;
#X obj 200 77 t b b b b b;
#X obj 215 459 s toText;
#X msg 215 436 symbol SLAM;
#X obj 200 14 r GO;
#X msg 248 258 \; toText 2 \; LOGO-Alpha 0 1000 \;;
#X msg 263 105 \; resetCounter bang \; textCor 1 1 1 \; barraCor 1
1 1 \; barraReset bang \; MostraTexto 1 \; MostraBarra 0 \; toText
3 \;;
#X msg 231 356 1;
#X obj 247 224 delay 800;
#X obj 231 331 delay 1600;
#X obj 215 411 delay 2400;
#X obj 200 490 delay 3000;
#X msg 200 521 \; MostraTexto 0 \; MostraBarra 1 \; barraMove 0 180000
\; LOGO-Alpha 1 2000 \;;
#X connect 0 0 3 0;
#X connect 3 0 13 0;
#X connect 3 1 12 0;
#X connect 3 2 11 0;
#X connect 3 3 10 0;
#X connect 3 4 8 0;
#X connect 5 0 4 0;
#X connect 6 0 0 0;
#X connect 9 0 2 0;
#X connect 10 0 7 0;
#X connect 11 0 9 0;
#X connect 12 0 5 0;
#X connect 13 0 14 0;
#X restore 700 86 pd GO;
#N canvas 510 95 450 300 EXTRATIME 0;
#X obj 203 4 r extraTime;
#X msg 47 79 \; barraCor 1 1 1 \;;
#X obj 203 33 t b b;
#X msg 230 66 \; barraCor 1 0 0 \; textCor 1 0 0 \; barraMove 8 10000
\;;
#X obj 203 140 delay 10000;
#X obj 171 215 metro 1000;
#X obj 171 241 counter;
#X msg 199 161 1;
#X obj 171 276 s toText;
#X obj 196 187 t f f;
#X obj 279 215 s MostraTexto;
#X obj 150 179 tgl 15 0 empty empty empty 17 7 0 10 -262144 -1 -1 0
1;
#X obj 241 248 bng 15 250 50 0 empty empty empty 17 7 0 10 -262144
-1 -1;
#X obj 279 254 r resetCounter;
#X obj 89 128 r resetCounter;
#X msg 87 163 0;
#X obj 28 135 r Stop;
#X connect 0 0 2 0;
#X connect 2 0 4 0;
#X connect 2 1 3 0;
#X connect 4 0 7 0;
#X connect 5 0 6 0;
#X connect 6 0 8 0;
#X connect 7 0 9 0;
#X connect 9 0 5 0;
#X connect 9 1 10 0;
#X connect 11 0 5 0;
#X connect 12 0 6 3;
#X connect 13 0 12 0;
#X connect 14 0 15 0;
#X connect 15 0 5 0;
#X connect 16 0 15 0;
#X restore 696 109 pd EXTRATIME;
#X obj 504 97 bng 60 250 50 0 empty empty empty 17 7 0 10 -258113 -1
-1;
#X obj 504 170 s Stop;
#N canvas 45 295 310 330 TEXTO 0;
#X obj 50 2 gemhead;
#X obj 50 241 text2d 0;
#X msg 73 163 text \$1;
#X obj 50 27 alpha;
#X obj 50 -21 tgl 15 0 empty empty empty 17 7 0 10 -262144 -1 -1 0
1;
#X obj 73 136 r toText;
#X obj 65 -140 r MostraTexto;
#X obj 50 109 colour;
#X obj 83 79 r textCor;
#X obj 95 189 loadbang;
#X msg 142 210 font FONTS/MAKISUPA.TTF;
#X msg 95 210 150;
#X obj 50 56 translateXYZ 2.7 1 0;
#X obj 184 -65 r Mode;
#X obj 184 -35 == 1;
#X obj 141 7 spigot;
#X obj 191 -9 t f f;
#X obj 226 44 sel 1;
#X connect 0 0 3 0;
#X connect 2 0 1 0;
#X connect 3 0 12 0;
#X connect 4 0 0 0;
#X connect 5 0 2 0;
#X connect 6 0 15 0;
#X connect 7 0 1 0;
#X connect 8 0 7 1;
#X connect 9 0 11 0;
#X connect 9 0 10 0;
#X connect 10 0 1 0;
#X connect 11 0 1 1;
#X connect 12 0 7 0;
#X connect 13 0 14 0;
#X connect 14 0 16 0;
#X connect 15 0 4 0;
#X connect 16 0 15 1;
#X connect 16 1 17 0;
#X connect 17 1 4 0;
#X restore 696 133 pd TEXTO;
#N canvas 508 232 581 450 BARRA 0;
#X obj 49 73 gemhead;
#X obj 49 261 rectangle 0.96 3.96;
#X obj 49 231 translateXYZ 0 0 0;
#X obj 309 173 line;
#X obj 309 200 s timer;
#X obj 119 202 r timer;
#X obj 58 31 tgl 15 0 empty empty empty 17 7 0 10 -262144 -1 -1 0 1
;
#X msg 333 148 -8;
#X obj 333 127 r barraReset;
#X obj 279 230 sel 0;
#X obj 279 253 s extraTime;
#X obj 49 171 colour;
#X obj 82 141 r barraCor;
#X obj 309 99 r barraMove;
#X obj 216 121 r Stop;
#X msg 228 170 stop;
#X obj 49 99 translateXYZ 5.5 0 0;
#X obj 264 22 gemhead;
#X obj 330 31 colourRGB 1 0 0;
#X floatatom 387 84 5 0 0 0 - - -;
#X floatatom 429 81 5 0 0 0 - - -;
#X obj 314 57 rectangle 0.96 0.03;
#X obj 323 8 translateXYZ 5.58 3.96 0;
#X floatatom 182 193 5 0 0 0 - - -;
#X obj 242 197 loadbang;
#X obj 207 59 loadbang;
#X obj 54 -133 r MostraBarra;
#X msg 239 224 -2.5;
#X msg 241 86 3;
#X obj 101 -101 r Mode;
#X obj 101 -71 == 1;
#X obj 58 -29 spigot;
#X obj 108 -45 t f f;
#X obj 97 4 sel 1;
#X connect 0 0 16 0;
#X connect 2 0 1 0;
#X connect 3 0 4 0;
#X connect 3 0 9 0;
#X connect 5 0 2 2;
#X connect 6 0 0 0;
#X connect 6 0 17 0;
#X connect 7 0 3 0;
#X connect 8 0 7 0;
#X connect 9 0 10 0;
#X connect 11 0 2 0;
#X connect 12 0 11 1;
#X connect 13 0 3 0;
#X connect 14 0 15 0;
#X connect 15 0 3 0;
#X connect 16 0 11 0;
#X connect 17 0 22 0;
#X connect 18 0 21 0;
#X connect 19 0 21 1;
#X connect 20 0 21 2;
#X connect 22 0 18 0;
#X connect 23 0 2 2;
#X connect 24 0 27 0;
#X connect 25 0 28 0;
#X connect 26 0 31 0;
#X connect 27 0 2 1;
#X connect 28 0 22 1;
#X connect 29 0 30 0;
#X connect 30 0 32 0;
#X connect 31 0 6 0;
#X connect 32 0 31 1;
#X connect 32 1 33 0;
#X connect 33 1 6 0;
#X restore 695 161 pd BARRA;
#X obj 603 97 bng 60 250 50 0 empty empty empty 17 7 0 10 -4034 -1
-1;
#X obj 603 165 s GO;
#X obj 603 66 r GOtimer;
#X obj 503 70 r StopTimer;
#X obj 152 -53 cnv 15 200 300 empty empty empty 20 12 0 14 -261234
-66577 0;
#X text 154 24 LOGO;
#X text 243 -45 VOTE;
#N canvas 71 80 646 688 VOTE 0;
#X obj 121 536 text2d;
#X floatatom 154 511 5 0 0 0 - - -;
#X floatatom 163 79 5 0 0 0 - - -;
#X floatatom 88 79 5 0 0 0 - - -;
#X floatatom 125 79 5 0 0 0 - - -;
#X obj 154 482 r sizeVOTE;
#X obj 121 315 r barulho_vote;
#X obj -149 349 loadbang;
#N canvas 743 413 450 300 ROUND 0;
#X obj 55 24 inlet;
#X obj 85 129 + 0.5;
#X obj 85 159 int;
#X obj 85 233 outlet;
#X obj 86 103 * 100;
#X obj 85 190 / 100;
#X connect 0 0 4 0;
#X connect 1 0 2 0;
#X connect 2 0 5 0;
#X connect 4 0 1 0;
#X connect 5 0 3 0;
#X restore 121 343 pd ROUND;
#X obj 121 366 min 10;
#X obj 121 390 max 0;
#X obj 66 44 spigot;
#X obj 99 15 tgl 15 0 empty empty empty 17 7 0 10 -262144 -1 -1 1 1
;
#X msg 135 -22 0;
#X msg 190 -24 1;
#X obj 42 -64 tgl 15 0 empty empty empty 17 7 0 10 -262144 -1 -1 0
1;
#X obj 40 -87 inlet;
#X obj 33 -39 gemhead;
#X obj 165 -130 r Mode;
#X obj 163 -88 sel 2 3;
#X obj 266 -107 r Mode;
#X obj 280 -74 sel 2;
#X msg 257 -30 0;
#X msg 385 -14 2.03;
#X obj 329 -54 b;
#X msg 332 34 40;
#X obj 34 -5 alpha;
#X obj 2 157 colourRGB 1 1 1 1;
#X floatatom 187 145 5 0 0 0 - - -;
#X obj 290 103 r ctrl;
#X obj 258 211 line;
#X obj 287 135 sel 0 1;
#X msg 282 163 1 500;
#X msg 322 175 0;
#X msg 283 35 150;
#X msg 290 -30 0.73;
#X obj 7 418 r zera_votos;
#X msg 8 442 text -;
#X msg 351 -14 -1.8;
#X obj 65 111 translateXYZ -1.8 2.03 0;
#X obj 283 66 s sizeVOTE;
#X msg -154 373 font FONTS/MAKISUPA.TTF \, text - \, alias 1;
#X obj 121 417 t f f;
#X text 114 291 Pega a pontuação do barulho e arredonda;
#N canvas 569 228 462 407 PRINTA 0;
#X obj 120 44 inlet;
#X msg 197 91 bang;
#X floatatom 212 178 0 0 0 0 - - -;
#X floatatom 204 201 0 0 0 0 - - -;
#X floatatom 197 224 0 0 0 0 - - -;
#X obj 197 120 time;
#X floatatom 220 155 0 0 0 0 - - -;
#X text 290 91 local;
#X obj 85 271 pack f f f f;
#X text 275 150 msec;
#X text 276 172 sec;
#X text 277 193 min;
#X text 276 215 hours;
#X obj 123 99 t b f;
#X msg 129 301 \$1:\$2:\$3: - Público: \$4;
#X obj 79 334 print VOTO;
#X connect 0 0 13 0;
#X connect 1 0 5 0;
#X connect 2 0 8 2;
#X connect 3 0 8 1;
#X connect 4 0 8 0;
#X connect 5 0 4 0;
#X connect 5 1 3 0;
#X connect 5 2 2 0;
#X connect 5 3 6 0;
#X connect 8 0 14 0;
#X connect 13 0 1 0;
#X connect 13 1 8 3;
#X connect 14 0 15 0;
#X restore 148 447 pd PRINTA;
#X msg -133 505 font vera.ttf \, text - \, alias 1;
#X connect 1 0 0 1;
#X connect 2 0 39 3;
#X connect 3 0 39 1;
#X connect 4 0 39 2;
#X connect 5 0 1 0;
#X connect 6 0 8 0;
#X connect 7 0 41 0;
#X connect 8 0 9 0;
#X connect 9 0 10 0;
#X connect 10 0 42 0;
#X connect 11 0 39 0;
#X connect 12 0 11 1;
#X connect 13 0 12 0;
#X connect 14 0 12 0;
#X connect 15 0 17 0;
#X connect 16 0 15 0;
#X connect 17 0 26 0;
#X connect 18 0 19 0;
#X connect 19 0 14 0;
#X connect 19 1 14 0;
#X connect 19 2 13 0;
#X connect 20 0 21 0;
#X connect 21 0 22 0;
#X connect 21 0 35 0;
#X connect 21 0 34 0;
#X connect 21 1 24 0;
#X connect 22 0 3 0;
#X connect 23 0 4 0;
#X connect 24 0 38 0;
#X connect 24 0 23 0;
#X connect 24 0 25 0;
#X connect 25 0 40 0;
#X connect 26 0 11 0;
#X connect 27 0 0 0;
#X connect 28 0 27 4;
#X connect 29 0 31 0;
#X connect 30 0 27 4;
#X connect 31 0 32 0;
#X connect 31 1 33 0;
#X connect 32 0 30 0;
#X connect 33 0 30 0;
#X connect 34 0 40 0;
#X connect 35 0 4 0;
#X connect 36 0 37 0;
#X connect 37 0 0 0;
#X connect 38 0 3 0;
#X connect 39 0 27 0;
#X connect 41 0 0 0;
#X connect 42 0 0 0;
#X connect 42 1 44 0;
#X connect 45 0 0 0;
#X restore 243 -8 pd VOTE;
#N canvas 633 193 397 504 LOGO 0;
#X obj 215 36 r ctrl;
#X obj 87 132 spigot;
#X obj 140 134 tgl 15 0 empty empty empty 17 7 0 10 -262144 -1 -1 1
1;
#X obj 215 64 sel 0 1;
#X msg 211 93 1;
#X msg 242 94 0;
#X obj 76 233 rotateXYZ;
#X obj 110 193 f;
#X obj 140 192 + 1;
#X obj 110 429 text3d;
#X obj 284 349 loadbang;
#X msg 250 322 font FONTS/MAKISUPA.TTF;
#X obj 56 3 gemhead;
#X obj 17 -20 inlet;
#X obj 30 2 tgl 15 0 empty empty empty 17 7 0 10 -262144 -1 -1 1 1
;
#X obj 54 35 alpha;
#X obj 171 312 line;
#X obj 171 224 r LOGO-Alpha;
#X obj 191 258 loadbang;
#X msg 189 279 1;
#X obj 54 60 ortho;
#X msg 244 422 7;
#X obj 54 84 translateXYZ -2.2 3.21 0;
#X obj 4 30 r Mode;
#X obj 7 57 != 0;
#X floatatom 2 92 5 0 0 0 - - -;
#X obj 72 336 colourRGB 1 0.9 0.2 1;
#X msg 289 410 text Lab.I.O;
#X msg 222 387 text PortugalSLAM;
#X obj 119 161 metro 35;
#X connect 0 0 3 0;
#X connect 1 0 6 0;
#X connect 2 0 1 1;
#X connect 2 0 29 0;
#X connect 3 0 4 0;
#X connect 3 1 5 0;
#X connect 4 0 2 0;
#X connect 5 0 2 0;
#X connect 6 0 26 0;
#X connect 7 0 8 0;
#X connect 7 0 6 2;
#X connect 8 0 7 1;
#X connect 10 0 21 0;
#X connect 10 0 11 0;
#X connect 10 0 28 0;
#X connect 11 0 9 0;
#X connect 12 0 15 0;
#X connect 13 0 14 0;
#X connect 14 0 12 0;
#X connect 15 0 20 0;
#X connect 16 0 26 4;
#X connect 17 0 16 0;
#X connect 18 0 19 0;
#X connect 19 0 16 0;
#X connect 20 0 22 0;
#X connect 21 0 9 1;
#X connect 22 0 1 0;
#X connect 23 0 24 0;
#X connect 23 0 25 0;
#X connect 24 0 14 0;
#X connect 26 0 9 0;
#X connect 28 0 9 0;
#X connect 29 0 7 0;
#X restore 158 66 pd LOGO;
#N canvas 1 195 503 604 BARULHOMETRO 0;
#X obj 87 435 text2d;
#X obj 87 201 translateXYZ;
#X floatatom 110 113 5 0 0 0 - - -;
#X floatatom 137 174 5 0 0 0 - - -;
#X floatatom 176 176 5 0 0 0 - - -;
#X msg 107 304 font FONTS/MAKISUPA.TTF;
#X obj 124 245 loadbang;
#X obj 91 -20 tgl 15 0 empty empty empty 17 7 0 10 -262144 -1 -1 1
1;
#X obj 89 5 gemhead;
#X obj 98 -93 inlet;
#X obj -15 -126 r Mode;
#X obj -15 -102 sel 2 3;
#X msg 2 -59 1;
#X msg 46 -59 0;
#X obj 231 -116 r Mode;
#X obj 229 -76 sel 2;
#X obj 89 39 alpha;
#X obj 120 391 r Barulho-size;
#X obj 110 84 r Barulho-Pos-X;
#X floatatom 120 415 5 0 0 0 - - -;
#X obj 132 139 r Barulho-Pos-Y;
#X msg 138 277 text BARULHÓMETRO;
#X msg 117 333 text PÚBLICO;
#X msg 342 7 \; Barulho-size 25 \; Barulho-Pos-X -4.3 \; Barulho-Pos-Y
2 \;;
#X msg 206 7 \; Barulho-size 50 \; Barulho-Pos-X 0 \; Barulho-Pos-Y
-1 \;;
#X connect 1 0 0 0;
#X connect 2 0 1 1;
#X connect 3 0 1 2;
#X connect 4 0 1 3;
#X connect 5 0 0 0;
#X connect 6 0 22 0;
#X connect 6 0 5 0;
#X connect 6 0 21 0;
#X connect 7 0 8 0;
#X connect 8 0 16 0;
#X connect 9 0 7 0;
#X connect 10 0 11 0;
#X connect 11 0 12 0;
#X connect 11 1 12 0;
#X connect 11 2 13 0;
#X connect 12 0 7 0;
#X connect 13 0 7 0;
#X connect 14 0 15 0;
#X connect 15 0 24 0;
#X connect 15 1 23 0;
#X connect 16 0 1 0;
#X connect 17 0 19 0;
#X connect 18 0 2 0;
#X connect 19 0 0 1;
#X connect 20 0 3 0;
#X connect 22 0 0 0;
#X restore 244 92 pd BARULHOMETRO;
#X obj 481 -74 cnv 15 300 100 empty empty empty 20 12 0 14 -191407
-66577 0;
#X obj 487 -7 gemwin;
#X msg 559 -2 destroy \, border 0 \, create \, 1;
#X msg 557 18 reset \, dimen 400 300 \, create \, 1;
#X msg 560 40 reset \, dimen 800 600 \, create \, 1;
#N canvas 151 268 498 353 TIMER 0;
#X obj 118 253 text2d;
#X floatatom 151 212 5 0 0 0 - - -;
#X floatatom 159 129 5 0 0 0 - - -;
#X floatatom 200 130 5 0 0 0 - - -;
#X floatatom 241 132 5 0 0 0 - - -;
#X obj 151 190 r sizeBARU;
#X obj -54 -68 loadbang;
#X obj 118 162 translateXYZ 3.5 -3 0;
#X obj 159 106 r T_X;
#X obj 200 100 r T_Y;
#X obj 241 101 r T_Z;
#X obj 118 40 tgl 15 0 empty empty empty 17 7 0 10 -262144 -1 -1 0
1;
#X obj 118 15 inlet;
#X obj 118 69 gemhead 51;
#X obj 79 -9 r Mode;
#X obj 79 16 == 1;
#X msg -54 -38 font FONTS/MAKISUPA.TTF \, text TIMER;
#X connect 1 0 0 1;
#X connect 2 0 7 1;
#X connect 3 0 7 2;
#X connect 4 0 7 3;
#X connect 5 0 1 0;
#X connect 6 0 16 0;
#X connect 7 0 0 0;
#X connect 8 0 2 0;
#X connect 9 0 3 0;
#X connect 10 0 4 0;
#X connect 11 0 13 0;
#X connect 12 0 11 0;
#X connect 13 0 7 0;
#X connect 14 0 15 0;
#X connect 15 0 11 0;
#X connect 16 0 0 0;
#X restore 245 45 pd TIMER;
#X obj 244 71 tgl 15 0 empty empty empty 17 7 0 10 -262144 -1 -1 0
1;
#X obj 245 25 tgl 15 0 empty empty empty 17 7 0 10 -262144 -1 -1 0
1;
#X obj 243 -28 tgl 15 0 empty empty empty 17 7 0 10 -262144 -1 -1 0
1;
#X obj 159 -27 tgl 15 0 empty empty empty 17 7 0 10 -262144 -1 -1 0
1;
#X obj 158 45 tgl 15 0 empty empty empty 17 7 0 10 -262144 -1 -1 0
1;
#X msg 490 -57 reset \, dimen 1024 768 \, offset 1440 0 \, border 1
\, create \, 1;
#X obj 159 150 juri_count;
#N canvas 208 87 536 631 OSC-in 0;
#X obj 211 -71 import iemnet mrpeach;
#X obj 27 -48 unpackOSC;
#X obj 40 506 line;
#X obj 99 423 s ctrl;
#X obj 69 451 s barulho_vote;
#X obj 148 377 s StopTimer;
#X obj 129 399 s GOtimer;
#X obj 129 352 sel 1 0;
#N canvas 1 80 450 300 get.info 0;
#X text 29 31 NOTE outlet #2 is for compatibility with mrpeach's net
objects. you can get all info (and more) via outlet #3 as well.;
#X obj 40 95 inlet outlet#3;
#X obj 40 119 route address;
#X floatatom 190 177 3 0 0 0 - - -;
#X floatatom 217 177 3 0 0 0 - - -;
#X floatatom 244 177 3 0 0 0 - - -;
#X floatatom 271 177 3 0 0 0 - - -;
#X text 147 176 from;
#X floatatom 299 177 5 0 0 0 - - -;
#X obj 190 151 unpack 0 0 0 0 0;
#X obj 35 213 route port;
#X floatatom 197 245 5 0 0 0 - - -;
#X text 236 244 listening port;
#X connect 1 0 2 0;
#X connect 2 0 9 0;
#X connect 2 1 10 0;
#X connect 9 0 3 0;
#X connect 9 1 4 0;
#X connect 9 2 5 0;
#X connect 9 3 6 0;
#X connect 9 4 8 0;
#X connect 10 0 11 0;
#X restore 114 -48 pd get.info;
#X obj 27 -77 udpreceive 3322;
#X obj 158 313 bng 15 250 50 0 empty empty empty 17 7 0 10 -262144
-1 -1;
#X obj 40 530 outlet;
#X obj 188 284 s Mode;
#X obj 218 255 s MostraBarra;
#X obj 243 80 routeOSC /1 /2 /3 /4 /5 /calc;
#X obj 243 225 s JuriVote-1-set;
#X obj 385 104 s calc_juri;
#X obj 271 200 s JuriVote-2-set;
#X obj 300 176 s JuriVote-3-set;
#X obj 328 154 s JuriVote-4-set;
#X obj 357 129 s JuriVote-5-set;
#X obj 265 54 s zera_votos;
#X msg 40 478 \$1 400;
#X text 82 529 Input de som am DBs;
#X text 161 449 Voto do público;
#X obj 304 27 s pubYA;
#X obj 40 -16 routeOSC /dbs /barulho_vote /ctrl /timer_ctrl /desliga
/Mode /RecoverTimer /juri /zera_votos /pubYA;
#X connect 1 0 26 0;
#X connect 2 0 11 0;
#X connect 7 0 6 0;
#X connect 7 1 5 0;
#X connect 9 0 1 0;
#X connect 9 2 8 0;
#X connect 14 0 15 0;
#X connect 14 1 17 0;
#X connect 14 2 18 0;
#X connect 14 3 19 0;
#X connect 14 4 20 0;
#X connect 14 5 16 0;
#X connect 22 0 2 0;
#X connect 26 0 22 0;
#X connect 26 1 4 0;
#X connect 26 2 3 0;
#X connect 26 3 7 0;
#X connect 26 4 10 0;
#X connect 26 5 12 0;
#X connect 26 6 13 0;
#X connect 26 7 14 0;
#X connect 26 8 21 0;
#X connect 26 9 25 0;
#X restore 29 -67 pd OSC-in;
#N canvas 551 183 614 581 video 0;
#X obj 406 274 text3d;
#X obj 230 -175 gemhead;
#X obj 228 -143 alpha;
#X obj 228 -118 ortho;
#X obj 280 90 colourRGB 1 1 1 1;
#X obj 229 -71 translateXYZ 0 0 0;
#X msg 421 170 font FONTS/MAKISUPA.TTF;
#X msg 391 1 text BARULHO!;
#X floatatom 433 232 5 0 0 0 - - -;
#X obj 230 -209 tgl 15 0 empty empty empty 17 7 0 10 -262144 -1 -1
0 1;
#X obj 298 -219 loadbang;
#X msg 319 -190 0;
#X connect 1 0 2 0;
#X connect 2 0 3 0;
#X connect 3 0 5 0;
#X connect 4 0 0 0;
#X connect 5 0 4 0;
#X connect 6 0 0 0;
#X connect 7 0 0 0;
#X connect 8 0 0 1;
#X connect 9 0 1 0;
#X connect 10 0 11 0;
#X connect 11 0 9 0;
#X restore 284 216 pd video;
#X obj 244 217 hradio 15 1 0 2 empty empty choose_camera -85 6 0 10
-262144 -1 -1 0;
#N canvas 47 79 1226 720 JURI 0;
#X obj 176 197 text2d;
#X floatatom 193 68 5 0 0 0 - - -;
#X floatatom 230 69 5 0 0 0 - - -;
#X floatatom 269 71 5 0 0 0 - - -;
#X obj 385 15 tgl 15 0 empty empty empty 17 7 0 10 -262144 -1 -1 0
1;
#X obj 143 35 gemhead;
#X obj 430 -23 inlet;
#X obj 245 -32 r Mode;
#X obj 1016 40 loadbang;
#X obj 210 154 r JuriSize;
#X obj 124 140 r JuriSet;
#X obj 172 311 text2d;
#X obj 206 268 r JuriSize;
#X obj 91 223 r JuriSet;
#X obj 176 230 translateXYZ 0 -0.6 0;
#X obj 168 435 text2d;
#X obj 202 392 r JuriSize;
#X obj 81 350 r JuriSet;
#X obj 172 354 translateXYZ 0 -0.6 0;
#X obj 168 553 text2d;
#X obj 202 510 r JuriSize;
#X obj 81 468 r JuriSet;
#X obj 168 472 translateXYZ 0 -0.6 0;
#X obj -18 201 loadbang;
#X obj 149 693 text2d;
#X obj 202 660 r JuriSize;
#X obj 81 618 r JuriSet;
#X obj 168 622 translateXYZ 0 -0.6 0;
#X obj 551 216 text2d;
#X floatatom 599 56 5 0 0 0 - - -;
#X floatatom 636 57 5 0 0 0 - - -;
#X floatatom 675 59 5 0 0 0 - - -;
#X obj 508 60 gemhead;
#X obj 551 340 text2d;
#X obj 551 249 translateXYZ 0 -0.6 0;
#X obj 551 444 text2d;
#X obj 551 365 translateXYZ 0 -0.6 0;
#X obj 551 570 text2d;
#X obj 551 469 translateXYZ 0 -0.6 0;
#X obj 551 699 text2d;
#X obj 551 599 translateXYZ 0 -0.6 0;
#X obj 583 183 r JuriSize-p;
#X obj 584 317 r JuriSize-p;
#X obj 584 421 r JuriSize-p;
#X obj 584 541 r JuriSize-p;
#X obj 584 676 r JuriSize-p;
#X obj 909 306 text2d;
#X obj 799 176 r JuriSet;
#X obj 909 450 text2d;
#X obj 942 421 r JuriSize-p;
#X obj 900 68 gemhead;
#X floatatom 957 196 5 0 0 0 - - -;
#X floatatom 1009 188 5 0 0 0 - - -;
#X floatatom 983 311 5 0 0 0 - - -;
#X floatatom 1027 306 5 0 0 0 - - -;
#X obj 943 263 r JuriSize;
#X msg 53 267 text JÚRI 2;
#X msg 49 391 text JÚRI 3;
#X msg 50 508 text JÚRI 4;
#X msg 50 658 text JÚRI 5;
#X msg 46 121 text JÚRI 1;
#X obj 181 116 translateXYZ -4.51 0.4 0;
#X msg 454 304 text \$1;
#X msg 459 391 text \$1;
#X msg 464 522 text \$1;
#X msg 461 660 text \$1;
#X obj 461 632 r JuriVote-5;
#X obj 464 494 r JuriVote-4;
#X obj 459 363 r JuriVote-3;
#X obj 454 276 r JuriVote-2;
#X msg 470 173 text \$1;
#X obj 470 145 r JuriVote-1;
#X obj 785 334 r JuriVote-Mean;
#X msg 785 376 text \$1;
#X msg 730 259 text MÉDIA JÚRI;
#X obj 584 151 r JuriSet-N;
#X obj 576 283 r JuriSet-N;
#X obj 583 393 r JuriSet-N;
#X obj 586 507 r JuriSet-N;
#X obj 579 644 r JuriSet-N;
#X obj 935 377 r JuriSet-N;
#X obj 256 5 == 3;
#X obj 726 217 loadbang;
#X obj 1113 169 r zera_votos;
#X msg 1112 205 \; JuriSet-N text -;
#X obj 551 115 translateXYZ -1.83 0.4 0;
#X msg 1015 66 \; JuriSize 25 \; JuriSet font FONTS/MAKISUPA.TTF \;
JuriSet-N font FONTS/MAKISUPA.TTF \; JuriSize-p 40 \; JuriSet-N text
- \;;
#X obj 913 225 translateXYZ -4.07 1.31 0;
#X obj 909 339 translateXYZ 2.25 -0.01 0;
#X floatatom 365 537 5 0 0 0 - - -;
#X obj 365 568 s JuriSize;
#N canvas 169 203 514 565 ANIMATION 0;
#X obj 52 69 gemhead;
#X obj 101 516 text2d;
#X obj 48 466 translateXYZ;
#X msg 331 397 text the;
#X msg 378 461 text not;
#X obj 51 98 alpha;
#X obj 47 312 colorRGB;
#X obj 323 68 hradio 15 1 0 5 empty empty empty 0 -8 0 10 -262144 -1
-1 4;
#X obj 122 275 line;
#X floatatom 125 299 5 0 0 0 - - -;
#X msg 89 233 0;
#X obj 212 161 sel 0 1 2 3 4;
#X obj 346 329 sel 0 1 2 3 4;
#X obj 197 198 t b b;
#X msg 229 255 0 3000;
#X obj 278 197 t b b;
#X msg 123 248 0 2000;
#X obj 123 223 delay 500;
#X floatatom 161 519 5 0 0 0 - - -;
#X obj 49 42 tgl 15 0 empty empty empty 17 7 0 10 -262144 -1 -1 0 1
;
#X obj 56 3 inlet;
#X msg 150 346 1;
#X obj 119 417 random 6;
#X obj 121 440 - 3;
#X obj 433 98 change;
#X obj 428 152 s anim-pos;
#X obj 77 367 r anim-pos;
#X obj 436 129 bng 15 250 50 0 empty empty empty 17 7 0 10 -262144
-1 -1;
#X obj 253 17 metro 1500;
#X obj 251 40 f;
#X obj 280 40 + 1;
#X floatatom 232 86 5 0 0 0 - - -;
#X obj 104 22 tgl 15 0 empty empty empty 17 7 0 10 -262144 -1 -1 0
1;
#X obj 252 62 mod 5;
#X msg 176 248 0.8 500;
#X obj 78 393 random 3;
#X obj 78 431 + 1;
#X msg 283 256 1 400;
#X obj 229 230 delay 700;
#X obj 129 21 sel 1;
#X msg 389 486 text the point...;
#X msg 364 437 text are;
#X msg 344 417 text points;
#X obj 141 45 t b b;
#X msg 152 69 1;
#X obj 188 18 delay 300;
#X msg 186 71 0;
#X obj 237 522 loadbang;
#X msg 200 521 50;
#X connect 0 0 5 0;
#X connect 2 0 1 0;
#X connect 3 0 1 0;
#X connect 4 0 1 0;
#X connect 5 0 6 0;
#X connect 6 0 2 0;
#X connect 7 0 11 0;
#X connect 7 0 12 0;
#X connect 7 0 24 0;
#X connect 8 0 9 0;
#X connect 8 0 6 4;
#X connect 10 0 8 0;
#X connect 11 0 13 0;
#X connect 11 1 13 0;
#X connect 11 2 13 0;
#X connect 11 3 13 0;
#X connect 11 4 15 0;
#X connect 12 0 3 0;
#X connect 12 1 42 0;
#X connect 12 2 41 0;
#X connect 12 3 4 0;
#X connect 12 4 40 0;
#X connect 13 0 17 0;
#X connect 13 1 34 0;
#X connect 14 0 8 0;
#X connect 15 0 38 0;
#X connect 15 1 37 0;
#X connect 16 0 8 0;
#X connect 17 0 16 0;
#X connect 18 0 1 1;
#X connect 19 0 0 0;
#X connect 20 0 19 0;
#X connect 20 0 32 0;
#X connect 21 0 6 4;
#X connect 22 0 23 0;
#X connect 23 0 2 2;
#X connect 24 0 27 0;
#X connect 26 0 22 0;
#X connect 26 0 35 0;
#X connect 27 0 25 0;
#X connect 28 0 29 0;
#X connect 29 0 30 0;
#X connect 29 0 33 0;
#X connect 30 0 29 1;
#X connect 31 0 7 0;
#X connect 32 0 39 0;
#X connect 33 0 31 0;
#X connect 34 0 8 0;
#X connect 35 0 36 0;
#X connect 36 0 2 1;
#X connect 37 0 8 0;
#X connect 38 0 14 0;
#X connect 39 0 43 0;
#X connect 39 1 28 0;
#X connect 40 0 1 0;
#X connect 41 0 1 0;
#X connect 42 0 1 0;
#X connect 43 0 44 0;
#X connect 43 1 46 0;
#X connect 44 0 45 0;
#X connect 45 0 28 0;
#X connect 46 0 29 0;
#X connect 47 0 48 0;
#X connect 48 0 18 0;
#X restore 385 87 pd ANIMATION;
#X connect 0 0 14 0;
#X connect 1 0 61 1;
#X connect 2 0 61 2;
#X connect 3 0 61 3;
#X connect 4 0 5 0;
#X connect 4 0 32 0;
#X connect 4 0 50 0;
#X connect 4 0 91 0;
#X connect 5 0 61 0;
#X connect 6 0 4 0;
#X connect 7 0 81 0;
#X connect 8 0 86 0;
#X connect 9 0 0 1;
#X connect 10 0 0 0;
#X connect 11 0 18 0;
#X connect 12 0 11 1;
#X connect 13 0 11 0;
#X connect 14 0 11 0;
#X connect 15 0 22 0;
#X connect 16 0 15 1;
#X connect 17 0 15 0;
#X connect 18 0 15 0;
#X connect 19 0 27 0;
#X connect 20 0 19 1;
#X connect 21 0 19 0;
#X connect 22 0 19 0;
#X connect 23 0 60 0;
#X connect 23 0 56 0;
#X connect 23 0 57 0;
#X connect 23 0 58 0;
#X connect 23 0 59 0;
#X connect 25 0 24 1;
#X connect 26 0 24 0;
#X connect 27 0 24 0;
#X connect 28 0 34 0;
#X connect 29 0 85 1;
#X connect 30 0 85 2;
#X connect 31 0 85 3;
#X connect 32 0 85 0;
#X connect 33 0 36 0;
#X connect 34 0 33 0;
#X connect 35 0 38 0;
#X connect 36 0 35 0;
#X connect 37 0 40 0;
#X connect 38 0 37 0;
#X connect 40 0 39 0;
#X connect 41 0 28 1;
#X connect 42 0 33 1;
#X connect 43 0 35 1;
#X connect 44 0 37 1;
#X connect 45 0 39 1;
#X connect 46 0 88 0;
#X connect 47 0 46 0;
#X connect 49 0 48 1;
#X connect 50 0 87 0;
#X connect 51 0 87 1;
#X connect 52 0 87 2;
#X connect 53 0 88 1;
#X connect 54 0 88 2;
#X connect 55 0 46 1;
#X connect 56 0 11 0;
#X connect 57 0 15 0;
#X connect 58 0 19 0;
#X connect 59 0 24 0;
#X connect 60 0 0 0;
#X connect 61 0 0 0;
#X connect 62 0 33 0;
#X connect 63 0 35 0;
#X connect 64 0 37 0;
#X connect 65 0 39 0;
#X connect 66 0 65 0;
#X connect 67 0 64 0;
#X connect 68 0 63 0;
#X connect 69 0 62 0;
#X connect 70 0 28 0;
#X connect 71 0 70 0;
#X connect 72 0 73 0;
#X connect 73 0 48 0;
#X connect 74 0 46 0;
#X connect 75 0 28 0;
#X connect 76 0 33 0;
#X connect 77 0 35 0;
#X connect 78 0 37 0;
#X connect 79 0 39 0;
#X connect 80 0 48 0;
#X connect 81 0 4 0;
#X connect 82 0 74 0;
#X connect 83 0 84 0;
#X connect 85 0 28 0;
#X connect 87 0 46 0;
#X connect 88 0 48 0;
#X connect 89 0 90 0;
#X restore 160 121 pd JURI;
#X obj 160 99 tgl 15 0 empty empty empty 17 7 0 10 -262144 -1 -1 0
1;
#X obj 250 123 geral;
#X msg 484 -79 0 \, destroy;
#X msg 503 -36 reset \, dimen 1024 768 \, offset 1280 0 \, border 0
\, create \, 1;
#X obj 95 129 vu 15 120 empty empty -1 -8 0 10 -66577 -1 1 0;
#X obj 93 78 - 100;
#N canvas 515 59 615 740 ShowBar 0;
#X obj 181 230 hsv2rgb;
#X obj 184 126 hsl 128 15 0 1 0 0 empty empty color -2 -8 0 10 -191407
-258113 -260097 12700 1;
#X msg 181 203 \$1 1 1;
#X obj 181 59 expr 1 - $f1/$f2;
#X obj 109 294 r size;
#X floatatom 220 177 5 0 0 1 shift_value - -;
#X obj 181 176 -;
#X obj 220 153 r shiftH;
#X obj 181 83 pow 0.3;
#X obj 274 30 r db_dCOR;
#X obj 181 31 r dbT;
#X obj 66 288 r dbT;
#X obj 212 -71 r ctrl;
#X obj 51 40 gemhead;
#X obj 51 20 tgl 15 0 empty empty empty 17 7 0 10 -262144 -1 -1 0 1
;
#X obj 112 -65 inlet;
#X obj 39 -95 loadbang;
#X msg 45 -25 0;
#X floatatom 113 348 5 0 0 0 - - -;
#X obj 51 254 color 1 1 1;
#X obj 85 372 pow 2;
#X obj 19 521 triangle;
#X obj 81 521 r sizestar;
#X obj 11 623 triangle;
#X obj 73 623 r sizestar;
#X floatatom 97 569 5 0 0 0 - - -;
#X floatatom 61 569 5 0 0 0 - - -;
#X obj 164 625 triangle;
#X obj 226 625 r sizestar;
#X floatatom 241 571 5 0 0 0 - - -;
#X floatatom 205 571 5 0 0 0 - - -;
#X obj 318 627 triangle;
#X obj 380 627 r sizestar;
#X floatatom 412 572 5 0 0 0 - - -;
#X floatatom 376 572 5 0 0 0 - - -;
#X obj -4 556 separator;
#X obj 29 596 rotateXYZ 0 0 -16;
#X obj 173 598 rotateXYZ 0 0 -291;
#X obj 321 599 rotateXYZ 0 0 -672;
#X obj 34 449 scaleXYZ 1 1 1;
#X floatatom 117 399 5 0 0 0 - - -;
#X obj 80 324 / 30;
#X obj 34 483 translateXYZ 0 0 -0.1;
#X obj 83 417 * 3;
#X obj 33 -63 delay 500;
#X obj 361 419 r dbT;
#X obj 401 50 gemhead;
#X obj 401 30 tgl 15 0 empty empty empty 17 7 0 10 -262144 -1 -1 0
1;
#X obj 401 264 color 1 1 1;
#X floatatom 323 503 5 0 0 0 - - -;
#X floatatom 364 496 5 0 0 0 - - -;
#X floatatom 326 414 5 0 0 0 - - -;
#X obj 360 459 expr ($f1/30)*6;
#X obj 375 322 r dbT;
#X obj 373 348 expr -3 + ($f1/30)*6/2;
#X obj 227 -8 demux . .;
#X obj 278 -38 tgl 15 0 empty empty empty 17 7 0 10 -257985 -1 -1 1
1;
#X obj 279 -72 inlet;
#X text 301 -41 0 star \, 1 column;
#X obj 294 385 translateXYZ 0 -4 0;
#X obj 299 533 rectangle 3 0;
#X connect 0 0 19 1;
#X connect 0 0 48 1;
#X connect 1 0 6 0;
#X connect 2 0 0 0;
#X connect 3 0 8 0;
#X connect 4 0 41 1;
#X connect 5 0 6 1;
#X connect 6 0 2 0;
#X connect 7 0 5 0;
#X connect 8 0 1 0;
#X connect 9 0 3 1;
#X connect 10 0 3 0;
#X connect 11 0 41 0;
#X connect 12 0 55 0;
#X connect 13 0 19 0;
#X connect 14 0 13 0;
#X connect 15 0 55 0;
#X connect 16 0 44 0;
#X connect 17 0 14 0;
#X connect 18 0 20 1;
#X connect 19 0 39 0;
#X connect 20 0 43 0;
#X connect 21 0 35 0;
#X connect 22 0 21 1;
#X connect 23 0 37 0;
#X connect 24 0 23 1;
#X connect 25 0 36 3;
#X connect 26 0 36 2;
#X connect 27 0 38 0;
#X connect 28 0 27 1;
#X connect 29 0 37 3;
#X connect 30 0 37 2;
#X connect 32 0 31 1;
#X connect 33 0 38 3;
#X connect 34 0 38 2;
#X connect 35 0 36 0;
#X connect 36 0 23 0;
#X connect 37 0 27 0;
#X connect 38 0 31 0;
#X connect 39 0 42 0;
#X connect 40 0 43 1;
#X connect 41 0 20 0;
#X connect 42 0 21 0;
#X connect 43 0 39 1;
#X connect 43 0 39 2;
#X connect 44 0 17 0;
#X connect 45 0 51 0;
#X connect 45 0 52 0;
#X connect 46 0 48 0;
#X connect 47 0 46 0;
#X connect 48 0 59 0;
#X connect 49 0 60 1;
#X connect 50 0 60 2;
#X connect 52 0 50 0;
#X connect 53 0 54 0;
#X connect 54 0 59 2;
#X connect 55 0 14 0;
#X connect 55 1 47 0;
#X connect 56 0 55 1;
#X connect 57 0 56 0;
#X connect 59 0 60 0;
#X restore 159 -6 pd ShowBar;
#X obj 213 -28 tgl 15 0 colORstar colORstar-r empty 17 7 0 10 -257985
-1 -1 1 1;
#X text 156 -45 SHOW BARULHO;
#X msg 519 -20 reset \, dimen 1024 768 \, border 1 \, create \, 1;
#X msg 369 -29 \; Mode 0 \; db_thresh 60 \; db_dCOR 30 \; shiftH 0.04
\; size 15 \; sizeVOTE 150 \; sizeBARU 30 \; T_X 3 \; T_Y -2.5 \; T_Z
0 \; ctrl 0 \; MostraTexto 0 \; MostraBarra 0 \; colORstar-r 1 \;;
#X text 158 283 Versione 25 Jun 2014;
#X connect 0 0 2 0;
#X connect 1 0 55 0;
#X connect 2 0 3 0;
#X connect 3 0 5 0;
#X connect 4 0 2 1;
#X connect 6 0 7 0;
#X connect 8 0 7 0;
#X connect 10 0 9 0;
#X connect 14 0 15 0;
#X connect 18 0 19 0;
#X connect 20 0 18 0;
#X connect 21 0 14 0;
#X connect 30 0 29 0;
#X connect 31 0 29 0;
#X connect 32 0 29 0;
#X connect 34 0 27 0;
#X connect 35 0 33 0;
#X connect 36 0 25 0;
#X connect 37 0 51 0;
#X connect 38 0 26 0;
#X connect 39 0 29 0;
#X connect 41 0 0 0;
#X connect 41 0 50 0;
#X connect 45 0 44 0;
#X connect 47 0 29 0;
#X connect 48 0 29 0;
#X connect 50 0 49 0;
#X connect 52 0 51 1;
#X connect 54 0 29 0;
