#N canvas 332 146 848 393 10;
#X declare -lib iemnet -lib mrpeach;
#X obj 29 4 vsl 15 128 0 127 0 0 empty empty empty 0 -9 0 10 -262144
-1 -1 4248 1;
#X obj 369 -67 loadbang;
#X obj 49 -23 -;
#X obj 53 3 vsl 15 128 0 127 0 0 empty empty empty 0 -9 0 10 -262144
-1 -1 0 1;
#X obj 64 -45 r db_thresh;
#X obj 53 144 s dbT;
#X msg 687 210 1;
#X obj 714 234 s ctrl;
#X msg 684 233 0;
#X obj 562 238 s barulho_vote;
#X floatatom 499 235 5 0 0 0 - - -;
#X obj 487 58 cnv 15 300 130 empty empty empty 20 12 0 14 -204800 -66577
0;
#N canvas 98 103 642 642 GO 0;
#X obj 200 42 bng 15 250 50 0 empty empty empty 17 7 0 10 -262144 -1
-1;
#X text 217 39 GO!;
#X obj 247 224 delay 1000;
#X obj 231 379 s toText;
#X obj 231 331 delay 2000;
#X msg 231 356 3;
#X obj 200 77 t b b b b b;
#X obj 215 459 s toText;
#X obj 215 411 delay 3000;
#X msg 215 436 symbol SLAM;
#X obj 200 490 delay 4000;
#X msg 263 105 \; resetCounter bang \; textCor 1 1 1 \; barraCor 1
1 1 \; barraReset bang \; MostraTexto 1 \; MostraBarra 0 \; toText
1 \;;
#X obj 200 14 r GO;
#X msg 248 258 \; toText 2 \; LOGO-Alpha 0 1000 \;;
#X msg 200 521 \; MostraTexto 0 \; MostraBarra 1 \; barraMove 0 180000
\; LOGO-Alpha 1 1000 \;;
#X connect 0 0 6 0;
#X connect 2 0 13 0;
#X connect 4 0 5 0;
#X connect 5 0 3 0;
#X connect 6 0 10 0;
#X connect 6 1 8 0;
#X connect 6 2 4 0;
#X connect 6 3 2 0;
#X connect 6 4 11 0;
#X connect 8 0 9 0;
#X connect 9 0 7 0;
#X connect 10 0 14 0;
#X connect 12 0 0 0;
#X restore 700 86 pd GO;
#N canvas 510 95 450 300 EXTRATIME 0;
#X obj 203 4 r extraTime;
#X msg 47 79 \; barraCor 1 1 1 \;;
#X obj 203 33 t b b;
#X msg 230 66 \; barraCor 1 0 0 \; textCor 1 0 0 \; barraMove 8 10000
\;;
#X obj 203 140 delay 10000;
#X obj 171 215 metro 1000;
#X obj 171 241 counter;
#X msg 199 161 1;
#X obj 171 276 s toText;
#X obj 196 187 t f f;
#X obj 279 215 s MostraTexto;
#X obj 150 179 tgl 15 0 empty empty empty 17 7 0 10 -262144 -1 -1 0
1;
#X obj 241 248 bng 15 250 50 0 empty empty empty 17 7 0 10 -262144
-1 -1;
#X obj 279 254 r resetCounter;
#X obj 89 128 r resetCounter;
#X msg 87 163 0;
#X obj 28 135 r Stop;
#X connect 0 0 2 0;
#X connect 2 0 4 0;
#X connect 2 1 3 0;
#X connect 4 0 7 0;
#X connect 5 0 6 0;
#X connect 6 0 8 0;
#X connect 7 0 9 0;
#X connect 9 0 5 0;
#X connect 9 1 10 0;
#X connect 11 0 5 0;
#X connect 12 0 6 3;
#X connect 13 0 12 0;
#X connect 14 0 15 0;
#X connect 15 0 5 0;
#X connect 16 0 15 0;
#X restore 696 109 pd EXTRATIME;
#X obj 504 97 bng 60 250 50 0 empty empty empty 17 7 0 10 -258113 -1
-1;
#X obj 504 170 s Stop;
#N canvas 45 295 310 330 TEXTO 0;
#X obj 50 2 gemhead;
#X obj 50 241 text2d 0;
#X msg 73 163 text \$1;
#X obj 50 27 alpha;
#X obj 50 -21 tgl 15 0 empty empty empty 17 7 0 10 -262144 -1 -1 0
1;
#X obj 73 136 r toText;
#X obj 65 -140 r MostraTexto;
#X obj 50 109 colour;
#X obj 83 79 r textCor;
#X obj 95 189 loadbang;
#X msg 142 210 font MAKISUPA.TTF;
#X msg 95 210 150;
#X obj 50 56 translateXYZ 2.7 1 0;
#X obj 184 -65 r Mode;
#X obj 184 -35 == 1;
#X obj 141 7 spigot;
#X obj 191 -9 t f f;
#X obj 226 44 sel 1;
#X connect 0 0 3 0;
#X connect 2 0 1 0;
#X connect 3 0 12 0;
#X connect 4 0 0 0;
#X connect 5 0 2 0;
#X connect 6 0 15 0;
#X connect 7 0 1 0;
#X connect 8 0 7 1;
#X connect 9 0 11 0;
#X connect 9 0 10 0;
#X connect 10 0 1 0;
#X connect 11 0 1 1;
#X connect 12 0 7 0;
#X connect 13 0 14 0;
#X connect 14 0 16 0;
#X connect 15 0 4 0;
#X connect 16 0 15 1;
#X connect 16 1 17 0;
#X connect 17 1 4 0;
#X restore 696 133 pd TEXTO;
#N canvas 510 233 584 291 BARRA 0;
#X obj 49 73 gemhead;
#X obj 49 261 rectangle 0.96 3.96;
#X obj 49 231 translateXYZ 0 0 0;
#X obj 309 173 line;
#X obj 309 200 s timer;
#X obj 119 202 r timer;
#X obj 58 31 tgl 15 0 empty empty empty 17 7 0 10 -262144 -1 -1 0 1
;
#X msg 333 148 -8;
#X obj 333 127 r barraReset;
#X obj 279 230 sel 0;
#X obj 279 253 s extraTime;
#X obj 49 171 colour;
#X obj 82 141 r barraCor;
#X obj 309 99 r barraMove;
#X obj 216 121 r Stop;
#X msg 228 170 stop;
#X obj 49 99 translateXYZ 5.5 0 0;
#X obj 264 22 gemhead;
#X obj 330 31 colourRGB 1 0 0;
#X floatatom 387 84 5 0 0 0 - - -;
#X floatatom 429 81 5 0 0 0 - - -;
#X obj 314 57 rectangle 0.96 0.03;
#X obj 323 8 translateXYZ 5.58 3.96 0;
#X floatatom 182 193 5 0 0 0 - - -;
#X obj 242 197 loadbang;
#X obj 207 59 loadbang;
#X obj 54 -133 r MostraBarra;
#X msg 239 224 -2.5;
#X msg 241 86 3;
#X obj 101 -101 r Mode;
#X obj 101 -71 == 1;
#X obj 58 -29 spigot;
#X obj 108 -45 t f f;
#X obj 97 4 sel 1;
#X connect 0 0 16 0;
#X connect 2 0 1 0;
#X connect 3 0 4 0;
#X connect 3 0 9 0;
#X connect 5 0 2 2;
#X connect 6 0 0 0;
#X connect 6 0 17 0;
#X connect 7 0 3 0;
#X connect 8 0 7 0;
#X connect 9 0 10 0;
#X connect 11 0 2 0;
#X connect 12 0 11 1;
#X connect 13 0 3 0;
#X connect 14 0 15 0;
#X connect 15 0 3 0;
#X connect 16 0 11 0;
#X connect 17 0 22 0;
#X connect 18 0 21 0;
#X connect 19 0 21 1;
#X connect 20 0 21 2;
#X connect 22 0 18 0;
#X connect 23 0 2 2;
#X connect 24 0 27 0;
#X connect 25 0 28 0;
#X connect 26 0 31 0;
#X connect 27 0 2 1;
#X connect 28 0 22 1;
#X connect 29 0 30 0;
#X connect 30 0 32 0;
#X connect 31 0 6 0;
#X connect 32 0 31 1;
#X connect 32 1 33 0;
#X connect 33 1 6 0;
#X restore 695 161 pd BARRA;
#X obj 603 97 bng 60 250 50 0 empty empty empty 17 7 0 10 -4034 -1
-1;
#X obj 603 165 s GO;
#X obj 603 66 r GOtimer;
#X obj 503 70 r StopTimer;
#X obj 152 -53 cnv 15 200 300 empty empty empty 20 12 0 14 -261234
-66577 0;
#X text 154 24 LOGO;
#X text 156 -45 COLUMN;
#X text 243 -45 VOTE;
#N canvas 452 112 757 751 COLUMN 0;
#X obj 181 310 hsv2rgb;
#X obj 184 206 hsl 128 15 0 1 0 0 empty empty color -2 -8 0 10 -191407
-258113 -260097 12700 1;
#X msg 181 283 \$1 1 1;
#X obj 181 139 expr 1 - $f1/$f2;
#X obj 296 344 r size;
#X floatatom 220 257 5 0 0 1 shift_value - -;
#X obj 181 256 -;
#X obj 220 233 r shiftH;
#X obj 181 163 pow 0.3;
#X obj 274 110 r db_dCOR;
#X obj 181 111 r dbT;
#X obj 246 342 r dbT;
#X obj 174 -58 r ctrl;
#X floatatom 143 478 5 0 0 0 - - -;
#X obj 112 42 gemhead;
#X obj 112 22 tgl 15 0 empty empty empty 17 7 0 10 -262144 -1 -1 0
1;
#X obj 112 -65 inlet;
#X obj 39 -95 loadbang;
#X msg 39 -64 0;
#X obj 265 -25 r estado;
#X obj 271 5 == 1;
#X floatatom 311 400 5 0 0 0 - - -;
#X obj 112 336 color 1 1 1;
#X obj 265 426 pow 2;
#X floatatom 220 402 5 0 0 0 - - -;
#X obj 131 602 triangle;
#X obj 193 602 r sizestar;
#X obj 133 709 triangle;
#X obj 195 709 r sizestar;
#X floatatom 209 640 5 0 0 0 - - -;
#X floatatom 173 640 5 0 0 0 - - -;
#X obj 135 805 triangle;
#X obj 197 805 r sizestar;
#X floatatom 211 736 5 0 0 0 - - -;
#X floatatom 175 736 5 0 0 0 - - -;
#X obj 145 905 triangle;
#X obj 207 905 r sizestar;
#X floatatom 221 836 5 0 0 0 - - -;
#X floatatom 185 836 5 0 0 0 - - -;
#X obj 108 627 separator;
#X obj 141 667 rotateXYZ 0 0 -16;
#X obj 143 763 rotateXYZ 0 0 -291;
#X obj 149 864 rotateXYZ 0 0 -672;
#X obj 112 510 scaleXYZ 1 1 1;
#X floatatom 314 484 5 0 0 0 - - -;
#X floatatom 365 454 5 0 0 0 - - -;
#X obj 260 378 / 30;
#X obj 146 553 translateXYZ 0 0 -0.1;
#X obj 283 497 * 3;
#X connect 0 0 22 1;
#X connect 1 0 6 0;
#X connect 2 0 0 0;
#X connect 3 0 8 0;
#X connect 4 0 46 1;
#X connect 5 0 6 1;
#X connect 6 0 2 0;
#X connect 7 0 5 0;
#X connect 8 0 1 0;
#X connect 9 0 3 1;
#X connect 10 0 3 0;
#X connect 11 0 24 0;
#X connect 11 0 46 0;
#X connect 12 0 15 0;
#X connect 13 0 43 1;
#X connect 13 0 43 2;
#X connect 14 0 22 0;
#X connect 15 0 14 0;
#X connect 16 0 15 0;
#X connect 17 0 18 0;
#X connect 18 0 15 0;
#X connect 21 0 23 1;
#X connect 22 0 43 0;
#X connect 23 0 45 0;
#X connect 23 0 48 0;
#X connect 25 0 39 0;
#X connect 26 0 25 1;
#X connect 27 0 41 0;
#X connect 28 0 27 1;
#X connect 29 0 40 3;
#X connect 30 0 40 2;
#X connect 31 0 42 0;
#X connect 32 0 31 1;
#X connect 33 0 41 3;
#X connect 34 0 41 2;
#X connect 36 0 35 1;
#X connect 37 0 42 3;
#X connect 38 0 42 2;
#X connect 39 0 40 0;
#X connect 40 0 27 0;
#X connect 41 0 31 0;
#X connect 42 0 35 0;
#X connect 43 0 47 0;
#X connect 44 0 48 1;
#X connect 46 0 23 0;
#X connect 47 0 25 0;
#X connect 48 0 13 0;
#X restore 159 -6 pd COLUMN;
#N canvas 114 80 478 608 VOTE 0;
#X obj 73 417 text2d;
#X msg 107 321 alias \$1;
#X obj 118 299 tgl 15 0 empty empty empty 0 -6 0 8 -262144 -1 -1 0
9.97;
#X msg 95 266 \$1;
#X floatatom 120 415 5 0 0 0 - - -;
#X floatatom 163 79 5 0 0 0 - - -;
#X floatatom 88 79 5 0 0 0 - - -;
#X floatatom 125 79 5 0 0 0 - - -;
#X obj 157 416 r sizeVOTE;
#X obj 119 151 r barulho_vote;
#X obj 121 365 loadbang;
#N canvas 745 412 450 300 ROUND 0;
#X obj 55 24 inlet;
#X obj 85 129 + 0.5;
#X obj 85 159 int;
#X obj 85 233 outlet;
#X obj 86 103 * 100;
#X obj 85 190 / 100;
#X connect 0 0 4 0;
#X connect 1 0 2 0;
#X connect 2 0 5 0;
#X connect 4 0 1 0;
#X connect 5 0 3 0;
#X restore 119 179 pd ROUND;
#X obj 119 211 min 10;
#X obj 116 241 max 0;
#X obj 66 44 spigot;
#X obj 99 15 tgl 15 0 empty empty empty 17 7 0 10 -262144 -1 -1 1 1
;
#X msg 135 -22 0;
#X msg 190 -24 1;
#X obj 42 -64 tgl 15 0 empty empty empty 17 7 0 10 -262144 -1 -1 0
1;
#X obj 40 -87 inlet;
#X obj 33 -39 gemhead;
#X obj 165 -130 r Mode;
#X obj 163 -88 sel 2 3;
#X obj 316 -57 r Mode;
#X obj 330 -24 sel 2;
#X msg 307 20 0;
#X msg 435 36 2.03;
#X obj 379 -4 b;
#X msg 382 84 40;
#X obj 34 -5 alpha;
#X obj 2 157 colourRGB 1 1 1 1;
#X floatatom 219 180 5 0 0 0 - - -;
#X obj 354 161 r ctrl;
#X obj 322 269 line;
#X obj 351 193 sel 0 1;
#X msg 346 221 1 500;
#X msg 386 233 0;
#X msg 333 85 150;
#X msg 340 20 0.73;
#X msg 116 389 font MAKISUPA.TTF \, text -;
#X obj 283 366 r zera_votos;
#X msg 284 390 text -;
#X msg 401 36 -1.8;
#X obj 65 111 translateXYZ -1.8 2.03 0;
#X connect 1 0 0 0;
#X connect 2 0 1 0;
#X connect 3 0 2 0;
#X connect 3 0 0 0;
#X connect 4 0 0 1;
#X connect 5 0 43 3;
#X connect 6 0 43 1;
#X connect 7 0 43 2;
#X connect 8 0 4 0;
#X connect 9 0 11 0;
#X connect 10 0 39 0;
#X connect 11 0 12 0;
#X connect 12 0 13 0;
#X connect 13 0 3 0;
#X connect 14 0 43 0;
#X connect 15 0 14 1;
#X connect 16 0 15 0;
#X connect 17 0 15 0;
#X connect 18 0 20 0;
#X connect 19 0 18 0;
#X connect 20 0 29 0;
#X connect 21 0 22 0;
#X connect 22 0 17 0;
#X connect 22 1 17 0;
#X connect 22 2 16 0;
#X connect 23 0 24 0;
#X connect 24 0 25 0;
#X connect 24 0 38 0;
#X connect 24 0 37 0;
#X connect 24 1 27 0;
#X connect 25 0 6 0;
#X connect 26 0 7 0;
#X connect 27 0 42 0;
#X connect 27 0 26 0;
#X connect 27 0 28 0;
#X connect 28 0 4 0;
#X connect 29 0 14 0;
#X connect 30 0 0 0;
#X connect 31 0 30 4;
#X connect 32 0 34 0;
#X connect 33 0 30 4;
#X connect 34 0 35 0;
#X connect 34 1 36 0;
#X connect 35 0 33 0;
#X connect 36 0 33 0;
#X connect 37 0 4 0;
#X connect 38 0 7 0;
#X connect 39 0 0 0;
#X connect 40 0 41 0;
#X connect 41 0 0 0;
#X connect 42 0 6 0;
#X connect 43 0 30 0;
#X restore 243 -8 pd VOTE;
#N canvas 48 166 397 504 LOGO 0;
#X obj 215 36 r ctrl;
#X obj 87 132 spigot;
#X obj 140 134 tgl 15 0 empty empty empty 17 7 0 10 -262144 -1 -1 1
1;
#X obj 215 64 sel 0 1;
#X msg 211 93 1;
#X msg 242 94 0;
#X obj 76 233 rotateXYZ;
#X obj 110 193 f;
#X obj 140 192 + 1;
#X obj 110 429 text3d;
#X obj 119 161 metro 10;
#X obj 229 362 loadbang;
#X msg 250 322 font MAKISUPA.TTF;
#X msg 222 387 text Lab.I.O;
#X obj 56 3 gemhead;
#X obj 17 -20 inlet;
#X obj 30 2 tgl 15 0 empty empty empty 17 7 0 10 -262144 -1 -1 0 1
;
#X obj 54 35 alpha;
#X obj 171 312 line;
#X obj 171 224 r LOGO-Alpha;
#X obj 191 258 loadbang;
#X msg 189 279 1;
#X obj 54 60 ortho;
#X msg 244 411 7;
#X obj 72 336 colourRGB 1 1 0.2 1;
#X obj 54 84 translateXYZ -2.2 3.21 0;
#X connect 0 0 3 0;
#X connect 1 0 6 0;
#X connect 2 0 1 1;
#X connect 2 0 10 0;
#X connect 3 0 4 0;
#X connect 3 1 5 0;
#X connect 4 0 2 0;
#X connect 5 0 2 0;
#X connect 6 0 24 0;
#X connect 7 0 8 0;
#X connect 7 0 6 2;
#X connect 8 0 7 1;
#X connect 10 0 7 0;
#X connect 11 0 23 0;
#X connect 11 0 12 0;
#X connect 11 0 13 0;
#X connect 12 0 9 0;
#X connect 13 0 9 0;
#X connect 14 0 17 0;
#X connect 15 0 16 0;
#X connect 16 0 14 0;
#X connect 17 0 22 0;
#X connect 18 0 24 4;
#X connect 19 0 18 0;
#X connect 20 0 21 0;
#X connect 21 0 18 0;
#X connect 22 0 25 0;
#X connect 23 0 9 1;
#X connect 24 0 9 0;
#X connect 25 0 1 0;
#X restore 158 66 pd LOGO;
#N canvas 324 156 503 604 BARULHOMETRO 0;
#X obj 130 426 text2d;
#X obj 130 192 translateXYZ;
#X floatatom 153 104 5 0 0 0 - - -;
#X floatatom 180 165 5 0 0 0 - - -;
#X floatatom 219 167 5 0 0 0 - - -;
#X msg 150 295 font MAKISUPA.TTF;
#X msg 160 324 text BARULHÓMETRO;
#X obj 167 236 loadbang;
#X obj 91 -20 tgl 15 0 empty empty empty 17 7 0 10 -262144 -1 -1 1
1;
#X obj 89 5 gemhead;
#X obj 98 -93 inlet;
#X obj -15 -126 r Mode;
#X obj -15 -102 sel 2 3;
#X msg 2 -59 1;
#X msg 46 -59 0;
#X obj 231 -116 r Mode;
#X obj 229 -76 sel 2;
#X obj 89 39 alpha;
#X obj 163 382 r Barulho-size;
#X obj 153 75 r Barulho-Pos-X;
#X floatatom 163 406 5 0 0 0 - - -;
#X obj 175 130 r Barulho-Pos-Y;
#X msg 367 21 \; Barulho-size 25 \; Barulho-Pos-X -4 \; Barulho-Pos-Y
2 \;;
#X msg 206 7 \; Barulho-size 50 \; Barulho-Pos-X 0 \; Barulho-Pos-Y
-0.74 \;;
#X connect 1 0 0 0;
#X connect 2 0 1 1;
#X connect 3 0 1 2;
#X connect 4 0 1 3;
#X connect 5 0 0 0;
#X connect 6 0 0 0;
#X connect 7 0 6 0;
#X connect 7 0 5 0;
#X connect 8 0 9 0;
#X connect 9 0 17 0;
#X connect 10 0 8 0;
#X connect 11 0 12 0;
#X connect 12 0 13 0;
#X connect 12 1 13 0;
#X connect 12 2 14 0;
#X connect 13 0 8 0;
#X connect 14 0 8 0;
#X connect 15 0 16 0;
#X connect 16 0 23 0;
#X connect 16 1 22 0;
#X connect 17 0 1 0;
#X connect 18 0 20 0;
#X connect 19 0 2 0;
#X connect 20 0 0 1;
#X connect 21 0 3 0;
#X restore 244 92 pd BARULHOMETRO;
#X obj 481 -74 cnv 15 300 100 empty empty empty 20 12 0 14 -191407
-66577 0;
#X obj 487 -7 gemwin;
#X msg 515 -28 destroy;
#X msg 576 -26 destroy \, border 0 \, create \, 1;
#X msg 574 -6 reset \, dimen 400 300 \, create \, 1;
#X msg 577 16 reset \, dimen 800 600 \, create \, 1;
#X text 760 -46 to projector;
#N canvas 153 342 450 300 TIMER 0;
#X obj 159 253 text2d;
#X floatatom 206 222 5 0 0 0 - - -;
#X floatatom 184 99 5 0 0 0 - - -;
#X floatatom 221 100 5 0 0 0 - - -;
#X floatatom 260 102 5 0 0 0 - - -;
#X obj 245 222 r sizeBARU;
#X msg 123 193 font MAKISUPA.TTF;
#X obj 89 109 loadbang;
#X msg 168 163 text TIMER;
#X msg 287 27 1 0 0;
#X msg 241 25 1 1 1;
#X msg 196 25 0 0 0;
#X obj 160 132 translateXYZ 3.5 -3 0;
#X obj 199 70 r T_X;
#X obj 238 70 r T_Y;
#X obj 280 69 r T_Z;
#X obj 241 3 loadbang;
#X obj 118 20 tgl 15 0 empty empty empty 17 7 0 10 -262144 -1 -1 0
1;
#X obj 117 -5 inlet;
#X obj 123 49 gemhead 51;
#X obj 14 0 r Mode;
#X obj 17 33 == 1;
#X connect 1 0 0 1;
#X connect 2 0 12 1;
#X connect 3 0 12 2;
#X connect 4 0 12 3;
#X connect 5 0 1 0;
#X connect 6 0 0 0;
#X connect 7 0 8 0;
#X connect 7 0 6 0;
#X connect 8 0 0 0;
#X connect 12 0 0 0;
#X connect 13 0 2 0;
#X connect 14 0 3 0;
#X connect 15 0 4 0;
#X connect 16 0 11 0;
#X connect 17 0 19 0;
#X connect 18 0 17 0;
#X connect 19 0 12 0;
#X connect 20 0 21 0;
#X connect 21 0 17 0;
#X restore 245 45 pd TIMER;
#X obj 244 71 tgl 15 0 empty empty empty 17 7 0 10 -262144 -1 -1 0
1;
#X obj 245 25 tgl 15 0 empty empty empty 17 7 0 10 -262144 -1 -1 0
1;
#X obj 243 -28 tgl 15 0 empty empty empty 17 7 0 10 -262144 -1 -1 0
1;
#X obj 159 -27 tgl 15 0 empty empty empty 17 7 0 10 -262144 -1 -1 0
1;
#X obj 158 45 tgl 15 0 empty empty empty 17 7 0 10 -262144 -1 -1 0
1;
#X msg 486 -61 reset \, dimen 1024 768 \, offset 1440 0 \, border 1
\, create \, 1;
#X obj 666 287 juri_count;
#N canvas 433 445 555 300 OSC-in 0;
#X obj 211 -71 import iemnet mrpeach;
#X obj 27 -48 unpackOSC;
#X obj 20 83 line;
#X msg 20 57 \$1 500;
#X obj 119 48 s ctrl;
#X obj 73 80 s barulho_vote;
#X obj 185 116 s StopTimer;
#X obj 166 136 s GOtimer;
#X obj 166 91 sel 1 0;
#N canvas 1 80 450 300 get.info 0;
#X text 29 31 NOTE outlet #2 is for compatibility with mrpeach's net
objects. you can get all info (and more) via outlet #3 as well.;
#X obj 40 95 inlet outlet#3;
#X obj 40 119 route address;
#X floatatom 190 177 3 0 0 0 - - -;
#X floatatom 217 177 3 0 0 0 - - -;
#X floatatom 244 177 3 0 0 0 - - -;
#X floatatom 271 177 3 0 0 0 - - -;
#X text 147 176 from;
#X floatatom 299 177 5 0 0 0 - - -;
#X obj 190 151 unpack 0 0 0 0 0;
#X obj 35 213 route port;
#X floatatom 197 245 5 0 0 0 - - -;
#X text 236 244 listening port;
#X connect 1 0 2 0;
#X connect 2 0 9 0;
#X connect 2 1 10 0;
#X connect 9 0 3 0;
#X connect 9 1 4 0;
#X connect 9 2 5 0;
#X connect 9 3 6 0;
#X connect 9 4 8 0;
#X connect 10 0 11 0;
#X restore 117 -48 pd get.info;
#X obj 27 -77 udpreceive 3322;
#X obj 182 52 bng 15 250 50 0 empty empty empty 17 7 0 10 -262144 -1
-1;
#X obj 117 4 bng 15 250 50 0 empty empty empty 17 7 0 10 -262144 -1
-1;
#X obj 24 165 outlet;
#X obj 217 32 s Mode;
#X obj 235 57 s MostraBarra;
#X obj 320 26 routeOSC /1 /2 /3 /4 /5 /calc;
#X obj 330 187 s JuriVote-1-set;
#X obj 453 63 s calc_juri;
#X obj 352 162 s JuriVote-2-set;
#X obj 373 138 s JuriVote-3-set;
#X obj 400 116 s JuriVote-4-set;
#X obj 422 91 s JuriVote-5-set;
#X obj 526 61 print;
#X obj 40 -16 routeOSC /dbs /barulho_vote /ctrl /timer_ctrl /desliga
/Mode /RecoverTimer /juri /zera_votos;
#X obj 415 -10 s zera_votos;
#X connect 1 0 24 0;
#X connect 2 0 13 0;
#X connect 3 0 2 0;
#X connect 8 0 7 0;
#X connect 8 1 6 0;
#X connect 10 0 1 0;
#X connect 10 2 9 0;
#X connect 12 0 5 0;
#X connect 16 0 17 0;
#X connect 16 1 19 0;
#X connect 16 2 20 0;
#X connect 16 3 21 0;
#X connect 16 4 22 0;
#X connect 16 5 18 0;
#X connect 16 5 23 0;
#X connect 24 0 3 0;
#X connect 24 1 5 0;
#X connect 24 2 4 0;
#X connect 24 3 8 0;
#X connect 24 4 11 0;
#X connect 24 5 14 0;
#X connect 24 6 15 0;
#X connect 24 7 16 0;
#X connect 24 8 25 0;
#X restore 29 -67 pd OSC-in;
#N canvas 413 174 614 581 video 0;
#X floatatom 404 -144 5 0 0 0 - - -;
#X obj 425 -88 print;
#X obj 449 -128 r barulho_vote;
#X obj 406 274 text3d;
#X obj 220 -242 gemhead;
#X obj 218 -210 alpha;
#X obj 218 -185 ortho;
#X obj 280 90 colourRGB 1 1 1 1;
#X obj 229 -71 translateXYZ 0 0 0;
#X msg 421 170 font MAKISUPA.TTF;
#X msg 391 1 text BARULHO!;
#X floatatom 433 232 5 0 0 0 - - -;
#X connect 2 0 1 0;
#X connect 4 0 5 0;
#X connect 5 0 6 0;
#X connect 6 0 8 0;
#X connect 7 0 3 0;
#X connect 8 0 7 0;
#X connect 9 0 3 0;
#X connect 10 0 3 0;
#X connect 11 0 3 1;
#X restore 284 216 pd video;
#X obj 244 217 hradio 15 1 0 2 empty empty choose_camera -85 6 0 10
-262144 -1 -1 0;
#N canvas -354 171 1265 586 JURI 1;
#X obj 176 197 text2d;
#X floatatom 193 68 5 0 0 0 - - -;
#X floatatom 230 69 5 0 0 0 - - -;
#X floatatom 269 71 5 0 0 0 - - -;
#X obj 385 15 tgl 15 0 empty empty empty 17 7 0 10 -262144 -1 -1 1
1;
#X obj 143 35 gemhead;
#X obj 430 -23 inlet;
#X obj 245 -32 r Mode;
#X obj 1016 40 loadbang;
#X obj 210 154 r JuriSize;
#X obj 124 140 r JuriSet;
#X obj 172 311 text2d;
#X obj 206 268 r JuriSize;
#X obj 91 223 r JuriSet;
#X obj 176 230 translateXYZ 0 -0.6 0;
#X obj 168 435 text2d;
#X obj 202 392 r JuriSize;
#X obj 81 350 r JuriSet;
#X obj 172 354 translateXYZ 0 -0.6 0;
#X obj 168 553 text2d;
#X obj 202 510 r JuriSize;
#X obj 81 468 r JuriSet;
#X obj 168 472 translateXYZ 0 -0.6 0;
#X obj -18 201 loadbang;
#X obj 149 693 text2d;
#X obj 202 660 r JuriSize;
#X obj 81 618 r JuriSet;
#X obj 168 622 translateXYZ 0 -0.6 0;
#X obj 551 216 text2d;
#X floatatom 599 56 5 0 0 0 - - -;
#X floatatom 636 57 5 0 0 0 - - -;
#X floatatom 675 59 5 0 0 0 - - -;
#X obj 508 60 gemhead;
#X obj 551 340 text2d;
#X obj 551 249 translateXYZ 0 -0.6 0;
#X obj 551 444 text2d;
#X obj 551 365 translateXYZ 0 -0.6 0;
#X obj 551 570 text2d;
#X obj 551 469 translateXYZ 0 -0.6 0;
#X obj 551 699 text2d;
#X obj 551 599 translateXYZ 0 -0.6 0;
#X obj 583 183 r JuriSize-p;
#X obj 584 317 r JuriSize-p;
#X obj 584 421 r JuriSize-p;
#X obj 584 541 r JuriSize-p;
#X obj 584 676 r JuriSize-p;
#X obj 909 306 text2d;
#X obj 799 176 r JuriSet;
#X obj 909 450 text2d;
#X obj 942 421 r JuriSize-p;
#X obj 900 68 gemhead;
#X floatatom 957 196 5 0 0 0 - - -;
#X floatatom 1009 188 5 0 0 0 - - -;
#X floatatom 983 311 5 0 0 0 - - -;
#X floatatom 1027 306 5 0 0 0 - - -;
#X obj 943 263 r JuriSize;
#X msg 53 267 text JÚRI 2;
#X msg 49 391 text JÚRI 3;
#X msg 50 508 text JÚRI 4;
#X msg 50 658 text JÚRI 5;
#X msg 46 121 text JÚRI 1;
#X obj 181 116 translateXYZ -4.51 0.4 0;
#X msg 454 304 text \$1;
#X msg 459 391 text \$1;
#X msg 464 522 text \$1;
#X msg 461 660 text \$1;
#X obj 461 632 r JuriVote-5;
#X obj 464 494 r JuriVote-4;
#X obj 459 363 r JuriVote-3;
#X obj 454 276 r JuriVote-2;
#X msg 470 173 text \$1;
#X obj 470 145 r JuriVote-1;
#X obj 785 334 r JuriVote-Mean;
#X msg 785 376 text \$1;
#X msg 730 259 text MÉDIA JÚRI;
#X obj 584 151 r JuriSet-N;
#X obj 576 283 r JuriSet-N;
#X obj 583 393 r JuriSet-N;
#X obj 586 507 r JuriSet-N;
#X obj 579 644 r JuriSet-N;
#X obj 935 377 r JuriSet-N;
#X msg 1015 66 \; JuriSize 25 \; JuriSet font MAKISUPA.TTF \; JuriSet-N
font MAKISUPA.TTF \; JuriSize-p 40 \; JuriSet-N text - \;;
#X obj 256 5 == 3;
#X obj 726 217 loadbang;
#X obj 913 225 translateXYZ -4.21 1.31 0;
#X obj 1113 169 r zera_votos;
#X msg 1112 205 \; JuriSet-N text -;
#X obj 909 339 translateXYZ 2.4 -0.01 0;
#X obj 551 115 translateXYZ -1.83 0.4 0;
#X connect 0 0 14 0;
#X connect 1 0 61 1;
#X connect 2 0 61 2;
#X connect 3 0 61 3;
#X connect 4 0 5 0;
#X connect 4 0 32 0;
#X connect 4 0 50 0;
#X connect 5 0 61 0;
#X connect 6 0 4 0;
#X connect 7 0 82 0;
#X connect 8 0 81 0;
#X connect 9 0 0 1;
#X connect 10 0 0 0;
#X connect 11 0 18 0;
#X connect 12 0 11 1;
#X connect 13 0 11 0;
#X connect 14 0 11 0;
#X connect 15 0 22 0;
#X connect 16 0 15 1;
#X connect 17 0 15 0;
#X connect 18 0 15 0;
#X connect 19 0 27 0;
#X connect 20 0 19 1;
#X connect 21 0 19 0;
#X connect 22 0 19 0;
#X connect 23 0 60 0;
#X connect 23 0 56 0;
#X connect 23 0 57 0;
#X connect 23 0 58 0;
#X connect 23 0 59 0;
#X connect 25 0 24 1;
#X connect 26 0 24 0;
#X connect 27 0 24 0;
#X connect 28 0 34 0;
#X connect 29 0 88 1;
#X connect 30 0 88 2;
#X connect 31 0 88 3;
#X connect 32 0 88 0;
#X connect 33 0 36 0;
#X connect 34 0 33 0;
#X connect 35 0 38 0;
#X connect 36 0 35 0;
#X connect 37 0 40 0;
#X connect 38 0 37 0;
#X connect 40 0 39 0;
#X connect 41 0 28 1;
#X connect 42 0 33 1;
#X connect 43 0 35 1;
#X connect 44 0 37 1;
#X connect 45 0 39 1;
#X connect 46 0 87 0;
#X connect 47 0 46 0;
#X connect 49 0 48 1;
#X connect 50 0 84 0;
#X connect 51 0 84 1;
#X connect 52 0 84 2;
#X connect 53 0 87 1;
#X connect 54 0 87 2;
#X connect 55 0 46 1;
#X connect 56 0 11 0;
#X connect 57 0 15 0;
#X connect 58 0 19 0;
#X connect 59 0 24 0;
#X connect 60 0 0 0;
#X connect 61 0 0 0;
#X connect 62 0 33 0;
#X connect 63 0 35 0;
#X connect 64 0 37 0;
#X connect 65 0 39 0;
#X connect 66 0 65 0;
#X connect 67 0 64 0;
#X connect 68 0 63 0;
#X connect 69 0 62 0;
#X connect 70 0 28 0;
#X connect 71 0 70 0;
#X connect 72 0 73 0;
#X connect 73 0 48 0;
#X connect 74 0 46 0;
#X connect 75 0 28 0;
#X connect 76 0 33 0;
#X connect 77 0 35 0;
#X connect 78 0 37 0;
#X connect 79 0 39 0;
#X connect 80 0 48 0;
#X connect 82 0 4 0;
#X connect 83 0 74 0;
#X connect 84 0 46 0;
#X connect 85 0 86 0;
#X connect 87 0 48 0;
#X connect 88 0 28 0;
#X restore 183 141 pd JURI;
#X msg 369 -29 \; Mode 0 \; db_thresh 60 \; db_dCOR 30 \; shiftH 0.04
\; size 15 \; sizeVOTE 150 \; sizeBARU 30 \; T_X 3 \; T_Y -2.5 \; T_Z
0 \; ctrl 0 \; MostraTexto 0 \; MostraBarra 0 \;;
#X obj 183 119 tgl 15 0 empty empty empty 17 7 0 10 -262144 -1 -1 0
1;
#X text 156 283 Ver 3 Mar 2014;
#X connect 0 0 2 0;
#X connect 1 0 49 0;
#X connect 2 0 3 0;
#X connect 3 0 5 0;
#X connect 4 0 2 1;
#X connect 6 0 7 0;
#X connect 8 0 7 0;
#X connect 10 0 9 0;
#X connect 14 0 15 0;
#X connect 18 0 19 0;
#X connect 20 0 18 0;
#X connect 21 0 14 0;
#X connect 32 0 31 0;
#X connect 33 0 31 0;
#X connect 34 0 31 0;
#X connect 35 0 31 0;
#X connect 38 0 29 0;
#X connect 39 0 37 0;
#X connect 40 0 27 0;
#X connect 41 0 26 0;
#X connect 42 0 28 0;
#X connect 43 0 31 0;
#X connect 45 0 0 0;
#X connect 50 0 48 0;
