#N canvas 102 340 848 393 10;
#X declare -lib iemnet -lib mrpeach;
#X obj 211 -71 import iemnet mrpeach;
#X obj 27 -48 unpackOSC;
#X obj 29 124 vsl 15 128 0 127 0 0 empty empty empty 0 -9 0 10 -262144
-1 -1 5024 1;
#X obj 27 34 line;
#X obj 376 -67 loadbang;
#X obj 49 97 -;
#X obj 53 123 vsl 15 128 0 127 0 0 empty empty empty 0 -9 0 10 -262144
-1 -1 0 1;
#X msg 27 8 \$1 500;
#X obj 64 75 r db_thresh;
#X obj 53 264 s dbT;
#X obj 149 5 s ctrl;
#X msg 687 210 1;
#X obj 714 234 s ctrl;
#X msg 684 233 0;
#X obj 80 31 s barulho_vote;
#X obj 282 28 s StopTimer;
#X obj 218 28 s GOtimer;
#X obj 562 238 s barulho_vote;
#X floatatom 499 235 5 0 0 0 - - -;
#X obj 487 58 cnv 15 300 130 empty empty empty 20 12 0 14 -204800 -66577
0;
#N canvas 98 103 642 642 GO 0;
#X obj 200 42 bng 15 250 50 0 empty empty empty 17 7 0 10 -262144 -1
-1;
#X text 217 39 GO!;
#X obj 247 224 delay 1000;
#X obj 231 379 s toText;
#X obj 231 331 delay 2000;
#X msg 231 356 3;
#X obj 200 77 t b b b b b;
#X obj 215 459 s toText;
#X obj 215 411 delay 3000;
#X msg 215 436 symbol SLAM;
#X obj 200 490 delay 4000;
#X msg 263 105 \; resetCounter bang \; textCor 1 1 1 \; barraCor 1
1 1 \; barraReset bang \; MostraTexto 1 \; MostraBarra 0 \; toText
1 \;;
#X obj 200 14 r GO;
#X msg 248 258 \; toText 2 \; LOGO-Alpha 0 1000 \;;
#X msg 200 521 \; MostraTexto 0 \; MostraBarra 1 \; barraMove 0 180000
\; LOGO-Alpha 1 1000 \;;
#X connect 0 0 6 0;
#X connect 2 0 13 0;
#X connect 4 0 5 0;
#X connect 5 0 3 0;
#X connect 6 0 10 0;
#X connect 6 1 8 0;
#X connect 6 2 4 0;
#X connect 6 3 2 0;
#X connect 6 4 11 0;
#X connect 8 0 9 0;
#X connect 9 0 7 0;
#X connect 10 0 14 0;
#X connect 12 0 0 0;
#X restore 700 86 pd GO;
#N canvas 512 94 450 300 EXTRATIME 0;
#X obj 203 4 r extraTime;
#X msg 47 79 \; barraCor 1 1 1 \;;
#X obj 203 33 t b b;
#X msg 230 66 \; barraCor 1 0 0 \; textCor 1 0 0 \; barraMove 8 10000
\;;
#X obj 203 140 delay 10000;
#X obj 171 215 metro 1000;
#X obj 171 241 counter;
#X msg 199 161 1;
#X obj 171 276 s toText;
#X obj 196 187 t f f;
#X obj 279 215 s MostraTexto;
#X obj 150 179 tgl 15 0 empty empty empty 17 7 0 10 -262144 -1 -1 0
1;
#X obj 241 248 bng 15 250 50 0 empty empty empty 17 7 0 10 -262144
-1 -1;
#X obj 279 254 r resetCounter;
#X obj 89 128 r resetCounter;
#X msg 87 163 0;
#X obj 28 135 r Stop;
#X connect 0 0 2 0;
#X connect 2 0 4 0;
#X connect 2 1 3 0;
#X connect 4 0 7 0;
#X connect 5 0 6 0;
#X connect 6 0 8 0;
#X connect 7 0 9 0;
#X connect 9 0 5 0;
#X connect 9 1 10 0;
#X connect 11 0 5 0;
#X connect 12 0 6 3;
#X connect 13 0 12 0;
#X connect 14 0 15 0;
#X connect 15 0 5 0;
#X connect 16 0 15 0;
#X restore 696 109 pd EXTRATIME;
#X obj 504 97 bng 60 250 50 0 empty empty empty 17 7 0 10 -258113 -1
-1;
#X obj 504 170 s Stop;
#N canvas 55 290 450 300 TEXTO 0;
#X obj 50 2 gemhead;
#X obj 50 56 translateXYZ;
#X obj 50 241 text2d 0;
#X msg 73 163 text \$1;
#X obj 50 27 alpha;
#X obj 50 -21 tgl 15 0 empty empty empty 17 7 0 10 -262144 -1 -1 0
-4;
#X obj 73 136 r toText;
#X obj 50 -43 r MostraTexto;
#X obj 50 109 colour;
#X obj 83 79 r textCor;
#X obj 95 189 loadbang;
#X obj 166 -4 loadbang;
#X msg 201 157 font MAKISUPA.TTF;
#X msg 95 210 150;
#X msg 154 19 2.5;
#X connect 0 0 4 0;
#X connect 1 0 8 0;
#X connect 3 0 2 0;
#X connect 4 0 1 0;
#X connect 5 0 0 0;
#X connect 6 0 3 0;
#X connect 7 0 5 0;
#X connect 8 0 2 0;
#X connect 9 0 8 1;
#X connect 10 0 13 0;
#X connect 10 0 12 0;
#X connect 11 0 14 0;
#X connect 12 0 2 0;
#X connect 13 0 2 1;
#X connect 14 0 1 1;
#X restore 696 133 pd TEXTO;
#N canvas 724 106 584 291 BARRA 0;
#X obj 49 73 gemhead;
#X obj 49 261 rectangle 0.96 3.96;
#X obj 49 231 translateXYZ 0 0 0;
#X obj 309 173 line;
#X obj 309 200 s timer;
#X obj 119 202 r timer;
#X obj 49 41 tgl 15 0 empty empty empty 17 7 0 10 -262144 -1 -1 1 1
;
#X obj 49 9 r MostraBarra;
#X msg 333 148 -8;
#X obj 333 127 r barraReset;
#X obj 279 230 sel 0;
#X obj 279 253 s extraTime;
#X obj 49 171 colour;
#X obj 82 141 r barraCor;
#X obj 309 99 r barraMove;
#X obj 216 121 r Stop;
#X msg 228 170 stop;
#X obj 49 99 translateXYZ 5.5 0 0;
#X obj 264 22 gemhead;
#X obj 330 31 colourRGB 1 0 0;
#X floatatom 387 84 5 0 0 0 - - -;
#X floatatom 429 81 5 0 0 0 - - -;
#X obj 314 57 rectangle 0.96 0.03;
#X obj 323 8 translateXYZ 5.58 3.96 0;
#X floatatom 182 193 5 0 0 0 - - -;
#X msg 239 224 -2;
#X obj 242 197 loadbang;
#X msg 241 86 3.5;
#X obj 207 59 loadbang;
#X connect 0 0 17 0;
#X connect 2 0 1 0;
#X connect 3 0 4 0;
#X connect 3 0 10 0;
#X connect 5 0 2 2;
#X connect 6 0 0 0;
#X connect 6 0 18 0;
#X connect 7 0 6 0;
#X connect 8 0 3 0;
#X connect 9 0 8 0;
#X connect 10 0 11 0;
#X connect 12 0 2 0;
#X connect 13 0 12 1;
#X connect 14 0 3 0;
#X connect 15 0 16 0;
#X connect 16 0 3 0;
#X connect 17 0 12 0;
#X connect 18 0 23 0;
#X connect 19 0 22 0;
#X connect 20 0 22 1;
#X connect 21 0 22 2;
#X connect 23 0 19 0;
#X connect 24 0 2 2;
#X connect 25 0 2 1;
#X connect 26 0 25 0;
#X connect 27 0 23 1;
#X connect 28 0 27 0;
#X restore 695 161 pd BARRA;
#X obj 603 97 bng 60 250 50 0 empty empty empty 17 7 0 10 -4034 -1
-1;
#X obj 603 165 s GO;
#X obj 603 66 r GOtimer;
#X obj 503 70 r StopTimer;
#X obj 28 -21 routeOSC /dbs /barulho_vote /ctrl /timer_ctrl;
#X obj 259 3 sel 1 0;
#X obj 152 77 cnv 15 200 220 empty empty empty 20 12 0 14 -261234 -66577
0;
#X text 156 154 LOGO;
#X text 156 85 COLUMN;
#X text 243 85 VOTE;
#N canvas 850 101 401 625 COLUMN 0;
#X obj 181 310 hsv2rgb;
#X obj 183 206 hsl 128 15 0 1 0 0 empty empty color -2 -8 0 10 -191407
-258113 -260097 12700 1;
#X msg 181 283 \$1 1 1;
#X obj 175 455 -;
#X obj 181 139 expr 1 - $f1/$f2;
#X obj 112 336 color \$1 1 1;
#X obj 137 400 / 40;
#X obj 173 366 r size;
#X floatatom 220 257 5 0 0 1 shift_value - -;
#X obj 181 256 -;
#X obj 220 233 r shiftH;
#X obj 181 163 pow 0.3;
#X obj 112 560 translateXYZ;
#X obj 111 587 rectangle 1 0;
#X obj 112 99 spigot;
#X obj 274 110 r db_dCOR;
#X obj 170 74 tgl 15 0 empty empty empty 17 7 0 10 -262144 -1 -1 0
1;
#X obj 181 111 r dbT;
#X obj 123 364 r dbT;
#X obj 170 47 r ctrl;
#X obj 134 500 r C_X;
#X obj 190 402 r C_Y;
#X floatatom 223 513 5 0 0 0 - - -;
#X obj 115 42 gemhead;
#X obj 115 22 tgl 15 0 empty empty empty 17 7 0 10 -262144 -1 -1 0
1;
#X obj 60 9 inlet;
#X connect 0 0 5 1;
#X connect 1 0 9 0;
#X connect 2 0 0 0;
#X connect 3 0 12 2;
#X connect 4 0 11 0;
#X connect 5 0 12 0;
#X connect 6 0 3 0;
#X connect 6 0 13 2;
#X connect 7 0 6 1;
#X connect 8 0 9 1;
#X connect 9 0 2 0;
#X connect 10 0 8 0;
#X connect 11 0 1 0;
#X connect 12 0 13 0;
#X connect 14 0 5 0;
#X connect 15 0 4 1;
#X connect 16 0 14 1;
#X connect 17 0 4 0;
#X connect 18 0 6 0;
#X connect 19 0 16 0;
#X connect 20 0 12 1;
#X connect 21 0 3 1;
#X connect 22 0 12 1;
#X connect 23 0 14 0;
#X connect 24 0 23 0;
#X connect 25 0 24 0;
#X restore 159 124 pd COLUMN;
#N canvas 130 148 297 480 VOTE 0;
#X obj 73 417 text2d;
#X msg 107 321 alias \$1;
#X obj 118 299 tgl 15 0 empty empty empty 0 -6 0 8 -262144 -1 -1 0
3.5;
#X obj 72 124 translateXYZ;
#X msg 95 266 \$1;
#X floatatom 120 415 5 0 0 0 - - -;
#X floatatom 170 92 5 0 0 0 - - -;
#X floatatom 95 92 5 0 0 0 - - -;
#X floatatom 132 92 5 0 0 0 - - -;
#X obj 157 416 r sizeVOTE;
#X obj 96 67 r V_X;
#X obj 135 66 r V_Y;
#X obj 177 65 r V_Z;
#X obj 94 150 r barulho_vote;
#X obj 121 365 loadbang;
#N canvas 747 411 450 300 ROUND 0;
#X obj 55 24 inlet;
#X obj 86 103 * 10;
#X obj 85 129 + 0.5;
#X obj 82 159 int;
#X obj 79 190 / 10;
#X obj 79 233 outlet;
#X connect 0 0 1 0;
#X connect 1 0 2 0;
#X connect 2 0 3 0;
#X connect 3 0 4 0;
#X connect 4 0 5 0;
#X restore 121 178 pd ROUND;
#X obj 119 211 min 10;
#X obj 116 241 max 0;
#X msg 182 267 text nota;
#X obj 66 44 spigot;
#X obj 132 31 tgl 15 0 empty empty empty 17 7 0 10 -262144 -1 -1 1
1;
#X obj 191 27 r ctrl;
#X obj 252 51 sel 1 0;
#X msg 256 88 0;
#X msg 289 98 1;
#X obj 72 -7 tgl 15 0 empty empty empty 17 7 0 10 -262144 -1 -1 0 1
;
#X obj 70 -30 inlet;
#X obj 63 18 gemhead;
#X msg 116 389 font MAKISUPA.TTF \, text 0;
#X connect 1 0 0 0;
#X connect 2 0 1 0;
#X connect 3 0 0 0;
#X connect 4 0 2 0;
#X connect 4 0 0 0;
#X connect 5 0 0 1;
#X connect 6 0 3 3;
#X connect 7 0 3 1;
#X connect 8 0 3 2;
#X connect 9 0 5 0;
#X connect 10 0 7 0;
#X connect 11 0 8 0;
#X connect 12 0 6 0;
#X connect 13 0 15 0;
#X connect 14 0 28 0;
#X connect 15 0 16 0;
#X connect 16 0 17 0;
#X connect 17 0 4 0;
#X connect 19 0 3 0;
#X connect 20 0 19 1;
#X connect 21 0 22 0;
#X connect 22 0 23 0;
#X connect 22 1 24 0;
#X connect 23 0 20 0;
#X connect 24 0 20 0;
#X connect 25 0 27 0;
#X connect 26 0 25 0;
#X connect 27 0 19 0;
#X connect 28 0 0 0;
#X restore 243 122 pd VOTE;
#N canvas 54 163 480 515 LOGO 0;
#X obj 245 66 r ctrl;
#X obj 117 162 spigot;
#X obj 170 164 tgl 15 0 empty empty empty 17 7 0 10 -262144 -1 -1 1
1;
#X obj 245 94 sel 0 1;
#X msg 241 123 1;
#X msg 272 124 0;
#X obj 106 263 rotateXYZ;
#X obj 140 223 f;
#X obj 170 222 + 1;
#X obj 102 501 text3d;
#X obj 149 191 metro 10;
#X obj 221 434 loadbang;
#X msg 242 394 font MAKISUPA.TTF;
#X msg 214 459 text Lab.I.O;
#X obj 86 33 gemhead;
#X obj 78 -14 inlet;
#X obj 91 8 tgl 15 0 empty empty empty 17 7 0 10 -262144 -1 -1 0 1
;
#X obj 84 65 alpha;
#X obj 201 342 line;
#X obj 201 254 r LOGO-Alpha;
#X obj 221 288 loadbang;
#X msg 219 309 1;
#X obj 84 90 ortho;
#X msg 236 483 7;
#X obj 84 114 translateXYZ -2.32 3.21 0;
#X obj 102 366 colourRGB 1 1 0.2 1;
#X connect 0 0 3 0;
#X connect 1 0 6 0;
#X connect 2 0 1 1;
#X connect 2 0 10 0;
#X connect 3 0 4 0;
#X connect 3 1 5 0;
#X connect 4 0 2 0;
#X connect 5 0 2 0;
#X connect 6 0 25 0;
#X connect 7 0 8 0;
#X connect 7 0 6 2;
#X connect 8 0 7 1;
#X connect 10 0 7 0;
#X connect 11 0 23 0;
#X connect 11 0 12 0;
#X connect 11 0 13 0;
#X connect 12 0 9 0;
#X connect 13 0 9 0;
#X connect 14 0 17 0;
#X connect 15 0 16 0;
#X connect 16 0 14 0;
#X connect 17 0 22 0;
#X connect 18 0 25 4;
#X connect 19 0 18 0;
#X connect 20 0 21 0;
#X connect 21 0 18 0;
#X connect 22 0 24 0;
#X connect 23 0 9 1;
#X connect 24 0 1 0;
#X connect 25 0 9 0;
#X restore 158 196 pd LOGO;
#N canvas 18 144 348 295 BARULHOMETRO 0;
#X obj 149 243 text2d;
#X obj 150 122 translateXYZ;
#X floatatom 196 212 5 0 0 0 - - -;
#X floatatom 163 74 5 0 0 0 - - -;
#X floatatom 200 75 5 0 0 0 - - -;
#X floatatom 239 77 5 0 0 0 - - -;
#X obj 178 46 r B_X;
#X obj 259 44 r B_Z;
#X obj 217 45 r B_Y;
#X obj 235 212 r sizeBARU;
#X msg 113 183 font MAKISUPA.TTF;
#X msg 158 153 text BARULHÓMETRO;
#X obj 79 99 loadbang;
#X obj 152 -20 tgl 15 0 empty empty empty 17 7 0 10 -262144 -1 -1 0
1;
#X obj 150 5 gemhead;
#X obj 150 -43 inlet;
#X connect 1 0 0 0;
#X connect 2 0 0 1;
#X connect 3 0 1 1;
#X connect 4 0 1 2;
#X connect 5 0 1 3;
#X connect 6 0 3 0;
#X connect 7 0 5 0;
#X connect 8 0 4 0;
#X connect 9 0 2 0;
#X connect 10 0 0 0;
#X connect 11 0 0 0;
#X connect 12 0 11 0;
#X connect 12 0 10 0;
#X connect 13 0 14 0;
#X connect 14 0 1 0;
#X connect 15 0 13 0;
#X restore 244 228 pd BARULHOMETRO;
#X obj 481 -74 cnv 15 300 100 empty empty empty 20 12 0 14 -191407
-66577 0;
#X obj 487 -7 gemwin;
#X msg 515 -28 destroy;
#X msg 576 -26 destroy \, border 0 \, create \, 1;
#N canvas 89 293 326 277 video 0;
#X obj 47 40 gemhead;
#X obj 62 14 tgl 15 0 empty empty empty 17 7 0 10 -262144 -1 -1 0 1
;
#X obj 100 24 r ctrl;
#X obj 40 129 pix_video;
#X obj 39 156 pix_texture;
#X obj 88 196 translateXYZ;
#X obj 143 147 r vidX;
#X obj 43 75 pix_flip;
#X msg 123 65 horizontal;
#X obj 264 14 loadbang;
#X msg 198 96 device \$1;
#X msg 264 42 1;
#X obj 229 67 hradio 15 1 0 2 empty empty empty 0 -8 0 10 -262144 -1
-1 1;
#X floatatom 217 160 5 0 0 0 - - -;
#X obj 87 230 rectangle 8 4;
#X obj 176 20 inlet;
#X connect 0 0 7 0;
#X connect 1 0 0 0;
#X connect 2 0 1 0;
#X connect 3 0 4 0;
#X connect 4 0 5 0;
#X connect 5 0 14 0;
#X connect 6 0 5 1;
#X connect 7 0 3 0;
#X connect 8 0 7 0;
#X connect 9 0 11 0;
#X connect 9 0 8 0;
#X connect 10 0 3 0;
#X connect 11 0 12 0;
#X connect 12 0 10 0;
#X connect 13 0 5 1;
#X connect 15 0 12 0;
#X restore 284 270 pd video;
#X msg 574 -6 reset \, dimen 400 300 \, create \, 1;
#X msg 577 16 reset \, dimen 800 600 \, create \, 1;
#X msg 486 -61 reset \, dimen 1024 768 \, offset 1366 0 \, border 0
\, create \, 1;
#X obj 244 271 hradio 15 1 0 2 empty empty choose_camera -85 6 0 10
-262144 -1 -1 0;
#X text 760 -46 to projector;
#N canvas 632 307 450 300 TIMER 0;
#X obj 159 253 text2d;
#X floatatom 206 222 5 0 0 0 - - -;
#X floatatom 184 99 5 0 0 0 - - -;
#X floatatom 221 100 5 0 0 0 - - -;
#X floatatom 260 102 5 0 0 0 - - -;
#X obj 245 222 r sizeBARU;
#X msg 123 193 font MAKISUPA.TTF;
#X obj 89 109 loadbang;
#X msg 168 163 text TIMER;
#X msg 287 27 1 0 0;
#X msg 241 25 1 1 1;
#X msg 196 25 0 0 0;
#X obj 160 132 translateXYZ 3.5 -3 0;
#X obj 199 70 r T_X;
#X obj 238 70 r T_Y;
#X obj 280 69 r T_Z;
#X obj 241 3 loadbang;
#X obj 118 20 tgl 15 0 empty empty empty 17 7 0 10 -262144 -1 -1 0
1;
#X obj 117 -5 inlet;
#X obj 123 49 gemhead 51;
#X connect 1 0 0 1;
#X connect 2 0 12 1;
#X connect 3 0 12 2;
#X connect 4 0 12 3;
#X connect 5 0 1 0;
#X connect 6 0 0 0;
#X connect 7 0 8 0;
#X connect 7 0 6 0;
#X connect 8 0 0 0;
#X connect 12 0 0 0;
#X connect 13 0 2 0;
#X connect 14 0 3 0;
#X connect 15 0 4 0;
#X connect 16 0 11 0;
#X connect 17 0 19 0;
#X connect 18 0 17 0;
#X connect 19 0 12 0;
#X restore 245 175 pd TIMER;
#X obj 242 202 tgl 15 0 empty empty empty 17 7 0 10 -262144 -1 -1 0
1;
#N canvas 1 80 450 300 get.info 0;
#X text 29 31 NOTE outlet #2 is for compatibility with mrpeach's net
objects. you can get all info (and more) via outlet #3 as well.;
#X obj 40 95 inlet outlet#3;
#X obj 40 119 route address;
#X floatatom 190 177 3 0 0 0 - - -;
#X floatatom 217 177 3 0 0 0 - - -;
#X floatatom 244 177 3 0 0 0 - - -;
#X floatatom 271 177 3 0 0 0 - - -;
#X text 147 176 from;
#X floatatom 299 177 5 0 0 0 - - -;
#X obj 190 151 unpack 0 0 0 0 0;
#X obj 35 213 route port;
#X floatatom 197 245 5 0 0 0 - - -;
#X text 236 244 listening port;
#X connect 1 0 2 0;
#X connect 2 0 9 0;
#X connect 2 1 10 0;
#X connect 9 0 3 0;
#X connect 9 1 4 0;
#X connect 9 2 5 0;
#X connect 9 3 6 0;
#X connect 9 4 8 0;
#X connect 10 0 11 0;
#X restore 117 -48 pd get.info;
#X obj 27 -77 udpreceive 3322;
#X obj 247 155 tgl 15 0 empty empty empty 17 7 0 10 -262144 -1 -1 0
1;
#X obj 244 102 tgl 15 0 empty empty empty 17 7 0 10 -262144 -1 -1 0
1;
#X obj 161 103 tgl 15 0 empty empty empty 17 7 0 10 -262144 -1 -1 0
1;
#X obj 159 175 tgl 15 0 empty empty empty 17 7 0 10 -262144 -1 -1 0
1;
#X msg 369 -29 \; db_thresh 60 \; db_dCOR 30 \; shiftH 0.04 \; size
15 \; V_X -3 \; V_Y 1 \; V_Z 0 \; sizeVOTE 150 \; B_X -2.5 \; B_Y -2.5
\; B_Z 0 \; sizeBARU 30 \; T_X 3.5 \; T_Y -2.5 \; T_Z 0 \; C_X -3 \;
C_Y 1.8 \; vidX -2 \; ctrl 0 \; MostraTexto 0 \;;
#X connect 1 0 30 0;
#X connect 2 0 5 0;
#X connect 3 0 2 0;
#X connect 4 0 58 0;
#X connect 5 0 6 0;
#X connect 6 0 9 0;
#X connect 7 0 3 0;
#X connect 8 0 5 1;
#X connect 11 0 12 0;
#X connect 13 0 12 0;
#X connect 18 0 17 0;
#X connect 22 0 23 0;
#X connect 26 0 27 0;
#X connect 28 0 26 0;
#X connect 29 0 22 0;
#X connect 30 0 7 0;
#X connect 30 1 14 0;
#X connect 30 2 10 0;
#X connect 30 3 31 0;
#X connect 31 0 16 0;
#X connect 31 1 15 0;
#X connect 42 0 41 0;
#X connect 43 0 41 0;
#X connect 45 0 41 0;
#X connect 46 0 41 0;
#X connect 47 0 41 0;
#X connect 48 0 44 0;
#X connect 51 0 39 0;
#X connect 53 0 1 0;
#X connect 53 2 52 0;
#X connect 54 0 50 0;
#X connect 55 0 37 0;
#X connect 56 0 36 0;
#X connect 57 0 38 0;
