#N struct 1009-f float x;
#N struct 1019-f float x;
#N canvas 705 241 660 369 10;
#X declare iemnet cyclone list-abs zexy;
#X obj 323 176 cnv 15 300 130 empty empty empty 20 12 0 14 -204800
-66577 0;
#X obj 335 219 bng 60 250 50 0 empty empty empty 17 7 0 10 -258113
-1 -1;
#X obj 335 292 s Stop;
#X obj 434 219 bng 60 250 50 0 empty empty empty 17 7 0 10 -4034 -1
-1;
#X obj 434 287 s GO;
#X obj 434 188 r GOtimer;
#X obj 334 192 r StopTimer;
#X obj 101 12 cnv 15 200 300 empty empty empty 20 12 0 14 -261234 -66577
0;
#X text 180 18 LOGO;
#N canvas 1 90 600 647 LOGO 0;
#X obj 316 79 r ctrl;
#X obj 316 107 sel 0 1;
#X msg 312 136 1;
#X msg 343 137 0;
#X obj 205 600 text3d;
#X obj 349 449 loadbang;
#X msg 292 420 font FONTS/MAKISUPA.TTF;
#X obj 105 100 gemhead;
#X obj 98 34 inlet;
#X obj 105 70 tgl 15 0 empty empty empty 17 7 0 10 -262144 -1 -1 1
1;
#X obj 106 126 alpha;
#X obj 426 333 line;
#X obj 440 254 loadbang;
#X msg 440 280 1;
#X obj 159 -5 r Mode;
#X obj 153 25 != 0;
#X floatatom 214 31 5 0 0 0 - - -, f 5;
#X obj 113 438 colourRGB 1 0.9 0.2 1;
#X msg 286 479 text PortugalSLAM;
#X floatatom 189 472 5 0 0 0 - - -, f 5;
#X obj 270 309 line;
#X obj 303 380 *;
#X obj 272 285 pack f 2000;
#X obj 277 252 tgl 15 0 empty empty empty 17 7 0 10 -262144 -1 -1 0
1;
#X obj 299 259 metro 2000;
#X msg 284 502 text LabIO;
#X msg 440 482 text \$1;
#X obj 438 386 r name_text;
#X obj 133 300 r name_color;
#X obj 133 357 hsv2rgb;
#X obj 133 384 unpack f f f;
#X msg 310 528 5;
#X obj 87 180 translateXYZ -3.6 3.5 0.1;
#X obj 423 360 t b f;
#X floatatom 474 348 5 0 0 0 - - -, f 5;
#X obj 393 198 pack f 500;
#X floatatom 314 311 5 0 0 0 - - -, f 5;
#X obj 229 336 expr $f1*$f2 + (1-$f2);
#X msg 356 309 0.5;
#X msg 400 539 text T.I.I. de la Marne;
#X obj 375 564 r tickSpeed;
#X msg 375 586 text \$1;
#X obj 502 40 r TICKn;
#X obj 523 111 sin;
#X floatatom 527 304 5 0 0 0 - - -, f 5;
#X obj 518 142 + 1;
#X obj 133 330 pack f 0.7 1;
#X obj 518 171 / 2;
#X obj 503 84 * 0.1;
#X obj 520 226 + 0.5;
#X obj 520 204 * 0.4;
#X obj 402 624 tgl 15 0 empty empty empty 17 7 0 10 -262144 -1 -1 0
1;
#X obj 305 613 spigot 0;
#X connect 0 0 1 0;
#X connect 1 0 2 0;
#X connect 1 1 3 0;
#X connect 2 0 24 0;
#X connect 2 0 35 0;
#X connect 3 0 24 0;
#X connect 3 0 35 0;
#X connect 5 0 31 0;
#X connect 5 0 6 0;
#X connect 5 0 18 0;
#X connect 5 0 25 0;
#X connect 6 0 4 0;
#X connect 7 0 10 0;
#X connect 8 0 9 0;
#X connect 9 0 7 0;
#X connect 10 0 32 0;
#X connect 11 0 33 0;
#X connect 11 0 34 0;
#X connect 12 0 13 0;
#X connect 12 0 38 0;
#X connect 13 0 11 0;
#X connect 14 0 15 0;
#X connect 14 0 16 0;
#X connect 15 0 9 0;
#X connect 17 0 4 0;
#X connect 19 0 4 1;
#X connect 20 0 37 0;
#X connect 22 0 20 0;
#X connect 23 0 22 0;
#X connect 24 0 23 0;
#X connect 25 0 4 0;
#X connect 26 0 4 0;
#X connect 27 0 26 0;
#X connect 28 0 46 0;
#X connect 29 0 30 0;
#X connect 30 0 17 1;
#X connect 30 1 17 2;
#X connect 30 2 17 3;
#X connect 31 0 4 1;
#X connect 32 0 17 0;
#X connect 33 0 21 0;
#X connect 33 1 21 1;
#X connect 35 0 11 0;
#X connect 36 0 37 1;
#X connect 37 0 21 0;
#X connect 38 0 37 1;
#X connect 39 0 4 0;
#X connect 40 0 41 0;
#X connect 41 0 52 0;
#X connect 42 0 48 0;
#X connect 43 0 45 0;
#X connect 45 0 47 0;
#X connect 46 0 29 0;
#X connect 47 0 50 0;
#X connect 48 0 43 0;
#X connect 49 0 17 4;
#X connect 50 0 49 0;
#X connect 51 0 52 1;
#X connect 52 0 4 0;
#X restore 165 42 pd LOGO;
#X obj 165 21 tgl 15 0 empty empty empty 17 7 0 10 -262144 -1 -1 0
1;
#X obj 18 42 vu 15 120 empty empty -1 -8 0 10 -66577 -1 1 0;
#N canvas 189 381 309 334 init 0;
#X obj 38 12 loadbang;
#X msg 39 35 \; Mode 0 \; db_range 55 \; shiftH 0.45 \; sizeVOTE 150
\; sizeBARU 30 \; T_X 3 \; T_Y -2.5 \; T_Z 0 \; ctrl 0 \; MostraTexto
0 \; MostraBarra 0 \; name_color-set 0.07 \; pubYA 0 \; BarraNoise
0 \; JuriSize 25 \; JuriSet font FONTS/MAKISUPA.TTF \; JuriSet-N font
FONTS/MAKISUPA.TTF \; JuriSize-p 40 \; JuriSet-N text - \; JuriSet
justify center center \; JuriSet-N justify center center \;;
#X connect 0 0 1 0;
#X restore 15 197 pd init;
#X obj 310 14 cnv 15 340 150 empty empty empty 20 12 0 14 -262130 -66577
0;
#N canvas 314 251 644 488 screen_set 0;
#X msg 61 238 destroy \, border 0 \, create \, 1;
#X msg 94 273 reset \, dimen 400 300 \, create \, 1;
#X msg 38 131 0 \, destroy;
#X msg 54 205 reset \, dimen 1024 768 \, offset 1280 0 \, border 0
\, create \, 1;
#X obj 32 16 inlet OnOff;
#X obj 32 48 sel 0 1;
#X obj 235 85 pack f f f;
#X obj 202 39 f;
#X obj 248 44 f;
#X obj 293 41 f;
#X obj 70 90 t b b b;
#X obj 198 8 r width;
#X obj 259 9 r heigth;
#X obj 331 10 r border;
#X text 276 240 other options;
#X msg 136 133 reset \, dimen \$1 \$2 \, border \$3 \, FSAA 6 \, create
\, 1;
#X msg 121 322 dimen 1150 860 \, border 0 \, cursor 0 lighting 1 \,
create :0.0 \, 1, f 62;
#X text 421 300 -external gui display;
#X obj 448 242 r connectionStatus;
#X obj 432 265 sel 1;
#X obj 38 370 gemwin 10;
#X msg 126 349 dimen 1280 1024 \, border 0 \, cursor 0 \, lighting
0 \, create :0.0 \, 1, f 62;
#X connect 0 0 20 0;
#X connect 1 0 20 0;
#X connect 2 0 20 0;
#X connect 3 0 20 0;
#X connect 4 0 5 0;
#X connect 5 0 2 0;
#X connect 5 1 10 0;
#X connect 6 0 15 0;
#X connect 7 0 6 0;
#X connect 8 0 6 1;
#X connect 9 0 6 2;
#X connect 10 0 7 0;
#X connect 10 1 8 0;
#X connect 10 2 9 0;
#X connect 11 0 7 1;
#X connect 12 0 8 1;
#X connect 13 0 9 1;
#X connect 15 0 20 0;
#X connect 16 0 20 0;
#X connect 18 0 19 0;
#X connect 19 0 21 0;
#X connect 21 0 20 0;
#X restore 323 140 pd screen_set;
#X obj 320 41 nbx 5 30 -1e+37 1e+37 0 1 width empty Set_Widtht 0 -14
0 18 -262144 -1 -1 509 256;
#X obj 441 41 nbx 5 30 -1e+37 1e+37 0 1 heigth empty Set_Height 0 -14
0 18 -262144 -1 -1 500 256;
#X obj 584 39 tgl 30 1 border empty Border -5 -12 0 18 -262144 -1 -1
1 1;
#X obj 323 104 tgl 30 0 empty empty Create_Window -5 -12 0 18 -262144
-1 -1 0 1;
#N canvas 653 144 473 579 EXTRATIME 1;
#X obj 203 4 r extraTime;
#X msg 29 14 \; barraCor 1 1 1 \;;
#X obj 203 33 t b b;
#X obj 203 160 delay 10000;
#X msg 199 181 1;
#X obj 162 515 s toText;
#X obj 196 207 t f f;
#X obj 228 235 s MostraTexto;
#X obj 138 299 bng 15 250 50 0 empty empty empty 17 7 0 10 -262144
-1 -1;
#X obj 123 272 r resetCounter;
#X obj 74 187 r resetCounter;
#X msg 64 232 0;
#X obj 45 164 r Stop;
#X obj 123 396 f;
#X obj 153 397 + 1;
#X msg 123 367 -1;
#X obj 123 421 sel -1;
#X msg 84 456 symbol;
#X obj 25 122 r TICKn;
#X obj 51 310 sel 0;
#X obj 25 257 spigot;
#X msg 235 56 \; barraSpeed 18 \; barraCor 1 0 0 \; textCor 1 0 0 \;
toText symbol \;;
#X obj 51 288 mod 12;
#X obj 206 300 r Mode;
#X obj 206 323 t b b;
#X obj 276 339 r toText;
#X obj 258 369 f;
#X obj 258 391 s toGUI;
#X connect 0 0 2 0;
#X connect 2 0 3 0;
#X connect 2 1 21 0;
#X connect 3 0 4 0;
#X connect 4 0 6 0;
#X connect 6 0 20 1;
#X connect 6 1 7 0;
#X connect 9 0 8 0;
#X connect 9 0 15 0;
#X connect 10 0 11 0;
#X connect 11 0 20 1;
#X connect 12 0 11 0;
#X connect 13 0 14 0;
#X connect 13 0 16 0;
#X connect 14 0 13 1;
#X connect 15 0 13 0;
#X connect 16 0 17 0;
#X connect 16 1 5 0;
#X connect 17 0 5 0;
#X connect 18 0 20 0;
#X connect 19 0 13 0;
#X connect 20 0 22 0;
#X connect 22 0 19 0;
#X connect 23 0 24 0;
#X connect 24 0 15 0;
#X connect 24 1 26 0;
#X connect 25 0 26 1;
#X connect 26 0 27 0;
#X restore 527 231 pd EXTRATIME;
#N canvas 614 198 570 525 TEXTO 0;
#X obj 50 177 gemhead;
#X obj 50 476 text2d 0;
#X msg 73 358 text \$1;
#X obj 50 202 alpha;
#X obj 50 154 tgl 15 0 empty empty empty 17 7 0 10 -262144 -1 -1 0
1;
#X obj 73 331 r toText;
#X obj 50 12 r MostraTexto;
#X obj 50 304 colour;
#X obj 83 274 r textCor;
#X obj 95 384 loadbang;
#X msg 95 405 150;
#X obj 89 33 r Mode;
#X obj 89 53 == 1;
#X obj 50 115 spigot;
#X obj 89 76 t f f;
#X obj 101 105 sel 1;
#X msg 143 405 font FONTS/MAKISUPA.TTF \, justify center base;
#X obj 50 231 translateXYZ 3 1 0;
#X connect 0 0 3 0;
#X connect 2 0 1 0;
#X connect 3 0 17 0;
#X connect 4 0 0 0;
#X connect 5 0 2 0;
#X connect 6 0 13 0;
#X connect 7 0 1 0;
#X connect 8 0 7 1;
#X connect 9 0 10 0;
#X connect 9 0 16 0;
#X connect 10 0 1 1;
#X connect 11 0 12 0;
#X connect 12 0 14 0;
#X connect 13 0 4 0;
#X connect 14 0 13 1;
#X connect 14 1 15 0;
#X connect 15 1 4 0;
#X connect 16 0 1 0;
#X connect 17 0 7 0;
#X restore 527 255 pd TEXTO;
#N canvas 1 53 1287 663 BARRA 1;
#X obj 58 343 gemhead;
#X obj 58 531 rectangle 0.96 3.96;
#X obj 415 369 s timer;
#X obj 154 468 r timer;
#X obj 58 158 tgl 15 0 empty empty empty 17 7 0 10 -262144 -1 -1 0
1;
#X obj 516 206 r barraReset;
#X obj 58 441 colour;
#X obj 91 411 r barraCor;
#X obj 58 369 translateXYZ 5.5 0 0;
#X obj 91 220 gemhead;
#X obj 91 269 colourRGB 1 0 0;
#X obj 91 295 rectangle 0.96 0.03;
#X obj 58 5 r MostraBarra;
#X obj 97 37 r Mode;
#X obj 97 59 == 1;
#X obj 58 109 spigot;
#X obj 97 83 t f f;
#X obj 129 107 sel 1;
#X obj 299 45 r timerPause;
#X obj 91 246 translateXYZ 3 3.96 0;
#X obj 58 501 translateXYZ -2.5 0 0;
#X obj 275 378 f;
#X obj 258 560 s extraTime;
#X obj 258 533 bng 15 250 50 0 empty empty empty 17 7 0 10 -262144
-1 -1;
#X obj 606 262 r TICKn;
#X obj 602 319 f;
#X obj 606 284 b;
#X obj 607 341 + 1;
#X msg 519 230 -1;
#X floatatom 407 328 12 0 0 0 - - -, f 12;
#X obj 607 377 t f f;
#X obj 598 563 s timer;
#X obj 676 473 s extraTime;
#X obj 640 316 r barraSpeed;
#X obj 599 480 * 8;
#X obj 919 308 bng 15 250 50 0 empty empty empty 17 7 0 10 -262144
-1 -1;
#X obj 806 161 r barraReset;
#X obj 806 183 b;
#X floatatom 650 350 5 0 0 0 - - -, f 5;
#X obj 599 517 - 8;
#X obj 608 439 / 2160;
#X obj 645 408 sel 2161;
#X connect 0 0 8 0;
#X connect 3 0 20 2;
#X connect 4 0 0 0;
#X connect 4 0 9 0;
#X connect 5 0 28 0;
#X connect 6 0 20 0;
#X connect 7 0 6 1;
#X connect 8 0 6 0;
#X connect 9 0 19 0;
#X connect 10 0 11 0;
#X connect 12 0 15 0;
#X connect 13 0 14 0;
#X connect 14 0 16 0;
#X connect 15 0 4 0;
#X connect 16 0 15 1;
#X connect 16 1 17 0;
#X connect 17 1 4 0;
#X connect 19 0 10 0;
#X connect 20 0 1 0;
#X connect 23 0 22 0;
#X connect 24 0 26 0;
#X connect 25 0 27 0;
#X connect 26 0 25 0;
#X connect 27 0 25 1;
#X connect 27 0 30 0;
#X connect 28 0 25 0;
#X connect 29 0 2 0;
#X connect 30 0 40 0;
#X connect 30 1 41 0;
#X connect 33 0 27 1;
#X connect 33 0 38 0;
#X connect 34 0 39 0;
#X connect 36 0 37 0;
#X connect 37 0 35 0;
#X connect 39 0 31 0;
#X connect 40 0 34 0;
#X connect 41 0 32 0;
#X connect 41 0 35 0;
#X restore 527 278 pd BARRA;
#N canvas 1 53 608 713 GO 0;
#X obj 217 92 bng 15 250 50 0 empty empty empty 17 7 0 10 -262144 -1
-1;
#X text 234 89 GO!;
#X obj 217 64 r GO;
#X msg 311 513 \; toText 2 \;;
#X msg 355 479 \; toText 1 \;;
#X msg 371 444 \; toText symbol SLAM \;;
#X obj 393 142 sel 0;
#X obj 386 248 f;
#X obj 386 270 + 1;
#X obj 217 112 t b b;
#X floatatom 516 315 5 0 0 0 - - -, f 5;
#X obj 393 221 spigot;
#X floatatom 437 311 5 0 0 0 - - -, f 5;
#X obj 451 114 bng 15 250 50 0 empty empty empty 17 7 0 10 -262144
-1 -1;
#X obj 393 55 r TICKn;
#X obj 432 188 r GOsw;
#X msg 217 170 \; GOsw 1 \;;
#X obj 472 220 tgl 15 0 empty empty empty 17 7 0 10 -262144 -1 -1 0
1;
#X msg 286 171 -1;
#X obj 322 316 sel 0 1 2 3 4 5;
#X msg 263 549 \; toText 3 \;;
#X msg 407 347 \; MostraTexto 0 \; barraSpeed 1 \; GOsw 0 \; barraReset
bang \; MostraBarra 1 \;;
#X obj 393 120 mod 6;
#X msg 217 602 \; resetCounter bang \; textCor 1 1 1 \; barraCor 1
1 1 \; MostraTexto 1 \; MostraBarra 0 \; barraSpeed 1 \; toText 3 \;
;
#X connect 0 0 9 0;
#X connect 2 0 0 0;
#X connect 6 0 11 0;
#X connect 7 0 8 0;
#X connect 8 0 7 1;
#X connect 8 0 12 0;
#X connect 8 0 19 0;
#X connect 9 0 16 0;
#X connect 9 1 18 0;
#X connect 11 0 7 0;
#X connect 14 0 22 0;
#X connect 15 0 11 1;
#X connect 15 0 17 0;
#X connect 18 0 7 0;
#X connect 19 0 23 0;
#X connect 19 1 20 0;
#X connect 19 2 3 0;
#X connect 19 3 4 0;
#X connect 19 4 5 0;
#X connect 19 5 21 0;
#X connect 22 0 6 0;
#X restore 527 208 pd GO;
#N canvas 306 301 568 398 TIMER 0;
#X obj 118 270 text2d;
#X floatatom 151 229 5 0 0 0 - - -, f 5;
#X floatatom 159 146 5 0 0 0 - - -, f 5;
#X floatatom 200 147 5 0 0 0 - - -, f 5;
#X floatatom 241 149 5 0 0 0 - - -, f 5;
#X obj 151 207 r sizeBARU;
#X obj 41 -49 loadbang;
#X obj 118 179 translateXYZ 3.5 -3 0;
#X obj 159 116 r T_X;
#X obj 200 117 r T_Y;
#X obj 241 118 r T_Z;
#X obj 118 57 tgl 15 0 empty empty empty 17 7 0 10 -262144 -1 -1 1
1;
#X obj 118 32 inlet;
#X obj 118 86 gemhead 51;
#X obj 79 8 r Mode;
#X obj 79 33 == 1;
#X msg 41 -19 font FONTS/MAKISUPA.TTF \, text TIMER;
#X connect 1 0 0 1;
#X connect 2 0 7 1;
#X connect 3 0 7 2;
#X connect 4 0 7 3;
#X connect 5 0 1 0;
#X connect 6 0 16 0;
#X connect 7 0 0 0;
#X connect 8 0 2 0;
#X connect 9 0 3 0;
#X connect 10 0 4 0;
#X connect 11 0 13 0;
#X connect 12 0 11 0;
#X connect 13 0 7 0;
#X connect 14 0 15 0;
#X connect 15 0 11 0;
#X connect 16 0 0 0;
#X restore 236 41 pd TIMER;
#X obj 105 80 tgl 15 0 empty empty empty 17 7 0 10 -262144 -1 -1 0
1;
#X obj 236 21 tgl 15 0 empty empty empty 17 7 0 10 -262144 -1 -1 0
1;
#X obj 205 227 juri_count;
#X obj 191 334 hradio 15 1 0 2 empty empty choose_camera -85 6 0 10
-262144 -1 -1 0;
#N canvas 97 72 1226 663 JURI 0;
#X obj 176 197 text2d;
#X floatatom 193 68 5 0 0 0 - - -, f 5;
#X floatatom 230 70 5 0 0 0 - - -, f 5;
#X floatatom 269 71 5 0 0 0 - - -, f 5;
#X obj 390 5 tgl 15 0 empty empty empty 17 7 0 10 -262144 -1 -1 0 1
;
#X obj 181 35 gemhead;
#X obj 390 -23 inlet;
#X obj 346 -58 r Mode;
#X obj 210 154 r JuriSize;
#X obj 124 140 r JuriSet;
#X obj 172 311 text2d;
#X obj 206 268 r JuriSize;
#X obj 91 223 r JuriSet;
#X obj 176 230 translateXYZ 0 -0.6 0;
#X obj 168 435 text2d;
#X obj 202 392 r JuriSize;
#X obj 81 350 r JuriSet;
#X obj 172 354 translateXYZ 0 -0.6 0;
#X obj 168 553 text2d;
#X obj 202 510 r JuriSize;
#X obj 81 468 r JuriSet;
#X obj 168 472 translateXYZ 0 -0.6 0;
#X obj -18 201 loadbang;
#X obj 149 693 text2d;
#X obj 202 660 r JuriSize;
#X obj 81 618 r JuriSet;
#X obj 168 622 translateXYZ 0 -0.6 0;
#X obj 551 216 text2d;
#X floatatom 599 56 5 0 0 0 - - -, f 5;
#X floatatom 636 57 5 0 0 0 - - -, f 5;
#X floatatom 734 59 5 0 0 0 - - -, f 5;
#X obj 525 53 gemhead;
#X obj 551 340 text2d;
#X obj 551 249 translateXYZ 0 -0.6 0;
#X obj 551 444 text2d;
#X obj 551 365 translateXYZ 0 -0.6 0;
#X obj 551 570 text2d;
#X obj 551 469 translateXYZ 0 -0.6 0;
#X obj 551 699 text2d;
#X obj 551 599 translateXYZ 0 -0.6 0;
#X obj 583 183 r JuriSize-p;
#X obj 584 317 r JuriSize-p;
#X obj 584 421 r JuriSize-p;
#X obj 584 541 r JuriSize-p;
#X obj 584 676 r JuriSize-p;
#X obj 909 306 text2d;
#X obj 799 176 r JuriSet;
#X obj 909 450 text2d;
#X obj 942 421 r JuriSize-p;
#X obj 913 168 gemhead;
#X floatatom 957 196 5 0 0 0 - - -, f 5;
#X floatatom 1009 188 5 0 0 0 - - -, f 5;
#X floatatom 983 311 5 0 0 0 - - -, f 5;
#X floatatom 1027 306 5 0 0 0 - - -, f 5;
#X obj 943 263 r JuriSize;
#X msg 454 304 text \$1;
#X msg 459 391 text \$1;
#X msg 464 522 text \$1;
#X msg 461 660 text \$1;
#X obj 461 632 r JuriVote-5;
#X obj 464 494 r JuriVote-4;
#X obj 459 363 r JuriVote-3;
#X obj 454 276 r JuriVote-2;
#X msg 470 173 text \$1;
#X obj 470 145 r JuriVote-1;
#X obj 785 334 r JuriVote-Mean;
#X obj 584 151 r JuriSet-N;
#X obj 576 283 r JuriSet-N;
#X obj 583 393 r JuriSet-N;
#X obj 586 507 r JuriSet-N;
#X obj 579 644 r JuriSet-N;
#X obj 935 377 r JuriSet-N;
#X obj 346 -35 == 3;
#X obj 726 217 loadbang;
#X obj 1113 169 r zera_votos;
#X msg 1112 205 \; JuriSet-N text -;
#X floatatom 365 537 5 0 0 0 - - -, f 5;
#X obj 365 568 s JuriSize;
#N canvas 554 104 688 610 ANIMATION 0;
#X obj 50 122 gemhead;
#X obj 95 588 text2d;
#X obj 48 466 translateXYZ;
#X msg 331 397 text the;
#X msg 378 461 text not;
#X obj 51 158 alpha;
#X obj 47 312 colorRGB;
#X obj 323 68 hradio 15 1 0 5 empty empty empty 0 -8 0 10 -262144 -1
-1 1;
#X obj 122 275 line;
#X msg 89 233 0;
#X obj 212 161 sel 0 1 2 3 4;
#X obj 346 329 sel 0 1 2 3 4;
#X obj 197 198 t b b;
#X msg 229 255 0 3000;
#X obj 278 197 t b b;
#X msg 123 248 0 2000;
#X obj 123 223 delay 500;
#X floatatom 189 580 5 0 0 0 - - -, f 5;
#X obj 50 -78 tgl 15 0 empty empty empty 17 7 0 10 -262144 -1 -1 0
1;
#X obj 50 -103 inlet;
#X msg 150 346 1;
#X obj 119 417 random 6;
#X obj 121 440 - 3;
#X obj 433 98 change;
#X obj 428 152 s anim-pos;
#X obj 77 367 r anim-pos;
#X obj 436 129 bng 15 250 50 0 empty empty empty 17 7 0 10 -262144
-1 -1;
#X obj 162 118 f;
#X obj 191 118 + 1;
#X floatatom 143 164 5 0 0 0 - - -, f 5;
#X obj 163 140 mod 5;
#X obj 78 393 random 3;
#X obj 78 431 + 1;
#X msg 283 256 1 400;
#X obj 229 230 delay 700;
#X obj 223 64 sel 1;
#X msg 389 486 text the point...;
#X msg 364 437 text are;
#X msg 344 417 text points;
#X msg 193 95 0;
#X obj 245 541 loadbang;
#X msg 228 582 50;
#X msg 176 248 1 500;
#X obj 59 491 t a b;
#X msg 262 569 font FONTS/MAKISUPA.TTF \;;
#X obj 501 -116 bng 15 250 50 0 empty empty empty 17 7 0 10 -262144
-1 -1;
#X obj 113 19 r TICKn;
#X obj 115 96 sel 0;
#X obj 113 43 spigot;
#X obj 50 -58 t f f f;
#X obj 113 68 mod 15;
#X connect 0 0 5 0;
#X connect 2 0 43 0;
#X connect 3 0 1 0;
#X connect 4 0 1 0;
#X connect 5 0 6 0;
#X connect 6 0 2 0;
#X connect 7 0 10 0;
#X connect 7 0 11 0;
#X connect 7 0 23 0;
#X connect 8 0 6 4;
#X connect 9 0 8 0;
#X connect 10 0 12 0;
#X connect 10 1 12 0;
#X connect 10 2 12 0;
#X connect 10 3 12 0;
#X connect 10 4 14 0;
#X connect 11 0 3 0;
#X connect 11 1 38 0;
#X connect 11 2 37 0;
#X connect 11 3 4 0;
#X connect 11 4 36 0;
#X connect 12 0 16 0;
#X connect 12 1 42 0;
#X connect 13 0 8 0;
#X connect 14 0 34 0;
#X connect 14 1 33 0;
#X connect 15 0 8 0;
#X connect 16 0 15 0;
#X connect 17 0 1 1;
#X connect 18 0 49 0;
#X connect 19 0 18 0;
#X connect 20 0 6 4;
#X connect 21 0 22 0;
#X connect 22 0 2 2;
#X connect 23 0 26 0;
#X connect 25 0 21 0;
#X connect 25 0 31 0;
#X connect 26 0 24 0;
#X connect 27 0 28 0;
#X connect 27 0 30 0;
#X connect 28 0 27 1;
#X connect 29 0 7 0;
#X connect 30 0 29 0;
#X connect 31 0 32 0;
#X connect 32 0 2 1;
#X connect 33 0 8 0;
#X connect 34 0 13 0;
#X connect 35 0 39 0;
#X connect 36 0 1 0;
#X connect 37 0 1 0;
#X connect 38 0 1 0;
#X connect 39 0 27 0;
#X connect 40 0 44 0;
#X connect 40 0 41 0;
#X connect 41 0 17 0;
#X connect 42 0 8 0;
#X connect 43 0 1 0;
#X connect 43 1 17 0;
#X connect 44 0 1 0;
#X connect 46 0 48 0;
#X connect 47 0 27 0;
#X connect 48 0 50 0;
#X connect 49 0 0 0;
#X connect 49 1 48 1;
#X connect 49 2 35 0;
#X connect 50 0 47 0;
#X restore 766 -2 pd ANIMATION;
#X obj 913 225 translateXYZ -3.89 1.31 0;
#X obj 909 339 translateXYZ 2.06 -0.01 0;
#X obj 390 29 s JuriDrawState;
#X obj 913 135 r JuriDrawState;
#X obj 589 27 r JuriDrawState;
#X obj 766 -25 r JuriDrawState;
#X obj 181 12 r JuriDrawState;
#X msg 796 401 text \$1;
#X msg 47 93 text JÚRI 1;
#X msg 730 259 text JURY AVERAGE;
#X msg 46 121 text VOTE 1;
#X msg 53 267 text VOTE 2;
#X msg 49 391 text VOTE 3;
#X msg 50 508 text VOTE 4;
#X msg 50 658 text VOTE 5;
#X obj 181 116 translateXYZ -3.89 0.4 0;
#X obj 551 115 translateXYZ -1.83 0.4 0;
#X connect 0 0 13 0;
#X connect 1 0 94 1;
#X connect 2 0 94 2;
#X connect 3 0 94 3;
#X connect 4 0 81 0;
#X connect 5 0 94 0;
#X connect 6 0 4 0;
#X connect 7 0 72 0;
#X connect 8 0 0 1;
#X connect 9 0 0 0;
#X connect 10 0 17 0;
#X connect 11 0 10 1;
#X connect 12 0 10 0;
#X connect 13 0 10 0;
#X connect 14 0 21 0;
#X connect 15 0 14 1;
#X connect 16 0 14 0;
#X connect 17 0 14 0;
#X connect 18 0 26 0;
#X connect 19 0 18 1;
#X connect 20 0 18 0;
#X connect 21 0 18 0;
#X connect 22 0 89 0;
#X connect 22 0 90 0;
#X connect 22 0 91 0;
#X connect 22 0 92 0;
#X connect 22 0 93 0;
#X connect 24 0 23 1;
#X connect 25 0 23 0;
#X connect 26 0 23 0;
#X connect 27 0 33 0;
#X connect 28 0 95 1;
#X connect 29 0 95 2;
#X connect 30 0 95 3;
#X connect 31 0 95 0;
#X connect 32 0 35 0;
#X connect 33 0 32 0;
#X connect 34 0 37 0;
#X connect 35 0 34 0;
#X connect 36 0 39 0;
#X connect 37 0 36 0;
#X connect 39 0 38 0;
#X connect 40 0 27 1;
#X connect 41 0 32 1;
#X connect 42 0 34 1;
#X connect 43 0 36 1;
#X connect 44 0 38 1;
#X connect 45 0 80 0;
#X connect 46 0 45 0;
#X connect 48 0 47 1;
#X connect 49 0 79 0;
#X connect 50 0 79 1;
#X connect 51 0 79 2;
#X connect 52 0 80 1;
#X connect 53 0 80 2;
#X connect 54 0 45 1;
#X connect 55 0 32 0;
#X connect 56 0 34 0;
#X connect 57 0 36 0;
#X connect 58 0 38 0;
#X connect 59 0 58 0;
#X connect 60 0 57 0;
#X connect 61 0 56 0;
#X connect 62 0 55 0;
#X connect 63 0 27 0;
#X connect 64 0 63 0;
#X connect 65 0 86 0;
#X connect 66 0 27 0;
#X connect 67 0 32 0;
#X connect 68 0 34 0;
#X connect 69 0 36 0;
#X connect 70 0 38 0;
#X connect 71 0 47 0;
#X connect 72 0 4 0;
#X connect 73 0 88 0;
#X connect 74 0 75 0;
#X connect 76 0 77 0;
#X connect 79 0 45 0;
#X connect 80 0 47 0;
#X connect 82 0 49 0;
#X connect 83 0 31 0;
#X connect 84 0 78 0;
#X connect 85 0 5 0;
#X connect 86 0 47 0;
#X connect 88 0 45 0;
#X connect 89 0 0 0;
#X connect 90 0 10 0;
#X connect 91 0 14 0;
#X connect 92 0 18 0;
#X connect 93 0 23 0;
#X connect 94 0 0 0;
#X connect 95 0 27 0;
#X restore 124 228 pd JURI;
#X obj 124 206 tgl 15 0 empty empty empty 17 7 0 10 -262144 -1 -1 0
1;
#X obj 112 33 geral;
#X text 176 125 SHOW BARULHO;
#X obj 115 142 tgl 15 0 empty empty empty 17 7 0 10 -262144 -1 -1 0
1;
#N canvas 221 117 1044 650 ShowBar 1;
#X obj 278 102 inlet;
#X obj 357 15 loadbang;
#X obj 357 47 delay 600;
#X obj 127 292 alpha;
#X obj 127 386 color 1 1 1;
#X obj 127 268 gemhead;
#X obj 431 289 color;
#X obj 431 262 alpha;
#X obj 539 266 expr $f1 -3;
#X obj 431 315 translateXYZ -3 -3.5 0;
#X obj 552 207 t f f;
#X obj 635 275 color;
#X obj 635 230 alpha;
#X obj 633 549 text2d;
#X obj 440 349 rectangle 0 0.3;
#X msg 694 250 0;
#X obj 837 219 loadbang;
#X obj 224 385 r dbT;
#X obj 347 384 r db_range;
#X obj 224 407 expr ($f1/$f2)*3.5;
#X floatatom 232 515 5 0 0 0 - - -, f 5;
#X obj 224 484 t f f;
#X obj 128 619 rectangle 3 0;
#X text 239 532 Position;
#X obj 197 538 - 3.2;
#X floatatom 757 283 5 0 0 0 - - -, f 5;
#X msg 662 466 font FONTS/MAKISUPA.TTF;
#X obj 635 202 gemhead 51;
#X obj 431 234 gemhead 50;
#X msg 877 470 66;
#N canvas 45 81 555 341 changeCOR 0;
#X obj 241 267 outlet;
#X obj 241 222 hsv2rgb;
#X obj 38 222 hsl 128 15 0 1 0 0 empty empty color -2 -8 0 10 -191407
-258113 -260097 12700 1;
#X obj 181 42 expr 1 - $f1/$f2;
#X floatatom 259 147 5 0 0 1 shift_value - -, f 5;
#X obj 241 168 -;
#X obj 259 123 r shiftH;
#X obj 181 14 r dbT;
#X msg 241 194 \$1 1 1;
#X obj 274 13 r db_range;
#X obj 162 159 pow 0.5;
#X obj 168 122 line 0 50, f 11;
#X obj 183 67 pack f 400;
#X connect 1 0 0 0;
#X connect 3 0 12 0;
#X connect 4 0 5 1;
#X connect 5 0 8 0;
#X connect 6 0 4 0;
#X connect 7 0 3 0;
#X connect 8 0 1 0;
#X connect 9 0 3 1;
#X connect 10 0 5 0;
#X connect 10 0 2 0;
#X connect 11 0 10 0;
#X connect 12 0 11 0;
#X restore 172 347 pd changeCOR;
#X obj 224 459 line 0 50;
#X obj 224 433 pack f 400;
#X obj 500 -2 r barulho_timer;
#X obj 552 185 * 0.3;
#X obj 500 20 t f f;
#X obj 500 41 sel 0 10;
#X msg 472 106 1;
#X msg 390 117 0;
#X obj 128 591 translateXYZ 0 -4 0;
#X obj 626 330 translateXYZ 0 -3.4 0.01;
#X obj 413 84 delay 400;
#X obj 630 174 r ShowBar_onOff;
#X obj 431 208 r ShowBar_onOff;
#X obj 127 72 r ShowBar_onOff;
#X obj 390 157 s ShowBar_onOff;
#X floatatom 621 47 5 0 0 0 - - -, f 5;
#X obj 180 107 r BarraNoise;
#X text 203 172 Desactivado por defeito;
#X text 201 188 Activar se necessario;
#X obj 127 181 spigot 0;
#X obj 24 174 loadbang;
#X msg 24 196 0;
#X text 127 43 BarraNoise;
#X msg 656 355 text make your noise!;
#X obj 180 129 t f f;
#X obj 67 114 sel 1;
#X connect 0 0 45 0;
#X connect 1 0 2 0;
#X connect 2 0 38 0;
#X connect 3 0 4 0;
#X connect 4 0 39 0;
#X connect 5 0 3 0;
#X connect 6 0 9 0;
#X connect 7 0 6 0;
#X connect 8 0 9 1;
#X connect 9 0 14 0;
#X connect 10 0 14 1;
#X connect 10 1 8 0;
#X connect 11 0 40 0;
#X connect 12 0 11 0;
#X connect 15 0 11 1;
#X connect 16 0 29 0;
#X connect 16 0 26 0;
#X connect 16 0 54 0;
#X connect 16 0 15 0;
#X connect 17 0 19 0;
#X connect 18 0 19 1;
#X connect 19 0 32 0;
#X connect 20 0 24 1;
#X connect 21 0 24 0;
#X connect 21 1 22 2;
#X connect 24 0 39 2;
#X connect 25 0 40 2;
#X connect 26 0 13 0;
#X connect 27 0 12 0;
#X connect 28 0 7 0;
#X connect 29 0 13 1;
#X connect 30 0 4 1;
#X connect 31 0 21 0;
#X connect 32 0 31 0;
#X connect 33 0 35 0;
#X connect 33 0 46 0;
#X connect 34 0 10 0;
#X connect 35 0 36 0;
#X connect 35 1 34 0;
#X connect 36 0 37 0;
#X connect 36 1 41 0;
#X connect 37 0 45 0;
#X connect 38 0 45 0;
#X connect 39 0 22 0;
#X connect 40 0 13 0;
#X connect 41 0 38 0;
#X connect 42 0 27 0;
#X connect 43 0 28 0;
#X connect 44 0 50 0;
#X connect 44 0 56 0;
#X connect 47 0 55 0;
#X connect 50 0 5 0;
#X connect 51 0 52 0;
#X connect 52 0 5 0;
#X connect 54 0 13 0;
#X connect 55 0 5 0;
#X connect 55 1 50 1;
#X connect 56 1 5 0;
#X restore 115 166 pd ShowBar;
#X obj 204 145 tgl 15 0 empty empty empty 17 7 0 10 -262144 -1 -1 0
1;
#X obj 219 101 s barulho_vote;
#X floatatom 219 77 5 0 0 0 - - -, f 5;
#N canvas 545 156 614 581 video 0;
#X obj 406 274 text3d;
#X obj 230 -175 gemhead;
#X obj 228 -143 alpha;
#X obj 228 -118 ortho;
#X obj 280 90 colourRGB 1 1 1 1;
#X obj 229 -71 translateXYZ 0 0 0;
#X msg 421 170 font FONTS/MAKISUPA.TTF;
#X msg 391 1 text BARULHO!;
#X floatatom 433 232 5 0 0 0 - - -, f 5;
#X obj 230 -209 tgl 15 0 empty empty empty 17 7 0 10 -262144 -1 -1
0 1;
#X obj 298 -219 loadbang;
#X msg 319 -190 0;
#X connect 1 0 2 0;
#X connect 2 0 3 0;
#X connect 3 0 5 0;
#X connect 4 0 0 0;
#X connect 5 0 4 0;
#X connect 6 0 0 0;
#X connect 7 0 0 0;
#X connect 8 0 0 1;
#X connect 9 0 1 0;
#X connect 10 0 11 0;
#X connect 11 0 9 0;
#X restore 234 334 pd video;
#X symbolatom 492 102 20 0 0 2 Event_Name - name_text, f 20;
#X obj 494 139 hsl 120 15 0 1 0 0 name_color name_color-set Color -2
-8 0 10 -262144 -1 -1 833 1;
#X text 6 265 20 Jan 2015;
#N canvas 1 98 1276 669 conn-in 0;
#X obj 27 16 netreceive 3000;
#X obj 164 192 s ctrl;
#X obj 96 355 s barulho_vote;
#X obj 251 438 s StopTimer;
#X obj 232 460 s GOtimer;
#X obj 232 413 sel 1 0;
#X obj 297 413 bng 15 250 50 0 empty empty empty 17 7 0 10 -262144
-1 -1;
#X obj 55 547 outlet;
#X obj 350 408 s Mode;
#X obj 415 436 s MostraBarra;
#X obj 1135 969 s JuriVote-1-set;
#X obj 545 442 s zera_votos;
#X text 110 546 Input de som am DBs;
#X text 204 495 Voto do público;
#X obj 609 403 s pubYA;
#X obj 28 568 s dbT;
#X obj 55 523 - 100;
#X obj 28 503 t f f;
#X obj 674 403 s Logo-Sel;
#X obj 898 164 s logoON;
#X obj 1012 138 s palcoH;
#X obj 1010 158 s palcoS;
#X obj 1008 178 s palcoV;
#X obj 1020 112 s timerPause;
#X obj 637 164 bng 15 250 50 0 empty empty empty 17 7 0 10 -262144
-1 -1;
#X obj 1812 588 bng 15 250 50 0 empty empty empty 17 7 0 10 -262144
-1 -1;
#X obj 1474 226 s gravaBarulhoFinal-A;
#X obj 1540 199 s gravaBarulhoFinal-B;
#X obj 1135 879 Patches/juriRoute;
#X obj 1155 944 s juriA-1;
#X obj 1188 915 s juriB-1;
#X obj 1204 748 Patches/juriRoute;
#X obj 1258 783 s juriB-2;
#X obj 1224 813 s juriA-2;
#X obj 1204 838 s JuriVote-2-set;
#X obj 1274 629 Patches/juriRoute;
#X obj 1328 664 s juriB-3;
#X obj 1298 692 s juriA-3;
#X obj 1274 719 s JuriVote-3-set;
#X obj 1343 502 Patches/juriRoute;
#X obj 1411 537 s juriB-4;
#X obj 1367 565 s juriA-4;
#X obj 1343 592 s JuriVote-4-set;
#X obj 1352 372 Patches/juriRoute;
#X obj 1406 407 s juriB-5;
#X obj 1376 435 s juriA-5;
#X obj 1352 462 s JuriVote-5-set, f 17;
#X obj 1412 253 Patches/juriRoute;
#X obj 1426 316 s calculaA;
#X obj 1412 343 s calc_juri;
#X obj 1460 291 s calculaB;
#X obj 160 22 s connectionStatus;
#X obj 1097 87 tgl 15 0 empty empty empty 17 7 0 10 -262144 -1 -1 0
1;
#X obj 1605 174 s db_range;
#X obj 1605 149 + 3;
#X obj 1671 143 s barulho_timer;
#X obj 1737 112 s BarraNoise;
#X obj 1737 213 print NOTSET;
#X obj 1669 387 s FinalNome-2;
#X obj 1662 346 s FinalNome-1;
#X obj 1616 472 print test;
#X obj 510 852 f;
#X obj 510 874 + 1;
#X obj 510 920 s TICKn;
#X obj 450 719 b;
#X obj 368 599 route TICK;
#X obj 317 905 timer;
#X obj 368 564 netreceive -u 3001;
#X obj 316 938 s tickSpeed;
#X msg 604 698 83.3333;
#X obj 1696 240 s speed;
#X obj 633 590 r speed;
#X obj 633 655 sel 0 1;
#X obj 633 620 tgl 15 0 empty empty empty 17 7 0 10 -262144 -1 -1 0
1;
#X obj 1779 76 tgl 15 0 empty empty empty 17 7 0 10 -262144 -1 -1 0
1;
#X obj -51 55 route /dbs /barulho_vote /ctrl /timer_ctrl /desliga /Mode
/RecoverTimer /juri /zera_votos /pubYA /LogoSel /logoON /palcoH /palcoS
/palcoV /timerPause /juri/1 /juri/2 /juri/3 /juri/4 /juri/5 /juri/calc
/juri/save/A /juri/save/B /maxNoiseDB /barulho_timer /BarraNoise FinalNome-1
FinalNome-2 TICK /speed, f 254;
#X obj 442 800 tgl 15 0 empty empty empty 17 7 0 10 -262144 -1 -1 0
1;
#X obj 317 826 Patches/LabIO_mux-2;
#X obj 309 878 t b b;
#X obj 368 684 t b b;
#X text 464 803 velocidade "real"/interna;
#X text 665 630 speed;
#X obj 452 760 cyclone/speedlim 83.3333;
#X msg 678 700 152.284;
#X msg 708 729 166.667;
#X text 781 731 valor com barulhometro belgica;
#X text 752 701 valor novo;
#X connect 0 0 75 0;
#X connect 0 1 51 0;
#X connect 5 0 4 0;
#X connect 5 1 3 0;
#X connect 16 0 7 0;
#X connect 17 0 15 0;
#X connect 17 1 16 0;
#X connect 28 0 10 0;
#X connect 28 1 29 0;
#X connect 28 2 30 0;
#X connect 31 0 34 0;
#X connect 31 1 33 0;
#X connect 31 2 32 0;
#X connect 35 0 38 0;
#X connect 35 1 37 0;
#X connect 35 2 36 0;
#X connect 39 0 42 0;
#X connect 39 1 41 0;
#X connect 39 2 40 0;
#X connect 43 0 46 0;
#X connect 43 1 45 0;
#X connect 43 2 44 0;
#X connect 47 0 49 0;
#X connect 47 1 48 0;
#X connect 47 2 50 0;
#X connect 54 0 53 0;
#X connect 61 0 62 0;
#X connect 62 0 61 1;
#X connect 62 0 63 0;
#X connect 64 0 61 0;
#X connect 65 0 79 0;
#X connect 66 0 68 0;
#X connect 67 0 65 0;
#X connect 69 0 82 1;
#X connect 71 0 73 0;
#X connect 72 0 69 0;
#X connect 72 1 83 0;
#X connect 73 0 72 0;
#X connect 75 0 17 0;
#X connect 75 1 2 0;
#X connect 75 2 1 0;
#X connect 75 3 5 0;
#X connect 75 4 6 0;
#X connect 75 5 8 0;
#X connect 75 6 9 0;
#X connect 75 8 11 0;
#X connect 75 9 14 0;
#X connect 75 9 24 0;
#X connect 75 10 18 0;
#X connect 75 11 19 0;
#X connect 75 12 20 0;
#X connect 75 13 21 0;
#X connect 75 14 22 0;
#X connect 75 15 23 0;
#X connect 75 15 52 0;
#X connect 75 16 28 0;
#X connect 75 17 31 0;
#X connect 75 18 35 0;
#X connect 75 19 39 0;
#X connect 75 20 43 0;
#X connect 75 21 47 0;
#X connect 75 22 26 0;
#X connect 75 23 27 0;
#X connect 75 24 54 0;
#X connect 75 25 55 0;
#X connect 75 26 56 0;
#X connect 75 27 59 0;
#X connect 75 27 60 0;
#X connect 75 28 58 0;
#X connect 75 28 60 0;
#X connect 75 30 70 0;
#X connect 75 30 74 0;
#X connect 75 31 57 0;
#X connect 76 0 77 2;
#X connect 77 0 78 0;
#X connect 78 0 66 0;
#X connect 78 1 66 1;
#X connect 79 0 77 0;
#X connect 79 1 64 0;
#X connect 82 0 77 1;
#X connect 83 0 82 1;
#X connect 84 0 82 1;
#X restore 17 12 pd conn-in;
#X obj 314 335 declare iemnet cyclone list-abs zexy;
#X obj 155 261 tgl 15 0 empty empty empty 17 7 0 10 -262144 -1 -1 0
1;
#N canvas 1 104 1226 663 JURI-FINAL 0;
#X obj 176 197 text2d;
#X floatatom 232 92 5 0 0 0 - - -, f 5;
#X floatatom 269 93 5 0 0 0 - - -, f 5;
#X floatatom 308 95 5 0 0 0 - - -, f 5;
#X obj 182 72 gemhead;
#X obj 210 154 r JuriSize;
#X obj 124 140 r JuriSet;
#X obj 172 311 text2d;
#X obj 206 268 r JuriSize;
#X obj 91 223 r JuriSet;
#X obj 176 230 translateXYZ 0 -0.6 0;
#X obj 168 435 text2d;
#X obj 202 392 r JuriSize;
#X obj 81 350 r JuriSet;
#X obj 172 354 translateXYZ 0 -0.6 0;
#X obj 168 553 text2d;
#X obj 202 510 r JuriSize;
#X obj 81 468 r JuriSet;
#X obj 168 472 translateXYZ 0 -0.6 0;
#X obj -18 201 loadbang;
#X obj 149 693 text2d;
#X obj 202 660 r JuriSize;
#X obj 81 618 r JuriSet;
#X obj 168 622 translateXYZ 0 -0.6 0;
#X obj 551 216 text2d;
#X floatatom 581 95 5 0 0 0 - - -, f 5;
#X floatatom 621 95 5 0 0 0 - - -, f 5;
#X floatatom 660 95 5 0 0 0 - - -, f 5;
#X obj 553 64 gemhead;
#X obj 551 340 text2d;
#X obj 551 249 translateXYZ 0 -0.6 0;
#X obj 551 444 text2d;
#X obj 551 365 translateXYZ 0 -0.6 0;
#X obj 551 570 text2d;
#X obj 551 469 translateXYZ 0 -0.6 0;
#X obj 551 699 text2d;
#X obj 551 599 translateXYZ 0 -0.6 0;
#X obj 583 183 r JuriSize-p;
#X obj 584 317 r JuriSize-p;
#X obj 584 421 r JuriSize-p;
#X obj 584 541 r JuriSize-p;
#X obj 584 676 r JuriSize-p;
#X obj 909 306 text2d;
#X obj 799 176 r JuriSet;
#X obj 932 475 text2d;
#X obj 965 446 r JuriSize-p;
#X obj 913 148 gemhead;
#X floatatom 957 196 5 0 0 0 - - -, f 5;
#X floatatom 1009 188 5 0 0 0 - - -, f 5;
#X floatatom 1006 336 5 0 0 0 - - -, f 5;
#X floatatom 1070 331 5 0 0 0 - - -, f 5;
#X obj 943 263 r JuriSize;
#X msg 454 304 text \$1;
#X msg 459 391 text \$1;
#X msg 464 522 text \$1;
#X msg 461 660 text \$1;
#X msg 470 173 text \$1;
#X msg 808 401 text \$1;
#X obj 584 151 r JuriSet-N;
#X obj 576 283 r JuriSet-N;
#X obj 583 393 r JuriSet-N;
#X obj 586 507 r JuriSet-N;
#X obj 579 644 r JuriSet-N;
#X obj 958 402 r JuriSet-N;
#X obj 730 232 loadbang;
#X floatatom 365 537 5 0 0 0 - - -, f 5;
#X obj 365 568 s JuriSize;
#X obj 181 116 translateXYZ -0.3 0.4 0;
#X obj 913 225 translateXYZ -0.3 1.31 0;
#X obj 554 958 text2d;
#X floatatom 602 798 5 0 0 0 - - -, f 5;
#X floatatom 639 799 5 0 0 0 - - -, f 5;
#X floatatom 678 801 5 0 0 0 - - -, f 5;
#X obj 511 802 gemhead;
#X obj 554 1082 text2d;
#X obj 554 991 translateXYZ 0 -0.6 0;
#X obj 554 1186 text2d;
#X obj 554 1107 translateXYZ 0 -0.6 0;
#X obj 554 1312 text2d;
#X obj 554 1211 translateXYZ 0 -0.6 0;
#X obj 554 1441 text2d;
#X obj 554 1341 translateXYZ 0 -0.6 0;
#X obj 586 925 r JuriSize-p;
#X obj 587 1059 r JuriSize-p;
#X obj 587 1163 r JuriSize-p;
#X obj 587 1283 r JuriSize-p;
#X obj 587 1418 r JuriSize-p;
#X msg 457 1046 text \$1;
#X msg 462 1133 text \$1;
#X msg 467 1264 text \$1;
#X msg 464 1402 text \$1;
#X msg 473 915 text \$1;
#X obj 587 893 r JuriSet-N;
#X obj 579 1025 r JuriSet-N;
#X obj 586 1135 r JuriSet-N;
#X obj 589 1249 r JuriSet-N;
#X obj 582 1386 r JuriSet-N;
#X obj 914 714 text2d;
#X obj 947 685 r JuriSize-p;
#X floatatom 988 575 5 0 0 0 - - -, f 5;
#X floatatom 1052 570 5 0 0 0 - - -, f 5;
#X msg 790 640 text \$1;
#X obj 940 641 r JuriSet-N;
#X obj 915 553 gemhead;
#X obj 553 115 translateXYZ -3 0.4 0;
#X obj 554 857 translateXYZ 3 0.4 0;
#X obj 915 603 translateXYZ 3 1.31 0;
#X obj 470 145 r juriA-1;
#X obj 454 276 r juriA-2;
#X obj 459 363 r juriA-3;
#X obj 464 494 r juriA-4;
#X obj 461 632 r juriA-5;
#X obj 473 887 r juriB-1;
#X obj 457 1018 r juriB-2;
#X obj 462 1105 r juriB-3;
#X obj 467 1236 r juriB-4;
#X obj 464 1374 r juriB-5;
#X obj 808 359 r votoA;
#X obj 932 364 translateXYZ -2.7 0 0;
#X obj 832 -122 text2d;
#X obj 760 -221 r JuriSet;
#X obj 832 -290 gemhead;
#X floatatom 876 -252 5 0 0 0 - - -, f 5;
#X floatatom 928 -260 5 0 0 0 - - -, f 5;
#X obj 701 -192 loadbang;
#X msg 701 -167 text FINAL;
#X obj 871 -177 loadbang;
#X msg 871 -155 75;
#X obj 195 -224 text2d;
#X obj 275 -297 r JuriSet;
#X obj 195 -392 gemhead;
#X floatatom 239 -354 5 0 0 0 - - -, f 5;
#X obj 276 -275 r JuriSet-N;
#X floatatom 292 -370 5 0 0 0 - - -, f 5;
#X obj 279 -250 r JuriSize-p;
#X obj 154 -29 text2d;
#X obj 234 -102 r JuriSet;
#X floatatom 198 -159 5 0 0 0 - - -, f 5;
#X obj 235 -80 r JuriSet-N;
#X floatatom 251 -175 5 0 0 0 - - -, f 5;
#X obj 238 -55 r JuriSize-p;
#X obj 195 -325 translateXYZ -3 2.04 0;
#X obj 154 -130 translateXYZ 6 0 0;
#X msg 84 -272 text \$1;
#X obj 84 -314 r barA;
#X msg 54 -80 text \$1;
#X obj 54 -122 r barB;
#X obj 790 598 r votoB;
#X obj 832 -315 r JuriFinalSwitch;
#X obj 913 125 r JuriFinalSwitch;
#X obj 553 42 r JuriFinalSwitch;
#X obj 915 531 r JuriFinalSwitch;
#X obj 511 770 r JuriFinalSwitch;
#X obj 182 49 r JuriFinalSwitch;
#X obj 120 -428 r JuriFinalSwitch;
#X obj 914 978 text2d;
#X obj 953 949 r JuriSize-p;
#X obj 940 905 r JuriSet-N;
#X obj 914 817 gemhead;
#X obj 914 795 r JuriFinalSwitch;
#X floatatom 986 845 5 0 0 0 - - -, f 5;
#X floatatom 1027 846 5 0 0 0 - - -, f 5;
#X obj 914 1144 text2d;
#X obj 953 1115 r JuriSize-p;
#X obj 940 1071 r JuriSet-N;
#X floatatom 986 1008 5 0 0 0 - - -, f 5;
#X floatatom 1027 1009 5 0 0 0 - - -, f 5;
#X obj 914 1030 translateXYZ -6 0 0;
#X obj 820 921 list;
#X obj 763 1068 list;
#X obj 763 880 r FinalNome-2;
#X obj 763 1046 r FinalNome-1;
#X obj 429 -434 cnv 15 250 300 empty empty empty 20 12 0 14 -262130
-66577 0;
#X obj 504 -231 tgl 15 0 empty empty empty 17 7 0 10 -262144 -1 -1
0 1;
#X obj 568 -329 inlet;
#X obj 522 -413 r Mode;
#X floatatom 457 -380 5 0 0 0 - - -, f 5;
#X obj 522 -387 sel 4 5;
#X msg 506 -340 1;
#X msg 560 -355 0;
#X obj 504 -208 s JuriFinalSwitch;
#X msg 733 301 text MÉDIA JÚRI;
#X msg 53 267 text VOTE 2;
#X msg 46 121 text VOTE 1;
#X msg 49 391 text VOTE 3;
#X msg 50 508 text VOTE 4;
#X msg 50 658 text VOTE 5;
#X msg 729 259 text AVERAGE;
#X floatatom 272 575 5 0 0 0 - - -, f 5;
#X obj 914 867 translateXYZ 3 2.78 0;
#X obj 832 -223 translateXYZ -0.15 3.25 0;
#X connect 0 0 10 0;
#X connect 1 0 67 1;
#X connect 2 0 67 2;
#X connect 3 0 67 3;
#X connect 4 0 67 0;
#X connect 5 0 0 1;
#X connect 6 0 0 0;
#X connect 7 0 14 0;
#X connect 8 0 7 1;
#X connect 9 0 7 0;
#X connect 10 0 7 0;
#X connect 11 0 18 0;
#X connect 12 0 11 1;
#X connect 13 0 11 0;
#X connect 14 0 11 0;
#X connect 15 0 23 0;
#X connect 16 0 15 1;
#X connect 17 0 15 0;
#X connect 18 0 15 0;
#X connect 19 0 183 0;
#X connect 19 0 182 0;
#X connect 19 0 184 0;
#X connect 19 0 185 0;
#X connect 19 0 186 0;
#X connect 21 0 20 1;
#X connect 22 0 20 0;
#X connect 23 0 20 0;
#X connect 24 0 30 0;
#X connect 25 0 104 1;
#X connect 26 0 104 2;
#X connect 27 0 104 3;
#X connect 28 0 104 0;
#X connect 29 0 32 0;
#X connect 30 0 29 0;
#X connect 31 0 34 0;
#X connect 32 0 31 0;
#X connect 33 0 36 0;
#X connect 34 0 33 0;
#X connect 36 0 35 0;
#X connect 37 0 24 1;
#X connect 38 0 29 1;
#X connect 39 0 31 1;
#X connect 40 0 33 1;
#X connect 41 0 35 1;
#X connect 42 0 118 0;
#X connect 43 0 42 0;
#X connect 45 0 44 1;
#X connect 46 0 68 0;
#X connect 47 0 68 1;
#X connect 48 0 68 2;
#X connect 49 0 118 1;
#X connect 50 0 118 2;
#X connect 51 0 42 1;
#X connect 52 0 29 0;
#X connect 53 0 31 0;
#X connect 54 0 33 0;
#X connect 55 0 35 0;
#X connect 56 0 24 0;
#X connect 57 0 44 0;
#X connect 58 0 24 0;
#X connect 59 0 29 0;
#X connect 60 0 31 0;
#X connect 61 0 33 0;
#X connect 62 0 35 0;
#X connect 63 0 44 0;
#X connect 64 0 187 0;
#X connect 65 0 66 0;
#X connect 67 0 0 0;
#X connect 68 0 42 0;
#X connect 69 0 75 0;
#X connect 70 0 105 1;
#X connect 71 0 105 2;
#X connect 72 0 105 3;
#X connect 73 0 105 0;
#X connect 74 0 77 0;
#X connect 75 0 74 0;
#X connect 76 0 79 0;
#X connect 77 0 76 0;
#X connect 78 0 81 0;
#X connect 79 0 78 0;
#X connect 81 0 80 0;
#X connect 82 0 69 1;
#X connect 83 0 74 1;
#X connect 84 0 76 1;
#X connect 85 0 78 1;
#X connect 86 0 80 1;
#X connect 87 0 74 0;
#X connect 88 0 76 0;
#X connect 89 0 78 0;
#X connect 90 0 80 0;
#X connect 91 0 69 0;
#X connect 92 0 69 0;
#X connect 93 0 74 0;
#X connect 94 0 76 0;
#X connect 95 0 78 0;
#X connect 96 0 80 0;
#X connect 98 0 97 1;
#X connect 99 0 106 1;
#X connect 100 0 106 2;
#X connect 101 0 97 0;
#X connect 102 0 97 0;
#X connect 103 0 106 0;
#X connect 104 0 24 0;
#X connect 105 0 69 0;
#X connect 106 0 97 0;
#X connect 107 0 56 0;
#X connect 108 0 52 0;
#X connect 109 0 53 0;
#X connect 110 0 54 0;
#X connect 111 0 55 0;
#X connect 112 0 91 0;
#X connect 113 0 87 0;
#X connect 114 0 88 0;
#X connect 115 0 89 0;
#X connect 116 0 90 0;
#X connect 117 0 57 0;
#X connect 118 0 44 0;
#X connect 120 0 119 0;
#X connect 121 0 190 0;
#X connect 122 0 190 1;
#X connect 123 0 190 2;
#X connect 124 0 125 0;
#X connect 125 0 119 0;
#X connect 126 0 127 0;
#X connect 127 0 119 1;
#X connect 128 0 142 0;
#X connect 129 0 128 0;
#X connect 130 0 141 0;
#X connect 131 0 141 1;
#X connect 132 0 128 0;
#X connect 133 0 141 2;
#X connect 134 0 128 1;
#X connect 136 0 135 0;
#X connect 137 0 142 1;
#X connect 138 0 135 0;
#X connect 139 0 142 2;
#X connect 140 0 135 1;
#X connect 141 0 128 0;
#X connect 142 0 135 0;
#X connect 143 0 128 0;
#X connect 144 0 143 0;
#X connect 145 0 135 0;
#X connect 146 0 145 0;
#X connect 147 0 101 0;
#X connect 148 0 121 0;
#X connect 149 0 46 0;
#X connect 150 0 28 0;
#X connect 151 0 103 0;
#X connect 152 0 73 0;
#X connect 153 0 4 0;
#X connect 154 0 130 0;
#X connect 155 0 167 0;
#X connect 156 0 155 1;
#X connect 157 0 155 0;
#X connect 158 0 189 0;
#X connect 159 0 158 0;
#X connect 160 0 189 1;
#X connect 161 0 189 2;
#X connect 163 0 162 1;
#X connect 164 0 162 0;
#X connect 165 0 167 1;
#X connect 166 0 167 2;
#X connect 167 0 162 0;
#X connect 168 0 155 0;
#X connect 169 0 162 0;
#X connect 170 0 168 0;
#X connect 171 0 169 0;
#X connect 173 0 180 0;
#X connect 174 0 173 0;
#X connect 175 0 176 0;
#X connect 175 0 177 0;
#X connect 177 0 178 0;
#X connect 177 1 178 0;
#X connect 177 2 179 0;
#X connect 178 0 173 0;
#X connect 179 0 173 0;
#X connect 182 0 7 0;
#X connect 183 0 0 0;
#X connect 184 0 11 0;
#X connect 185 0 15 0;
#X connect 186 0 20 0;
#X connect 187 0 42 0;
#X connect 188 0 23 2;
#X connect 189 0 155 0;
#X connect 190 0 119 0;
#X restore 155 283 pd JURI-FINAL;
#X text 6 283 Abril 2017 \; Jun 2017;
#N canvas 75 126 503 604 BARULHO_Text 0;
#X obj 89 435 text2d;
#X floatatom 116 113 5 0 0 0 - - -, f 5;
#X floatatom 139 174 5 0 0 0 - - -, f 5;
#X msg 109 304 font FONTS/MAKISUPA.TTF;
#X obj 126 245 loadbang;
#X obj 91 -20 tgl 15 0 empty empty empty 17 7 0 10 -262144 -1 -1 0
1;
#X obj 89 5 gemhead;
#X obj 98 -93 inlet;
#X obj -15 -126 r Mode;
#X msg 2 -59 1;
#X msg 46 -59 0;
#X obj 231 -116 r Mode;
#X obj 89 39 alpha;
#X obj 122 391 r Barulho-size;
#X obj 116 84 r Barulho-Pos-X;
#X floatatom 122 415 5 0 0 0 - - -, f 5;
#X obj 134 139 r Barulho-Pos-Y;
#X msg 140 277 text BARULHÓMETRO;
#X obj 229 -76 sel 2 4 5;
#X floatatom 182 -105 5 0 0 0 - - -, f 5;
#X obj -15 -102 sel 2 3 4 5;
#X floatatom 266 156 5 0 0 0 - - -, f 5;
#X obj 261 121 r Barulho-Pos-Z;
#X obj 89 201 translateXYZ;
#X msg 315 -24 \; Barulho-size 25 \; Barulho-Pos-X -0.3 \; Barulho-Pos-Y
2 \; Barulho-Pos-Z 0 \;;
#X msg 166 -29 \; Barulho-size 50 \; Barulho-Pos-X 0 \; Barulho-Pos-Y
-1 \; Barulho-Pos-Z 0.1 \;;
#X msg 240 332 text PÚBLICO;
#X msg 119 333 text AUDIENCE;
#X msg 358 -101 \; Barulho-size 25 \; Barulho-Pos-X -3.89 \; Barulho-Pos-Y
2 \; Barulho-Pos-Z 0 \;;
#X connect 1 0 23 1;
#X connect 2 0 23 2;
#X connect 3 0 0 0;
#X connect 4 0 27 0;
#X connect 4 0 3 0;
#X connect 4 0 17 0;
#X connect 5 0 6 0;
#X connect 6 0 12 0;
#X connect 7 0 5 0;
#X connect 8 0 20 0;
#X connect 9 0 5 0;
#X connect 10 0 5 0;
#X connect 11 0 18 0;
#X connect 11 0 19 0;
#X connect 12 0 23 0;
#X connect 13 0 15 0;
#X connect 14 0 1 0;
#X connect 15 0 0 1;
#X connect 16 0 2 0;
#X connect 18 0 25 0;
#X connect 18 1 24 0;
#X connect 18 2 24 0;
#X connect 18 3 28 0;
#X connect 20 0 9 0;
#X connect 20 1 9 0;
#X connect 20 2 9 0;
#X connect 20 3 9 0;
#X connect 20 4 10 0;
#X connect 21 0 23 3;
#X connect 22 0 21 0;
#X connect 23 0 0 0;
#X connect 27 0 0 0;
#X restore 105 101 pd BARULHO_Text;
#N canvas 625 79 673 663 ShowVote 0;
#X obj 300 576 text2d;
#X floatatom 333 551 5 0 0 0 - - -, f 5;
#X floatatom 313 159 5 0 0 0 - - -, f 5;
#X floatatom 238 159 5 0 0 0 - - -, f 5;
#X floatatom 275 159 5 0 0 0 - - -, f 5;
#X obj 470 489 r sizeVOTE;
#X obj 300 355 r barulho_vote;
#X obj 1 389 loadbang;
#X obj 300 430 max 0;
#X obj 216 124 spigot;
#X obj 249 95 tgl 15 0 empty empty empty 17 7 0 10 -262144 -1 -1 0
1;
#X msg 285 58 0;
#X msg 340 56 1;
#X obj 192 16 tgl 15 0 empty empty empty 17 7 0 10 -262144 -1 -1 0
1;
#X obj 190 -7 inlet;
#X obj 315 -50 r Mode;
#X obj 313 -8 sel 2 3;
#X obj 430 -27 r Mode;
#X obj 430 6 sel 2;
#X msg 407 50 0;
#X msg 565 63 2.03;
#X obj 479 26 b;
#X msg 482 114 40;
#X obj 184 75 alpha;
#X obj 152 237 colourRGB 1 1 1 1;
#X floatatom 337 225 5 0 0 0 - - -, f 5;
#X obj 440 183 r ctrl;
#X obj 408 291 line;
#X obj 437 215 sel 0 1;
#X msg 432 243 1 500;
#X msg 483 248 0;
#X msg 433 115 150;
#X msg 440 50 0.73;
#X obj 157 458 r zera_votos;
#X msg 158 482 text -;
#X obj 215 191 translateXYZ -1.8 2.03 0;
#X obj 433 146 s sizeVOTE;
#X msg -4 413 font FONTS/MAKISUPA.TTF \, text - \, alias 1;
#X obj 300 457 t f f;
#X text 293 331 Pega a pontuação do barulho e arredonda;
#X msg 17 545 font vera.ttf \, text - \, alias 1;
#X obj 182 41 gemhead -1;
#X obj 439 517 t f b;
#X obj 386 574 bng 15 250 50 0 empty empty empty 17 7 0 10 -262144
-1 -1;
#N canvas 681 136 462 407 printaVoto 0;
#X obj 120 44 inlet;
#X msg 197 91 bang;
#X floatatom 212 178 0 0 0 0 - - -;
#X floatatom 204 201 0 0 0 0 - - -;
#X floatatom 197 224 0 0 0 0 - - -;
#X obj 197 120 time;
#X floatatom 220 155 0 0 0 0 - - -;
#X text 290 91 local;
#X obj 85 271 pack f f f f;
#X text 275 150 msec;
#X text 276 172 sec;
#X text 277 193 min;
#X text 276 215 hours;
#X obj 123 99 t b f;
#X msg 129 301 \$1:\$2:\$3: - Público: \$4;
#X obj 79 334 print VOTO;
#X connect 0 0 13 0;
#X connect 1 0 5 0;
#X connect 2 0 8 2;
#X connect 3 0 8 1;
#X connect 4 0 8 0;
#X connect 5 0 4 0;
#X connect 5 1 3 0;
#X connect 5 2 2 0;
#X connect 5 3 6 0;
#X connect 8 0 14 0;
#X connect 13 0 1 0;
#X connect 13 1 8 3;
#X connect 14 0 15 0;
#X restore 327 487 pd printaVoto;
#X obj 300 380 Patches/arredonda;
#X text 26 -37 Mostra o valor do Barulhometro;
#X msg 501 66 -1.83;
#X obj 438 547 delay 5000;
#X connect 1 0 0 1;
#X connect 2 0 35 3;
#X connect 3 0 35 1;
#X connect 4 0 35 2;
#X connect 5 0 42 0;
#X connect 6 0 45 0;
#X connect 7 0 37 0;
#X connect 8 0 38 0;
#X connect 9 0 35 0;
#X connect 10 0 9 1;
#X connect 11 0 10 0;
#X connect 12 0 10 0;
#X connect 13 0 41 0;
#X connect 14 0 13 0;
#X connect 15 0 16 0;
#X connect 16 0 12 0;
#X connect 16 1 12 0;
#X connect 16 2 11 0;
#X connect 17 0 18 0;
#X connect 18 0 19 0;
#X connect 18 0 32 0;
#X connect 18 0 31 0;
#X connect 18 1 21 0;
#X connect 19 0 3 0;
#X connect 20 0 4 0;
#X connect 21 0 47 0;
#X connect 21 0 20 0;
#X connect 21 0 22 0;
#X connect 22 0 36 0;
#X connect 23 0 9 0;
#X connect 24 0 0 0;
#X connect 25 0 24 4;
#X connect 26 0 28 0;
#X connect 27 0 24 4;
#X connect 28 0 29 0;
#X connect 28 1 30 0;
#X connect 29 0 27 0;
#X connect 30 0 27 0;
#X connect 31 0 36 0;
#X connect 32 0 4 0;
#X connect 33 0 34 0;
#X connect 34 0 0 0;
#X connect 35 0 24 0;
#X connect 37 0 0 0;
#X connect 38 0 0 0;
#X connect 38 1 44 0;
#X connect 40 0 0 0;
#X connect 41 0 23 0;
#X connect 42 0 1 0;
#X connect 42 1 48 0;
#X connect 43 0 1 0;
#X connect 45 0 8 0;
#X connect 47 0 3 0;
#X connect 48 0 43 0;
#X restore 204 165 pd ShowVote;
#N canvas 141 120 387 574 FINAL_manual 0;
#X obj 63 29 nbx 4 25 -1e+37 1e+37 0 0 barA empty barA 0 -12 0 20 -262144
-1 -1 0 256;
#X obj 61 102 nbx 4 25 -1e+37 1e+37 0 0 juriA-1 empty juriA-1 0 -12
0 20 -262144 -1 -1 0 256;
#X obj 61 177 nbx 4 25 -1e+37 1e+37 0 0 juriA-2 empty juriA-2 0 -12
0 20 -262144 -1 -1 0 256;
#X obj 61 242 nbx 4 25 -1e+37 1e+37 0 0 juriA-3 empty juriA-3 0 -12
0 20 -262144 -1 -1 0 256;
#X obj 61 317 nbx 4 25 -1e+37 1e+37 0 0 juriA-4 empty juriA-4 0 -12
0 20 -262144 -1 -1 0 256;
#X obj 61 382 nbx 4 25 -1e+37 1e+37 0 0 juriA-5 empty juriA-5 0 -12
0 20 -262144 -1 -1 0 256;
#X obj 215 30 nbx 4 25 -1e+37 1e+37 0 0 barB empty barB 0 -12 0 20
-262144 -1 -1 0 256;
#X obj 211 102 nbx 4 25 -1e+37 1e+37 0 0 juriB-1 empty juriB-1 0 -12
0 20 -262144 -1 -1 0 256;
#X obj 210 181 nbx 4 25 -1e+37 1e+37 0 0 juriB-2 empty juriB-2 0 -12
0 20 -262144 -1 -1 0 256;
#X obj 211 244 nbx 4 25 -1e+37 1e+37 0 0 juriB-3 empty juriB-3 0 -12
0 20 -262144 -1 -1 0 256;
#X obj 210 323 nbx 4 25 -1e+37 1e+37 0 0 juriB-4 empty juriB-4 0 -12
0 20 -262144 -1 -1 0 256;
#X obj 208 389 nbx 4 25 -1e+37 1e+37 0 0 juriB-5 empty juriB-5 0 -12
0 20 -262144 -1 -1 0 256;
#X obj 79 434 bng 60 250 50 0 calculaA empty calcA 10 15 0 12 -262144
-1 -1;
#X obj 207 435 bng 60 250 50 0 calculaB empty calcB 10 15 0 12 -262144
-1 -1;
#X obj 55 528 nbx 4 25 -1e+37 1e+37 0 0 empty votoA votoA 0 -12 0 20
-262144 -1 -1 0 256;
#X obj 203 528 nbx 4 25 -1e+37 1e+37 0 0 empty votoB votoB 0 -12 0
20 -262144 -1 -1 0 256;
#X restore 176 261 pd FINAL_manual;
#X text 8 310 Out 2017;
#X connect 1 0 2 0;
#X connect 3 0 4 0;
#X connect 5 0 3 0;
#X connect 6 0 1 0;
#X connect 10 0 9 0;
#X connect 18 0 14 0;
#X connect 24 0 46 0;
#X connect 25 0 23 0;
#X connect 29 0 28 0;
#X connect 32 0 33 0;
#X connect 34 0 47 0;
#X connect 36 0 35 0;
#X connect 41 0 11 0;
