#N canvas 177 97 659 336 10;
#X obj 323 176 cnv 15 300 130 empty empty empty 20 12 0 14 -204800
-66577 0;
#X obj 335 219 bng 60 250 50 0 empty empty empty 17 7 0 10 -258113
-1 -1;
#X obj 335 292 s Stop;
#X obj 434 219 bng 60 250 50 0 empty empty empty 17 7 0 10 -4034 -1
-1;
#X obj 434 287 s GO;
#X obj 434 188 r GOtimer;
#X obj 334 192 r StopTimer;
#X obj 89 14 cnv 15 200 300 empty empty empty 20 12 0 14 -261234 -66577
0;
#X text 91 91 LOGO;
#N canvas 457 127 524 561 LOGO 0;
#X obj 280 136 r ctrl;
#X obj 14 223 spigot;
#X obj 67 225 tgl 15 0 empty empty empty 17 7 0 10 -262144 -1 -1 0
1;
#X obj 280 164 sel 0 1;
#X msg 276 193 1;
#X msg 307 194 0;
#X obj 3 324 rotateXYZ;
#X obj 37 284 f;
#X obj 67 283 + 1;
#X obj 205 600 text3d;
#X obj 349 449 loadbang;
#X msg 292 420 font FONTS/MAKISUPA.TTF;
#X obj 121 103 gemhead;
#X obj 114 37 inlet;
#X obj 121 73 tgl 15 0 empty empty empty 17 7 0 10 -262144 -1 -1 0
1;
#X obj 122 129 alpha;
#X obj 386 316 line;
#X obj 405 262 loadbang;
#X msg 405 288 1;
#X obj 66 154 ortho;
#X obj 175 -2 r Mode;
#X obj 169 28 != 0;
#X floatatom 230 34 5 0 0 0 - - -, f 5;
#X obj 113 438 colourRGB 1 0.9 0.2 1;
#X msg 286 479 text PortugalSLAM;
#X obj 46 252 metro 35;
#X floatatom 192 148 5 0 0 0 - - -, f 5;
#X floatatom 189 472 5 0 0 0 - - -, f 5;
#X floatatom 230 121 5 0 0 0 - - -, f 5;
#X obj 270 309 line;
#X obj 303 380 *;
#X obj 272 285 pack f 2000;
#X obj 277 252 tgl 15 0 empty empty empty 17 7 0 10 -262144 -1 -1 0
1;
#X obj 299 259 metro 2000;
#X msg 284 502 text LabIO;
#X msg 440 482 text \$1;
#X obj 438 386 r name_text;
#X obj 143 300 r name_color;
#X obj 143 330 pack f 1 1;
#X obj 143 357 hsv2rgb;
#X obj 143 384 unpack f f f;
#X msg 310 528 5;
#X obj 103 183 translateXYZ -3.6 3.5 0.1;
#X obj 383 343 t b f;
#X floatatom 434 331 5 0 0 0 - - -, f 5;
#X obj 368 230 pack f 500;
#X floatatom 314 311 5 0 0 0 - - -, f 5;
#X obj 229 336 expr $f1*$f2 + (1-$f2);
#X msg 356 309 0.5;
#X connect 0 0 3 0;
#X connect 1 0 6 0;
#X connect 2 0 1 1;
#X connect 2 0 25 0;
#X connect 3 0 4 0;
#X connect 3 1 5 0;
#X connect 4 0 33 0;
#X connect 4 0 45 0;
#X connect 5 0 33 0;
#X connect 5 0 45 0;
#X connect 7 0 8 0;
#X connect 7 0 6 2;
#X connect 8 0 7 1;
#X connect 10 0 41 0;
#X connect 10 0 11 0;
#X connect 10 0 24 0;
#X connect 10 0 34 0;
#X connect 11 0 9 0;
#X connect 12 0 15 0;
#X connect 13 0 14 0;
#X connect 14 0 12 0;
#X connect 15 0 42 0;
#X connect 16 0 43 0;
#X connect 16 0 44 0;
#X connect 17 0 18 0;
#X connect 17 0 48 0;
#X connect 18 0 16 0;
#X connect 20 0 21 0;
#X connect 20 0 22 0;
#X connect 21 0 14 0;
#X connect 23 0 9 0;
#X connect 25 0 7 0;
#X connect 26 0 42 2;
#X connect 27 0 9 1;
#X connect 28 0 42 3;
#X connect 29 0 47 0;
#X connect 30 0 23 4;
#X connect 31 0 29 0;
#X connect 32 0 31 0;
#X connect 33 0 32 0;
#X connect 34 0 9 0;
#X connect 35 0 9 0;
#X connect 36 0 35 0;
#X connect 37 0 38 0;
#X connect 38 0 39 0;
#X connect 39 0 40 0;
#X connect 40 0 23 1;
#X connect 40 1 23 2;
#X connect 40 2 23 3;
#X connect 41 0 9 1;
#X connect 42 0 23 0;
#X connect 43 0 30 0;
#X connect 43 1 30 1;
#X connect 45 0 16 0;
#X connect 46 0 47 1;
#X connect 47 0 30 0;
#X connect 48 0 47 1;
#X restore 95 133 pd LOGO;
#X obj 95 112 tgl 15 0 empty empty empty 17 7 0 10 -262144 -1 -1 0
1;
#X obj 18 42 vu 15 120 empty empty -1 -8 0 10 -66577 -1 1 0;
#N canvas 238 332 259 250 init 0;
#X obj 38 12 loadbang;
#X msg 38 35 \; Mode 0 \; db_range 55 \; shiftH 0.04 \; size 15 \;
sizeVOTE 150 \; sizeBARU 30 \; T_X 3 \; T_Y -2.5 \; T_Z 0 \; ctrl 0
\; MostraTexto 0 \; MostraBarra 0 \; colORstar-r 1 \; name_color-set
0.07 \;;
#X connect 0 0 1 0;
#X restore 15 197 pd init;
#X obj 310 14 cnv 15 340 150 empty empty empty 20 12 0 14 -262130 -66577
0;
#N canvas 1 83 450 300 screen_set 0;
#X obj 51 174 gemwin;
#X msg 54 227 destroy \, border 0 \, create \, 1;
#X msg 52 247 reset \, dimen 400 300 \, create \, 1;
#X msg 38 131 0 \, destroy;
#X msg 54 205 reset \, dimen 1024 768 \, offset 1280 0 \, border 0
\, create \, 1;
#X obj 32 16 inlet OnOff;
#X obj 32 48 sel 0 1;
#X obj 235 85 pack f f f;
#X obj 202 39 f;
#X obj 248 44 f;
#X obj 293 41 f;
#X obj 70 90 t b b b;
#X obj 198 8 r width;
#X obj 259 9 r heigth;
#X obj 331 10 r border;
#X text 250 237 other options;
#X obj 283 173 print;
#X msg 136 133 reset \, dimen \$1 \$2 \, border \$3 \, FSAA 6 \, create
\, 1;
#X connect 1 0 0 0;
#X connect 2 0 0 0;
#X connect 3 0 0 0;
#X connect 4 0 0 0;
#X connect 5 0 6 0;
#X connect 6 0 3 0;
#X connect 6 1 11 0;
#X connect 7 0 17 0;
#X connect 8 0 7 0;
#X connect 9 0 7 1;
#X connect 10 0 7 2;
#X connect 11 0 8 0;
#X connect 11 1 9 0;
#X connect 11 2 10 0;
#X connect 12 0 8 1;
#X connect 13 0 9 1;
#X connect 14 0 10 1;
#X connect 17 0 0 0;
#X connect 17 0 16 0;
#X restore 323 140 pd screen_set;
#X obj 320 41 nbx 5 30 -1e+37 1e+37 0 1 width empty Set_Widtht 0 -14
0 18 -262144 -1 -1 366 256;
#X obj 441 41 nbx 5 30 -1e+37 1e+37 0 1 heigth empty Set_Height 0 -14
0 18 -262144 -1 -1 249 256;
#X obj 584 39 tgl 30 1 border empty Border -5 -12 0 18 -262144 -1 -1
1 1;
#X obj 323 104 tgl 30 0 empty empty Create_Window -5 -12 0 18 -262144
-1 -1 1 1;
#N canvas 702 148 463 429 EXTRATIME 0;
#X obj 203 4 r extraTime;
#X msg 47 79 \; barraCor 1 1 1 \;;
#X obj 203 33 t b b;
#X msg 230 66 \; barraCor 1 0 0 \; textCor 1 0 0 \; barraMove 8 10000
\;;
#X obj 203 140 delay 10000;
#X obj 171 215 metro 1000;
#X msg 199 161 1;
#X obj 179 375 s toText;
#X obj 196 187 t f f;
#X obj 279 215 s MostraTexto;
#X obj 150 179 tgl 15 0 empty empty empty 17 7 0 10 -262144 -1 -1 0
1;
#X obj 241 236 bng 15 250 50 0 empty empty empty 17 7 0 10 -262144
-1 -1;
#X obj 279 242 r resetCounter;
#X obj 89 128 r resetCounter;
#X msg 87 163 0;
#X obj 28 135 r Stop;
#X obj 187 327 f;
#X obj 217 328 + 1;
#X msg 254 279 -1;
#X connect 0 0 2 0;
#X connect 2 0 4 0;
#X connect 2 1 3 0;
#X connect 4 0 6 0;
#X connect 5 0 16 0;
#X connect 6 0 8 0;
#X connect 8 0 5 0;
#X connect 8 1 9 0;
#X connect 10 0 5 0;
#X connect 12 0 11 0;
#X connect 12 0 18 0;
#X connect 13 0 14 0;
#X connect 14 0 5 0;
#X connect 15 0 14 0;
#X connect 16 0 17 0;
#X connect 16 0 7 0;
#X connect 17 0 16 1;
#X connect 18 0 16 0;
#X restore 527 231 pd EXTRATIME;
#N canvas 45 295 310 330 TEXTO 0;
#X obj 50 2 gemhead;
#X obj 50 241 text2d 0;
#X msg 73 163 text \$1;
#X obj 50 27 alpha;
#X obj 50 -21 tgl 15 0 empty empty empty 17 7 0 10 -262144 -1 -1 0
1;
#X obj 73 136 r toText;
#X obj 65 -140 r MostraTexto;
#X obj 50 109 colour;
#X obj 83 79 r textCor;
#X obj 95 189 loadbang;
#X msg 142 210 font FONTS/MAKISUPA.TTF;
#X msg 95 210 150;
#X obj 50 56 translateXYZ 2.7 1 0;
#X obj 184 -65 r Mode;
#X obj 184 -35 == 1;
#X obj 141 7 spigot;
#X obj 191 -9 t f f;
#X obj 226 44 sel 1;
#X connect 0 0 3 0;
#X connect 2 0 1 0;
#X connect 3 0 12 0;
#X connect 4 0 0 0;
#X connect 5 0 2 0;
#X connect 6 0 15 0;
#X connect 7 0 1 0;
#X connect 8 0 7 1;
#X connect 9 0 11 0;
#X connect 9 0 10 0;
#X connect 10 0 1 0;
#X connect 11 0 1 1;
#X connect 12 0 7 0;
#X connect 13 0 14 0;
#X connect 14 0 16 0;
#X connect 15 0 4 0;
#X connect 16 0 15 1;
#X connect 16 1 17 0;
#X connect 17 1 4 0;
#X restore 527 255 pd TEXTO;
#N canvas 732 106 581 450 BARRA 0;
#X obj 49 223 gemhead;
#X obj 49 411 rectangle 0.96 3.96;
#X obj 49 381 translateXYZ 0 0 0;
#X obj 309 323 line;
#X obj 309 350 s timer;
#X obj 119 352 r timer;
#X obj 58 168 tgl 15 0 empty empty empty 17 7 0 10 -262144 -1 -1 0
1;
#X msg 354 293 -8;
#X obj 354 272 r barraReset;
#X obj 279 380 sel 0;
#X obj 279 403 s extraTime;
#X obj 49 321 colour;
#X obj 82 291 r barraCor;
#X obj 285 208 r barraMove;
#X obj 216 271 r Stop;
#X msg 219 294 stop;
#X obj 49 249 translateXYZ 5.5 0 0;
#X obj 251 140 gemhead;
#X obj 317 149 colourRGB 1 0 0;
#X floatatom 374 202 5 0 0 0 - - -, f 5;
#X floatatom 416 199 5 0 0 0 - - -, f 5;
#X obj 301 175 rectangle 0.96 0.03;
#X obj 310 126 translateXYZ 5.58 3.96 0;
#X floatatom 182 343 5 0 0 0 - - -, f 5;
#X obj 242 347 loadbang;
#X obj 194 177 loadbang;
#X obj 54 17 r MostraBarra;
#X msg 239 374 -2.5;
#X msg 228 204 3;
#X obj 101 49 r Mode;
#X obj 101 71 == 1;
#X obj 58 121 spigot;
#X obj 101 95 t f f;
#X obj 112 134 sel 1;
#X msg 377 58 \; barraMove 0 100;
#X obj 446 261 delay 10;
#X obj 474 290 l;
#X obj 456 239 t l l;
#X connect 0 0 16 0;
#X connect 2 0 1 0;
#X connect 3 0 4 0;
#X connect 3 0 9 0;
#X connect 5 0 2 2;
#X connect 6 0 0 0;
#X connect 6 0 17 0;
#X connect 7 0 3 0;
#X connect 8 0 7 0;
#X connect 9 0 10 0;
#X connect 11 0 2 0;
#X connect 12 0 11 1;
#X connect 13 0 3 0;
#X connect 14 0 15 0;
#X connect 15 0 3 0;
#X connect 16 0 11 0;
#X connect 17 0 22 0;
#X connect 18 0 21 0;
#X connect 19 0 21 1;
#X connect 20 0 21 2;
#X connect 22 0 18 0;
#X connect 23 0 2 2;
#X connect 24 0 27 0;
#X connect 25 0 28 0;
#X connect 26 0 31 0;
#X connect 27 0 2 1;
#X connect 28 0 22 1;
#X connect 29 0 30 0;
#X connect 30 0 32 0;
#X connect 31 0 6 0;
#X connect 32 0 31 1;
#X connect 32 1 33 0;
#X connect 33 1 6 0;
#X connect 35 0 36 0;
#X connect 37 0 35 0;
#X connect 37 1 35 1;
#X restore 527 278 pd BARRA;
#N canvas 86 113 459 632 GO 0;
#X obj 120 42 bng 15 250 50 0 empty empty empty 17 7 0 10 -262144 -1
-1;
#X text 137 39 GO!;
#X obj 151 379 s toText;
#X obj 120 77 t b b b b b;
#X obj 135 459 s toText;
#X msg 135 436 symbol SLAM;
#X obj 120 14 r GO;
#X msg 168 258 \; toText 2 \; LOGO-Alpha 0 1000 \;;
#X msg 183 105 \; resetCounter bang \; textCor 1 1 1 \; barraCor 1
1 1 \; barraReset bang \; MostraTexto 1 \; MostraBarra 0 \; toText
3 \;;
#X msg 151 356 1;
#X obj 167 224 delay 800;
#X obj 151 331 delay 1600;
#X obj 135 411 delay 2400;
#X obj 120 490 delay 3000;
#X msg 120 521 \; MostraTexto 0 \; MostraBarra 1 \; barraMove 0 180000
\; LOGO-Alpha 1 2000 \;;
#X connect 0 0 3 0;
#X connect 3 0 13 0;
#X connect 3 1 12 0;
#X connect 3 2 11 0;
#X connect 3 3 10 0;
#X connect 3 4 8 0;
#X connect 5 0 4 0;
#X connect 6 0 0 0;
#X connect 9 0 2 0;
#X connect 10 0 7 0;
#X connect 11 0 9 0;
#X connect 12 0 5 0;
#X connect 13 0 14 0;
#X restore 527 208 pd GO;
#X text 180 22 VOTE;
#N canvas 86 145 503 604 BARULHOMETRO 0;
#X obj 87 435 text2d;
#X obj 87 201 translateXYZ;
#X floatatom 110 113 5 0 0 0 - - -, f 5;
#X floatatom 137 174 5 0 0 0 - - -, f 5;
#X floatatom 176 176 5 0 0 0 - - -, f 5;
#X msg 107 304 font FONTS/MAKISUPA.TTF;
#X obj 124 245 loadbang;
#X obj 91 -20 tgl 15 0 empty empty empty 17 7 0 10 -262144 -1 -1 0
1;
#X obj 89 5 gemhead;
#X obj 98 -93 inlet;
#X obj -15 -126 r Mode;
#X obj -15 -102 sel 2 3;
#X msg 2 -59 1;
#X msg 46 -59 0;
#X obj 231 -116 r Mode;
#X obj 229 -76 sel 2;
#X obj 89 39 alpha;
#X obj 120 391 r Barulho-size;
#X obj 110 84 r Barulho-Pos-X;
#X floatatom 120 415 5 0 0 0 - - -, f 5;
#X obj 132 139 r Barulho-Pos-Y;
#X msg 138 277 text BARULHÓMETRO;
#X msg 117 333 text PÚBLICO;
#X msg 342 7 \; Barulho-size 25 \; Barulho-Pos-X -4.3 \; Barulho-Pos-Y
2 \;;
#X msg 206 7 \; Barulho-size 50 \; Barulho-Pos-X 0 \; Barulho-Pos-Y
-1 \;;
#X connect 1 0 0 0;
#X connect 2 0 1 1;
#X connect 3 0 1 2;
#X connect 4 0 1 3;
#X connect 5 0 0 0;
#X connect 6 0 22 0;
#X connect 6 0 5 0;
#X connect 6 0 21 0;
#X connect 7 0 8 0;
#X connect 8 0 16 0;
#X connect 9 0 7 0;
#X connect 10 0 11 0;
#X connect 11 0 12 0;
#X connect 11 1 12 0;
#X connect 11 2 13 0;
#X connect 12 0 7 0;
#X connect 13 0 7 0;
#X connect 14 0 15 0;
#X connect 15 0 24 0;
#X connect 15 1 23 0;
#X connect 16 0 1 0;
#X connect 17 0 19 0;
#X connect 18 0 2 0;
#X connect 19 0 0 1;
#X connect 20 0 3 0;
#X connect 22 0 0 0;
#X restore 181 159 pd BARULHOMETRO;
#N canvas 147 270 498 353 TIMER 0;
#X obj 118 270 text2d;
#X floatatom 151 229 5 0 0 0 - - -, f 5;
#X floatatom 159 146 5 0 0 0 - - -, f 5;
#X floatatom 200 147 5 0 0 0 - - -, f 5;
#X floatatom 241 149 5 0 0 0 - - -, f 5;
#X obj 151 207 r sizeBARU;
#X obj 41 -49 loadbang;
#X obj 118 179 translateXYZ 3.5 -3 0;
#X obj 159 123 r T_X;
#X obj 200 117 r T_Y;
#X obj 241 118 r T_Z;
#X obj 118 57 tgl 15 0 empty empty empty 17 7 0 10 -262144 -1 -1 0
1;
#X obj 118 32 inlet;
#X obj 118 86 gemhead 51;
#X obj 79 8 r Mode;
#X obj 79 33 == 1;
#X msg 41 -19 font FONTS/MAKISUPA.TTF \, text TIMER;
#X connect 1 0 0 1;
#X connect 2 0 7 1;
#X connect 3 0 7 2;
#X connect 4 0 7 3;
#X connect 5 0 1 0;
#X connect 6 0 16 0;
#X connect 7 0 0 0;
#X connect 8 0 2 0;
#X connect 9 0 3 0;
#X connect 10 0 4 0;
#X connect 11 0 13 0;
#X connect 12 0 11 0;
#X connect 13 0 7 0;
#X connect 14 0 15 0;
#X connect 15 0 11 0;
#X connect 16 0 0 0;
#X restore 182 112 pd TIMER;
#X obj 181 138 tgl 15 0 empty empty empty 17 7 0 10 -262144 -1 -1 0
1;
#X obj 182 92 tgl 15 0 empty empty empty 17 7 0 10 -262144 -1 -1 0
1;
#X obj 96 217 juri_count;
#X obj 181 284 hradio 15 1 0 2 empty empty choose_camera -85 6 0 10
-262144 -1 -1 0;
#N canvas 102 79 1226 688 JURI 0;
#X obj 176 197 text2d;
#X floatatom 193 68 5 0 0 0 - - -, f 5;
#X floatatom 230 69 5 0 0 0 - - -, f 5;
#X floatatom 269 71 5 0 0 0 - - -, f 5;
#X obj 385 15 tgl 15 0 empty empty empty 17 7 0 10 -262144 -1 -1 0
1;
#X obj 143 35 gemhead;
#X obj 430 -23 inlet;
#X obj 245 -32 r Mode;
#X obj 1016 40 loadbang;
#X obj 210 154 r JuriSize;
#X obj 124 140 r JuriSet;
#X obj 172 311 text2d;
#X obj 206 268 r JuriSize;
#X obj 91 223 r JuriSet;
#X obj 176 230 translateXYZ 0 -0.6 0;
#X obj 168 435 text2d;
#X obj 202 392 r JuriSize;
#X obj 81 350 r JuriSet;
#X obj 172 354 translateXYZ 0 -0.6 0;
#X obj 168 553 text2d;
#X obj 202 510 r JuriSize;
#X obj 81 468 r JuriSet;
#X obj 168 472 translateXYZ 0 -0.6 0;
#X obj -18 201 loadbang;
#X obj 149 693 text2d;
#X obj 202 660 r JuriSize;
#X obj 81 618 r JuriSet;
#X obj 168 622 translateXYZ 0 -0.6 0;
#X obj 551 216 text2d;
#X floatatom 599 56 5 0 0 0 - - -, f 5;
#X floatatom 636 57 5 0 0 0 - - -, f 5;
#X floatatom 675 59 5 0 0 0 - - -, f 5;
#X obj 508 60 gemhead;
#X obj 551 340 text2d;
#X obj 551 249 translateXYZ 0 -0.6 0;
#X obj 551 444 text2d;
#X obj 551 365 translateXYZ 0 -0.6 0;
#X obj 551 570 text2d;
#X obj 551 469 translateXYZ 0 -0.6 0;
#X obj 551 699 text2d;
#X obj 551 599 translateXYZ 0 -0.6 0;
#X obj 583 183 r JuriSize-p;
#X obj 584 317 r JuriSize-p;
#X obj 584 421 r JuriSize-p;
#X obj 584 541 r JuriSize-p;
#X obj 584 676 r JuriSize-p;
#X obj 909 306 text2d;
#X obj 799 176 r JuriSet;
#X obj 909 450 text2d;
#X obj 942 421 r JuriSize-p;
#X obj 900 68 gemhead;
#X floatatom 957 196 5 0 0 0 - - -, f 5;
#X floatatom 1009 188 5 0 0 0 - - -, f 5;
#X floatatom 983 311 5 0 0 0 - - -, f 5;
#X floatatom 1027 306 5 0 0 0 - - -, f 5;
#X obj 943 263 r JuriSize;
#X msg 53 267 text JÚRI 2;
#X msg 49 391 text JÚRI 3;
#X msg 50 508 text JÚRI 4;
#X msg 50 658 text JÚRI 5;
#X msg 46 121 text JÚRI 1;
#X obj 181 116 translateXYZ -4.51 0.4 0;
#X msg 454 304 text \$1;
#X msg 459 391 text \$1;
#X msg 464 522 text \$1;
#X msg 461 660 text \$1;
#X obj 461 632 r JuriVote-5;
#X obj 464 494 r JuriVote-4;
#X obj 459 363 r JuriVote-3;
#X obj 454 276 r JuriVote-2;
#X msg 470 173 text \$1;
#X obj 470 145 r JuriVote-1;
#X obj 785 334 r JuriVote-Mean;
#X msg 785 376 text \$1;
#X msg 730 259 text MÉDIA JÚRI;
#X obj 584 151 r JuriSet-N;
#X obj 576 283 r JuriSet-N;
#X obj 583 393 r JuriSet-N;
#X obj 586 507 r JuriSet-N;
#X obj 579 644 r JuriSet-N;
#X obj 935 377 r JuriSet-N;
#X obj 256 5 == 3;
#X obj 726 217 loadbang;
#X obj 1113 169 r zera_votos;
#X msg 1112 205 \; JuriSet-N text -;
#X obj 551 115 translateXYZ -1.83 0.4 0;
#X msg 1015 66 \; JuriSize 25 \; JuriSet font FONTS/MAKISUPA.TTF \;
JuriSet-N font FONTS/MAKISUPA.TTF \; JuriSize-p 40 \; JuriSet-N text
- \;;
#X obj 913 225 translateXYZ -4.07 1.31 0;
#X obj 909 339 translateXYZ 2.25 -0.01 0;
#X floatatom 365 537 5 0 0 0 - - -, f 5;
#X obj 365 568 s JuriSize;
#N canvas 749 79 514 565 ANIMATION 0;
#X obj 52 69 gemhead;
#X obj 101 516 text2d;
#X obj 48 466 translateXYZ;
#X msg 331 397 text the;
#X msg 378 461 text not;
#X obj 51 98 alpha;
#X obj 47 312 colorRGB;
#X obj 323 68 hradio 15 1 0 5 empty empty empty 0 -8 0 10 -262144 -1
-1 1;
#X obj 122 275 line;
#X msg 89 233 0;
#X obj 212 161 sel 0 1 2 3 4;
#X obj 346 329 sel 0 1 2 3 4;
#X obj 197 198 t b b;
#X msg 229 255 0 3000;
#X obj 278 197 t b b;
#X msg 123 248 0 2000;
#X obj 123 223 delay 500;
#X floatatom 161 519 5 0 0 0 - - -, f 5;
#X obj 49 42 tgl 15 0 empty empty empty 17 7 0 10 -262144 -1 -1 0 1
;
#X obj 56 3 inlet;
#X msg 150 346 1;
#X obj 119 417 random 6;
#X obj 121 440 - 3;
#X obj 433 98 change;
#X obj 428 152 s anim-pos;
#X obj 77 367 r anim-pos;
#X obj 436 129 bng 15 250 50 0 empty empty empty 17 7 0 10 -262144
-1 -1;
#X obj 253 17 metro 1500;
#X obj 251 40 f;
#X obj 280 40 + 1;
#X floatatom 232 86 5 0 0 0 - - -, f 5;
#X obj 104 22 tgl 15 0 empty empty empty 17 7 0 10 -262144 -1 -1 0
1;
#X obj 252 62 mod 5;
#X obj 78 393 random 3;
#X obj 78 431 + 1;
#X msg 283 256 1 400;
#X obj 229 230 delay 700;
#X obj 129 21 sel 1;
#X msg 389 486 text the point...;
#X msg 364 437 text are;
#X msg 344 417 text points;
#X obj 141 45 t b b;
#X msg 152 69 1;
#X obj 188 18 delay 300;
#X msg 186 71 0;
#X obj 237 522 loadbang;
#X msg 200 521 50;
#X msg 176 248 1 500;
#X obj 59 491 t a b;
#X connect 0 0 5 0;
#X connect 2 0 48 0;
#X connect 3 0 1 0;
#X connect 4 0 1 0;
#X connect 5 0 6 0;
#X connect 6 0 2 0;
#X connect 7 0 10 0;
#X connect 7 0 11 0;
#X connect 7 0 23 0;
#X connect 8 0 6 4;
#X connect 9 0 8 0;
#X connect 10 0 12 0;
#X connect 10 1 12 0;
#X connect 10 2 12 0;
#X connect 10 3 12 0;
#X connect 10 4 14 0;
#X connect 11 0 3 0;
#X connect 11 1 40 0;
#X connect 11 2 39 0;
#X connect 11 3 4 0;
#X connect 11 4 38 0;
#X connect 12 0 16 0;
#X connect 12 1 47 0;
#X connect 13 0 8 0;
#X connect 14 0 36 0;
#X connect 14 1 35 0;
#X connect 15 0 8 0;
#X connect 16 0 15 0;
#X connect 17 0 1 1;
#X connect 18 0 0 0;
#X connect 19 0 18 0;
#X connect 19 0 31 0;
#X connect 20 0 6 4;
#X connect 21 0 22 0;
#X connect 22 0 2 2;
#X connect 23 0 26 0;
#X connect 25 0 21 0;
#X connect 25 0 33 0;
#X connect 26 0 24 0;
#X connect 27 0 28 0;
#X connect 28 0 29 0;
#X connect 28 0 32 0;
#X connect 29 0 28 1;
#X connect 30 0 7 0;
#X connect 31 0 37 0;
#X connect 32 0 30 0;
#X connect 33 0 34 0;
#X connect 34 0 2 1;
#X connect 35 0 8 0;
#X connect 36 0 13 0;
#X connect 37 0 41 0;
#X connect 37 1 27 0;
#X connect 38 0 1 0;
#X connect 39 0 1 0;
#X connect 40 0 1 0;
#X connect 41 0 42 0;
#X connect 41 1 44 0;
#X connect 42 0 43 0;
#X connect 43 0 27 0;
#X connect 44 0 28 0;
#X connect 45 0 46 0;
#X connect 46 0 17 0;
#X connect 47 0 8 0;
#X connect 48 0 1 0;
#X connect 48 1 17 0;
#X restore 385 87 pd ANIMATION;
#X connect 0 0 14 0;
#X connect 1 0 61 1;
#X connect 2 0 61 2;
#X connect 3 0 61 3;
#X connect 4 0 5 0;
#X connect 4 0 32 0;
#X connect 4 0 50 0;
#X connect 4 0 91 0;
#X connect 5 0 61 0;
#X connect 6 0 4 0;
#X connect 7 0 81 0;
#X connect 8 0 86 0;
#X connect 9 0 0 1;
#X connect 10 0 0 0;
#X connect 11 0 18 0;
#X connect 12 0 11 1;
#X connect 13 0 11 0;
#X connect 14 0 11 0;
#X connect 15 0 22 0;
#X connect 16 0 15 1;
#X connect 17 0 15 0;
#X connect 18 0 15 0;
#X connect 19 0 27 0;
#X connect 20 0 19 1;
#X connect 21 0 19 0;
#X connect 22 0 19 0;
#X connect 23 0 60 0;
#X connect 23 0 56 0;
#X connect 23 0 57 0;
#X connect 23 0 58 0;
#X connect 23 0 59 0;
#X connect 25 0 24 1;
#X connect 26 0 24 0;
#X connect 27 0 24 0;
#X connect 28 0 34 0;
#X connect 29 0 85 1;
#X connect 30 0 85 2;
#X connect 31 0 85 3;
#X connect 32 0 85 0;
#X connect 33 0 36 0;
#X connect 34 0 33 0;
#X connect 35 0 38 0;
#X connect 36 0 35 0;
#X connect 37 0 40 0;
#X connect 38 0 37 0;
#X connect 40 0 39 0;
#X connect 41 0 28 1;
#X connect 42 0 33 1;
#X connect 43 0 35 1;
#X connect 44 0 37 1;
#X connect 45 0 39 1;
#X connect 46 0 88 0;
#X connect 47 0 46 0;
#X connect 49 0 48 1;
#X connect 50 0 87 0;
#X connect 51 0 87 1;
#X connect 52 0 87 2;
#X connect 53 0 88 1;
#X connect 54 0 88 2;
#X connect 55 0 46 1;
#X connect 56 0 11 0;
#X connect 57 0 15 0;
#X connect 58 0 19 0;
#X connect 59 0 24 0;
#X connect 60 0 0 0;
#X connect 61 0 0 0;
#X connect 62 0 33 0;
#X connect 63 0 35 0;
#X connect 64 0 37 0;
#X connect 65 0 39 0;
#X connect 66 0 65 0;
#X connect 67 0 64 0;
#X connect 68 0 63 0;
#X connect 69 0 62 0;
#X connect 70 0 28 0;
#X connect 71 0 70 0;
#X connect 72 0 73 0;
#X connect 73 0 48 0;
#X connect 74 0 46 0;
#X connect 75 0 28 0;
#X connect 76 0 33 0;
#X connect 77 0 35 0;
#X connect 78 0 37 0;
#X connect 79 0 39 0;
#X connect 80 0 48 0;
#X connect 81 0 4 0;
#X connect 82 0 74 0;
#X connect 83 0 84 0;
#X connect 85 0 28 0;
#X connect 87 0 46 0;
#X connect 88 0 48 0;
#X connect 89 0 90 0;
#X restore 97 188 pd JURI;
#X obj 97 166 tgl 15 0 empty empty empty 17 7 0 10 -262144 -1 -1 0
1;
#X obj 187 190 geral;
#X text 93 22 SHOW BARULHO;
#X obj 96 40 tgl 15 0 empty empty empty 17 7 0 10 -262144 -1 -1 0 1
;
#N canvas 47 107 771 588 ShowBar 0;
#X obj 181 350 hsv2rgb;
#X obj 184 246 hsl 128 15 0 1 0 0 empty empty color -2 -8 0 10 -191407
-258113 -260097 12700 1;
#X obj 181 179 expr 1 - $f1/$f2;
#X floatatom 220 297 5 0 0 1 shift_value - -, f 5;
#X obj 181 296 -;
#X obj 220 273 r shiftH;
#X obj 181 151 r dbT;
#X obj 212 49 r ctrl;
#X obj 51 160 gemhead;
#X obj 51 140 tgl 15 0 empty empty empty 17 7 0 10 -262144 -1 -1 0
1;
#X obj 164 19 inlet;
#X obj 39 25 loadbang;
#X msg 45 95 0;
#X obj 33 57 delay 500;
#X obj 290 463 r dbT;
#X obj 401 150 tgl 15 0 empty empty empty 17 7 0 10 -262144 -1 -1 0
1;
#X obj 227 112 demux . .;
#X obj 278 82 tgl 15 0 empty empty empty 17 7 0 10 -257985 -1 -1 1
1;
#X obj 279 48 inlet;
#X text 301 79 0 star \, 1 column;
#X obj 224 539 rectangle 3 0;
#X obj 428 35 loadbang;
#X msg 434 105 0;
#X obj 422 67 delay 600;
#X obj 54 234 alpha;
#X obj 398 223 alpha;
#X msg 181 322 \$1 1 1;
#X obj 289 394 color 1 1 1;
#X obj 274 150 r db_range;
#X obj 381 466 r db_range;
#X floatatom 350 531 5 0 0 0 - - -, f 5;
#X obj 401 170 gemhead;
#X obj 223 429 translateXYZ 0 -4 -0.1;
#X msg 412 498 40;
#X obj 289 502 expr ($f1/$f2)*3.5;
#X obj 378 429 expr $f1/2 - 2;
#X obj 181 203 pow 0.5;
#N canvas 1 79 526 498 star 0;
#X obj 129 124 r size;
#X obj 86 118 r dbT;
#X floatatom 133 178 5 0 0 0 - - -, f 5;
#X obj 71 84 color 1 1 1;
#X obj 105 202 pow 2;
#X obj 39 351 triangle;
#X obj 101 351 r sizestar;
#X obj 31 453 triangle;
#X obj 93 453 r sizestar;
#X floatatom 117 399 5 0 0 0 - - -, f 5;
#X floatatom 81 399 5 0 0 0 - - -, f 5;
#X obj 184 455 triangle;
#X obj 246 455 r sizestar;
#X floatatom 261 401 5 0 0 0 - - -, f 5;
#X floatatom 225 401 5 0 0 0 - - -, f 5;
#X obj 338 457 triangle;
#X obj 400 457 r sizestar;
#X floatatom 432 402 5 0 0 0 - - -, f 5;
#X floatatom 396 402 5 0 0 0 - - -, f 5;
#X obj 16 386 separator;
#X obj 49 426 rotateXYZ 0 0 -16;
#X obj 193 428 rotateXYZ 0 0 -291;
#X obj 341 429 rotateXYZ 0 0 -672;
#X obj 54 279 scaleXYZ 1 1 1;
#X floatatom 137 229 5 0 0 0 - - -, f 5;
#X obj 100 154 / 30;
#X obj 54 313 translateXYZ 0 0 -0.1;
#X obj 103 247 * 3;
#X obj 41 31 inlet;
#X obj 185 19 inlet;
#X connect 0 0 25 1;
#X connect 1 0 25 0;
#X connect 2 0 4 1;
#X connect 3 0 23 0;
#X connect 4 0 27 0;
#X connect 5 0 19 0;
#X connect 6 0 5 1;
#X connect 7 0 21 0;
#X connect 8 0 7 1;
#X connect 9 0 20 3;
#X connect 10 0 20 2;
#X connect 11 0 22 0;
#X connect 12 0 11 1;
#X connect 13 0 21 3;
#X connect 14 0 21 2;
#X connect 16 0 15 1;
#X connect 17 0 22 3;
#X connect 18 0 22 2;
#X connect 19 0 20 0;
#X connect 20 0 7 0;
#X connect 21 0 11 0;
#X connect 22 0 15 0;
#X connect 23 0 26 0;
#X connect 24 0 27 1;
#X connect 25 0 4 0;
#X connect 26 0 5 0;
#X connect 27 0 23 1;
#X connect 27 0 23 2;
#X connect 28 0 3 0;
#X connect 29 0 3 1;
#X restore 60 396 pd star;
#X obj 550 39 r ctrl;
#X obj 484 142 gemhead;
#X obj 478 197 color;
#X obj 555 165 line;
#X obj 482 170 alpha;
#X obj 563 223 expr $f1 -3;
#X obj 470 262 translateXYZ -3 -3.5 0;
#X msg 550 137 3 5000;
#X obj 555 110 sel 1 0;
#X msg 598 140 0;
#X obj 555 193 t f f;
#X obj 548 70 t f f f;
#X obj 646 212 color;
#X obj 650 167 alpha;
#X obj 633 327 text2d;
#X msg 703 183 0 1 1;
#X msg 588 296 3;
#X obj 479 296 rectangle 0 0.3;
#X msg 695 214 0;
#X obj 713 241 loadbang;
#X obj 633 270 translateXYZ 0 -3.4 0;
#X obj 652 139 gemhead 51;
#X msg 663 295 text make your noise!;
#X connect 0 0 27 1;
#X connect 0 0 37 1;
#X connect 1 0 4 0;
#X connect 2 0 36 0;
#X connect 3 0 4 1;
#X connect 4 0 26 0;
#X connect 5 0 3 0;
#X connect 6 0 2 0;
#X connect 7 0 16 0;
#X connect 8 0 24 0;
#X connect 9 0 8 0;
#X connect 10 0 16 0;
#X connect 11 0 13 0;
#X connect 12 0 9 0;
#X connect 13 0 12 0;
#X connect 14 0 34 0;
#X connect 15 0 31 0;
#X connect 16 0 9 0;
#X connect 16 1 15 0;
#X connect 17 0 16 1;
#X connect 18 0 17 0;
#X connect 21 0 23 0;
#X connect 22 0 15 0;
#X connect 23 0 22 0;
#X connect 24 0 37 0;
#X connect 25 0 27 0;
#X connect 26 0 0 0;
#X connect 27 0 32 0;
#X connect 28 0 2 1;
#X connect 29 0 34 1;
#X connect 30 0 20 2;
#X connect 31 0 25 0;
#X connect 32 0 20 0;
#X connect 33 0 34 1;
#X connect 34 0 20 2;
#X connect 34 0 35 0;
#X connect 35 0 32 2;
#X connect 36 0 1 0;
#X connect 38 0 49 0;
#X connect 39 0 42 0;
#X connect 40 0 44 0;
#X connect 41 0 48 0;
#X connect 42 0 40 0;
#X connect 43 0 44 1;
#X connect 44 0 55 0;
#X connect 45 0 41 0;
#X connect 46 0 45 0;
#X connect 46 1 47 0;
#X connect 47 0 41 0;
#X connect 48 0 55 1;
#X connect 48 1 43 0;
#X connect 49 0 59 0;
#X connect 49 1 39 0;
#X connect 49 2 46 0;
#X connect 50 0 58 0;
#X connect 51 0 50 0;
#X connect 53 0 50 1;
#X connect 54 0 48 0;
#X connect 56 0 50 1;
#X connect 57 0 60 0;
#X connect 57 0 56 0;
#X connect 58 0 52 0;
#X connect 59 0 51 0;
#X connect 60 0 52 0;
#X restore 96 61 pd ShowBar;
#X obj 150 39 tgl 15 0 colORstar colORstar-r empty 17 7 0 10 -257985
-1 -1 1 1;
#N canvas 665 123 624 644 VOTE 0;
#X obj 271 576 text2d;
#X floatatom 304 551 5 0 0 0 - - -, f 5;
#X floatatom 313 159 5 0 0 0 - - -, f 5;
#X floatatom 238 159 5 0 0 0 - - -, f 5;
#X floatatom 275 159 5 0 0 0 - - -, f 5;
#X obj 441 489 r sizeVOTE;
#X obj 271 355 r barulho_vote;
#X obj 1 389 loadbang;
#N canvas 743 413 450 300 ROUND 0;
#X obj 55 24 inlet;
#X obj 85 129 + 0.5;
#X obj 85 159 int;
#X obj 85 233 outlet;
#X obj 86 103 * 100;
#X obj 85 190 / 100;
#X connect 0 0 4 0;
#X connect 1 0 2 0;
#X connect 2 0 5 0;
#X connect 4 0 1 0;
#X connect 5 0 3 0;
#X restore 271 383 pd ROUND;
#X obj 271 406 min 10;
#X obj 271 430 max 0;
#X obj 216 124 spigot;
#X obj 249 95 tgl 15 0 empty empty empty 17 7 0 10 -262144 -1 -1 0
1;
#X msg 285 58 0;
#X msg 340 56 1;
#X obj 192 16 tgl 15 0 empty empty empty 17 7 0 10 -262144 -1 -1 0
1;
#X obj 190 -7 inlet;
#X obj 315 -50 r Mode;
#X obj 313 -8 sel 2 3;
#X obj 416 -27 r Mode;
#X obj 430 6 sel 2;
#X msg 407 50 0;
#X msg 535 66 2.03;
#X obj 479 26 b;
#X msg 482 114 40;
#X obj 184 75 alpha;
#X obj 152 237 colourRGB 1 1 1 1;
#X floatatom 337 225 5 0 0 0 - - -, f 5;
#X obj 440 183 r ctrl;
#X obj 408 291 line;
#X obj 437 215 sel 0 1;
#X msg 432 243 1 500;
#X msg 472 255 0;
#X msg 433 115 150;
#X msg 440 50 0.73;
#X obj 157 458 r zera_votos;
#X msg 158 482 text -;
#X msg 501 66 -1.8;
#X obj 215 191 translateXYZ -1.8 2.03 0;
#X obj 433 146 s sizeVOTE;
#X msg -4 413 font FONTS/MAKISUPA.TTF \, text - \, alias 1;
#X obj 271 457 t f f;
#X text 264 331 Pega a pontuação do barulho e arredonda;
#X msg 17 545 font vera.ttf \, text - \, alias 1;
#X obj 182 41 gemhead -1;
#X obj 410 517 t f b;
#X obj 357 574 bng 15 250 50 0 empty empty empty 17 7 0 10 -262144
-1 -1;
#X obj 409 547 delay 5700;
#N canvas 687 140 462 407 printaVoto 0;
#X obj 120 44 inlet;
#X msg 197 91 bang;
#X floatatom 212 178 0 0 0 0 - - -;
#X floatatom 204 201 0 0 0 0 - - -;
#X floatatom 197 224 0 0 0 0 - - -;
#X obj 197 120 time;
#X floatatom 220 155 0 0 0 0 - - -;
#X text 290 91 local;
#X obj 85 271 pack f f f f;
#X text 275 150 msec;
#X text 276 172 sec;
#X text 277 193 min;
#X text 276 215 hours;
#X obj 123 99 t b f;
#X msg 129 301 \$1:\$2:\$3: - Público: \$4;
#X obj 79 334 print VOTO;
#X connect 0 0 13 0;
#X connect 1 0 5 0;
#X connect 2 0 8 2;
#X connect 3 0 8 1;
#X connect 4 0 8 0;
#X connect 5 0 4 0;
#X connect 5 1 3 0;
#X connect 5 2 2 0;
#X connect 5 3 6 0;
#X connect 8 0 14 0;
#X connect 13 0 1 0;
#X connect 13 1 8 3;
#X connect 14 0 15 0;
#X restore 298 487 pd printaVoto;
#X connect 1 0 0 1;
#X connect 2 0 38 3;
#X connect 3 0 38 1;
#X connect 4 0 38 2;
#X connect 5 0 45 0;
#X connect 6 0 8 0;
#X connect 7 0 40 0;
#X connect 8 0 9 0;
#X connect 9 0 10 0;
#X connect 10 0 41 0;
#X connect 11 0 38 0;
#X connect 12 0 11 1;
#X connect 13 0 12 0;
#X connect 14 0 12 0;
#X connect 15 0 44 0;
#X connect 16 0 15 0;
#X connect 17 0 18 0;
#X connect 18 0 14 0;
#X connect 18 1 14 0;
#X connect 18 2 13 0;
#X connect 19 0 20 0;
#X connect 20 0 21 0;
#X connect 20 0 34 0;
#X connect 20 0 33 0;
#X connect 20 1 23 0;
#X connect 21 0 3 0;
#X connect 22 0 4 0;
#X connect 23 0 37 0;
#X connect 23 0 22 0;
#X connect 23 0 24 0;
#X connect 24 0 39 0;
#X connect 25 0 11 0;
#X connect 26 0 0 0;
#X connect 27 0 26 4;
#X connect 28 0 30 0;
#X connect 29 0 26 4;
#X connect 30 0 31 0;
#X connect 30 1 32 0;
#X connect 31 0 29 0;
#X connect 32 0 29 0;
#X connect 33 0 39 0;
#X connect 34 0 4 0;
#X connect 35 0 36 0;
#X connect 36 0 0 0;
#X connect 37 0 3 0;
#X connect 38 0 26 0;
#X connect 40 0 0 0;
#X connect 41 0 0 0;
#X connect 41 1 48 0;
#X connect 43 0 0 0;
#X connect 44 0 25 0;
#X connect 45 0 1 0;
#X connect 45 1 47 0;
#X connect 46 0 1 0;
#X connect 47 0 46 0;
#X restore 180 59 pd VOTE;
#X obj 180 39 tgl 15 0 empty empty empty 17 7 0 10 -262144 -1 -1 0
1;
#X obj 189 241 s barulho_vote;
#X floatatom 189 217 5 0 0 0 - - -, f 5;
#N canvas 551 183 614 581 video 0;
#X obj 406 274 text3d;
#X obj 230 -175 gemhead;
#X obj 228 -143 alpha;
#X obj 228 -118 ortho;
#X obj 280 90 colourRGB 1 1 1 1;
#X obj 229 -71 translateXYZ 0 0 0;
#X msg 421 170 font FONTS/MAKISUPA.TTF;
#X msg 391 1 text BARULHO!;
#X floatatom 433 232 5 0 0 0 - - -, f 5;
#X obj 230 -209 tgl 15 0 empty empty empty 17 7 0 10 -262144 -1 -1
0 1;
#X obj 298 -219 loadbang;
#X msg 319 -190 0;
#X connect 1 0 2 0;
#X connect 2 0 3 0;
#X connect 3 0 5 0;
#X connect 4 0 0 0;
#X connect 5 0 4 0;
#X connect 6 0 0 0;
#X connect 7 0 0 0;
#X connect 8 0 0 1;
#X connect 9 0 1 0;
#X connect 10 0 11 0;
#X connect 11 0 9 0;
#X restore 224 284 pd video;
#X symbolatom 492 102 20 0 0 2 Event_Name - name_text, f 20;
#X obj 494 139 hsl 120 15 0 1 0 0 name_color name_color-set Color -2
-8 0 10 -262144 -1 -1 833 1;
#X text 6 297 20 Jan 2015;
#N canvas 234 79 1050 688 conn-in 0;
#X obj 211 -11 import iemnet mrpeach;
#X obj 27 12 unpackOSC;
#X obj 65 566 line;
#X obj 123 483 s ctrl;
#X obj 94 511 s barulho_vote;
#X obj 171 437 s StopTimer;
#X obj 152 459 s GOtimer;
#X obj 152 412 sel 1 0;
#N canvas 1 81 450 300 get.info 0;
#X text 29 31 NOTE outlet #2 is for compatibility with mrpeach's net
objects. you can get all info (and more) via outlet #3 as well.;
#X obj 40 95 inlet outlet#3;
#X obj 40 119 route address;
#X floatatom 190 177 3 0 0 0 - - -, f 3;
#X floatatom 217 177 3 0 0 0 - - -, f 3;
#X floatatom 244 177 3 0 0 0 - - -, f 3;
#X floatatom 271 177 3 0 0 0 - - -, f 3;
#X text 147 176 from;
#X floatatom 299 177 5 0 0 0 - - -, f 5;
#X obj 190 151 unpack 0 0 0 0 0;
#X obj 35 213 route port;
#X floatatom 197 245 5 0 0 0 - - -, f 5;
#X text 236 244 listening port;
#X connect 1 0 2 0;
#X connect 2 0 9 0;
#X connect 2 1 10 0;
#X connect 9 0 3 0;
#X connect 9 1 4 0;
#X connect 9 2 5 0;
#X connect 9 3 6 0;
#X connect 9 4 8 0;
#X connect 10 0 11 0;
#X restore 114 12 pd get.info;
#X obj 27 -17 udpreceive 3322;
#X obj 181 391 bng 15 250 50 0 empty empty empty 17 7 0 10 -262144
-1 -1;
#X obj 92 635 outlet;
#X obj 210 374 s Mode;
#X obj 226 345 s MostraBarra;
#X obj 254 170 routeOSC /1 /2 /3 /4 /5 /calc;
#X obj 254 315 s JuriVote-1-set;
#X obj 396 194 s calc_juri;
#X obj 282 290 s JuriVote-2-set;
#X obj 311 266 s JuriVote-3-set;
#X obj 339 244 s JuriVote-4-set;
#X obj 368 219 s JuriVote-5-set;
#X obj 284 144 s zera_votos;
#X msg 65 538 \$1 400;
#X text 134 634 Input de som am DBs;
#X text 186 509 Voto do público;
#X obj 313 117 s pubYA;
#X obj 44 622 s dbT;
#X obj 92 611 - 100;
#X obj 65 589 t f f;
#X obj 342 89 s Logo-Sel;
#X obj 47 45 routeOSC /dbs /barulho_vote /ctrl /timer_ctrl /desliga
/Mode /RecoverTimer /juri /zera_votos /pubYA /LogoSel;
#X floatatom 5 146 5 0 0 0 - - -, f 5;
#X obj 5 118 spigot;
#X obj 5 93 tgl 15 0 empty empty empty 17 7 0 10 -262144 -1 -1 0 1
;
#X obj 691 -13 netreceive 3000;
#X obj 549 595 line;
#X obj 607 512 s ctrl;
#X obj 578 540 s barulho_vote;
#X obj 655 466 s StopTimer;
#X obj 636 488 s GOtimer;
#X obj 636 441 sel 1 0;
#X obj 665 420 bng 15 250 50 0 empty empty empty 17 7 0 10 -262144
-1 -1;
#X obj 576 664 outlet;
#X obj 694 403 s Mode;
#X obj 710 374 s MostraBarra;
#X obj 738 199 routeOSC /1 /2 /3 /4 /5 /calc;
#X obj 738 344 s JuriVote-1-set;
#X obj 880 223 s calc_juri;
#X obj 766 319 s JuriVote-2-set;
#X obj 795 295 s JuriVote-3-set;
#X obj 823 273 s JuriVote-4-set;
#X obj 852 248 s JuriVote-5-set;
#X obj 768 173 s zera_votos;
#X msg 549 567 \$1 400;
#X text 618 663 Input de som am DBs;
#X text 670 538 Voto do público;
#X obj 797 146 s pubYA;
#X obj 528 651 s dbT;
#X obj 576 640 - 100;
#X obj 549 618 t f f;
#X obj 802 127 s Logo-Sel;
#X floatatom 489 175 5 0 0 0 - - -, f 5;
#X obj 489 147 spigot;
#X obj 489 122 tgl 15 0 empty empty empty 17 7 0 10 -262144 -1 -1 0
1;
#X obj 676 26 print netr;
#X obj 878 164 s logoON;
#X obj 965 331 s palcoH;
#X obj 962 166 s palcoS;
#X obj 980 193 s palcoV;
#X floatatom 951 112 5 0 0 0 - - -, f 5;
#X obj 531 74 routeOSC /dbs /barulho_vote /ctrl /timer_ctrl /desliga
/Mode /RecoverTimer /juri /zera_votos /pubYA /LogoSel /logoON /palcoH
/palcoS /palcoV;
#X connect 1 0 30 0;
#X connect 2 0 28 0;
#X connect 7 0 6 0;
#X connect 7 1 5 0;
#X connect 9 0 1 0;
#X connect 9 2 8 0;
#X connect 14 0 15 0;
#X connect 14 1 17 0;
#X connect 14 2 18 0;
#X connect 14 3 19 0;
#X connect 14 4 20 0;
#X connect 14 5 16 0;
#X connect 22 0 2 0;
#X connect 27 0 11 0;
#X connect 28 0 26 0;
#X connect 28 1 27 0;
#X connect 30 0 22 0;
#X connect 30 0 32 0;
#X connect 30 1 4 0;
#X connect 30 2 3 0;
#X connect 30 3 7 0;
#X connect 30 4 10 0;
#X connect 30 5 12 0;
#X connect 30 6 13 0;
#X connect 30 7 14 0;
#X connect 30 8 21 0;
#X connect 30 9 25 0;
#X connect 30 10 29 0;
#X connect 32 0 31 0;
#X connect 33 0 32 1;
#X connect 34 0 70 0;
#X connect 35 0 59 0;
#X connect 40 0 39 0;
#X connect 40 1 38 0;
#X connect 45 0 46 0;
#X connect 45 1 48 0;
#X connect 45 2 49 0;
#X connect 45 3 50 0;
#X connect 45 4 51 0;
#X connect 45 5 47 0;
#X connect 53 0 35 0;
#X connect 58 0 42 0;
#X connect 59 0 57 0;
#X connect 59 1 58 0;
#X connect 62 0 61 0;
#X connect 63 0 62 1;
#X connect 70 0 53 0;
#X connect 70 0 62 0;
#X connect 70 1 37 0;
#X connect 70 2 36 0;
#X connect 70 3 40 0;
#X connect 70 4 41 0;
#X connect 70 5 43 0;
#X connect 70 6 44 0;
#X connect 70 7 45 0;
#X connect 70 8 52 0;
#X connect 70 9 56 0;
#X connect 70 10 60 0;
#X connect 70 11 65 0;
#X connect 70 12 66 0;
#X connect 70 12 69 0;
#X connect 70 13 67 0;
#X connect 70 14 68 0;
#X restore 17 12 pd conn-in;
#X connect 1 0 2 0;
#X connect 3 0 4 0;
#X connect 5 0 3 0;
#X connect 6 0 1 0;
#X connect 10 0 9 0;
#X connect 18 0 14 0;
#X connect 26 0 24 0;
#X connect 27 0 25 0;
#X connect 31 0 30 0;
#X connect 34 0 35 0;
#X connect 36 0 35 1;
#X connect 38 0 37 0;
#X connect 40 0 39 0;
#X connect 45 0 11 0;
#X connect 45 1 11 0;
