#N canvas 106 84 652 384 10;
#X obj 0 0 cnv 10 250 150 empty ViewPort Geral 20 12 0 14 -128992 -262144
0;
#X obj 0 160 cnv 10 250 150 empty empty empty 20 12 0 14 -45076 -262144
0;
#X obj 219 1 bng 30 250 50 0 \$0-mode1 empty geral 0 15 0 10 -262144
-1 -1;
#X obj 76 38 vsl 25 100 0 1 0 0 palcoH empty H 0 -9 0 10 -262144 -1
-1 0 0;
#X obj 105 38 vsl 25 100 0 1 0 0 palcoS empty S 0 -9 0 10 -262144 -1
-1 0 1;
#X obj 11 69 tgl 20 0 empty connect empty 17 7 0 10 -262144 -1 -1 0
1;
#X obj 10 107 tgl 30 0 logoON empty logoON 0 7 0 10 -262144 -1 -1 0
1;
#X obj 263 1 cnv 20 215 20 empty empty timer 20 12 0 14 -233017 -66577
0;
#N canvas 556 149 739 353 viewport 0;
#X obj 290 302 s ViewPort;
#X msg 290 271 pos \$1 \$2;
#X obj 290 135 t f f;
#X obj 290 179 * 260;
#X obj 328 180 * 160;
#X obj 290 201 pack f f;
#X obj 184 38 hradio 15 1 0 8 empty empty empty 0 -8 0 10 -262144 -1
-1 2;
#X obj 184 18 r \$0-numview;
#N canvas 1 83 450 300 line2 0;
#X obj 145 38 inlet time;
#X obj 54 39 inlet pair;
#X obj 54 64 unpack f f;
#X obj 54 86 pack f 1000;
#X obj 127 86 pack f 1000;
#X obj 54 110 line;
#X obj 127 109 line;
#X obj 54 131 t b f;
#X obj 54 174 f;
#X obj 54 152 del 1;
#X obj 127 129 t b f;
#X obj 54 195 pack f f;
#X obj 54 217 outlet linedpair;
#X connect 0 0 3 1;
#X connect 0 0 4 1;
#X connect 1 0 2 0;
#X connect 2 0 3 0;
#X connect 2 1 4 0;
#X connect 3 0 5 0;
#X connect 4 0 6 0;
#X connect 5 0 7 0;
#X connect 6 0 10 0;
#X connect 7 0 9 0;
#X connect 7 1 8 1;
#X connect 8 0 11 0;
#X connect 9 0 8 0;
#X connect 10 0 9 0;
#X connect 10 1 11 1;
#X connect 11 0 12 0;
#X restore 290 228 pd line2;
#X obj 290 158 mod 2;
#X obj 328 157 div 2;
#X obj 459 242 s \$0-numview;
#X obj 184 80 sel 4;
#X msg 162 156 250 150;
#N canvas 1 82 450 300 line2 0;
#X obj 145 38 inlet time;
#X obj 54 39 inlet pair;
#X obj 54 64 unpack f f;
#X obj 54 86 pack f 1000;
#X obj 127 86 pack f 1000;
#X obj 54 110 line;
#X obj 127 109 line;
#X obj 54 131 t b f;
#X obj 54 174 f;
#X obj 54 152 del 1;
#X obj 127 129 t b f;
#X obj 54 195 pack f f;
#X obj 54 217 outlet linedpair;
#X connect 0 0 3 1;
#X connect 0 0 4 1;
#X connect 1 0 2 0;
#X connect 2 0 3 0;
#X connect 2 1 4 0;
#X connect 3 0 5 0;
#X connect 4 0 6 0;
#X connect 5 0 7 0;
#X connect 6 0 10 0;
#X connect 7 0 9 0;
#X connect 7 1 8 1;
#X connect 8 0 11 0;
#X connect 9 0 8 0;
#X connect 10 0 9 0;
#X connect 10 1 11 1;
#X connect 11 0 12 0;
#X restore 162 207 pd line2;
#X msg 184 102 0;
#X msg 162 231 vis_size \$1 \$2;
#X msg 250 156 0;
#X msg 211 158 1000;
#X obj 184 59 t f f;
#X obj 211 137 sel 0 4;
#X msg 424 158 0;
#X msg 384 156 1000;
#X obj 384 135 sel 0 4;
#X obj 351 21 loadbang;
#X msg 378 60 0;
#X obj 351 41 t b b;
#X msg 336 72 0;
#X msg 109 157 550 330;
#X obj 20 29 == 4;
#X obj 20 67 t b b;
#X obj 20 168 pack f f;
#X obj 20 87 random 201;
#X obj 20 106 - 100;
#X obj 57 106 random 201;
#X obj 57 125 - 100;
#X msg 220 176 2000;
#X obj 20 48 metro 1400;
#X obj 20 125 + 550;
#X obj 57 144 + 360;
#X obj 462 31 r \$0-mode1;
#X obj 499 53 r \$0-mode2;
#X msg 460 53 0;
#X msg 496 75 1;
#X msg 544 104 2;
#X msg 583 143 3;
#X msg 600 179 4;
#X obj 535 79 r \$0-mode3;
#X obj 581 120 r \$0-mode4;
#X obj 566 239 s mode;
#X obj 605 90 r timerStop;
#X text 600 60 end of poem \; triggers barulhometro;
#X connect 1 0 0 0;
#X connect 2 0 9 0;
#X connect 2 1 10 0;
#X connect 3 0 5 0;
#X connect 4 0 5 1;
#X connect 5 0 8 0;
#X connect 6 0 19 0;
#X connect 7 0 6 0;
#X connect 8 0 1 0;
#X connect 9 0 3 0;
#X connect 10 0 4 0;
#X connect 12 0 15 0;
#X connect 12 0 28 0;
#X connect 12 1 2 0;
#X connect 12 1 13 0;
#X connect 13 0 14 0;
#X connect 14 0 16 0;
#X connect 15 0 2 0;
#X connect 16 0 0 0;
#X connect 17 0 14 1;
#X connect 18 0 14 1;
#X connect 19 0 12 0;
#X connect 19 0 29 0;
#X connect 19 1 20 0;
#X connect 19 1 23 0;
#X connect 20 0 18 0;
#X connect 20 1 36 0;
#X connect 20 2 17 0;
#X connect 21 0 8 1;
#X connect 22 0 8 1;
#X connect 23 0 22 0;
#X connect 23 1 22 0;
#X connect 23 2 21 0;
#X connect 24 0 26 0;
#X connect 25 0 8 1;
#X connect 25 0 14 1;
#X connect 26 0 13 0;
#X connect 26 0 27 0;
#X connect 26 1 25 0;
#X connect 27 0 2 0;
#X connect 28 0 14 0;
#X connect 29 0 37 0;
#X connect 30 0 32 0;
#X connect 30 1 34 0;
#X connect 31 0 14 0;
#X connect 32 0 33 0;
#X connect 33 0 38 0;
#X connect 34 0 35 0;
#X connect 35 0 39 0;
#X connect 36 0 14 1;
#X connect 37 0 30 0;
#X connect 38 0 31 0;
#X connect 39 0 31 1;
#X connect 40 0 42 0;
#X connect 41 0 43 0;
#X connect 42 0 11 0;
#X connect 42 0 49 0;
#X connect 43 0 11 0;
#X connect 43 0 49 0;
#X connect 44 0 11 0;
#X connect 44 0 49 0;
#X connect 45 0 11 0;
#X connect 45 0 49 0;
#X connect 46 0 11 0;
#X connect 47 0 44 0;
#X connect 48 0 45 0;
#X connect 50 0 44 0;
#X restore 546 34 pd viewport;
#N canvas 86 105 450 341 label 0;
#X obj 39 23 r \$0-l1-snd;
#X floatatom 39 46 5 0 0 0 - - -, f 5;
#X obj 39 97 s \$0-l1-rcv;
#X msg 39 69 label value:\$1;
#X floatatom 196 45 5 0 0 0 - - -, f 5;
#X obj 196 22 r \$0-l2-snd;
#X obj 196 116 s \$0-l2-rcv;
#X msg 196 88 label v:\$1 \, label_pos \$1 -6;
#X obj 196 66 i;
#X obj 68 184 r \$0-l3-snd;
#X obj 124 219 random 20;
#X obj 124 239 + 4;
#X obj 63 308 s \$0-l3-rcv;
#X obj 68 203 t b b;
#X obj 63 254 pack f f;
#X obj 63 230 random 3;
#X msg 64 277 label_font 1 10;
#X obj 193 250 tgl 30 0 \$0-l3-snd \$0-l3-rcv label_font 32 15 1 10
-262144 -1 -1 0 1;
#X text 97 159 crashes pddroidparty ( 2013 feb 25);
#X connect 0 0 1 0;
#X connect 1 0 3 0;
#X connect 3 0 2 0;
#X connect 4 0 8 0;
#X connect 5 0 4 0;
#X connect 7 0 6 0;
#X connect 8 0 7 0;
#X connect 9 0 13 0;
#X connect 10 0 11 0;
#X connect 11 0 14 1;
#X connect 13 0 15 0;
#X connect 13 1 10 0;
#X connect 14 0 16 0;
#X connect 15 0 14 0;
#X connect 16 0 12 0;
#X restore 545 54 pd label;
#X obj 0 161 cnv 20 215 20 empty empty barulhometro 20 12 0 14 -261682
-66577 0;
#N canvas 94 399 506 291 color 0;
#X obj 27 9 r \$0-ct1-snd;
#X obj 27 33 tgl 15 0 empty empty empty 17 7 0 10 -262144 -1 -1 0 1
;
#X obj 59 41 t f f;
#X obj 97 88 tgl 15 0 empty empty empty 17 7 0 10 -262144 -1 -1 0 1
;
#X obj 59 67 sel 0;
#X msg 59 88 0;
#X obj 97 109 sel 0 1;
#X msg 97 135 color 1 22;
#X msg 168 134 color 14 22;
#X obj 97 164 s \$0-cc1-rcv;
#X obj 27 177 sel 0 1;
#X obj 27 221 s \$0-ct1-rcv;
#X msg 27 199 color 11 22 22;
#X msg 121 200 color 13 22 22;
#X obj 97 66 metro 200;
#X obj 292 18 r \$0-c1-snd;
#N canvas 1 50 450 372 rgb 0;
#X obj 94 36 inlet;
#X obj 171 38 inlet;
#X obj 237 39 inlet;
#X text 99 11 red;
#X text 169 13 green;
#X text 241 13 blue;
#X obj 237 137 t b f;
#X obj 171 195 +;
#X obj 171 220 t b f;
#X obj 171 251 +;
#X obj 94 114 * -65536;
#X obj 171 115 * -256;
#X obj 237 115 * -1;
#X obj 171 282 - 1;
#X obj 237 88 i;
#X obj 237 64 clip 0 255;
#X obj 171 87 i;
#X obj 171 63 clip 0 255;
#X obj 94 81 i;
#X obj 94 58 clip 0 255;
#X obj 171 309 outlet;
#X connect 0 0 19 0;
#X connect 1 0 17 0;
#X connect 2 0 15 0;
#X connect 6 0 7 0;
#X connect 6 1 7 1;
#X connect 7 0 8 0;
#X connect 8 0 9 0;
#X connect 8 1 9 1;
#X connect 9 0 13 0;
#X connect 10 0 9 0;
#X connect 11 0 7 0;
#X connect 12 0 6 0;
#X connect 13 0 20 0;
#X connect 14 0 12 0;
#X connect 15 0 14 0;
#X connect 16 0 11 0;
#X connect 17 0 16 0;
#X connect 18 0 10 0;
#X connect 19 0 18 0;
#X restore 303 133 pd rgb;
#X obj 292 43 t f f f;
#X msg 303 155 color \$1 22 22;
#X obj 303 175 s \$0-c1-rcv;
#X obj 331 91 * 255;
#X obj 376 94 * 255;
#X obj 292 91 * -255;
#X obj 275 119 + 255;
#X obj 293 67 pow 2;
#X obj 330 67 pow 0.5;
#X connect 0 0 1 0;
#X connect 1 0 2 0;
#X connect 1 0 10 0;
#X connect 2 0 4 0;
#X connect 2 1 14 0;
#X connect 3 0 6 0;
#X connect 4 0 5 0;
#X connect 5 0 3 0;
#X connect 6 0 7 0;
#X connect 6 1 8 0;
#X connect 7 0 9 0;
#X connect 8 0 9 0;
#X connect 10 0 12 0;
#X connect 10 1 13 0;
#X connect 12 0 11 0;
#X connect 13 0 11 0;
#X connect 14 0 3 0;
#X connect 15 0 17 0;
#X connect 16 0 18 0;
#X connect 17 0 24 0;
#X connect 17 1 25 0;
#X connect 17 2 21 0;
#X connect 18 0 19 0;
#X connect 20 0 16 1;
#X connect 21 0 16 2;
#X connect 22 0 23 0;
#X connect 23 0 16 0;
#X connect 24 0 22 0;
#X connect 25 0 20 0;
#X restore 545 74 pd color;
#X obj 261 161 cnv 20 215 20 empty empty juri 20 12 0 14 -233017 -66577
0;
#N canvas 829 215 450 300 position 0;
#X obj 89 83 loadbang;
#X msg 251 227 0 \, 1 \, 2 \, 3 \, 4 \, 5 \, 6 \, 7 \, 8 \, 9;
#X obj 254 256 sel 0;
#X obj 68 163 move \$0 0;
#X obj 89 124 s \$0-movebang;
#X obj 73 85 tgl 15 0 empty empty empty 17 7 0 10 -262144 -1 -1 0 1
;
#X obj 89 104 metro 300;
#X obj 68 182 move \$0 1;
#X obj 68 200 move \$0 2;
#X obj 68 218 move \$0 3;
#X obj 68 237 move \$0 4;
#X obj 68 255 move \$0 5;
#X obj 131 162 move \$0 6;
#X obj 131 181 move \$0 7;
#X obj 131 199 move \$0 8;
#X obj 131 217 move \$0 9;
#X connect 0 0 6 0;
#X connect 5 0 6 0;
#X connect 6 0 4 0;
#X restore 545 94 pd position;
#X obj 1 312 cnv 15 510 30 empty empty SLAM_TIME! 200 16 0 20 -233017
-66577 0;
#N canvas 417 104 914 632 communica 0;
#X obj 33 553 netsend;
#X msg 29 38 connect 192.168.1.165 9000;
#X obj 32 588 s connect;
#X obj 29 16 r bang_con;
#X obj 711 28 netreceive 9001;
#X msg 357 153 send timerStart \$1;
#X obj 357 129 r timerStart;
#X obj 363 179 r timerStop;
#X msg 363 202 send timerStop \$1;
#X obj 371 226 r dispTimer;
#X msg 371 249 send dispTimer \$1;
#X obj 515 231 r barulhoGO;
#X msg 515 255 send barulhoGO \$1;
#X obj 140 103 r soundCheck;
#X msg 140 125 send soundCheck \$1;
#X obj 540 327 r set10;
#X msg 540 350 send set10 \$1;
#X obj 750 471 r calcula;
#X msg 751 501 send calcula \$1;
#X obj 742 525 r withBarulho;
#X msg 739 552 send withBarulho \$1;
#X obj 709 86 s soundIN-r;
#X obj 39 65 r bang_discon;
#X msg 39 87 disconnect;
#X obj 527 280 r bangSilence;
#X msg 527 302 send bangSilence \$1;
#X obj 134 574 r mode;
#X msg 133 597 send mode \$1;
#X obj 152 149 r logoON;
#X msg 152 174 send logoON \$1;
#X obj 168 198 r palcoH;
#X msg 167 222 send palcoH \$1;
#X obj 188 243 r palcoS;
#X msg 187 267 send palcoS \$1;
#X obj 211 290 r palcoV;
#X msg 210 314 send palcoV \$1;
#X obj 711 58 route soundIN;
#X obj 587 406 r juri1;
#X obj 642 406 r juri2;
#X obj 699 409 r juri3;
#X obj 749 411 r juri4;
#X obj 799 411 r juri5;
#X msg 438 439 send juri1 \$1;
#X msg 529 438 send juri2 \$1;
#X msg 620 437 send juri3 \$1;
#X msg 710 438 send juri4 \$1;
#X msg 801 436 send juri5 \$1;
#X connect 0 0 2 0;
#X connect 1 0 0 0;
#X connect 3 0 1 0;
#X connect 4 0 36 0;
#X connect 5 0 0 0;
#X connect 6 0 5 0;
#X connect 7 0 8 0;
#X connect 8 0 0 0;
#X connect 9 0 10 0;
#X connect 10 0 0 0;
#X connect 11 0 12 0;
#X connect 12 0 0 0;
#X connect 13 0 14 0;
#X connect 14 0 0 0;
#X connect 15 0 16 0;
#X connect 16 0 0 0;
#X connect 17 0 18 0;
#X connect 18 0 0 0;
#X connect 19 0 20 0;
#X connect 20 0 0 0;
#X connect 22 0 23 0;
#X connect 23 0 0 0;
#X connect 24 0 25 0;
#X connect 25 0 0 0;
#X connect 26 0 27 0;
#X connect 27 0 0 0;
#X connect 28 0 29 0;
#X connect 29 0 0 0;
#X connect 30 0 31 0;
#X connect 31 0 0 0;
#X connect 32 0 33 0;
#X connect 33 0 0 0;
#X connect 34 0 35 0;
#X connect 35 0 0 0;
#X connect 36 0 21 0;
#X connect 37 0 42 0;
#X connect 38 0 43 0;
#X connect 39 0 44 0;
#X connect 40 0 45 0;
#X connect 41 0 46 0;
#X connect 42 0 0 0;
#X connect 43 0 0 0;
#X connect 44 0 0 0;
#X connect 45 0 0 0;
#X connect 46 0 0 0;
#X restore 545 12 pd communica;
#X obj 12 32 bng 30 250 50 0 bang_con empty conn 0 7 0 10 -262144 -1
-1;
#N canvas 1 85 450 300 ideas 0;
#X text 10 156 keep the option of sending 4 to \$0-num-view: because
it gives a nice animation (maybe on the loadbang \, for a few seconds?
or when closing?;
#X text 11 12 1 geral: sliders para controlar a luminosidade \; e cor
duma bola/farol no display \; toggles para accionar formas tipo bola/farol
\; 2 timer: 3 barulhometro: 4 juri: number boxes for 5 juri \, maybe
calculate directly in the android pathc (barulhometroCTRL);
#X restore 544 137 pd ideas;
#X obj 134 38 vsl 25 100 0 1 0 0 palcoV empty V 0 -9 0 10 -262144 -1
-1 0 1;
#X obj 277 43 bng 70 250 50 0 timerStart empty Start 17 7 0 10 -4034
-1 -1;
#X obj 387 120 tgl 30 0 dispTimer empty displ 0 7 0 10 -262144 -1 -1
0 1;
#X obj 368 43 bng 70 250 50 0 timerStop empty Stop 17 7 0 10 -258113
-1 -1;
#X obj 23 207 bng 70 250 50 0 barulhoGO empty BARULHO 7 35 0 14 -257985
-258113 -258113;
#X obj 170 40 tgl 30 0 soundCheck empty snd_in 0 7 0 10 -262144 -1
-1 0 1;
#X obj 143 187 bng 50 250 50 0 set10 empty set10 8 25 0 10 -262144
-1 -1;
#X obj 269 201 bng 30 250 50 0 calcula empty calcula 17 7 0 10 -262144
-1 -1;
#X obj 269 249 tgl 30 0 withBarulho empty withBarulho 17 7 0 10 -262144
-1 -1 0 1;
#X obj 338 187 numberbox 80 22 foobar juri1 0 99999 500;
#X obj 337 214 numberbox 80 22 foobar juri2 0 99999 500;
#X obj 337 241 numberbox 80 22 foobar juri3 0 99999 500;
#X obj 335 267 numberbox 80 22 foobar juri4 0 99999 500;
#X obj 335 291 numberbox 80 22 foobar juri5 0 99999 500;
#X obj 172 88 vsl 25 50 0 1 0 0 empty soundIN-r IN 0 -9 0 10 -262144
-1 -1 0 1;
#X obj 37 69 bng 20 250 50 0 bang_discon empty disc 0 7 0 10 -262144
-1 -1;
#X obj 219 34 bng 30 250 50 0 \$0-mode2 empty timer 0 15 0 10 -262144
-1 -1;
#X obj 219 67 bng 30 250 50 0 \$0-mode3 empty BARUL 0 15 0 10 -262144
-1 -1;
#X obj 219 100 bng 30 250 50 0 \$0-mode4 empty juri 4 15 0 10 -262144
-1 -1;
#X obj 480 2 bng 30 250 50 0 \$0-mode1 empty geral 0 15 0 10 -262144
-1 -1;
#X obj 480 35 bng 30 250 50 0 \$0-mode2 empty timer 0 15 0 10 -262144
-1 -1;
#X obj 480 68 bng 30 250 50 0 \$0-mode3 empty BARUL 0 15 0 10 -262144
-1 -1;
#X obj 480 101 bng 30 250 50 0 \$0-mode4 empty juri 4 15 0 10 -262144
-1 -1;
#X obj 143 251 bng 50 250 50 0 bangSilence empty bangSIL 4 25 0 10
-262144 -1 -1;
#X obj 218 162 bng 30 250 50 0 \$0-mode1 empty geral 0 15 0 10 -262144
-1 -1;
#X obj 218 195 bng 30 250 50 0 \$0-mode2 empty timer 0 15 0 10 -262144
-1 -1;
#X obj 218 228 bng 30 250 50 0 \$0-mode3 empty BARUL 0 15 0 10 -262144
-1 -1;
#X obj 218 261 bng 30 250 50 0 \$0-mode4 empty juri 4 15 0 10 -262144
-1 -1;
#X obj 479 161 bng 30 250 50 0 \$0-mode1 empty geral 0 15 0 10 -262144
-1 -1;
#X obj 479 194 bng 30 250 50 0 \$0-mode2 empty timer 0 15 0 10 -262144
-1 -1;
#X obj 479 227 bng 30 250 50 0 \$0-mode3 empty BARUL 0 15 0 10 -262144
-1 -1;
#X obj 479 260 bng 30 250 50 0 \$0-mode4 empty juri 4 15 0 10 -262144
-1 -1;
