#N canvas 321 210 684 414 10;
#X text 485 357 Barulhometro_AndCntrl;
#X obj 516 8 tgl 80 0 Liga empty liga 17 7 0 10 -262144 -1 -1 0 1;
#X obj 516 111 tgl 15 0 empty conn connYA 17 7 0 10 -262144 -1 -1 0
1;
#N canvas 902 201 463 387 connect 1;
#X obj 14 67 sel 0 1;
#X msg 25 190 disconnect;
#X obj 259 98 r state;
#X msg 259 124 send /state \$1;
#X obj 347 166 r timer-off;
#X obj 269 160 r timer-on;
#X msg 268 194 1;
#X msg 342 205 0;
#X obj 41 324 netsend;
#X msg 53 162 connect 255.255.255.255 9000;
#X msg 277 231 send timer_ctrl \$1;
#X msg 43 133 connect 192.168.1.85 9000;
#X obj 13 12 r Liga;
#X obj 41 356 send conn;
#X connect 0 0 1 0;
#X connect 0 1 11 0;
#X connect 1 0 8 0;
#X connect 2 0 3 0;
#X connect 3 0 8 0;
#X connect 4 0 7 0;
#X connect 5 0 6 0;
#X connect 6 0 10 0;
#X connect 7 0 10 0;
#X connect 8 0 13 0;
#X connect 10 0 8 0;
#X connect 11 0 8 0;
#X connect 12 0 0 0;
#X restore 516 91 pd connect;
#X obj 137 137 bng 120 250 50 0 timer-on empty Time_ON 12 50 0 20 -262144
-1 -1;
#X obj 136 268 bng 120 250 50 0 timer-off empty Time_OFF 12 50 0 20
-262144 -1 -1;
#X text 514 374 Mick & X 2014;
